<?xml version="1.0" encoding="UTF-8" standalone="no"?>
<svg
   sodipodi:docname="Icon_Reprint_2.svg"
   inkscape:version="1.1 (c68e22c387, 2021-05-23)"
   id="svg8"
   version="1.1"
   viewBox="0 0 33.866663 33.866667"
   height="128"
   width="128"
   xmlns:inkscape="http://www.inkscape.org/namespaces/inkscape"
   xmlns:sodipodi="http://sodipodi.sourceforge.net/DTD/sodipodi-0.dtd"
   xmlns="http://www.w3.org/2000/svg"
   xmlns:svg="http://www.w3.org/2000/svg"
   xmlns:rdf="http://www.w3.org/1999/02/22-rdf-syntax-ns#"
   xmlns:cc="http://creativecommons.org/ns#"
   xmlns:dc="http://purl.org/dc/elements/1.1/">
  <defs
     id="defs2">
    <linearGradient
       id="linearGradient2783"
       inkscape:swatch="solid">
      <stop
         id="stop2781"
         offset="0"
         style="stop-color:#000000;stop-opacity:1;" />
    </linearGradient>
  </defs>
  <sodipodi:namedview
     inkscape:window-maximized="1"
     inkscape:window-y="492"
     inkscape:window-x="-11"
     inkscape:window-height="987"
     inkscape:window-width="1920"
     inkscape:guide-bbox="true"
     showguides="false"
     showgrid="false"
     inkscape:document-rotation="0"
     inkscape:current-layer="layer1"
     inkscape:document-units="mm"
     inkscape:cy="75.8372"
     inkscape:cx="47.729706"
     inkscape:zoom="2.8284272"
     inkscape:pageshadow="2"
     inkscape:pageopacity="0.0"
     borderopacity="1.0"
     bordercolor="#666666"
     pagecolor="#ffffff"
     id="base"
     units="px"
     inkscape:pagecheckerboard="false">
    <sodipodi:guide
       position="0,33.866665"
       orientation="0,128"
       id="guide1282" />
    <sodipodi:guide
       position="33.866665,33.866665"
       orientation="128,0"
       id="guide1284" />
    <sodipodi:guide
       position="33.866665,0"
       orientation="0,-128"
       id="guide1286" />
    <sodipodi:guide
       position="0,0"
       orientation="-128,0"
       id="guide1288" />
    <sodipodi:guide
       position="16.933331,45.905209"
       orientation="1,0"
       id="guide1752" />
    <sodipodi:guide
       position="20.416801,26.05339"
       orientation="1,0"
       id="guide19819" />
    <sodipodi:guide
       position="13.44986,33.866667"
       orientation="1,0"
       id="guide19925" />
  </sodipodi:namedview>
  <metadata
     id="metadata5">
    <rdf:RDF>
      <cc:Work
         rdf:about="">
        <dc:format>image/svg+xml</dc:format>
        <dc:type
           rdf:resource="http://purl.org/dc/dcmitype/StillImage" />
      </cc:Work>
    </rdf:RDF>
  </metadata>
  <g
     transform="translate(-17.1756, -15.3899)"
     id="layer1"
     inkscape:groupmode="layer"
     inkscape:label="Layer 1">
    <g
       id="path1278" />
    <g
       id="path1280" />
    <g
       id="path1282" />
    <g
       id="path1284" />
    <g
       id="g40426"
       transform="matrix(1.0016173,0,0,0.99965795,-0.05548296,0.01755568)">
      <g
         id="rect20009">
        <path
           style="color:#000000;fill:#0000d4;stroke-linecap:square;stroke-dashoffset:3.11811;-inkscape-stroke:none;paint-order:markers stroke fill"
           d="m 18.787109,29.980469 0.119141,1.140625 c 0.53231,5.105812 1.082472,7.983094 1.710937,9.765625 0.314233,0.891265 0.654406,1.522115 1.0625,1.99414 0.408095,0.472026 0.895178,0.750543 1.271485,0.90625 l 0.189453,0.07813 h 10.96875 10.96875 l 0.189453,-0.07813 c 0.376307,-0.155707 0.861437,-0.434224 1.269531,-0.90625 0.408095,-0.472025 0.748267,-1.102875 1.0625,-1.99414 0.628466,-1.782531 1.180581,-4.659813 1.712891,-9.765625 l 0.119141,-1.140625 H 34.109375 Z m 2.328125,2.066406 h 12.994141 12.994141 c -0.480879,4.175758 -0.984527,6.823248 -1.453125,8.152344 -0.258982,0.734556 -0.498349,1.124849 -0.675782,1.330078 -0.137701,0.159274 -0.251169,0.20546 -0.386718,0.269531 H 34.109375 23.628906 c -0.135382,-0.06403 -0.247169,-0.110379 -0.384765,-0.269531 -0.177433,-0.205229 -0.418753,-0.595522 -0.677735,-1.330078 -0.468596,-1.32909 -0.970295,-3.976621 -1.451172,-8.152344 z"
           id="path40155" />
        <path
           style="color:#000000;fill:#666666;stroke-width:2.06612;stroke-linecap:square;stroke-dashoffset:3.11811;-inkscape-stroke:none;paint-order:markers stroke fill"
           d="m 19.932796,31.013608 c 1.057312,10.141533 2.230323,11.329435 3.412711,11.81868 h 10.763167 10.763685 c 1.182388,-0.489245 2.3554,-1.677147 3.412712,-11.81868 H 34.108674 Z"
           id="path40157" />
      </g>
      <g
         id="rect1776"
         transform="matrix(1,0,0,0.98835538,0,0.22411861)">
        <path
           style="color:#000000;fill:#ffffff;stroke-width:1.098;stroke-linecap:square;stroke-dashoffset:3.11811;-inkscape-stroke:none"
           d="m 24.130215,15.880826 c -1.844202,-0.0043 -4.235399,1.812483 -4.814177,3.646289 -0.714765,2.26467 -1.20459,4.669231 -1.532206,7.053316 -0.17132,1.246711 0.338937,4.584298 3.940845,4.613155 l 12.384257,0.09922 12.384256,-0.09922 c 3.601908,-0.02886 4.112165,-3.366444 3.940845,-4.613155 -0.327615,-2.384085 -0.817441,-4.788646 -1.532205,-7.053316 -0.578779,-1.833806 -2.969974,-3.650589 -4.814179,-3.646289 l -9.978717,0.02377 z"
           id="path39228" />
        <path
           style="color:#000000;fill:#0000d4;stroke-linecap:square;stroke-dashoffset:3.11811;-inkscape-stroke:none"
           d="m 24.130859,15.332031 c -1.102931,-0.0026 -2.242271,0.508695 -3.214843,1.246094 -0.972573,0.737399 -1.784006,1.708982 -2.123047,2.783203 -0.726668,2.302383 -1.221849,4.736656 -1.552735,7.144531 -0.104662,0.761641 -0.01352,1.975382 0.619141,3.105469 0.632662,1.130087 1.891029,2.115074 3.861328,2.130859 l 12.388672,0.09961 12.388672,-0.09961 c 1.970299,-0.01579 3.226713,-1.000773 3.859375,-2.130859 0.632662,-1.130086 0.725756,-2.343828 0.621094,-3.105469 -0.330885,-2.407875 -0.826068,-4.842148 -1.552735,-7.144531 -0.339041,-1.074221 -1.152427,-2.045804 -2.125,-2.783203 -0.972572,-0.737399 -2.111911,-1.248665 -3.214844,-1.246094 l -9.976562,0.02344 z m -0.002,1.097656 9.980469,0.02344 9.980469,-0.02344 c 0.741271,-0.0017 1.718106,0.39507 2.546875,1.023438 0.828769,0.628368 1.50245,1.478698 1.742187,2.238281 0.70286,2.226953 1.187374,4.602601 1.511719,6.962891 0.06666,0.485069 -0.01012,1.564278 -0.490234,2.421875 -0.480113,0.857596 -1.280504,1.555286 -2.91211,1.568359 l -12.378906,0.09961 -12.380859,-0.09961 c -1.631606,-0.01307 -2.430044,-0.710762 -2.910157,-1.568359 -0.480112,-0.857597 -0.556891,-1.936806 -0.490234,-2.421875 0.324346,-2.36029 0.808858,-4.735938 1.511719,-6.962891 0.239736,-0.759583 0.911465,-1.609913 1.740234,-2.238281 0.828769,-0.628368 1.807559,-1.025166 2.548828,-1.023438 z"
           id="path39230" />
      </g>
      <g
         id="path10859"
         transform="matrix(0.26458333,0,0,0.26150236,17.1756,15.434809)">
        <path
           style="color:#000000;fill:#0000d4;stroke-linecap:square;stroke-dashoffset:3.11811;-inkscape-stroke:none;paint-order:markers stroke fill"
           d="m 45.066406,12.445313 c -7.090253,-0.0093 -11.682085,0.660564 -14.960937,3.130859 -4.370388,3.292651 -5.219506,8.766509 -4.998047,13.005859 0.06074,1.162829 0.185529,2.273862 0.628906,3.396485 0.443377,1.122623 1.306348,2.212878 2.408203,2.898437 2.20371,1.371119 4.820358,1.528595 8.841797,1.546875 l 26.738281,0.123047 26.738282,-0.123047 c 4.021439,-0.01828 6.638087,-0.175756 8.841796,-1.546875 1.101853,-0.685559 1.964823,-1.775814 2.408203,-2.898437 0.44338,-1.122623 0.56816,-2.233656 0.62891,-3.396485 0.2215,-4.240247 -0.63,-9.7135 -5.000003,-13.005859 -3.278327,-2.469899 -7.868732,-3.140182 -14.958985,-3.130859 -7.179308,0.0094 -18.610982,0.07208 -18.644531,0.07226 0,0 -11.482038,-0.0628 -18.671875,-0.07226 z m -0.0078,5.183593 c 7.166865,0.0094 18.652343,0.07227 18.652343,0.07227 l 0.01367,0.002 0.01367,-0.002 c 0,0 11.485478,-0.06283 18.652344,-0.07227 6.706203,-0.0088 10.177722,0.843002 11.830078,2.087891 2.307225,1.738264 3.11186,5.33274 2.941406,8.595703 -0.04716,0.902821 -0.167272,1.492911 -0.273437,1.761719 -0.106165,0.268807 -0.09757,0.260589 -0.322266,0.40039 -0.449387,0.279603 -2.375046,0.74857 -6.126953,0.765625 L 63.724609,31.359375 37.009766,31.240234 c -3.751908,-0.01706 -5.677567,-0.486022 -6.126954,-0.765625 -0.224693,-0.139801 -0.2161,-0.131583 -0.322265,-0.40039 -0.106165,-0.268808 -0.226276,-0.858898 -0.273438,-1.761719 -0.1705,-3.26386 0.632616,-6.857731 2.939453,-8.595703 1.651831,-1.244493 5.125829,-2.096708 11.832032,-2.087891 z"
           id="path38026" />
        <path
           style="color:#000000;fill:#808080;stroke-width:5.18551;stroke-linecap:square;stroke-dashoffset:3.11811;-inkscape-stroke:none;paint-order:markers stroke fill"
           d="m 45.0625,15.037109 c -6.898235,-0.0091 -10.93114,0.751979 -13.396484,2.609375 -3.338616,2.515314 -4.16473,7.049173 -3.96875,10.800782 0.215811,4.131303 1.527427,5.34943 9.300781,5.384765 l 26.726562,0.121094 26.726563,-0.121094 c 7.773354,-0.03534 9.08497,-1.253462 9.300781,-5.384765 0.19598,-3.751609 -0.632088,-8.285468 -3.970703,-10.800782 -2.465344,-1.857396 -6.496296,-2.618445 -13.394531,-2.609375 -7.178359,0.0094 -18.66211,0.07227 -18.66211,0.07227 0,0 -11.483751,-0.06282 -18.662109,-0.07227 z"
           id="path38028" />
      </g>
      <g
         id="path15329">
        <path
           style="color:#000000;fill:#0000d4;stroke-linecap:square;stroke-dashoffset:3.11811;-inkscape-stroke:none;paint-order:markers stroke fill"
           d="m 34.035156,19.632812 c -1.216725,10e-7 -2.224609,0.991598 -2.224609,2.207032 0,1.215433 1.007884,2.207031 2.224609,2.207031 1.216726,0 2.226563,-0.991598 2.226563,-2.207031 0,-1.215434 -1.009837,-2.207031 -2.226563,-2.207032 z m 0,1.363282 c 0.488155,0 0.863282,0.374155 0.863281,0.84375 10e-7,0.469594 -0.375126,0.84375 -0.863281,0.84375 -0.488155,0 -0.861328,-0.374156 -0.861328,-0.84375 0,-0.469595 0.373173,-0.84375 0.861328,-0.84375 z"
           id="path39651" />
        <path
           style="color:#000000;fill:#ff6600;stroke-width:1.36399;stroke-linecap:square;stroke-dashoffset:3.11811;-inkscape-stroke:none;paint-order:markers stroke fill"
           d="m 35.579544,21.840332 a 1.5434813,1.525508 0 0 1 -1.543481,1.525508 1.5434813,1.525508 0 0 1 -1.543481,-1.525508 1.5434813,1.525508 0 0 1 1.543481,-1.525508 1.5434813,1.525508 0 0 1 1.543481,1.525508 z"
           id="path39653" />
      </g>
      <g
         id="rect19025"
         transform="matrix(1,0,0,0.98835538,0,0.22411861)">
        <path
           style="color:#000000;fill:#0000d4;stroke-linecap:square;stroke-dashoffset:3.11811;-inkscape-stroke:none;paint-order:markers stroke fill"
           d="m 37.023437,19.96875 v 0.570312 3.234375 h 3.839844 l 0.08789,-0.0293 c 1.783525,-0.593888 1.708187,-3.323612 -0.04297,-3.757813 l -0.06641,-0.01758 z m 1.138672,1.140625 h 2.484375 c 0.603838,0.174942 0.699582,1.238525 -0.03516,1.523437 h -2.449219 z"
           id="path37847" />
        <path
           style="color:#000000;fill:#ffffff;stroke-width:1.13964;stroke-linecap:square;stroke-dashoffset:3.11811;-inkscape-stroke:none;paint-order:markers stroke fill"
           d="m 37.592403,20.538604 h 3.179008 c 1.192772,0.295749 1.286153,2.236303 0,2.664573 h -3.179008 z"
           id="path37849" />
      </g>
      <g
         id="path19927">
        <path
           style="color:#000000;fill:#0000d4;stroke-linecap:square;stroke-dashoffset:3.11811;-inkscape-stroke:none;paint-order:markers stroke fill"
           d="m 27.378906,19.957031 -0.06641,0.01563 c -1.742539,0.427033 -1.819533,3.137975 -0.04297,3.722656 l 0.08594,0.02734 h 3.835937 V 19.957031 H 30.625 Z m 0.191406,1.132813 h 2.488282 v 1.5 h -2.455078 c -0.74162,-0.283728 -0.64646,-1.32671 -0.0332,-1.5 z"
           id="path39659" />
        <path
           style="color:#000000;fill:#ffffff;stroke-width:1.13299;stroke-linecap:square;stroke-dashoffset:3.11811;-inkscape-stroke:none;paint-order:markers stroke fill"
           d="m 30.625461,20.523558 h -3.179008 c -1.192772,0.292305 -1.286153,2.210262 0,2.633545 h 3.179008 z"
           id="path39661" />
      </g>
      <g
         id="rect21981"
         transform="matrix(1,0,0,0.98835538,0,0.22411861)">
        <path
           style="color:#000000;fill:#1a1a1a;stroke-width:0.903;stroke-linecap:square;stroke-dashoffset:3.11811;-inkscape-stroke:none"
           d="m 24.997158,33.826931 h 18.223551 c 0.647794,0 1.169304,0.52151 1.169304,1.169304 v 0.985941 c 0,0.647795 -0.52151,1.169304 -1.169304,1.169304 H 24.997158 c -0.647794,0 -1.169304,-0.521509 -1.169304,-1.169304 v -0.985941 c 0,-0.647794 0.52151,-1.169304 1.169304,-1.169304 z"
           id="path38376" />
        <path
           style="color:#000000;fill:#0000d4;stroke-linecap:square;stroke-dashoffset:3.11811;-inkscape-stroke:none"
           d="m 24.998047,33.375 c -0.890115,0 -1.621094,0.730979 -1.621094,1.621094 v 0.986328 c 0,0.890115 0.730979,1.621094 1.621094,1.621094 h 18.222656 c 0.890115,0 1.621094,-0.730979 1.621094,-1.621094 v -0.986328 c 0,-0.890115 -0.730979,-1.621094 -1.621094,-1.621094 z m 0,0.904297 h 18.222656 c 0.405473,0 0.71875,0.311324 0.71875,0.716797 v 0.986328 c 0,0.405473 -0.313277,0.716797 -0.71875,0.716797 H 24.998047 c -0.405473,0 -0.71875,-0.311324 -0.71875,-0.716797 v -0.986328 c 0,-0.405473 0.313277,-0.716797 0.71875,-0.716797 z"
           id="path38378" />
      </g>
      <path
         id="rect26255"
         style="fill:#666666;stroke-width:0.648193;stroke-linecap:round;stroke-dashoffset:3.11811"
         d="m 28.022362,39.338818 h 4.610884 c 0.170915,1.35922 -0.176697,3.306194 0,4.557193 h -4.610884 c -0.475058,-0.915002 -0.239779,-3.078324 0,-4.557193 z"
         sodipodi:nodetypes="ccccc" />
      <g
         id="rect22143">
        <path
           style="color:#000000;fill:#ffffff;stroke-width:0.668612;stroke-linecap:square;stroke-dashoffset:3.11811;-inkscape-stroke:none"
           d="m 26.135776,35.294177 c -2.112042,6.520697 -2.176485,10.953267 0,13.627746 h 7.973157 7.973157 c 2.176485,-2.674479 2.112043,-7.107049 0,-13.627746 h -7.973157 z"
           id="path40218" />
        <path
           style="color:#000000;fill:#0000d4;stroke-linecap:square;stroke-dashoffset:3.11811;-inkscape-stroke:none"
           d="m 25.892578,34.958984 -0.07422,0.232422 c -1.062555,3.280523 -1.616756,6.047133 -1.625,8.357422 -0.0082,2.310289 0.537261,4.175363 1.683594,5.583984 l 0.09961,0.123047 h 8.132813 8.130859 l 0.101563,-0.123047 c 1.146333,-1.408621 1.691837,-3.273695 1.683594,-5.583984 -0.0082,-2.310289 -0.562445,-5.076899 -1.625,-8.357422 l -0.07422,-0.232422 h -8.216797 z m 0.498047,0.669922 h 7.71875 7.716797 c 0.996038,3.128906 1.521635,5.774494 1.529297,7.921875 0.0076,2.143794 -0.495031,3.783456 -1.46875,5.03711 h -7.777344 -7.779297 c -0.973719,-1.253654 -1.476399,-2.893316 -1.46875,-5.03711 0.0077,-2.147375 0.533265,-4.792981 1.529297,-7.921875 z"
           id="path40220" />
      </g>
      <g
         id="path23157"
         transform="matrix(1,0,0,0.98835538,0,0.22411861)">
        <path
           style="color:#000000;fill:#000080;stroke-width:1.352;stroke-linecap:round;-inkscape-stroke:none"
           d="m 30.417362,37.587034 c 7.360522,0 7.360522,0 7.360522,0"
           id="path38384" />
        <path
           style="color:#000000;fill:#000080;stroke-linecap:round;-inkscape-stroke:none"
           d="m 30.417969,36.910156 a 0.676,0.676 0 0 0 -0.675782,0.677735 0.676,0.676 0 0 0 0.675782,0.675781 h 7.359375 a 0.676,0.676 0 0 0 0.675781,-0.675781 0.676,0.676 0 0 0 -0.675781,-0.677735 z"
           id="path38386" />
      </g>
      <g
         id="g27986"
         transform="matrix(1,0,0,0.98835538,0,0.03922499)"
         style="fill:#000080;stroke:#000080;stroke-opacity:1">
        <g
           id="path23257">
          <path
             style="color:#000000;stroke:none;stroke-width:0.635;stroke-linecap:round;-inkscape-stroke:none"
             d="m 34.39981,40.497451 c 5.66198,0 5.66198,0 5.66198,0"
             id="path38392" />
          <path
             style="color:#000000;stroke:none;stroke-linecap:round;-inkscape-stroke:none"
             d="m 34.400391,40.179687 a 0.3175,0.3175 0 0 0 -0.31836,0.31836 0.3175,0.3175 0 0 0 0.31836,0.316406 H 40.0625 a 0.3175,0.3175 0 0 0 0.316406,-0.316406 0.3175,0.3175 0 0 0 -0.316406,-0.31836 z"
             id="path38394" />
        </g>
        <g
           id="path26227">
          <path
             style="color:#000000;stroke:none;stroke-width:0.635;stroke-linecap:round;-inkscape-stroke:none"
             d="m 34.39981,41.985114 c 5.66198,0 5.66198,0 5.66198,0"
             id="path38438" />
          <path
             style="color:#000000;stroke:none;stroke-linecap:round;-inkscape-stroke:none"
             d="m 34.400391,41.667969 a 0.3175,0.3175 0 0 0 -0.31836,0.316406 0.3175,0.3175 0 0 0 0.31836,0.318359 H 40.0625 A 0.3175,0.3175 0 0 0 40.378906,41.984375 0.3175,0.3175 0 0 0 40.0625,41.667969 Z"
             id="path38440" />
        </g>
        <g
           id="path27893">
          <path
             style="color:#000000;stroke:none;stroke-width:0.635;stroke-linecap:round;-inkscape-stroke:none"
             d="m 34.39981,43.472778 c 5.66198,0 5.66198,0 5.66198,0"
             id="path38446" />
          <path
             style="color:#000000;stroke:none;stroke-linecap:round;-inkscape-stroke:none"
             d="m 34.400391,43.15625 a 0.3175,0.3175 0 0 0 -0.31836,0.316406 0.3175,0.3175 0 0 0 0.31836,0.31836 H 40.0625 A 0.3175,0.3175 0 0 0 40.378906,43.472656 0.3175,0.3175 0 0 0 40.0625,43.15625 Z"
             id="path38448" />
        </g>
      </g>
      <path
         id="path896"
         style="fill:#000080;stroke-width:0.27619"
         d="m 28.626953,39.887974 v -0.549156 h 0.555624 v 0.549156 h -0.555624 m 0.555624,2.196619 v -0.549154 h 0.555625 v 0.549154 h -0.555625 m 1.666874,-2.745775 h 0.555626 v 0.549156 h -0.555626 v -0.549156 m 0.555626,0.549156 h 0.555625 v 0.549155 h -0.555625 v -0.549155 m 0,2.196619 h 0.555625 v 0.549154 h -0.555625 v -0.549154 m 0.555625,-0.549154 h -1.111251 v 1.647465 h 1.111251 v 0.549155 h -4.445 v -4.393241 h 0.555625 v 0.549156 h 0.555626 v 1.098309 h -0.555626 v 0.549156 h 0.555626 v 0.549154 h 0.555624 v 0.549154 h 0.555625 v 0.549157 h 0.555625 v -0.549157 h -0.555625 v -0.549154 h 0.555625 v -1.09831 h -1.11125 v -1.098309 h 0.555625 v -0.549156 h 0.555625 v 1.098311 h 0.555624 v 0.549154 h 1.111251 v 0.549156" />
      <path
         id="path32899"
         style="font-weight:bold;font-size:10px;line-height:1.25;font-family:BarCode;-inkscape-font-specification:'BarCode Bold';fill:#000080;stroke-width:0.114162"
         d="m 39.349416,47.525977 v -2.874075 h 0.266235 v 2.874075 z m 0.53247,0 v -2.874075 h 0.266235 v 2.874075 z m 0.53247,0 v -2.874075 h 0.266235 v 2.874075 z m -2.39611,0 v -2.874075 h 0.266235 v 2.874075 z m 0.53247,0 v -2.874075 h 0.266235 v 2.874075 z m 0.53247,0 v -2.874075 h 0.266235 v 2.874075 z m -2.39611,0 v -2.874075 h 0.266235 v 2.874075 z m 0.53247,0 v -2.874075 h 0.266235 v 2.874075 z m 0.53247,0 v -2.874075 h 0.266235 v 2.874075 z m -2.39611,0 v -2.874075 h 0.266235 v 2.874075 z m 0.53247,0 v -2.874075 h 0.266235 v 2.874075 z m 0.53247,0 v -2.874075 h 0.266235 v 2.874075 z m -2.39611,0 v -2.874075 h 0.266235 v 2.874075 z m 0.53247,0 v -2.874075 h 0.266235 v 2.874075 z m 0.53247,0 v -2.874075 h 0.266235 v 2.874075 z m -2.39611,0 v -2.874075 h 0.266235 v 2.874075 z m 0.53247,0 v -2.874075 h 0.266235 v 2.874075 z m 0.53247,0 v -2.874075 h 0.266235 v 2.874075 z m -2.39611,0 v -2.874075 h 0.266235 v 2.874075 z m 0.53247,0 v -2.874075 h 0.266235 v 2.874075 z m 0.53247,0 v -2.874075 h 0.266235 v 2.874075 z m -2.39611,0 v -2.874075 h 0.266235 v 2.874075 z m 0.53247,0 v -2.874075 h 0.266235 v 2.874075 z m 0.53247,0 v -2.874075 h 0.266235 v 2.874075 z m -2.39611,0 v -2.874075 h 0.266236 v 2.874075 z m 0.53247,0 v -2.874075 h 0.266235 v 2.874075 z m 0.53247,0 v -2.874075 h 0.266235 v 2.874075 z m -2.39611,0 v -2.874075 h 0.266235 v 2.874075 z m 0.53247,0 v -2.874075 h 0.266235 v 2.874075 z m 0.53247,0 v -2.874075 h 0.266235 v 2.874075 z" />
    </g>
  </g>
</svg>
