<?xml version="1.0" encoding="UTF-8" standalone="no"?>
<svg
   width="128"
   height="128"
   viewBox="0 0 33.866663 33.866667"
   version="1.1"
   id="svg8"
   inkscape:version="1.1 (c68e22c387, 2021-05-23)"
   sodipodi:docname="Icon_Rework_2.svg"
   xmlns:inkscape="http://www.inkscape.org/namespaces/inkscape"
   xmlns:sodipodi="http://sodipodi.sourceforge.net/DTD/sodipodi-0.dtd"
   xmlns="http://www.w3.org/2000/svg"
   xmlns:svg="http://www.w3.org/2000/svg"
   xmlns:rdf="http://www.w3.org/1999/02/22-rdf-syntax-ns#"
   xmlns:cc="http://creativecommons.org/ns#"
   xmlns:dc="http://purl.org/dc/elements/1.1/">
  <defs
     id="defs2">
    <linearGradient
       id="linearGradient2783"
       inkscape:swatch="solid">
      <stop
         style="stop-color:#000000;stop-opacity:1;"
         offset="0"
         id="stop2781" />
    </linearGradient>
  </defs>
  <sodipodi:namedview
     inkscape:pagecheckerboard="false"
     units="px"
     id="base"
     pagecolor="#ffffff"
     bordercolor="#666666"
     borderopacity="1.0"
     inkscape:pageopacity="0.0"
     inkscape:pageshadow="2"
     inkscape:zoom="1"
     inkscape:cx="-124"
     inkscape:cy="63.5"
     inkscape:document-units="mm"
     inkscape:current-layer="g2730"
     inkscape:document-rotation="0"
     showgrid="false"
     showguides="false"
     inkscape:guide-bbox="true"
     inkscape:window-width="1920"
     inkscape:window-height="987"
     inkscape:window-x="-11"
     inkscape:window-y="492"
     inkscape:window-maximized="1">
    <sodipodi:guide
       id="guide874"
       orientation="0,128"
       position="0,33.866665" />
    <sodipodi:guide
       id="guide876"
       orientation="128,0"
       position="33.93281,2.7781257" />
    <sodipodi:guide
       id="guide878"
       orientation="0,-128"
       position="33.866665,0" />
    <sodipodi:guide
       id="guide880"
       orientation="-128,0"
       position="0,18.857128" />
    <sodipodi:guide
       id="guide2234"
       orientation="1,0"
       position="16.444387,23.515528" />
    <sodipodi:guide
       id="guide2275"
       orientation="0,-1"
       position="7.0158235,35.924641" />
    <sodipodi:guide
       id="guide2282"
       orientation="1,0"
       position="7.0158232,35.924641" />
    <sodipodi:guide
       id="guide2304"
       orientation="1,0"
       position="27.221605,35.924423" />
    <sodipodi:guide
       id="guide2318"
       orientation="1,0"
       position="23.855905,35.924643" />
    <sodipodi:guide
       id="guide2339"
       orientation="1,0"
       position="22.941745,31.621603" />
    <sodipodi:guide
       id="guide2341"
       orientation="1,0"
       position="5.6126593,31.621603" />
    <sodipodi:guide
       id="guide2684"
       orientation="1,0"
       position="1.7831888,3.4033693" />
    <sodipodi:guide
       id="guide2686"
       orientation="1,0"
       position="32.084862,3.3744709" />
    <sodipodi:guide
       id="guide3020"
       orientation="0,-1"
       position="50.18653,-111.12705" />
    <sodipodi:guide
       id="guide3022"
       orientation="1,0"
       position="-97.654582,-110.31331" />
    <sodipodi:guide
       id="guide3024"
       orientation="0,-1"
       position="-84.744201,-110.45485" />
    <sodipodi:guide
       id="guide3026"
       orientation="1,0"
       position="-108.82041,-110.32256" />
    <sodipodi:guide
       id="guide3028"
       orientation="1,0"
       position="-102.60251,-139.8447" />
    <sodipodi:guide
       id="guide3030"
       orientation="1,0"
       position="38.631073,-111.10172" />
    <sodipodi:guide
       id="guide3032"
       orientation="1,0"
       position="25.976706,-111.24076" />
    <sodipodi:guide
       id="guide3034"
       orientation="1,0"
       position="27.512282,-111.1524" />
    <sodipodi:guide
       id="guide3036"
       orientation="1,0"
       position="14.541084,-111.15298" />
  </sodipodi:namedview>
  <metadata
     id="metadata5">
    <rdf:RDF>
      <cc:Work
         rdf:about="">
        <dc:format>image/svg+xml</dc:format>
        <dc:type
           rdf:resource="http://purl.org/dc/dcmitype/StillImage" />
        <dc:title />
      </cc:Work>
    </rdf:RDF>
  </metadata>
  <g
     inkscape:label="Layer 1"
     inkscape:groupmode="layer"
     id="layer1"
     transform="translate(-17.175603,-15.389948)">
    <g
       id="g28"
       fill="#000000"
       transform="matrix(0.4091643,0,0,0.4091643,27.981194,-3.5551767)"
       style="font-weight:bold;font-size:12.275px;line-height:1.25;font-family:'Sero Pro';-inkscape-font-specification:'Sero Pro Bold';stroke-width:0.324775" />
    <g
       id="g46"
       fill="#000000"
       transform="matrix(0.4091643,0,0,0.4091643,27.981194,-3.5551767)"
       style="font-weight:bold;font-size:12.275px;line-height:1.25;font-family:'Sero Pro';-inkscape-font-specification:'Sero Pro Bold';stroke-width:0.324775" />
    <g
       id="g62"
       fill="#000000"
       transform="matrix(0.4091643,0,0,0.4091643,27.981194,-3.5551767)"
       style="font-weight:bold;font-size:12.275px;line-height:1.25;font-family:'Sero Pro';-inkscape-font-specification:'Sero Pro Bold';stroke-width:0.324775" />
    <g
       id="g78"
       fill="#000000"
       transform="matrix(0.4091643,0,0,0.4091643,27.981194,-3.5551767)"
       style="font-weight:bold;font-size:12.275px;line-height:1.25;font-family:'Sero Pro';-inkscape-font-specification:'Sero Pro Bold';stroke-width:0.324775" />
    <g
       id="g96"
       fill="#000000"
       transform="matrix(0.4091643,0,0,0.4091643,27.981194,-3.5551767)"
       style="font-weight:bold;font-size:12.275px;line-height:1.25;font-family:'Sero Pro';-inkscape-font-specification:'Sero Pro Bold';stroke-width:0.324775" />
    <g
       id="g110"
       fill="#000000"
       transform="matrix(0.4091643,0,0,0.4091643,27.981194,-3.5551767)"
       style="font-weight:bold;font-size:12.275px;line-height:1.25;font-family:'Sero Pro';-inkscape-font-specification:'Sero Pro Bold';stroke-width:0.324775" />
    <g
       id="g128"
       fill="#000000"
       transform="matrix(0.4091643,0,0,0.4091643,27.981194,-3.5551767)"
       style="font-weight:bold;font-size:12.275px;line-height:1.25;font-family:'Sero Pro';-inkscape-font-specification:'Sero Pro Bold';stroke-width:0.324775" />
    <g
       id="g146"
       fill="#000000"
       transform="matrix(0.4091643,0,0,0.4091643,27.981194,-3.5551767)"
       style="font-weight:bold;font-size:12.275px;line-height:1.25;font-family:'Sero Pro';-inkscape-font-specification:'Sero Pro Bold';stroke-width:0.324775" />
    <g
       id="g164"
       fill="#000000"
       transform="matrix(0.4091643,0,0,0.4091643,27.981194,-3.5551767)"
       style="font-weight:bold;font-size:12.275px;line-height:1.25;font-family:'Sero Pro';-inkscape-font-specification:'Sero Pro Bold';stroke-width:0.324775" />
    <g
       id="g184"
       fill="#000000"
       transform="matrix(0.4091643,0,0,0.4091643,27.981194,-3.5551767)"
       style="font-weight:bold;font-size:12.275px;line-height:1.25;font-family:'Sero Pro';-inkscape-font-specification:'Sero Pro Bold';stroke-width:0.324775" />
    <g
       id="g200"
       fill="#000000"
       transform="matrix(0.4091643,0,0,0.4091643,27.981194,-3.5551767)"
       style="font-weight:bold;font-size:12.275px;line-height:1.25;font-family:'Sero Pro';-inkscape-font-specification:'Sero Pro Bold';stroke-width:0.324775" />
    <g
       id="g212"
       fill="#000000"
       transform="matrix(0.4091643,0,0,0.4091643,27.981194,-3.5551767)"
       style="font-weight:bold;font-size:12.275px;line-height:1.25;font-family:'Sero Pro';-inkscape-font-specification:'Sero Pro Bold';stroke-width:0.324775" />
    <g
       id="g232"
       fill="#000000"
       transform="matrix(0.4091643,0,0,0.4091643,27.981194,-3.5551767)"
       style="font-weight:bold;font-size:12.275px;line-height:1.25;font-family:'Sero Pro';-inkscape-font-specification:'Sero Pro Bold';stroke-width:0.324775" />
    <g
       id="g2730"
       transform="matrix(1.3961457,0,0,1.3961457,-102.14752,7.4747059)">
      <g
         id="g896">
        <rect
           style="fill:none;fill-opacity:1;stroke:none;stroke-width:0.520004;stroke-linecap:round;stroke-linejoin:round;stroke-dashoffset:3.11811;paint-order:markers stroke fill"
           id="rect16378"
           width="24.304636"
           height="24.257257"
           x="85.466095"
           y="5.6693525" />
        <path
           sodipodi:nodetypes="ssscscssssccsssscsccscscsscssssscssssccssccccccccssscssscccsssssccssscccscccssscscssssssssssssscssscscss"
           id="path1267-9-05"
           d="m 97.424241,24.029999 c -0.24576,-0.128055 -0.71655,-0.406145 -2.56884,-1.517386 -2.31157,-1.386776 -2.64264,-1.590894 -2.72565,-1.680481 -0.0241,-0.02601 -0.0345,-0.05579 -0.042,-0.120726 -0.0156,-0.133884 -0.0266,-5.297012 -0.0124,-5.875076 0.0146,-0.599549 0.008,-0.570972 0.15735,-0.662704 0.17297,-0.106118 0.72398,-0.387603 2.51967,-1.287162 1.78606,-0.894738 2.79957,-1.392995 2.83966,-1.396013 0.0357,-0.0027 0.73485,0.339782 2.695879,1.32056 2.51846,1.259567 2.75306,1.383117 2.79528,1.472089 0.0369,0.07769 0.0424,0.684839 0.0341,3.744974 l -0.008,3.035067 -0.0283,0.03022 c -0.0561,0.0599 -0.62918,0.386294 -2.18713,1.245856 -2.223889,1.22697 -3.159949,1.730414 -3.282469,1.765435 -0.02,0.0057 -0.0741,-0.01592 -0.18688,-0.07466 z m 1.29121,-1.075816 c 0.76267,-0.41586 1.672829,-0.915116 2.925659,-1.604819 l 0.94729,-0.521503 0.008,-0.08199 c 0.0106,-0.107031 0.0106,-5.623168 -1e-5,-5.791394 -0.007,-0.100212 -0.0125,-0.129575 -0.0277,-0.132459 -0.0107,-0.002 -0.24672,0.109151 -0.52446,0.247088 l -0.50498,0.250795 -0.004,0.983616 c -0.004,0.718274 -0.009,0.99901 -0.0207,1.040675 -0.009,0.03139 -0.0352,0.0836 -0.059,0.116036 -0.0238,0.03244 -0.0652,0.114057 -0.0921,0.181376 -0.0412,0.103378 -0.0611,0.134718 -0.12764,0.201669 -0.0667,0.06706 -0.0924,0.08344 -0.1665,0.106329 -0.10924,0.03374 -0.19036,0.03403 -0.32736,0.0012 -0.0589,-0.01413 -0.11211,-0.02569 -0.11817,-0.02569 -0.006,0 -0.0236,0.03778 -0.039,0.08396 -0.0673,0.202293 -0.2705,0.367129 -0.45255,0.367129 -0.0266,0 -0.0966,-0.01173 -0.155539,-0.02606 -0.0589,-0.01433 -0.16515,-0.02963 -0.23603,-0.03398 -0.13768,-0.0085 -0.15488,-0.01388 -0.22674,-0.07146 l -0.0463,-0.03709 -0.009,-0.769551 c -0.009,-0.782071 -0.0164,-1.00514 -0.0353,-1.035626 -0.008,-0.01288 -0.19937,0.07791 -0.7889,0.374226 l -0.77839,0.391234 -0.009,2.047655 c -0.009,1.877592 -0.001,4.10007 0.013,4.171478 0.007,0.03439 -0.10254,0.08982 0.85597,-0.432827 z m -1.3681,-1.587896 c 0.003,-1.088098 5e-4,-2.477993 -0.004,-3.088658 l -0.009,-1.1103 -2.36816,-1.187045 c -1.3025,-0.652875 -2.37185,-1.187045 -2.37635,-1.187045 -0.004,0 -0.008,1.297835 -0.008,2.884077 v 2.884076 l 1.75605,1.052241 c 1.55735,0.933179 2.69943,1.613912 2.90944,1.734148 0.0643,0.03678 0.072,0.03851 0.0836,0.0187 0.008,-0.01414 0.0146,-0.719065 0.0177,-2.000189 z m 2.785069,-3.606215 c 0.0463,-0.155236 0.12983,-0.25217 0.27463,-0.318464 0.11066,-0.05066 0.20017,-0.05418 0.34868,-0.01372 0.0692,0.01884 0.13073,0.03119 0.13679,0.02744 0.006,-0.0037 0.015,-0.02863 0.02,-0.05529 0.004,-0.02665 0.0353,-0.104722 0.0675,-0.17347 l 0.0586,-0.124996 -0.007,-0.719189 c -0.004,-0.395555 -0.011,-0.732239 -0.0161,-0.748188 -0.004,-0.01595 -0.0158,-0.029 -0.024,-0.029 -0.008,0 -0.24246,0.112835 -0.52056,0.250745 l -0.505649,0.250744 0.003,0.860294 0.003,0.860293 0.0322,0.009 c 0.0178,0.005 0.048,0.0095 0.0671,0.01025 0.0322,0.0012 0.0369,-0.0054 0.061,-0.08641 z m -2.006539,-1.292986 c 0.66479,-0.332468 0.96325,-0.492148 0.96332,-0.515387 2e-5,-0.0082 -2.3467,-1.192762 -3.83109,-1.933895 l -0.83457,-0.41669 -0.35116,0.17695 c -0.57923,0.291879 -1.13371,0.583548 -1.13449,0.596775 -4.9e-4,0.0068 0.0684,0.04923 0.15287,0.09422 0.26466,0.140946 4.48323,2.25678 4.50025,2.257114 0.009,1.7e-4 0.24959,-0.116414 0.53487,-0.259085 z m 2.044379,-1.02256 c 0.24646,-0.123815 0.46386,-0.237503 0.48309,-0.252639 0.0574,-0.04517 0.22018,0.04809 -1.499689,-0.859377 -2.02252,-1.067155 -2.98178,-1.562738 -3.02486,-1.562738 -0.0388,0 -1.08887,0.527835 -1.08329,0.544563 0.003,0.0079 0.11462,0.07196 0.24887,0.142418 0.38631,0.202732 4.39228,2.212126 4.41096,2.212529 0.009,1.98e-4 0.21847,-0.10094 0.464919,-0.224756 z m 1.45861,-0.728944 c 0.38351,-0.191862 0.56221,-0.288231 0.59734,-0.322129 0.0239,-0.02309 0.0235,-0.02418 -0.0193,-0.05043 -0.0668,-0.04091 -3.848339,-1.933466 -4.248129,-2.126048 -0.1929,-0.09292 -0.35889,-0.168948 -0.36887,-0.168948 -0.0412,0 -0.73821,0.335508 -0.81463,0.392117 -0.0251,0.01857 -0.0251,0.01887 5e-4,0.03808 0.0762,0.05722 0.91874,0.514049 2.04279,1.107586 1.746529,0.922213 2.456149,1.295448 2.464999,1.296495 0.005,6.39e-4 0.16076,-0.07439 0.34532,-0.16672 z"
           style="fill:#0000d4;fill-opacity:1;stroke-width:0.0128883" />
        <path
           style="fill:#000080;fill-opacity:1;stroke-width:0.0376621"
           d="m 88.022382,22.00406 c -0.930739,-1.473451 -1.633723,-2.617877 -2.604036,-4.183492 h 0.85781 0.86114 l 0.02539,-0.499024 c 0.05108,-1.004167 0.308287,-2.257756 0.64335,-3.160495 0.275342,-0.741834 0.868887,-1.859692 1.297,-2.442717 2.416386,-3.290753 6.261422,-4.8892213 10.225523,-4.2509801 0.848411,0.1365998 1.677121,0.3801081 2.473321,0.7267651 0.39966,0.1740059 1.18166,0.5739818 1.24291,0.6357226 0.0198,0.019922 -0.67126,1.2881774 -0.73856,1.3555114 -0.006,0.0056 -0.22027,-0.09938 -0.47705,-0.2332915 -1.04601,-0.5454917 -2.10201,-0.8762649 -3.197369,-1.0015129 -0.525208,-0.060054 -1.601456,-0.050351 -2.125307,0.019162 -1.379672,0.1830776 -2.62764,0.647186 -3.768948,1.4016384 -1.951308,1.289895 -3.326236,3.301957 -3.816435,5.584947 -0.09107,0.42415 -0.19432,1.27899 -0.194386,1.609395 l -3.8e-5,0.254879 h 0.918863 l 0.918863,-1e-6 c -0.840657,1.398566 -1.691728,2.79079 -2.542037,4.183493 z"
           id="path884" />
        <path
           style="fill:#ff6600;fill-opacity:1;stroke-width:0.0376621"
           d="m 96.598056,28.230171 c -1.448423,-0.163286 -2.681592,-0.542785 -3.945101,-1.214078 -0.233034,-0.123809 -0.423697,-0.241691 -0.423697,-0.26196 0,-0.02027 0.170561,-0.330643 0.379025,-0.689721 l 0.379028,-0.652869 0.21415,0.117406 c 0.117784,0.06457 0.281944,0.155156 0.3648,0.201293 0.723173,0.402685 2.078168,0.810038 3.069457,0.922771 0.463448,0.05271 1.544259,0.05323 1.977259,9.54e-4 2.312123,-0.279134 4.288563,-1.335227 5.802963,-3.100764 1.25593,-1.464202 1.98486,-3.256836 2.10485,-5.252525 l 0.0227,-0.384426 h -1.84638 l 2.51511,-4.13959 2.55884,4.143197 c -0.54832,0.006 -1.09657,8.35e-4 -1.64486,-0.0036 l -0.0209,0.271525 c -0.0115,0.129463 -0.031,0.370971 -0.0434,0.536684 -0.10991,1.468807 -0.6365,3.109855 -1.42977,4.436849 -0.45666,0.763896 -0.85732,1.281073 -1.52139,1.963842 -1.7182,1.766572 -4.02904,2.873266 -6.497843,3.111899 -0.448791,0.04338 -1.617953,0.03788 -2.014921,-0.0069 z"
           id="path2994" />
      </g>
    </g>
  </g>
</svg>
