<?xml version="1.0" encoding="UTF-8" standalone="no"?>
<svg
   width="128"
   height="128"
   viewBox="0 0 33.866663 33.866667"
   version="1.1"
   id="svg8"
   inkscape:version="1.1 (c68e22c387, 2021-05-23)"
   sodipodi:docname="Icon_Return_External_2.svg"
   xmlns:inkscape="http://www.inkscape.org/namespaces/inkscape"
   xmlns:sodipodi="http://sodipodi.sourceforge.net/DTD/sodipodi-0.dtd"
   xmlns="http://www.w3.org/2000/svg"
   xmlns:svg="http://www.w3.org/2000/svg"
   xmlns:rdf="http://www.w3.org/1999/02/22-rdf-syntax-ns#"
   xmlns:cc="http://creativecommons.org/ns#"
   xmlns:dc="http://purl.org/dc/elements/1.1/">
  <defs
     id="defs2">
    <linearGradient
       id="linearGradient2783"
       inkscape:swatch="solid">
      <stop
         style="stop-color:#000000;stop-opacity:1;"
         offset="0"
         id="stop2781" />
    </linearGradient>
  </defs>
  <sodipodi:namedview
     inkscape:pagecheckerboard="false"
     units="px"
     id="base"
     pagecolor="#ffffff"
     bordercolor="#666666"
     borderopacity="1.0"
     inkscape:pageopacity="0.0"
     inkscape:pageshadow="2"
     inkscape:zoom="1"
     inkscape:cx="-228"
     inkscape:cy="156.5"
     inkscape:document-units="mm"
     inkscape:current-layer="layer1"
     inkscape:document-rotation="0"
     showgrid="false"
     showguides="false"
     inkscape:guide-bbox="true"
     inkscape:window-width="1920"
     inkscape:window-height="987"
     inkscape:window-x="-11"
     inkscape:window-y="492"
     inkscape:window-maximized="1">
    <sodipodi:guide
       position="0,33.866665"
       orientation="0,128"
       id="guide2948" />
    <sodipodi:guide
       position="33.866665,33.866665"
       orientation="128,0"
       id="guide2950" />
    <sodipodi:guide
       position="33.866665,0"
       orientation="0,-128"
       id="guide2952" />
    <sodipodi:guide
       position="0,0"
       orientation="-128,0"
       id="guide2954" />
  </sodipodi:namedview>
  <metadata
     id="metadata5">
    <rdf:RDF>
      <cc:Work
         rdf:about="">
        <dc:format>image/svg+xml</dc:format>
        <dc:type
           rdf:resource="http://purl.org/dc/dcmitype/StillImage" />
      </cc:Work>
    </rdf:RDF>
  </metadata>
  <g
     inkscape:label="Layer 1"
     inkscape:groupmode="layer"
     id="layer1"
     transform="translate(-17.175603,-15.389948)">
    <g
       id="g28"
       fill="#000000"
       transform="matrix(0.4091643,0,0,0.4091643,27.981194,-3.5551767)"
       style="font-weight:bold;font-size:12.275px;line-height:1.25;font-family:'Sero Pro';-inkscape-font-specification:'Sero Pro Bold';stroke-width:0.324775" />
    <g
       id="g46"
       fill="#000000"
       transform="matrix(0.4091643,0,0,0.4091643,27.981194,-3.5551767)"
       style="font-weight:bold;font-size:12.275px;line-height:1.25;font-family:'Sero Pro';-inkscape-font-specification:'Sero Pro Bold';stroke-width:0.324775" />
    <g
       id="g62"
       fill="#000000"
       transform="matrix(0.4091643,0,0,0.4091643,27.981194,-3.5551767)"
       style="font-weight:bold;font-size:12.275px;line-height:1.25;font-family:'Sero Pro';-inkscape-font-specification:'Sero Pro Bold';stroke-width:0.324775" />
    <g
       id="g78"
       fill="#000000"
       transform="matrix(0.4091643,0,0,0.4091643,27.981194,-3.5551767)"
       style="font-weight:bold;font-size:12.275px;line-height:1.25;font-family:'Sero Pro';-inkscape-font-specification:'Sero Pro Bold';stroke-width:0.324775" />
    <g
       id="g96"
       fill="#000000"
       transform="matrix(0.4091643,0,0,0.4091643,27.981194,-3.5551767)"
       style="font-weight:bold;font-size:12.275px;line-height:1.25;font-family:'Sero Pro';-inkscape-font-specification:'Sero Pro Bold';stroke-width:0.324775" />
    <g
       id="g110"
       fill="#000000"
       transform="matrix(0.4091643,0,0,0.4091643,27.981194,-3.5551767)"
       style="font-weight:bold;font-size:12.275px;line-height:1.25;font-family:'Sero Pro';-inkscape-font-specification:'Sero Pro Bold';stroke-width:0.324775" />
    <g
       id="g128"
       fill="#000000"
       transform="matrix(0.4091643,0,0,0.4091643,27.981194,-3.5551767)"
       style="font-weight:bold;font-size:12.275px;line-height:1.25;font-family:'Sero Pro';-inkscape-font-specification:'Sero Pro Bold';stroke-width:0.324775" />
    <g
       id="g146"
       fill="#000000"
       transform="matrix(0.4091643,0,0,0.4091643,27.981194,-3.5551767)"
       style="font-weight:bold;font-size:12.275px;line-height:1.25;font-family:'Sero Pro';-inkscape-font-specification:'Sero Pro Bold';stroke-width:0.324775" />
    <g
       id="g164"
       fill="#000000"
       transform="matrix(0.4091643,0,0,0.4091643,27.981194,-3.5551767)"
       style="font-weight:bold;font-size:12.275px;line-height:1.25;font-family:'Sero Pro';-inkscape-font-specification:'Sero Pro Bold';stroke-width:0.324775" />
    <g
       id="g184"
       fill="#000000"
       transform="matrix(0.4091643,0,0,0.4091643,27.981194,-3.5551767)"
       style="font-weight:bold;font-size:12.275px;line-height:1.25;font-family:'Sero Pro';-inkscape-font-specification:'Sero Pro Bold';stroke-width:0.324775" />
    <g
       id="g200"
       fill="#000000"
       transform="matrix(0.4091643,0,0,0.4091643,27.981194,-3.5551767)"
       style="font-weight:bold;font-size:12.275px;line-height:1.25;font-family:'Sero Pro';-inkscape-font-specification:'Sero Pro Bold';stroke-width:0.324775" />
    <g
       id="g212"
       fill="#000000"
       transform="matrix(0.4091643,0,0,0.4091643,27.981194,-3.5551767)"
       style="font-weight:bold;font-size:12.275px;line-height:1.25;font-family:'Sero Pro';-inkscape-font-specification:'Sero Pro Bold';stroke-width:0.324775" />
    <g
       id="g232"
       fill="#000000"
       transform="matrix(0.4091643,0,0,0.4091643,27.981194,-3.5551767)"
       style="font-weight:bold;font-size:12.275px;line-height:1.25;font-family:'Sero Pro';-inkscape-font-specification:'Sero Pro Bold';stroke-width:0.324775" />
    <g
       id="rect6530"
       transform="matrix(1.3961457,0,0,1.3961457,-166.30898,7.4747059)" />
    <g
       id="g51497"
       transform="matrix(0.57812507,0,0,0.59860885,23.973488,19.771169)"
       style="fill:#000080;fill-opacity:1" />
    <g
       id="g5872">
      <path
         id="path7337"
         style="fill:#000080;fill-opacity:1;stroke-width:0.154763;stroke-linecap:round;stroke-linejoin:round;stroke-dashoffset:3.11811;paint-order:markers stroke fill"
         d="M 82.070312 70.162109 C 80.829059 70.162109 79.828125 71.161098 79.828125 72.402344 L 79.828125 111.18164 L 77.054688 111.18164 C 77.060357 111.12431 77.070312 111.06689 77.070312 111.00781 L 77.070312 78.435547 C 77.070312 77.576222 76.378871 76.884766 75.519531 76.884766 L 57.251953 76.884766 C 57.099789 76.884766 56.951273 76.906711 56.8125 76.947266 C 56.594157 76.255332 50.78916 82.234548 43.505859 96.830078 C 42.930895 97.971601 43.064359 108.40346 43.667969 111.18164 L 42.429688 111.18164 C 41.570367 111.18164 40.878906 111.87309 40.878906 112.73242 L 40.878906 117.55859 C 40.878906 118.41792 41.570367 119.10938 42.429688 119.10938 L 54.025391 119.10938 A 11.028475 11.028475 0 0 1 65.009766 108.42578 A 11.028475 11.028475 0 0 1 76.021484 119.10938 L 102.98242 119.10938 A 11.028475 11.028475 0 0 1 114 108.42578 A 11.028475 11.028475 0 0 1 125.02148 119.10938 L 126.87891 119.10938 C 127.73823 119.10938 128.43164 118.41792 128.43164 117.55859 L 128.43164 112.73242 C 128.43164 112.12155 128.07919 111.59697 127.56836 111.34375 L 127.56836 72.402344 C 127.56836 71.161098 126.56939 70.162109 125.32812 70.162109 L 106.7832 70.162109 C 107.3212 72.551833 107.67209 75.078779 107.86328 77.765625 C 108.42666 85.683021 105.70879 91.213212 102.8125 95.53125 C 102.12592 87.114086 102.25315 77.863738 94.679688 70.162109 L 82.070312 70.162109 z M 58.152344 80.146484 C 58.356174 80.146481 58.333355 80.146481 58.271484 80.146484 L 72.753906 80.146484 C 73.427017 80.146484 73.968769 80.711857 73.96875 81.414062 L 73.96875 96.830078 C 66.515522 96.830078 52.23287 96.830071 48.505859 96.830078 C 47.86947 96.830078 47.18894 96.862182 47.701172 95.742188 C 51.553391 88.598053 57.030754 80.146484 58.152344 80.146484 z "
         transform="matrix(0.26458333,0,0,0.26458333,17.175603,15.389948)" />
      <path
         id="path7339"
         style="fill:#000080;fill-opacity:1;stroke:none;stroke-width:0.0394718;stroke-linecap:round;stroke-linejoin:round;stroke-miterlimit:4;stroke-dasharray:none;stroke-dashoffset:3.11811;stroke-opacity:1;paint-order:markers stroke fill"
         d="m 34.375997,44.556378 a 2.4391468,2.4391468 0 0 0 -2.439233,2.439233 2.4391468,2.4391468 0 0 0 2.439233,2.439232 2.4391468,2.4391468 0 0 0 2.43898,-2.439232 2.4391468,2.4391468 0 0 0 -2.43898,-2.439233 z m 0,0.934834 a 1.5043396,1.5043396 0 0 1 1.504147,1.504399 1.5043396,1.5043396 0 0 1 -1.504147,1.504399 1.5043396,1.5043396 0 0 1 -1.504401,-1.504399 1.5043396,1.5043396 0 0 1 1.504401,-1.504399 z" />
      <path
         id="path7341"
         style="fill:#000080;fill-opacity:1;stroke:none;stroke-width:0.0394718;stroke-linecap:round;stroke-linejoin:round;stroke-miterlimit:4;stroke-dasharray:none;stroke-dashoffset:3.11811;stroke-opacity:1;paint-order:markers stroke fill"
         d="m 47.338212,44.556378 a 2.4391468,2.4391468 0 0 0 -2.439233,2.439233 2.4391468,2.4391468 0 0 0 2.439233,2.439232 2.4391468,2.4391468 0 0 0 2.43898,-2.439232 2.4391468,2.4391468 0 0 0 -2.43898,-2.439233 z m 0,0.934834 a 1.5043396,1.5043396 0 0 1 1.504147,1.504399 1.5043396,1.5043396 0 0 1 -1.504147,1.504399 1.5043396,1.5043396 0 0 1 -1.504401,-1.504399 1.5043396,1.5043396 0 0 1 1.504401,-1.504399 z" />
      <g
         id="g5854"
         transform="translate(0,0.17814263)">
        <g
           id="g10964"
           transform="matrix(0.68277499,0,0,0.68277499,3.4562395,-1.2894022)"
           style="fill:#0000d4;fill-opacity:1">
          <g
             id="g10952"
             transform="translate(1.5651461)"
             style="fill:#0000d4;fill-opacity:1">
            <path
               id="path10946"
               style="fill:#0000d4;fill-opacity:1;stroke-width:0.730085;stroke-linecap:round;stroke-linejoin:round;stroke-dashoffset:3.11811;paint-order:markers stroke fill"
               d="m 27.825382,45.653873 h 3.739532 V 48.7274 h -3.739532 z" />
            <path
               id="path10948"
               style="fill:#0000d4;fill-opacity:1;stroke-width:0.730085;stroke-linecap:round;stroke-linejoin:round;stroke-dashoffset:3.11811;paint-order:markers stroke fill"
               d="m 32.049492,45.653873 h 3.739532 V 48.7274 h -3.739532 z" />
            <path
               id="path10950"
               style="fill:#0000d4;fill-opacity:1;stroke-width:0.730085;stroke-linecap:round;stroke-linejoin:round;stroke-dashoffset:3.11811;paint-order:markers stroke fill"
               d="m 36.273602,45.653873 h 3.739532 V 48.7274 h -3.739532 z" />
          </g>
          <g
             id="g10958"
             transform="translate(1.5651461)"
             style="fill:#0000d4;fill-opacity:1">
            <path
               id="path10954"
               style="fill:#0000d4;fill-opacity:1;stroke-width:0.730085;stroke-linecap:round;stroke-linejoin:round;stroke-dashoffset:3.11811;paint-order:markers stroke fill"
               d="m 27.825382,42.051178 h 3.739532 v 3.073527 h -3.739532 z" />
            <path
               id="path10956"
               style="fill:#0000d4;fill-opacity:1;stroke-width:0.730085;stroke-linecap:round;stroke-linejoin:round;stroke-dashoffset:3.11811;paint-order:markers stroke fill"
               d="m 32.049492,42.051178 h 3.739532 v 3.073527 h -3.739532 z" />
          </g>
          <g
             id="g10962"
             transform="translate(1.5651461)"
             style="fill:#0000d4;fill-opacity:1">
            <path
               id="path10960"
               style="fill:#0000d4;fill-opacity:1;stroke-width:0.730085;stroke-linecap:round;stroke-linejoin:round;stroke-dashoffset:3.11811;paint-order:markers stroke fill"
               d="m 27.825382,38.448483 h 3.739532 v 3.073526 h -3.739532 z" />
          </g>
        </g>
        <path
           id="path1295"
           style="color:#000000;fill:#0000d4;fill-opacity:1;stroke-width:0.682776;stroke-linecap:round;stroke-linejoin:round;stroke-dashoffset:3.11811;-inkscape-stroke:none;paint-order:markers stroke fill"
           d="m 27.629422,15.21182 a 0.85346867,0.85346867 0 0 0 -0.01602,0.0026 0.85346867,0.85346867 0 0 0 -0.04134,0.0057 0.85346867,0.85346867 0 0 0 -0.08992,0.0155 0.85346867,0.85346867 0 0 0 -0.04703,0.01447 0.85346867,0.85346867 0 0 0 -0.06666,0.02119 0.85346867,0.85346867 0 0 0 -0.0124,0.0062 0.85346867,0.85346867 0 0 0 -0.0088,0.0026 l -9.76943,4.203361 a 0.85346867,0.85346867 0 0 0 -0.446485,1.121895 0.85346867,0.85346867 0 0 0 1.121379,0.446485 l 0.726054,-0.312126 v 11.154874 a 0.44384809,0.44384809 0 0 0 0.4439,0.443901 h 3.332613 v -0.478524 -0.409277 -7.980391 h 9.85728 v 1.688785 l 0.888317,-0.190169 v -1.498616 h 0.365353 a 0.35803181,0.35803181 0 0 0 0.357601,-0.358118 v -0.627352 a 0.35803181,0.35803181 0 0 0 -0.357601,-0.357084 h -12.36307 a 0.35803181,0.35803181 0 0 0 -0.358634,0.357084 v 0.627352 a 0.35803181,0.35803181 0 0 0 0.358634,0.358118 h 0.365353 v 7.980391 h -2.001945 v -11.09338 l 7.818127,-3.363619 7.816577,3.363619 v 4.183207 l 0.250631,-0.05374 0.637687,-0.136426 v -3.611149 l 0.726054,0.312643 a 0.85346867,0.85346867 0 0 0 1.121378,-0.446485 0.85346867,0.85346867 0 0 0 -0.446484,-1.121895 l -9.768396,-4.203361 a 0.85346867,0.85346867 0 0 0 -0.01292,-0.0041 0.85346867,0.85346867 0 0 0 -0.0098,-0.0047 0.85346867,0.85346867 0 0 0 -0.04909,-0.0155 0.85346867,0.85346867 0 0 0 -0.06718,-0.02067 0.85346867,0.85346867 0 0 0 -0.06304,-0.01085 0.85346867,0.85346867 0 0 0 -0.06976,-0.01033 0.85346867,0.85346867 0 0 0 -0.05478,-5.17e-4 0.85346867,0.85346867 0 0 0 -0.06615,-0.0015 z m 4.983159,13.657564 v 2.581238 0.4439 0.443901 h 2.278414 l -0.582911,-0.887801 h -0.807186 v -1.228866 z" />
      </g>
      <path
         inkscape:transform-center-y="1.6029926"
         d="m 39.601197,24.461125 -1.138503,2.774344 c 6.868295,3.682799 7.315549,8.285727 6.089321,12.000943 0.268708,-2.54968 -0.09901,-7.121079 -7.278436,-9.103273 l -1.110634,2.706416 -2.200197,-3.350243 -2.200199,-3.350236 3.919324,-0.83898 z"
         inkscape:transform-center-x="1.0001303"
         style="opacity:0.998;fill:#ff6600;fill-opacity:1;stroke-width:0;stroke-linejoin:round;stroke-dashoffset:3.11811"
         id="path2106-7" />
    </g>
  </g>
</svg>
