<?xml version="1.0" encoding="UTF-8" standalone="no"?>
<svg
   width="128"
   height="128"
   viewBox="0 0 33.866663 33.866667"
   version="1.1"
   id="svg8"
   inkscape:version="1.1 (c68e22c387, 2021-05-23)"
   sodipodi:docname="Icon_Picking_List_2.svg"
   xmlns:inkscape="http://www.inkscape.org/namespaces/inkscape"
   xmlns:sodipodi="http://sodipodi.sourceforge.net/DTD/sodipodi-0.dtd"
   xmlns="http://www.w3.org/2000/svg"
   xmlns:svg="http://www.w3.org/2000/svg"
   xmlns:rdf="http://www.w3.org/1999/02/22-rdf-syntax-ns#"
   xmlns:cc="http://creativecommons.org/ns#"
   xmlns:dc="http://purl.org/dc/elements/1.1/">
  <defs
     id="defs2">
    <linearGradient
       id="linearGradient2783"
       inkscape:swatch="solid">
      <stop
         style="stop-color:#000000;stop-opacity:1;"
         offset="0"
         id="stop2781" />
    </linearGradient>
  </defs>
  <sodipodi:namedview
     inkscape:pagecheckerboard="false"
     units="px"
     id="base"
     pagecolor="#ffffff"
     bordercolor="#666666"
     borderopacity="1.0"
     inkscape:pageopacity="0.0"
     inkscape:pageshadow="2"
     inkscape:zoom="2"
     inkscape:cx="-27.5"
     inkscape:cy="114.25"
     inkscape:document-units="mm"
     inkscape:current-layer="g2730"
     inkscape:document-rotation="0"
     showgrid="false"
     showguides="true"
     inkscape:guide-bbox="true"
     inkscape:window-width="1920"
     inkscape:window-height="987"
     inkscape:window-x="-11"
     inkscape:window-y="492"
     inkscape:window-maximized="1">
    <sodipodi:guide
       position="0,33.866665"
       orientation="0,128"
       id="guide45582" />
    <sodipodi:guide
       position="33.866665,33.866665"
       orientation="128,0"
       id="guide45584" />
    <sodipodi:guide
       position="33.866665,0"
       orientation="0,-128"
       id="guide45586" />
    <sodipodi:guide
       position="0,0"
       orientation="-128,0"
       id="guide45588" />
  </sodipodi:namedview>
  <metadata
     id="metadata5">
    <rdf:RDF>
      <cc:Work
         rdf:about="">
        <dc:format>image/svg+xml</dc:format>
        <dc:type
           rdf:resource="http://purl.org/dc/dcmitype/StillImage" />
      </cc:Work>
    </rdf:RDF>
  </metadata>
  <g
     inkscape:label="Layer 1"
     inkscape:groupmode="layer"
     id="layer1"
     transform="translate(-17.175603,-15.389948)">
    <g
       id="g28"
       fill="#000000"
       transform="matrix(0.4091643,0,0,0.4091643,27.981194,-3.5551767)"
       style="font-weight:bold;font-size:12.275px;line-height:1.25;font-family:'Sero Pro';-inkscape-font-specification:'Sero Pro Bold';stroke-width:0.324775" />
    <g
       id="g46"
       fill="#000000"
       transform="matrix(0.4091643,0,0,0.4091643,27.981194,-3.5551767)"
       style="font-weight:bold;font-size:12.275px;line-height:1.25;font-family:'Sero Pro';-inkscape-font-specification:'Sero Pro Bold';stroke-width:0.324775" />
    <g
       id="g62"
       fill="#000000"
       transform="matrix(0.4091643,0,0,0.4091643,27.981194,-3.5551767)"
       style="font-weight:bold;font-size:12.275px;line-height:1.25;font-family:'Sero Pro';-inkscape-font-specification:'Sero Pro Bold';stroke-width:0.324775" />
    <g
       id="g78"
       fill="#000000"
       transform="matrix(0.4091643,0,0,0.4091643,27.981194,-3.5551767)"
       style="font-weight:bold;font-size:12.275px;line-height:1.25;font-family:'Sero Pro';-inkscape-font-specification:'Sero Pro Bold';stroke-width:0.324775" />
    <g
       id="g96"
       fill="#000000"
       transform="matrix(0.4091643,0,0,0.4091643,27.981194,-3.5551767)"
       style="font-weight:bold;font-size:12.275px;line-height:1.25;font-family:'Sero Pro';-inkscape-font-specification:'Sero Pro Bold';stroke-width:0.324775" />
    <g
       id="g110"
       fill="#000000"
       transform="matrix(0.4091643,0,0,0.4091643,27.981194,-3.5551767)"
       style="font-weight:bold;font-size:12.275px;line-height:1.25;font-family:'Sero Pro';-inkscape-font-specification:'Sero Pro Bold';stroke-width:0.324775" />
    <g
       id="g128"
       fill="#000000"
       transform="matrix(0.4091643,0,0,0.4091643,27.981194,-3.5551767)"
       style="font-weight:bold;font-size:12.275px;line-height:1.25;font-family:'Sero Pro';-inkscape-font-specification:'Sero Pro Bold';stroke-width:0.324775" />
    <g
       id="g146"
       fill="#000000"
       transform="matrix(0.4091643,0,0,0.4091643,27.981194,-3.5551767)"
       style="font-weight:bold;font-size:12.275px;line-height:1.25;font-family:'Sero Pro';-inkscape-font-specification:'Sero Pro Bold';stroke-width:0.324775" />
    <g
       id="g164"
       fill="#000000"
       transform="matrix(0.4091643,0,0,0.4091643,27.981194,-3.5551767)"
       style="font-weight:bold;font-size:12.275px;line-height:1.25;font-family:'Sero Pro';-inkscape-font-specification:'Sero Pro Bold';stroke-width:0.324775" />
    <g
       id="g184"
       fill="#000000"
       transform="matrix(0.4091643,0,0,0.4091643,27.981194,-3.5551767)"
       style="font-weight:bold;font-size:12.275px;line-height:1.25;font-family:'Sero Pro';-inkscape-font-specification:'Sero Pro Bold';stroke-width:0.324775" />
    <g
       id="g200"
       fill="#000000"
       transform="matrix(0.4091643,0,0,0.4091643,27.981194,-3.5551767)"
       style="font-weight:bold;font-size:12.275px;line-height:1.25;font-family:'Sero Pro';-inkscape-font-specification:'Sero Pro Bold';stroke-width:0.324775" />
    <g
       id="g212"
       fill="#000000"
       transform="matrix(0.4091643,0,0,0.4091643,27.981194,-3.5551767)"
       style="font-weight:bold;font-size:12.275px;line-height:1.25;font-family:'Sero Pro';-inkscape-font-specification:'Sero Pro Bold';stroke-width:0.324775" />
    <g
       id="g232"
       fill="#000000"
       transform="matrix(0.4091643,0,0,0.4091643,27.981194,-3.5551767)"
       style="font-weight:bold;font-size:12.275px;line-height:1.25;font-family:'Sero Pro';-inkscape-font-specification:'Sero Pro Bold';stroke-width:0.324775" />
    <g
       id="g2730"
       transform="matrix(1.3961457,0,0,1.3961457,-102.14752,7.4747059)">
      <g
         id="g45768">
        <rect
           style="opacity:1;fill:none;fill-opacity:1;stroke:none;stroke-width:0.476312;stroke-linecap:round;stroke-linejoin:round;stroke-miterlimit:4;stroke-dasharray:none;stroke-dashoffset:3.11811;stroke-opacity:1;paint-order:markers stroke fill"
           id="rect45652"
           width="24.257257"
           height="24.257257"
           x="85.466095"
           y="5.6693525"
           rx="0.40250751"
           ry="0.40250751" />
        <rect
           style="fill:#000080;fill-opacity:1;stroke:none;stroke-width:0.0242256;stroke-linecap:round;stroke-linejoin:round;stroke-miterlimit:4;stroke-dasharray:none;stroke-dashoffset:3.11811;stroke-opacity:1;paint-order:markers stroke fill"
           id="rect35453-4"
           width="1.4568232"
           height="0.94621956"
           x="-89.414551"
           y="10.990343"
           rx="0.24768747"
           ry="0.24768747"
           transform="scale(-1,1)" />
        <rect
           style="fill:#000080;fill-opacity:1;stroke:none;stroke-width:0.0242256;stroke-linecap:round;stroke-linejoin:round;stroke-miterlimit:4;stroke-dasharray:none;stroke-dashoffset:3.11811;stroke-opacity:1;paint-order:markers stroke fill"
           id="rect35453"
           width="1.4568232"
           height="0.94621956"
           x="-89.414551"
           y="9.7375927"
           rx="0.24768747"
           ry="0.24768747"
           transform="scale(-1,1)" />
        <g
           id="g43081">
          <rect
             style="fill:#000080;fill-opacity:1;stroke:none;stroke-width:0.0242256;stroke-linecap:round;stroke-linejoin:round;stroke-miterlimit:4;stroke-dasharray:none;stroke-dashoffset:3.11811;stroke-opacity:1;paint-order:markers stroke fill"
             id="rect35591"
             width="1.4568232"
             height="0.94621956"
             x="-89.414551"
             y="10.990343"
             rx="0.24768747"
             ry="0.24768747"
             transform="scale(-1,1)" />
          <rect
             style="fill:#000080;fill-opacity:1;stroke:none;stroke-width:0.0242256;stroke-linecap:round;stroke-linejoin:round;stroke-miterlimit:4;stroke-dasharray:none;stroke-dashoffset:3.11811;stroke-opacity:1;paint-order:markers stroke fill"
             id="rect35593"
             width="1.4568232"
             height="0.94621956"
             x="-89.414551"
             y="9.7398424"
             rx="0.24768747"
             ry="0.24768747"
             transform="scale(-1,1)" />
          <rect
             style="fill:#000080;fill-opacity:1;stroke:none;stroke-width:0.0242256;stroke-linecap:round;stroke-linejoin:round;stroke-miterlimit:4;stroke-dasharray:none;stroke-dashoffset:3.11811;stroke-opacity:1;paint-order:markers stroke fill"
             id="rect35591-2"
             width="1.4568232"
             height="0.94621956"
             x="-87.652512"
             y="10.990343"
             rx="0.24768747"
             ry="0.24768747"
             transform="scale(-1,1)" />
          <rect
             style="fill:#000080;fill-opacity:1;stroke:none;stroke-width:0.0242256;stroke-linecap:round;stroke-linejoin:round;stroke-miterlimit:4;stroke-dasharray:none;stroke-dashoffset:3.11811;stroke-opacity:1;paint-order:markers stroke fill"
             id="rect35593-2"
             width="1.4568232"
             height="0.94621956"
             x="-87.652512"
             y="9.7398424"
             rx="0.24768747"
             ry="0.24768747"
             transform="scale(-1,1)" />
          <rect
             style="fill:#000080;fill-opacity:1;stroke:none;stroke-width:0.0242256;stroke-linecap:round;stroke-linejoin:round;stroke-miterlimit:4;stroke-dasharray:none;stroke-dashoffset:3.11811;stroke-opacity:1;paint-order:markers stroke fill"
             id="rect35593-2-1"
             width="1.4568232"
             height="0.94621956"
             x="-87.652512"
             y="8.4893417"
             rx="0.24768747"
             ry="0.24768747"
             transform="scale(-1,1)" />
        </g>
        <g
           id="rect6530" />
        <g
           id="g45578">
          <g
             id="rect6528">
            <path
               id="path44470"
               style="color:#000000;fill:#ff6600;stroke-width:5.27677;stroke-linecap:round;stroke-linejoin:round;stroke-dashoffset:3.11811;-inkscape-stroke:none;paint-order:markers stroke fill"
               d="M 84.132812 27.705078 C 82.372351 27.705078 80.789949 28.616821 79.833984 29.984375 L 66.541016 29.984375 C 63.683855 29.984375 61.285156 32.383074 61.285156 35.240234 L 61.285156 122.75 C 61.285156 125.60716 63.683855 127.99609 66.541016 127.99609 L 122.74023 127.99609 C 125.59739 127.99609 127.99609 125.60716 127.99609 122.75 L 127.99609 35.240234 C 127.99609 32.383074 125.59739 29.984375 122.74023 29.984375 L 109.45508 29.984375 C 108.49628 28.61675 106.90895 27.705078 105.14844 27.705078 L 84.132812 27.705078 z M 84.136719 30.826172 L 105.15234 30.826172 C 105.29943 30.826172 105.44354 30.840911 105.58203 30.869141 C 105.72052 30.89737 105.85337 30.938541 105.98047 30.992188 C 106.10756 31.045834 106.22889 31.11125 106.3418 31.1875 C 106.4547 31.26375 106.55838 31.351224 106.6543 31.447266 C 106.75022 31.543307 106.83793 31.648698 106.91406 31.761719 C 106.9902 31.87474 107.05582 31.995859 107.10938 32.123047 C 107.16293 32.250234 107.20425 32.382943 107.23242 32.521484 C 107.2606 32.660026 107.27539 32.804089 107.27539 32.951172 L 107.27539 33.115234 L 107.27539 35.34375 C 107.27539 36.520412 106.32901 37.46875 105.15234 37.46875 L 84.136719 37.46875 C 82.960052 37.46875 82.013672 36.520412 82.013672 35.34375 L 82.013672 33.115234 L 82.013672 32.951172 C 82.013672 32.804089 82.028465 32.660026 82.056641 32.521484 C 82.084816 32.382943 82.126133 32.250234 82.179688 32.123047 C 82.233242 31.995859 82.298864 31.87474 82.375 31.761719 C 82.451136 31.648698 82.538846 31.543307 82.634766 31.447266 C 82.730685 31.351224 82.834359 31.26375 82.947266 31.1875 C 83.060172 31.11125 83.181498 31.045834 83.308594 30.992188 C 83.43569 30.938541 83.568543 30.89737 83.707031 30.869141 C 83.84552 30.840911 83.989635 30.826172 84.136719 30.826172 z M 66.544922 33.115234 L 78.886719 33.115234 L 78.886719 35.34375 C 78.886719 38.197481 81.279082 40.587891 84.132812 40.587891 L 105.14844 40.587891 C 108.00217 40.587891 110.4043 38.197481 110.4043 35.34375 L 110.4043 33.115234 L 122.74414 33.115234 C 123.92081 33.115234 124.86914 34.061619 124.86914 35.238281 L 124.86914 122.74414 C 124.86914 123.92081 123.92081 124.86914 122.74414 124.86914 L 66.544922 124.86914 C 65.36826 124.86914 64.419922 123.92081 64.419922 122.74414 L 64.419922 35.238281 C 64.419922 34.061619 65.36826 33.115234 66.544922 33.115234 z "
               transform="matrix(0.18950983,0,0,0.18950983,85.466096,5.6693525)" />
          </g>
          <g
             id="g45560">
            <g
               id="g42516"
               transform="translate(0,1.137059)">
              <path
                 style="color:#000000;fill:#000000;-inkscape-stroke:none"
                 d="m 102.78906,15.580078 v 0.345703 h 4.83789 v -0.345703 z"
                 id="path6538" />
              <g
                 id="g6552"
                 transform="matrix(0.31532361,0,0,0.31532361,67.062269,3.1029155)">
                <path
                   id="path6548"
                   style="color:#000000;fill:#000000;stroke-width:1;stroke-linecap:round;-inkscape-stroke:none"
                   d="m 111.32592,35.632592 a 0.78250001,0.78250001 0 0 0 -0.55242,0.228926 l -4.85241,4.852417 -1.69861,-1.95802 a 0.78250001,0.78250001 0 0 0 -0.53485,-0.269751 0.78250001,0.78250001 0 0 0 -0.56844,0.189653 0.78250001,0.78250001 0 0 0 -0.078,1.103292 l 2.24586,2.594158 a 0.78250001,0.78250001 0 0 0 0.0351,0.03617 0.78250001,0.78250001 0 0 0 0.004,0.0047 0.78250001,0.78250001 0 0 0 0.004,0.0031 0.78250001,0.78250001 0 0 0 0.0899,0.077 0.78250001,0.78250001 0 0 0 0.10439,0.06408 0.78250001,0.78250001 0 0 0 0.10749,0.04444 0.78250001,0.78250001 0 0 0 0.0139,0.0047 0.78250001,0.78250001 0 0 0 0.10852,0.02635 0.78250001,0.78250001 0 0 0 0.003,5.3e-4 0.78250001,0.78250001 0 0 0 10e-4,0 0.78250001,0.78250001 0 0 0 0.23668,5.29e-4 0.78250001,0.78250001 0 0 0 0.0171,-0.0031 0.78250001,0.78250001 0 0 0 0.0997,-0.02376 0.78250001,0.78250001 0 0 0 0.016,-0.0052 0.78250001,0.78250001 0 0 0 0.20671,-0.104902 0.78250001,0.78250001 0 0 0 0.0155,-0.01188 0.78250001,0.78250001 0 0 0 0.0424,-0.03256 0.78250001,0.78250001 0 0 0 0.0574,-0.0553 l 5.42912,-5.431192 a 0.78250001,0.78250001 0 0 0 0,-1.105358 0.78250001,0.78250001 0 0 0 -0.55293,-0.228927 z" />
                <path
                   style="color:#000000;fill:#0000d4;fill-opacity:1;stroke-linecap:round;stroke-linejoin:round;-inkscape-stroke:none"
                   d="m 101.53516,35.28125 c -0.4142,4.1e-5 -0.74996,0.641469 -0.75,1.055666 v 7.864256 c 4e-5,0.414196 0.3358,0.749959 0.75,0.75 h 8.16992 c 0.4142,-4.1e-5 0.74996,-0.335804 0.75,-0.75 v -2.525391 c 0,-0.414214 -0.33579,-0.75 -0.75,-0.75 -0.41421,0 -0.75,0.335786 -0.75,0.75 v 1.775391 h -6.66992 V 36.78125 h 5.66797 c 0.41421,0 0.75,-0.335786 0.75,-0.75 0,-0.414214 -0.33579,-0.75 -0.75,-0.75 z"
                   id="path6550"
                   sodipodi:nodetypes="ccccccssscccsssc" />
              </g>
            </g>
            <g
               id="g42504"
               transform="translate(0,-1.1370581)">
              <path
                 style="color:#000000;fill:#000000;-inkscape-stroke:none"
                 d="m 102.78906,26.810547 v 0.347656 h 4.83789 v -0.347656 z"
                 id="path6540" />
              <path
                 id="path37284"
                 style="color:#000000;fill:#0000d4;stroke-width:1.57071;stroke-linejoin:round;-inkscape-stroke:none"
                 d="m 99.078254,25.464329 a 0.23445477,0.23445477 0 0 0 -0.236039,0.233135 v 2.570863 a 0.23445477,0.23445477 0 0 0 0.236039,0.236041 h 1.289506 1.28951 a 0.23445477,0.23445477 0 0 0 0.23604,-0.236041 v -2.570863 a 0.23445477,0.23445477 0 0 0 -0.23604,-0.233135 h -1.28951 z m 0.233134,0.469177 h 1.056372 1.05638 v 2.101689 h -1.05638 -1.056372 z" />
            </g>
            <g
               id="g42510"
               transform="translate(0,1.4340729)">
              <path
                 style="color:#000000;fill:#000000;-inkscape-stroke:none"
                 d="m 102.78906,19.763672 v 0.345703 h 4.83789 v -0.345703 z"
                 id="path42125" />
              <g
                 id="g42131"
                 transform="matrix(0.31532361,0,0,0.31532361,67.062269,7.2870415)">
                <path
                   id="path42127"
                   style="color:#000000;fill:#000000;stroke-width:1;stroke-linecap:round;-inkscape-stroke:none"
                   d="m 111.32592,35.632592 a 0.78250001,0.78250001 0 0 0 -0.55242,0.228926 l -4.85241,4.852417 -1.69861,-1.95802 a 0.78250001,0.78250001 0 0 0 -0.53485,-0.269751 0.78250001,0.78250001 0 0 0 -0.56844,0.189653 0.78250001,0.78250001 0 0 0 -0.078,1.103292 l 2.24586,2.594158 a 0.78250001,0.78250001 0 0 0 0.0351,0.03617 0.78250001,0.78250001 0 0 0 0.004,0.0047 0.78250001,0.78250001 0 0 0 0.004,0.0031 0.78250001,0.78250001 0 0 0 0.0899,0.077 0.78250001,0.78250001 0 0 0 0.10439,0.06408 0.78250001,0.78250001 0 0 0 0.10749,0.04444 0.78250001,0.78250001 0 0 0 0.0139,0.0047 0.78250001,0.78250001 0 0 0 0.10852,0.02635 0.78250001,0.78250001 0 0 0 0.003,5.3e-4 0.78250001,0.78250001 0 0 0 10e-4,0 0.78250001,0.78250001 0 0 0 0.23668,5.29e-4 0.78250001,0.78250001 0 0 0 0.0171,-0.0031 0.78250001,0.78250001 0 0 0 0.0997,-0.02376 0.78250001,0.78250001 0 0 0 0.016,-0.0052 0.78250001,0.78250001 0 0 0 0.20671,-0.104902 0.78250001,0.78250001 0 0 0 0.0155,-0.01188 0.78250001,0.78250001 0 0 0 0.0424,-0.03256 0.78250001,0.78250001 0 0 0 0.0574,-0.0553 l 5.42912,-5.431192 a 0.78250001,0.78250001 0 0 0 0,-1.105358 0.78250001,0.78250001 0 0 0 -0.55293,-0.228927 z" />
                <path
                   style="color:#000000;fill:#0000d4;fill-opacity:1;stroke-linecap:round;stroke-linejoin:round;-inkscape-stroke:none"
                   d="m 101.53516,35.28125 c -0.4142,4.1e-5 -0.74996,0.641469 -0.75,1.055666 v 7.864256 c 4e-5,0.414196 0.3358,0.749959 0.75,0.75 h 8.16992 c 0.4142,-4.1e-5 0.74996,-0.335804 0.75,-0.75 v -2.525391 c 0,-0.414214 -0.33579,-0.75 -0.75,-0.75 -0.41421,0 -0.75,0.335786 -0.75,0.75 v 1.775391 h -6.66992 V 36.78125 h 5.66797 c 0.41421,0 0.75,-0.335786 0.75,-0.75 0,-0.414214 -0.33579,-0.75 -0.75,-0.75 z"
                   id="path42129"
                   sodipodi:nodetypes="ccccccssscccsssc" />
              </g>
            </g>
          </g>
        </g>
        <g
           id="g43089">
          <path
             id="rect31740"
             style="fill:#000080;fill-opacity:1;stroke:none;stroke-width:0.127392;stroke-linecap:round;stroke-linejoin:round;stroke-miterlimit:4;stroke-dasharray:none;stroke-dashoffset:3.11811;stroke-opacity:1;paint-order:markers stroke fill"
             d="M 0.52539062 35.232422 C 0.23384902 35.232422 0 35.468224 0 35.759766 L 0 50.779297 L 0 51.753906 L 0 53.996094 C 0 54.287635 0.23580214 54.523438 0.52734375 54.523438 L 56.794922 54.523438 L 56.794922 50.251953 L 24.390625 50.251953 L 24.390625 35.759766 C 24.390625 35.468224 24.154823 35.232422 23.863281 35.232422 L 0.52539062 35.232422 z "
             transform="matrix(0.18950983,0,0,0.18950983,85.466096,5.6693525)" />
          <g
             id="g10970"
             transform="matrix(0.30324899,0,0,0.30324899,74.696864,-5.093183)">
            <path
               id="path10968"
               style="fill:#ff6600;stroke-width:3.03888;stroke-linecap:round;stroke-linejoin:round;stroke-dashoffset:3.11811;paint-order:markers stroke fill"
               d="m 101.17578,76.3125 v 12.5 H 78.376953 v 17.53906 h 22.798827 v 12.49805 L 114.58789,108.2168 128,97.582031 114.58789,86.947266 Z"
               transform="matrix(0.26458333,0,0,0.26458333,17.21682,15.3899)" />
          </g>
          <g
             id="g42917">
            <path
               id="rect25647"
               style="fill:#0000d4;fill-opacity:1;stroke-width:0.127833;stroke-linecap:round;stroke-linejoin:round;stroke-dashoffset:3.11811;paint-order:markers stroke fill"
               d="M 30.757812 0 C 29.732546 0 28.90625 0.82434857 28.90625 1.8496094 L 28.90625 34.015625 C 28.484288 34.224786 28.193359 34.657545 28.193359 35.162109 L 28.193359 39.148438 C 28.193359 39.858232 28.76481 40.429688 29.474609 40.429688 L 31.009766 40.429688 A 9.1094278 9.1094278 0 0 1 40.113281 31.605469 A 9.1094278 9.1094278 0 0 1 49.214844 40.429688 L 56.794922 40.429688 L 56.794922 31.232422 C 56.794922 28.020942 59.380312 25.435547 62.591797 25.435547 L 68.339844 25.435547 L 68.339844 1.8496094 C 68.339844 0.82434857 67.513542 0 66.488281 0 L 30.757812 0 z M 71.898438 5.5527344 C 71.188638 5.5527344 70.617188 6.1241864 70.617188 6.8339844 L 70.617188 25.435547 L 76.363281 25.435547 C 77.521336 24.026573 79.06773 23.167969 80.771484 23.167969 L 98.537109 23.167969 C 98.488688 22.605144 98.425177 22.192888 98.341797 22.027344 C 92.325856 9.9715596 87.530075 5.0319859 87.349609 5.6035156 C 87.234576 5.5700609 87.113868 5.5527344 86.988281 5.5527344 L 71.898438 5.5527344 z M 74.181641 8.2460938 L 86.144531 8.2460938 C 86.093347 8.2460938 86.075812 8.2460922 86.244141 8.2460938 C 87.170583 8.2460938 91.69506 15.227911 94.876953 21.128906 C 95.300045 22.053961 94.736504 22.027344 94.210938 22.027344 C 91.132469 22.027339 79.336007 22.027344 73.179688 22.027344 L 73.179688 9.2929688 C 73.179661 8.7129535 73.625659 8.2460943 74.181641 8.2460938 z "
               transform="matrix(0.18950983,0,0,0.18950983,85.466096,5.6693525)" />
            <path
               id="circle31575"
               style="fill:#0000d4;fill-opacity:1;stroke:none;stroke-width:0.0233524;stroke-linecap:round;stroke-linejoin:round;stroke-miterlimit:4;stroke-dasharray:none;stroke-dashoffset:3.11811;stroke-opacity:1;paint-order:markers stroke fill"
               d="m 93.06807,11.942085 a 1.4430548,1.4430548 0 0 1 1.443106,1.443105 1.4430548,1.4430548 0 0 1 -1.443106,1.443106 1.4430548,1.4430548 0 0 1 -1.442957,-1.443106 1.4430548,1.4430548 0 0 1 1.442957,-1.443105 z m 0,0.553068 a 0.89000157,0.89000157 0 0 0 -0.889888,0.890037 0.89000157,0.89000157 0 0 0 0.889888,0.890037 0.89000157,0.89000157 0 0 0 0.890037,-0.890037 0.89000157,0.89000157 0 0 0 -0.890037,-0.890037 z" />
          </g>
        </g>
      </g>
    </g>
  </g>
</svg>
