<?xml version="1.0" encoding="UTF-8" standalone="no"?>
<svg
   sodipodi:docname="Icon_Inbound_2.svg"
   inkscape:version="1.1 (c68e22c387, 2021-05-23)"
   id="svg8"
   version="1.1"
   viewBox="0 0 33.866663 33.866667"
   height="128"
   width="128"
   xmlns:inkscape="http://www.inkscape.org/namespaces/inkscape"
   xmlns:sodipodi="http://sodipodi.sourceforge.net/DTD/sodipodi-0.dtd"
   xmlns="http://www.w3.org/2000/svg"
   xmlns:svg="http://www.w3.org/2000/svg"
   xmlns:rdf="http://www.w3.org/1999/02/22-rdf-syntax-ns#"
   xmlns:cc="http://creativecommons.org/ns#"
   xmlns:dc="http://purl.org/dc/elements/1.1/">
  <defs
     id="defs2">
    <linearGradient
       id="linearGradient2783"
       inkscape:swatch="solid">
      <stop
         id="stop2781"
         offset="0"
         style="stop-color:#000000;stop-opacity:1;" />
    </linearGradient>
  </defs>
  <sodipodi:namedview
     inkscape:window-maximized="1"
     inkscape:window-y="492"
     inkscape:window-x="-11"
     inkscape:window-height="987"
     inkscape:window-width="1920"
     inkscape:guide-bbox="true"
     showguides="false"
     showgrid="false"
     inkscape:document-rotation="0"
     inkscape:current-layer="layer1"
     inkscape:document-units="mm"
     inkscape:cy="67.867235"
     inkscape:cx="18.685524"
     inkscape:zoom="2.8364203"
     inkscape:pageshadow="2"
     inkscape:pageopacity="0.0"
     borderopacity="1.0"
     bordercolor="#666666"
     pagecolor="#ffffff"
     id="base"
     units="px"
     inkscape:pagecheckerboard="false">
    <sodipodi:guide
       position="0,33.866665"
       orientation="0,128"
       id="guide1053" />
    <sodipodi:guide
       position="33.866665,33.866665"
       orientation="128,0"
       id="guide1055" />
    <sodipodi:guide
       position="33.866665,0"
       orientation="0,-128"
       id="guide1057" />
    <sodipodi:guide
       position="0,0"
       orientation="-128,0"
       id="guide1059" />
    <sodipodi:guide
       position="16.044283,33.866667"
       orientation="0,-1"
       id="guide1153" />
    <sodipodi:guide
       position="4.6016746,18.633453"
       orientation="0,-1"
       id="guide11206" />
    <sodipodi:guide
       position="28.779792,18.633453"
       orientation="0,-1"
       id="guide11208" />
    <sodipodi:guide
       position="4.6016746,0.65533605"
       orientation="1,0"
       id="guide11210" />
    <sodipodi:guide
       position="28.801458,0.65555263"
       orientation="1,0"
       id="guide11212" />
    <sodipodi:guide
       position="17.201671,23.840833"
       orientation="0,-1"
       id="guide11400" />
    <sodipodi:guide
       position="4.6016746,18.633453"
       orientation="-0.39530842,0.91854845"
       id="guide11515" />
    <sodipodi:guide
       position="4.6016746,0.65533605"
       orientation="0,-1"
       id="guide13410" />
    <sodipodi:guide
       position="16.701672,42.111596"
       orientation="1,0"
       id="guide15755" />
    <sodipodi:guide
       position="6.2001861,16.519336"
       orientation="0,-1"
       id="guide19548" />
    <sodipodi:guide
       position="8.8330584,0.70588461"
       orientation="1,0"
       id="guide1200" />
    <sodipodi:guide
       position="24.570289,0.70588461"
       orientation="1,0"
       id="guide1202" />
    <sodipodi:guide
       position="8.8330584,14.082903"
       orientation="0,-1"
       id="guide1204" />
    <sodipodi:guide
       position="9.4826242,0.70590082"
       orientation="1,0"
       id="guide3463" />
    <sodipodi:guide
       position="23.919986,0.65525689"
       orientation="1,0"
       id="guide3465" />
    <sodipodi:guide
       position="20.737489,5.7280175"
       orientation="0,-1"
       id="guide10039" />
  </sodipodi:namedview>
  <metadata
     id="metadata5">
    <rdf:RDF>
      <cc:Work
         rdf:about="">
        <dc:format>image/svg+xml</dc:format>
        <dc:type
           rdf:resource="http://purl.org/dc/dcmitype/StillImage" />
      </cc:Work>
    </rdf:RDF>
  </metadata>
  <g
     transform="translate(-17.1756, -15.3899)"
     id="layer1"
     inkscape:groupmode="layer"
     inkscape:label="Layer 1">
    <g
       id="g993">
      <g
         id="path1278" />
      <g
         id="path1280" />
      <g
         id="path1282" />
      <g
         id="path1284" />
      <g
         id="g21316"
         transform="translate(-45.614273,6.3148635)" />
      <g
         id="g10839"
         transform="matrix(-1,0,0,1,70.968808,0)"
         style="fill:#000080">
        <g
           id="g7350"
           transform="translate(1.5651461)"
           style="fill:#000080">
          <path
             id="rect5227"
             style="fill:#000080;stroke-width:0.730085;stroke-linecap:round;stroke-linejoin:round;stroke-dashoffset:3.11811;paint-order:markers stroke fill"
             d="m 27.825382,45.653873 h 3.739532 V 48.7274 h -3.739532 z" />
          <path
             id="rect7052"
             style="fill:#000080;stroke-width:0.730085;stroke-linecap:round;stroke-linejoin:round;stroke-dashoffset:3.11811;paint-order:markers stroke fill"
             d="m 32.049492,45.653873 h 3.739532 V 48.7274 h -3.739532 z" />
          <path
             id="rect7216"
             style="fill:#000080;stroke-width:0.730085;stroke-linecap:round;stroke-linejoin:round;stroke-dashoffset:3.11811;paint-order:markers stroke fill"
             d="m 36.273602,45.653873 h 3.739532 V 48.7274 h -3.739532 z" />
        </g>
        <g
           id="g7355"
           transform="translate(1.5651461)"
           style="fill:#000080">
          <path
             id="rect5227-2"
             style="fill:#000080;stroke-width:0.730085;stroke-linecap:round;stroke-linejoin:round;stroke-dashoffset:3.11811;paint-order:markers stroke fill"
             d="m 27.825382,42.051178 h 3.739532 v 3.073527 h -3.739532 z" />
          <path
             id="rect7052-3"
             style="fill:#000080;stroke-width:0.730085;stroke-linecap:round;stroke-linejoin:round;stroke-dashoffset:3.11811;paint-order:markers stroke fill"
             d="m 32.049492,42.051178 h 3.739532 v 3.073527 h -3.739532 z" />
        </g>
        <g
           id="g7360"
           transform="translate(1.5651461)"
           style="fill:#000080">
          <path
             id="rect7330"
             style="fill:#000080;stroke-width:0.730085;stroke-linecap:round;stroke-linejoin:round;stroke-dashoffset:3.11811;paint-order:markers stroke fill"
             d="m 27.825382,38.448483 h 3.739532 v 3.073526 h -3.739532 z" />
        </g>
      </g>
      <g
         id="g11935">
        <path
           id="rect10931"
           style="color:#000000;fill:#0000d4;stroke-width:3.77953;stroke-linecap:round;stroke-linejoin:round;stroke-dashoffset:3.11811;-inkscape-stroke:none;paint-order:markers stroke fill"
           d="M 68.896484 33.177734 A 4.7244091 4.7244091 0 0 0 68.806641 33.191406 A 4.7244091 4.7244091 0 0 0 68.580078 33.222656 A 4.7244091 4.7244091 0 0 0 68.080078 33.308594 A 4.7244091 4.7244091 0 0 0 67.820312 33.388672 A 4.7244091 4.7244091 0 0 0 67.453125 33.503906 A 4.7244091 4.7244091 0 0 0 67.382812 33.539062 A 4.7244091 4.7244091 0 0 0 67.335938 33.554688 L 13.255859 56.822266 A 4.7244091 4.7244091 0 0 0 10.783203 63.03125 A 4.7244091 4.7244091 0 0 0 16.990234 65.503906 L 21.009766 63.775391 L 21.009766 68.792969 L 25.925781 72.691406 L 25.925781 61.660156 L 69.203125 43.039062 L 112.47266 61.658203 L 112.47266 123.06641 L 101.39844 123.06641 L 101.39844 78.892578 L 103.42188 78.892578 A 1.981899 1.981899 0 0 0 105.40039 76.908203 L 105.40039 73.4375 A 1.981899 1.981899 0 0 0 103.42188 71.458984 L 34.984375 71.458984 A 1.981899 1.981899 0 0 0 32.998047 73.4375 L 32.998047 76.908203 A 1.981899 1.981899 0 0 0 34.984375 78.892578 L 37.007812 78.892578 L 37.007812 81.478516 L 38.134766 82.373047 L 41.916016 85.371094 L 41.916016 78.892578 L 96.482422 78.892578 L 96.482422 123.06641 L 96.482422 125.52344 L 96.482422 127.98242 L 114.92969 127.98242 A 2.4569385 2.4569385 0 0 0 117.38867 125.52344 L 117.38867 63.773438 L 121.4082 65.503906 A 4.7244091 4.7244091 0 0 0 127.61523 63.03125 A 4.7244091 4.7244091 0 0 0 125.14258 56.822266 L 71.070312 33.554688 A 4.7244091 4.7244091 0 0 0 71 33.53125 A 4.7244091 4.7244091 0 0 0 70.945312 33.503906 A 4.7244091 4.7244091 0 0 0 70.671875 33.419922 A 4.7244091 4.7244091 0 0 0 70.300781 33.304688 A 4.7244091 4.7244091 0 0 0 69.953125 33.244141 A 4.7244091 4.7244091 0 0 0 69.566406 33.1875 A 4.7244091 4.7244091 0 0 0 69.263672 33.183594 A 4.7244091 4.7244091 0 0 0 68.896484 33.177734 z M 41.916016 109.79297 L 38.134766 112.79102 L 37.007812 113.68359 L 37.007812 123.06641 L 25.925781 123.06641 L 25.925781 122.4707 L 21.136719 126.26953 A 2.4569385 2.4569385 0 0 0 23.46875 127.98242 L 41.916016 127.98242 L 41.916016 125.33203 L 41.916016 123.06641 L 41.916016 109.79297 z "
           transform="matrix(0.26458333,0,0,0.26458333,17.1756,15.3899)" />
        <g
           id="g10037"
           transform="translate(-20.778455)">
          <path
             id="rect8468"
             style="fill:#ff6600;stroke-width:3.03888;stroke-linecap:round;stroke-linejoin:round;stroke-dashoffset:3.11811;paint-order:markers stroke fill"
             d="m 101.17578,76.3125 v 12.5 H 78.376953 v 17.53906 h 22.798827 v 12.49805 L 114.58789,108.2168 128,97.582031 114.58789,86.947266 Z"
             transform="matrix(0.26458333,0,0,0.26458333,17.21682,15.3899)" />
        </g>
      </g>
      <rect
         style="fill:none;stroke-width:0.726001;stroke-linecap:square;stroke-dashoffset:3.11811;paint-order:markers stroke fill"
         id="rect971"
         width="33.866665"
         height="33.866665"
         x="17.1756"
         y="15.389898" />
    </g>
  </g>
</svg>
