<?xml version="1.0" encoding="UTF-8" standalone="no"?>
<svg
   width="128"
   height="128"
   viewBox="0 0 33.866663 33.866667"
   version="1.1"
   id="svg8"
   inkscape:version="1.1 (c68e22c387, 2021-05-23)"
   sodipodi:docname="Icon_Comm_Decomm_2.svg"
   xmlns:inkscape="http://www.inkscape.org/namespaces/inkscape"
   xmlns:sodipodi="http://sodipodi.sourceforge.net/DTD/sodipodi-0.dtd"
   xmlns="http://www.w3.org/2000/svg"
   xmlns:svg="http://www.w3.org/2000/svg"
   xmlns:rdf="http://www.w3.org/1999/02/22-rdf-syntax-ns#"
   xmlns:cc="http://creativecommons.org/ns#"
   xmlns:dc="http://purl.org/dc/elements/1.1/">
  <defs
     id="defs2">
    <linearGradient
       id="linearGradient2783"
       inkscape:swatch="solid">
      <stop
         style="stop-color:#000000;stop-opacity:1;"
         offset="0"
         id="stop2781" />
    </linearGradient>
  </defs>
  <sodipodi:namedview
     inkscape:pagecheckerboard="false"
     units="px"
     id="base"
     pagecolor="#ffffff"
     bordercolor="#666666"
     borderopacity="1.0"
     inkscape:pageopacity="0.0"
     inkscape:pageshadow="2"
     inkscape:zoom="2"
     inkscape:cx="116.5"
     inkscape:cy="77.25"
     inkscape:document-units="mm"
     inkscape:current-layer="g2730"
     inkscape:document-rotation="0"
     showgrid="false"
     showguides="false"
     inkscape:guide-bbox="true"
     inkscape:window-width="1920"
     inkscape:window-height="987"
     inkscape:window-x="-11"
     inkscape:window-y="492"
     inkscape:window-maximized="1">
    <sodipodi:guide
       id="guide874"
       orientation="0,128"
       position="0,33.866665" />
    <sodipodi:guide
       id="guide876"
       orientation="128,0"
       position="33.93281,2.7781257" />
    <sodipodi:guide
       id="guide878"
       orientation="0,-128"
       position="33.866665,0" />
    <sodipodi:guide
       id="guide880"
       orientation="-128,0"
       position="0,18.857128" />
    <sodipodi:guide
       id="guide2234"
       orientation="1,0"
       position="16.444387,23.515528" />
    <sodipodi:guide
       id="guide2275"
       orientation="0,-1"
       position="7.0158235,35.924641" />
    <sodipodi:guide
       id="guide2282"
       orientation="1,0"
       position="7.0158232,35.924641" />
    <sodipodi:guide
       id="guide2304"
       orientation="1,0"
       position="27.221605,35.924423" />
    <sodipodi:guide
       id="guide2318"
       orientation="1,0"
       position="23.855905,35.924643" />
    <sodipodi:guide
       id="guide2339"
       orientation="1,0"
       position="22.941745,31.621603" />
    <sodipodi:guide
       id="guide2341"
       orientation="1,0"
       position="5.6126593,31.621603" />
    <sodipodi:guide
       id="guide2684"
       orientation="1,0"
       position="1.7831888,3.4033693" />
    <sodipodi:guide
       id="guide2686"
       orientation="1,0"
       position="32.084862,3.3744709" />
    <sodipodi:guide
       position="0,33.866665"
       orientation="0,128"
       id="guide13879" />
    <sodipodi:guide
       position="33.866665,33.866665"
       orientation="128,0"
       id="guide13881" />
    <sodipodi:guide
       position="33.866665,0"
       orientation="0,-128"
       id="guide13883" />
    <sodipodi:guide
       position="0,0"
       orientation="-128,0"
       id="guide13885" />
  </sodipodi:namedview>
  <metadata
     id="metadata5">
    <rdf:RDF>
      <cc:Work
         rdf:about="">
        <dc:format>image/svg+xml</dc:format>
        <dc:type
           rdf:resource="http://purl.org/dc/dcmitype/StillImage" />
        <dc:title />
      </cc:Work>
    </rdf:RDF>
  </metadata>
  <g
     inkscape:label="Layer 1"
     inkscape:groupmode="layer"
     id="layer1"
     transform="translate(-17.175603,-15.389948)">
    <g
       id="g28"
       fill="#000000"
       transform="matrix(0.4091643,0,0,0.4091643,27.981194,-3.5551767)"
       style="font-weight:bold;font-size:12.275px;line-height:1.25;font-family:'Sero Pro';-inkscape-font-specification:'Sero Pro Bold';stroke-width:0.324775" />
    <g
       id="g46"
       fill="#000000"
       transform="matrix(0.4091643,0,0,0.4091643,27.981194,-3.5551767)"
       style="font-weight:bold;font-size:12.275px;line-height:1.25;font-family:'Sero Pro';-inkscape-font-specification:'Sero Pro Bold';stroke-width:0.324775" />
    <g
       id="g62"
       fill="#000000"
       transform="matrix(0.4091643,0,0,0.4091643,27.981194,-3.5551767)"
       style="font-weight:bold;font-size:12.275px;line-height:1.25;font-family:'Sero Pro';-inkscape-font-specification:'Sero Pro Bold';stroke-width:0.324775" />
    <g
       id="g78"
       fill="#000000"
       transform="matrix(0.4091643,0,0,0.4091643,27.981194,-3.5551767)"
       style="font-weight:bold;font-size:12.275px;line-height:1.25;font-family:'Sero Pro';-inkscape-font-specification:'Sero Pro Bold';stroke-width:0.324775" />
    <g
       id="g96"
       fill="#000000"
       transform="matrix(0.4091643,0,0,0.4091643,27.981194,-3.5551767)"
       style="font-weight:bold;font-size:12.275px;line-height:1.25;font-family:'Sero Pro';-inkscape-font-specification:'Sero Pro Bold';stroke-width:0.324775" />
    <g
       id="g110"
       fill="#000000"
       transform="matrix(0.4091643,0,0,0.4091643,27.981194,-3.5551767)"
       style="font-weight:bold;font-size:12.275px;line-height:1.25;font-family:'Sero Pro';-inkscape-font-specification:'Sero Pro Bold';stroke-width:0.324775" />
    <g
       id="g128"
       fill="#000000"
       transform="matrix(0.4091643,0,0,0.4091643,27.981194,-3.5551767)"
       style="font-weight:bold;font-size:12.275px;line-height:1.25;font-family:'Sero Pro';-inkscape-font-specification:'Sero Pro Bold';stroke-width:0.324775" />
    <g
       id="g146"
       fill="#000000"
       transform="matrix(0.4091643,0,0,0.4091643,27.981194,-3.5551767)"
       style="font-weight:bold;font-size:12.275px;line-height:1.25;font-family:'Sero Pro';-inkscape-font-specification:'Sero Pro Bold';stroke-width:0.324775" />
    <g
       id="g164"
       fill="#000000"
       transform="matrix(0.4091643,0,0,0.4091643,27.981194,-3.5551767)"
       style="font-weight:bold;font-size:12.275px;line-height:1.25;font-family:'Sero Pro';-inkscape-font-specification:'Sero Pro Bold';stroke-width:0.324775" />
    <g
       id="g184"
       fill="#000000"
       transform="matrix(0.4091643,0,0,0.4091643,27.981194,-3.5551767)"
       style="font-weight:bold;font-size:12.275px;line-height:1.25;font-family:'Sero Pro';-inkscape-font-specification:'Sero Pro Bold';stroke-width:0.324775" />
    <g
       id="g200"
       fill="#000000"
       transform="matrix(0.4091643,0,0,0.4091643,27.981194,-3.5551767)"
       style="font-weight:bold;font-size:12.275px;line-height:1.25;font-family:'Sero Pro';-inkscape-font-specification:'Sero Pro Bold';stroke-width:0.324775" />
    <g
       id="g212"
       fill="#000000"
       transform="matrix(0.4091643,0,0,0.4091643,27.981194,-3.5551767)"
       style="font-weight:bold;font-size:12.275px;line-height:1.25;font-family:'Sero Pro';-inkscape-font-specification:'Sero Pro Bold';stroke-width:0.324775" />
    <g
       id="g232"
       fill="#000000"
       transform="matrix(0.4091643,0,0,0.4091643,27.981194,-3.5551767)"
       style="font-weight:bold;font-size:12.275px;line-height:1.25;font-family:'Sero Pro';-inkscape-font-specification:'Sero Pro Bold';stroke-width:0.324775" />
    <g
       id="g2730"
       transform="matrix(1.3961457,0,0,1.3961457,-102.14752,7.4747059)">
      <g
         id="g14171">
        <rect
           style="fill:none;fill-opacity:1;stroke:none;stroke-width:0.520004;stroke-linecap:round;stroke-linejoin:round;stroke-dashoffset:3.11811;stroke-opacity:1;paint-order:markers stroke fill"
           id="rect13887"
           width="24.257257"
           height="24.257257"
           x="85.466095"
           y="5.6693525" />
        <path
           style="opacity:0.998;fill:#ff6600;fill-opacity:1;stroke:#000080;stroke-width:0.248431;stroke-opacity:1"
           d="m 89.162545,5.793575 a 2.3092989,2.3092989 0 0 0 -2.297053,2.308939 2.3092989,2.3092989 0 0 0 2.308939,2.309457 2.3092989,2.3092989 0 0 0 5.29e-4,0 h 0.01188 16.82818 a 2.309299,2.309299 0 0 0 2.30894,-2.309457 2.309299,2.309299 0 0 0 -2.29705,-2.308939 2.309299,2.309299 0 0 0 -0.0119,0 H 89.174947 a 2.3092989,2.3092989 0 0 0 -5.29e-4,0 2.3092989,2.3092989 0 0 0 -0.01188,0 z"
           id="path2690" />
        <path
           d="m 102.78018,22.983439 h 0.86425 v 0.864247 h -0.86425 z m -0.86425,0 h 0.86425 v 0.864247 h -0.86425 z m -0.86424,0 h 0.86424 v 0.864247 h -0.86424 z m -0.86423,0 h 0.86425 v 0.864247 h -0.86425 z m -0.864242,0 h 0.864242 v 0.864247 h -0.864242 z m -0.864247,0 h 0.864247 v 0.864247 h -0.864247 z m -0.864248,0 h 0.864248 v 0.864247 h -0.864248 z m -0.864248,0 h 0.864248 v 0.864247 h -0.864248 z m -0.864247,0 h 0.864247 v 0.864247 h -0.864247 z m -0.864246,0 h 0.864246 v 0.864247 h -0.864246 z m -0.864222,0 h 0.864247 v 0.864247 H 94.13776 Z m -0.864248,0 h 0.864248 v 0.864247 h -0.864248 z m -0.864247,0 h 0.864247 v 0.864247 h -0.864247 z m -0.864247,0 h 0.864247 v 0.864247 h -0.864247 z m 9.506672,-0.864247 h 0.86424 v 0.864247 h -0.86424 z m -0.86423,0 h 0.86425 v 0.864247 h -0.86425 z m -1.728489,0 h 0.864247 v 0.864247 h -0.864247 z m -0.864248,0 h 0.864248 v 0.864247 h -0.864248 z m -2.592741,0 h 0.864246 v 0.864247 h -0.864246 z m -0.864222,0 h 0.864247 v 0.864247 H 94.13776 Z m -0.864248,0 h 0.864248 v 0.864247 h -0.864248 z m -0.864247,0 h 0.864247 v 0.864247 h -0.864247 z m -0.864247,0 h 0.864247 v 0.864247 h -0.864247 z m 11.235162,-0.864249 h 0.86425 v 0.864249 h -0.86425 z m -4.321209,0 h 0.864247 v 0.864249 h -0.864247 z m -1.728496,0 h 0.864248 v 0.864249 h -0.864248 z m -2.592715,0 h 0.864247 v 0.864249 H 94.13776 Z m -2.592742,0 h 0.864247 v 0.864249 h -0.864247 z m 10.370912,-0.864221 h 0.86425 v 0.864247 h -0.86425 z m -2.592712,0 h 0.864242 v 0.864247 h -0.864242 z m -0.864247,0 h 0.864247 v 0.864247 h -0.864247 z m -0.864248,0 h 0.864248 v 0.864247 h -0.864248 z m -2.592741,0 h 0.864246 v 0.864247 h -0.864246 z m -2.592717,0 h 0.864247 v 0.864247 h -0.864247 z m -0.864247,0 h 0.864247 v 0.864247 h -0.864247 z m 11.235162,-0.864246 h 0.86425 v 0.864246 h -0.86425 z m -0.86425,0 h 0.86425 v 0.864246 h -0.86425 z m -0.86424,0 h 0.86424 v 0.864246 h -0.86424 z m -0.86423,0 h 0.86425 v 0.864246 h -0.86425 z m -1.728489,0 h 0.864247 v 0.864246 h -0.864247 z m -2.592743,0 h 0.864247 v 0.864246 h -0.864247 z m -0.864246,0 h 0.864246 v 0.864246 h -0.864246 z m -2.592717,0 h 0.864247 v 0.864246 h -0.864247 z m -0.864247,0 h 0.864247 v 0.864246 h -0.864247 z m 9.506672,-0.864248 h 0.86424 v 0.864248 h -0.86424 z m -0.86423,0 h 0.86425 v 0.864248 h -0.86425 z m -0.864242,0 h 0.864242 v 0.864248 h -0.864242 z m -0.864247,0 h 0.864247 v 0.864248 h -0.864247 z m -1.728496,0 h 0.864248 v 0.864248 h -0.864248 z m -0.864247,0 h 0.864247 v 0.864248 h -0.864247 z m -2.592716,0 h 0.864248 v 0.864248 h -0.864248 z m -1.728494,0 h 0.864247 v 0.864248 H 91.545018 Z M 102.78018,17.79798 h 0.86425 v 0.864248 h -0.86425 z m -0.86425,0 h 0.86425 v 0.864248 h -0.86425 z m -0.86424,0 h 0.86424 v 0.864248 h -0.86424 z m -1.728472,0 h 0.864242 v 0.864248 h -0.864242 z m -0.864247,0 h 0.864247 v 0.864248 h -0.864247 z m -0.864248,0 h 0.864248 v 0.864248 h -0.864248 z m -3.456963,0 h 0.864247 v 0.864248 H 94.13776 Z m -2.592742,0 h 0.864247 v 0.864248 h -0.864247 z m 8.642442,-0.864247 h 0.86425 v 0.864247 h -0.86425 z m -1.728489,0 h 0.864247 v 0.864247 h -0.864247 z m -0.864248,0 h 0.864248 v 0.864247 h -0.864248 z m -2.592741,0 h 0.864246 v 0.864247 h -0.864246 z m -0.864222,0 h 0.864247 V 17.79798 H 94.13776 Z m -0.864248,0 h 0.864248 v 0.864247 h -0.864248 z m -0.864247,0 h 0.864247 v 0.864247 h -0.864247 z m -0.864247,0 h 0.864247 v 0.864247 h -0.864247 z m 11.235162,-0.864247 h 0.86425 v 0.864247 h -0.86425 z m -0.86425,0 h 0.86425 v 0.864247 h -0.86425 z m -3.456959,0 h 0.864247 v 0.864247 h -0.864247 z m -2.592743,0 h 0.864247 v 0.864247 h -0.864247 z m -2.592716,0 h 0.864248 v 0.864247 h -0.864248 z m -1.728494,0 h 0.864247 v 0.864247 h -0.864247 z m 7.7782,-0.864246 h 0.864242 v 0.864246 h -0.864242 z m -0.864247,0 h 0.864247 v 0.864246 h -0.864247 z m -0.864248,0 h 0.864248 v 0.864246 h -0.864248 z m -0.864248,0 h 0.864248 v 0.864246 h -0.864248 z m -0.864247,0 h 0.864247 v 0.864246 h -0.864247 z m -0.864246,0 h 0.864246 v 0.864246 h -0.864246 z m -0.864222,0 h 0.864247 v 0.864246 H 94.13776 Z m -2.592742,0 h 0.864247 v 0.864246 h -0.864247 z m 11.235162,-0.864223 h 0.86425 v 0.864248 h -0.86425 z m -0.86425,0 h 0.86425 v 0.864248 h -0.86425 z m -1.72847,0 h 0.86425 v 0.864248 h -0.86425 z m -5.185478,0 h 0.864246 v 0.864248 h -0.864246 z m -0.864222,0 h 0.864247 v 0.864248 H 94.13776 Z m -1.728495,0 h 0.864247 v 0.864248 h -0.864247 z m -0.864247,0 h 0.864247 v 0.864248 H 91.545018 Z M 101.91593,13.47677 h 0.86425 v 0.864247 h -0.86425 z m -0.86424,0 h 0.86424 v 0.864247 h -0.86424 z m -0.86423,0 h 0.86425 v 0.864247 h -0.86425 z m -1.728489,0 h 0.864247 v 0.864247 h -0.864247 z m -0.864248,0 h 0.864248 v 0.864247 h -0.864248 z m -5.185458,0 h 0.864247 v 0.864247 h -0.864247 z m -0.864247,0 h 0.864247 v 0.864247 h -0.864247 z m 11.235162,-0.864247 h 0.86425 v 0.864247 h -0.86425 z m -0.86425,0 h 0.86425 v 0.864247 h -0.86425 z m -0.86424,0 h 0.86424 v 0.864247 h -0.86424 z m -0.86423,0 h 0.86425 v 0.864247 h -0.86425 z m -7.778195,0 h 0.864247 v 0.864247 h -0.864247 z m -0.864247,0 h 0.864247 v 0.864247 h -0.864247 z m 10.370912,-0.864247 h 0.86425 v 0.864247 h -0.86425 z m -1.72847,0 h 0.86425 v 0.864247 h -0.86425 z m -1.728489,0 h 0.864247 v 0.864247 h -0.864247 z m -1.728496,0 h 0.864248 v 0.864247 h -0.864248 z m -1.728493,0 h 0.864246 v 0.864247 h -0.864246 z m -1.72847,0 h 0.864248 v 0.864247 h -0.864248 z m -1.728494,0 h 0.864247 v 0.864247 h -0.864247 z m 7.7782,0.864247 h 0.864242 v 0.864247 h -0.864242 z m -1.728495,0 h 0.864248 v 0.864247 h -0.864248 z"
           style="font-weight:bold;font-size:12.275px;line-height:1.25;font-family:'Sero Pro';-inkscape-font-specification:'Sero Pro Bold';fill:#0000d4;fill-opacity:1;stroke-width:0.0848679"
           id="path2688" />
        <path
           style="opacity:0.998;fill:#000080;fill-opacity:1;stroke:none;stroke-width:0.216603;stroke-opacity:1"
           d="m 105.98869,6.454526 a 1.6529864,1.6529864 0 0 1 1.65313,1.653123 1.6529864,1.6529864 0 0 1 -1.65313,1.652673 1.6529864,1.6529864 0 0 1 -1.65267,-1.652673 1.6529864,1.6529864 0 0 1 1.65267,-1.653123 z"
           id="path2295" />
        <g
           style="font-weight:bold;font-size:4.1541px;line-height:1.25;font-family:'Sero Pro';-inkscape-font-specification:'Sero Pro Bold';fill:#ffffff;stroke:none;stroke-width:0.10991"
           id="g2704"
           aria-label="active"
           transform="matrix(1.0000158,0,0,1.0000158,63.868708,-9.8511495)">
          <path
             id="path2692"
             style="fill:#ffffff;stroke:none;stroke-width:0.10991"
             d="m 26.863792,17.545405 q -0.245092,0 -0.635577,0.166164 l -0.124623,-0.490184 q 0.456951,-0.186935 0.905593,-0.186935 0.419564,0 0.635578,0.178627 0.220167,0.178626 0.220167,0.606498 v 0.90144 q 0,0.390485 0.04154,0.481875 h -0.631423 q -0.04154,-0.06231 -0.054,-0.224321 -0.249246,0.274171 -0.59819,0.274171 -0.278325,0 -0.456951,-0.174473 -0.174472,-0.174472 -0.174472,-0.490183 0,-0.710351 0.926364,-0.710351 0.157856,0 0.294941,0.01662 v -0.02492 q 0,-0.174472 -0.08724,-0.249246 -0.08308,-0.07477 -0.261708,-0.07477 z m 0.0042,1.229613 q 0.157856,0 0.34479,-0.141239 v -0.361407 q -0.103852,-0.02077 -0.195242,-0.02077 -0.203551,0 -0.290787,0.06647 -0.08308,0.06647 -0.08308,0.203551 0,0.2534 0.224321,0.2534 z" />
          <path
             id="path2694"
             style="fill:#ffffff;stroke:none;stroke-width:0.10991"
             d="m 29.830858,17.179844 -0.124623,0.510954 q -0.228476,-0.145393 -0.39464,-0.145393 -0.203551,0 -0.32402,0.153701 -0.120469,0.149548 -0.120469,0.456951 0,0.307404 0.120469,0.456951 0.124623,0.149548 0.336482,0.149548 0.207705,0 0.39464,-0.137085 l 0.128777,0.469413 q -0.274171,0.157856 -0.635577,0.157856 -0.465259,0 -0.73943,-0.278325 -0.274171,-0.278325 -0.274171,-0.801741 0,-0.540033 0.290787,-0.839129 0.294941,-0.299095 0.776817,-0.299095 0.319866,0 0.564958,0.145394 z" />
          <path
             id="path2696"
             style="fill:#ffffff;stroke:none;stroke-width:0.10991"
             d="m 30.002084,17.574483 v -0.490184 h 0.30325 v -0.706197 h 0.66881 v 0.706197 h 0.394639 v 0.490184 h -0.394639 v 0.926365 q 0,0.128777 0.03739,0.178626 0.04154,0.0457 0.141239,0.0457 0.09139,0 0.216013,-0.03323 v 0.498492 q -0.207705,0.03739 -0.419564,0.03739 -0.361406,0 -0.502646,-0.132931 -0.141239,-0.132931 -0.141239,-0.494338 v -1.026063 z" />
          <path
             id="path2698"
             style="fill:#ffffff;stroke:none;stroke-width:0.10991"
             d="m 32.362003,16.245171 q 0.103852,0.09555 0.103852,0.249246 0,0.153702 -0.103852,0.2534 -0.0997,0.09554 -0.270017,0.09554 -0.170318,0 -0.27417,-0.09554 -0.103853,-0.0997 -0.103853,-0.2534 0,-0.153701 0.103853,-0.249246 0.103852,-0.0997 0.27417,-0.0997 0.170318,0 0.270017,0.0997 z m -0.606499,2.957719 v -2.118591 h 0.66881 v 2.118591 z" />
          <path
             id="path2700"
             style="fill:#ffffff;stroke:none;stroke-width:0.10991"
             d="M 33.408511,19.20289 32.69816,17.084299 h 0.677119 l 0.390485,1.366699 0.398794,-1.366699 h 0.652193 l -0.735275,2.118591 z" />
          <path
             id="path2702"
             style="fill:#ffffff;stroke:none;stroke-width:0.10991"
             d="m 35.975356,17.491401 q -0.157856,0 -0.257554,0.116315 -0.0997,0.116315 -0.116315,0.34479 h 0.697889 q 0,-0.461105 -0.32402,-0.461105 z m 0.92221,0.847437 h -1.287771 q 0.06647,0.440334 0.498492,0.440334 0.2534,0 0.623115,-0.157856 l 0.124623,0.452797 q -0.386331,0.178627 -0.843282,0.178627 -0.510955,0 -0.801742,-0.274171 -0.286633,-0.274171 -0.286633,-0.801741 0,-0.544187 0.294942,-0.843283 0.299095,-0.299095 0.772662,-0.299095 0.432027,0 0.677118,0.265863 0.245092,0.261708 0.245092,0.78097 0,0.145394 -0.01662,0.257555 z" />
        </g>
        <path
           d="m 89.162681,25.184074 a 2.3092624,2.3092624 0 0 0 -2.297018,2.308903 2.3092624,2.3092624 0 0 0 2.308903,2.30942 2.3092624,2.3092624 0 0 0 5.3e-4,0 h 0.01188 16.827914 a 2.3092625,2.3092625 0 0 0 2.3089,-2.30942 2.3092625,2.3092625 0 0 0 -2.29702,-2.308903 2.3092625,2.3092625 0 0 0 -0.0119,0 H 89.175083 a 2.3092624,2.3092624 0 0 0 -5.29e-4,0 2.3092624,2.3092624 0 0 0 -0.01188,0 z"
           style="opacity:0.998;fill:#ffffff;fill-opacity:1;stroke:#000080;stroke-width:0.248427;stroke-opacity:1"
           id="path2708" />
        <path
           d="m 90.905361,27.497962 a 1.7046577,1.7046577 0 0 1 -1.704657,1.704657 1.7046577,1.7046577 0 0 1 -1.704657,-1.704657 1.7046577,1.7046577 0 0 1 1.704657,-1.704657 1.7046577,1.7046577 0 0 1 1.704657,1.704657"
           style="opacity:0.998;fill:#000080;fill-opacity:1;stroke:none;stroke-width:0.221454;stroke-opacity:1"
           id="path2710" />
        <g
           style="font-weight:bold;font-size:4.1541px;line-height:1.25;font-family:'Sero Pro';-inkscape-font-specification:'Sero Pro Bold';fill:#000080;stroke-width:0.10991"
           id="g2728"
           aria-label="inactive"
           transform="translate(64.983371,11.472862)">
          <path
             id="path2712"
             style="fill:#000080;stroke-width:0.10991"
             d="m 27.620985,14.187415 q 0.103853,0.09554 0.103853,0.249246 0,0.153702 -0.103853,0.2534 -0.0997,0.09554 -0.270016,0.09554 -0.170318,0 -0.274171,-0.09554 -0.103852,-0.0997 -0.103852,-0.2534 0,-0.153702 0.103852,-0.249246 0.103853,-0.0997 0.274171,-0.0997 0.170318,0 0.270016,0.0997 z m -0.606498,2.957719 v -2.118591 h 0.66881 v 2.118591 z" />
          <path
             id="path2714"
             style="fill:#000080;stroke-width:0.10991"
             d="m 28.214697,17.145134 v -2.118591 h 0.66881 v 0.257554 q 0.307404,-0.307403 0.710351,-0.307403 0.560804,0 0.560804,0.589882 v 1.578558 h -0.66881 v -1.370853 q 0,-0.236784 -0.199397,-0.236784 -0.186934,0 -0.402948,0.186935 v 1.420702 z" />
          <path
             id="path2716"
             style="fill:#000080;stroke-width:0.10991"
             d="m 31.355911,15.487648 q -0.245092,0 -0.635578,0.166164 L 30.59571,15.163628 q 0.456951,-0.186934 0.905594,-0.186934 0.419564,0 0.635577,0.178626 0.220168,0.178626 0.220168,0.606499 v 0.901439 q 0,0.390486 0.04154,0.481876 h -0.631423 q -0.04154,-0.06231 -0.054,-0.224321 -0.249246,0.27417 -0.59819,0.27417 -0.278325,0 -0.456951,-0.174472 -0.174472,-0.174472 -0.174472,-0.490184 0,-0.710351 0.926364,-0.710351 0.157856,0 0.294941,0.01662 v -0.02492 q 0,-0.174472 -0.08724,-0.249246 -0.08308,-0.07477 -0.261708,-0.07477 z m 0.0042,1.229614 q 0.157856,0 0.34479,-0.14124 v -0.361406 q -0.103852,-0.02077 -0.195243,-0.02077 -0.203551,0 -0.290787,0.06647 -0.08308,0.06646 -0.08308,0.203551 0,0.2534 0.224322,0.2534 z" />
          <path
             id="path2718"
             style="fill:#000080;stroke-width:0.10991"
             d="m 34.322977,15.122087 -0.124623,0.510955 q -0.228476,-0.145394 -0.39464,-0.145394 -0.203551,0 -0.32402,0.153702 -0.120468,0.149547 -0.120468,0.456951 0,0.307403 0.120468,0.456951 0.124623,0.149547 0.336483,0.149547 0.207705,0 0.394639,-0.137085 l 0.128777,0.469413 q -0.27417,0.157856 -0.635577,0.157856 -0.465259,0 -0.73943,-0.278325 -0.274171,-0.278324 -0.274171,-0.801741 0,-0.540033 0.290787,-0.839128 0.294942,-0.299095 0.776817,-0.299095 0.319866,0 0.564958,0.145393 z" />
          <path
             id="path2720"
             style="fill:#000080;stroke-width:0.10991"
             d="m 34.494203,15.516727 v -0.490184 h 0.30325 v -0.706197 h 0.66881 v 0.706197 h 0.394639 v 0.490184 h -0.394639 v 0.926364 q 0,0.128777 0.03739,0.178626 0.04154,0.04569 0.141239,0.04569 0.09139,0 0.216013,-0.03323 v 0.498492 q -0.207705,0.03739 -0.419564,0.03739 -0.361407,0 -0.502646,-0.132932 -0.141239,-0.132931 -0.141239,-0.494338 v -1.026062 z" />
          <path
             id="path2722"
             style="fill:#000080;stroke-width:0.10991"
             d="m 36.854122,14.187415 q 0.103852,0.09554 0.103852,0.249246 0,0.153702 -0.103852,0.2534 -0.0997,0.09554 -0.270017,0.09554 -0.170318,0 -0.27417,-0.09554 -0.103853,-0.0997 -0.103853,-0.2534 0,-0.153702 0.103853,-0.249246 0.103852,-0.0997 0.27417,-0.0997 0.170318,0 0.270017,0.0997 z m -0.606499,2.957719 v -2.118591 h 0.66881 v 2.118591 z" />
          <path
             id="path2724"
             style="fill:#000080;stroke-width:0.10991"
             d="m 37.90063,17.145134 -0.710351,-2.118591 h 0.677118 l 0.390486,1.366699 0.398793,-1.366699 h 0.652194 l -0.735276,2.118591 z" />
          <path
             id="path2726"
             style="fill:#000080;stroke-width:0.10991"
             d="m 40.467475,15.433645 q -0.157856,0 -0.257555,0.116315 -0.0997,0.116314 -0.116314,0.34479 h 0.697888 q 0,-0.461105 -0.324019,-0.461105 z m 0.92221,0.847436 h -1.287771 q 0.06647,0.440335 0.498492,0.440335 0.2534,0 0.623115,-0.157856 l 0.124623,0.452797 q -0.386332,0.178626 -0.843283,0.178626 -0.510954,0 -0.801741,-0.27417 -0.286633,-0.274171 -0.286633,-0.801742 0,-0.544187 0.294941,-0.843282 0.299096,-0.299095 0.772663,-0.299095 0.432026,0 0.677118,0.265862 0.245092,0.261708 0.245092,0.780971 0,0.145393 -0.01662,0.257554 z" />
        </g>
      </g>
    </g>
  </g>
</svg>
