<?xml version="1.0" encoding="UTF-8" standalone="no"?>
<svg
   sodipodi:docname="Icon_Re-Aggregation_2.svg"
   inkscape:version="1.1 (c68e22c387, 2021-05-23)"
   id="svg8"
   version="1.1"
   viewBox="0 0 33.866663 33.866667"
   height="128"
   width="128"
   xmlns:inkscape="http://www.inkscape.org/namespaces/inkscape"
   xmlns:sodipodi="http://sodipodi.sourceforge.net/DTD/sodipodi-0.dtd"
   xmlns="http://www.w3.org/2000/svg"
   xmlns:svg="http://www.w3.org/2000/svg"
   xmlns:rdf="http://www.w3.org/1999/02/22-rdf-syntax-ns#"
   xmlns:cc="http://creativecommons.org/ns#"
   xmlns:dc="http://purl.org/dc/elements/1.1/">
  <defs
     id="defs2">
    <linearGradient
       id="linearGradient2783"
       inkscape:swatch="solid">
      <stop
         id="stop2781"
         offset="0"
         style="stop-color:#000000;stop-opacity:1;" />
    </linearGradient>
  </defs>
  <sodipodi:namedview
     inkscape:window-maximized="1"
     inkscape:window-y="492"
     inkscape:window-x="-11"
     inkscape:window-height="987"
     inkscape:window-width="1920"
     inkscape:guide-bbox="true"
     showguides="false"
     showgrid="false"
     inkscape:document-rotation="0"
     inkscape:current-layer="layer1"
     inkscape:document-units="mm"
     inkscape:cy="45.624999"
     inkscape:cx="92.999998"
     inkscape:zoom="4.0000001"
     inkscape:pageshadow="2"
     inkscape:pageopacity="0.0"
     borderopacity="1.0"
     bordercolor="#666666"
     pagecolor="#ffffff"
     id="base"
     units="px"
     inkscape:pagecheckerboard="false"
     inkscape:snap-text-baseline="false" />
  <metadata
     id="metadata5">
    <rdf:RDF>
      <cc:Work
         rdf:about="">
        <dc:format>image/svg+xml</dc:format>
        <dc:type
           rdf:resource="http://purl.org/dc/dcmitype/StillImage" />
      </cc:Work>
    </rdf:RDF>
  </metadata>
  <g
     transform="translate(-17.1756, -15.3899)"
     id="layer1"
     inkscape:groupmode="layer"
     inkscape:label="Layer 1">
    <g
       id="g36504">
      <g
         id="g20605"
         transform="matrix(0.79635256,0,0,0.79635256,-108.85737,-0.47918625)">
        <path
           style="fill:#999999;stroke:#000000;stroke-width:0.26459px;stroke-linecap:butt;stroke-linejoin:miter;stroke-opacity:1"
           d="m 168.68976,41.927654 c 3.76189,1.506555 3.76189,1.506555 3.76189,1.506555 l 3.57342,-1.314185 -3.69677,-1.417048 z"
           id="path10457" />
        <path
           style="fill:#999999;stroke:#000000;stroke-width:0.26459px;stroke-linecap:butt;stroke-linejoin:miter;stroke-opacity:1"
           d="m 172.3283,40.702976 3.69677,1.417048 3.56199,-1.309979 -3.63326,-1.327357 z"
           id="path10459" />
        <path
           style="fill:#999999;stroke:#000000;stroke-width:0.26459px;stroke-linecap:butt;stroke-linejoin:miter;stroke-opacity:1"
           d="m 175.9538,39.482688 3.63326,1.327357 3.55414,-1.307097 -3.58399,-1.233116 z"
           id="path10461" />
        <path
           style="fill:#999999;stroke:#000000;stroke-width:0.26459px;stroke-linecap:butt;stroke-linejoin:miter;stroke-opacity:1"
           d="m 172.45165,43.434209 3.73729,1.496703 3.51068,-1.402363 -3.67455,-1.408525 z"
           id="path10463" />
        <path
           style="fill:#999999;stroke:#000000;stroke-width:0.26459px;stroke-linecap:butt;stroke-linejoin:miter;stroke-opacity:1"
           d="m 179.58706,40.810045 3.61335,1.320091 3.50605,-1.400513 -3.56526,-1.226675 z"
           id="path10467" />
        <path
           style="fill:#999999;stroke:#000000;stroke-width:0.26459px;stroke-linecap:butt;stroke-linejoin:miter;stroke-opacity:1"
           d="m 176.18894,44.930912 3.73586,1.496131 3.45882,-1.486344 -3.684,-1.41215 z"
           id="path10469" />
        <path
           style="fill:#999999;stroke:#000000;stroke-width:0.26459px;stroke-linecap:butt;stroke-linejoin:miter;stroke-opacity:1"
           d="m 179.69962,43.528549 3.684,1.41215 3.45085,-1.482912 -3.63406,-1.327651 z"
           id="path10471" />
        <path
           style="fill:#999999;stroke:#000000;stroke-width:0.26459px;stroke-linecap:butt;stroke-linejoin:miter;stroke-opacity:1"
           d="m 183.20041,42.130136 3.63406,1.327651 3.46882,-1.490635 -3.59683,-1.237529 z"
           id="path10473" />
      </g>
      <path
         style="color:#000000;fill:#999999;stroke:none;stroke-width:0.555269;stroke-linejoin:round;-inkscape-stroke:none"
         d="m 18.495172,17.397082 3.611267,1.38426 3.440486,-1.374324 -3.551117,-1.297353 z"
         id="path19406" />
      <path
         id="path19408"
         style="color:#000000;fill:#0000d4;fill-opacity:1;stroke-width:1.25205;stroke-linejoin:round;-inkscape-stroke:none"
         d="m 21.946717,15.392801 a 0.35373858,0.35373858 0 0 0 -0.08088,0.01875 v 6.63e-4 l -4.450801,1.638239 a 0.3537032,0.3537032 0 0 0 -0.08153,0.04141 0.3537032,0.3537032 0 0 0 -6.62e-4,0 0.35373858,0.35373858 0 0 0 -6.63e-4,6.63e-4 0.3537032,0.3537032 0 0 0 -0.156578,0.290507 v 4.919891 a 0.3537032,0.3537032 0 0 0 0.0097,0.07958 0.35373858,0.35373858 0 0 0 0.0026,0.0071 0.3537032,0.3537032 0 0 0 0.02587,0.07053 0.35373858,0.35373858 0 0 0 0.0033,0.0078 0.3537032,0.3537032 0 0 0 0.111287,0.124876 0.3537032,0.3537032 0 0 0 0.09446,0.04788 l 4.567266,1.750169 a 0.3537032,0.3537032 0 0 0 0.140402,0.02975 0.3537032,0.3537032 0 0 0 0.150109,-0.03429 L 26.61825,22.65294 a 0.3537032,0.3537032 0 0 0 0.188931,-0.142344 0.35373858,0.35373858 0 0 0 0.0013,-0.002 0.3537032,0.3537032 0 0 0 0.04335,-0.09447 0.35373858,0.35373858 0 0 0 6.62e-4,-0.0045 0.3537032,0.3537032 0 0 0 0.01034,-0.04723 0.35373858,0.35373858 0 0 0 6.63e-4,-0.0052 0.3537032,0.3537032 0 0 0 0.002,-0.04206 0.35373858,0.35373858 0 0 0 0,-0.01229 v -4.901127 -0.0045 a 0.35373858,0.35373858 0 0 0 -6.62e-4,-0.0207 0.35373858,0.35373858 0 0 0 0,-6.63e-4 0.3537032,0.3537032 0 0 0 -0.0027,-0.02975 0.35373858,0.35373858 0 0 0 -0.002,-0.01295 0.3537032,0.3537032 0 0 0 -0.01034,-0.04141 0.3537032,0.3537032 0 0 0 -0.0013,-0.0045 0.35373858,0.35373858 0 0 0 -0.0026,-0.0058 0.3537032,0.3537032 0 0 0 -0.01617,-0.04011 0.3537032,0.3537032 0 0 0 -0.0013,-0.0033 0.35373858,0.35373858 0 0 0 -6.63e-4,-0.0013 0.3537032,0.3537032 0 0 0 -0.02716,-0.04465 0.3537032,0.3537032 0 0 0 -0.03365,-0.04076 0.3537032,0.3537032 0 0 0 -0.03623,-0.03299 0.3537032,0.3537032 0 0 0 -0.0033,-0.0026 0.35373858,0.35373858 0 0 0 -0.0026,-0.002 0.3537032,0.3537032 0 0 0 -0.04206,-0.02716 0.3537032,0.3537032 0 0 0 -0.04853,-0.022 l -0.01229,-0.0045 a 0.3537032,0.3537032 0 0 0 -0.0039,-0.0013 l -4.507739,-1.647297 a 0.35373858,0.35373858 0 0 0 -0.163694,-0.01875 z m 0.04141,0.728537 3.535927,1.288203 -3.396171,1.357435 -3.592216,-1.376844 z m -4.105299,1.775403 3.89308,1.4946 v 4.160297 l -3.239595,-1.24162 -0.651544,-0.249748 -0.0013,-0.265275 h -6.62e-4 z m 8.275948,0.02266 v 4.155767 l -0.636017,0.254274 0.0026,6.62e-4 -3.042904,1.215737 v -2.32666 l 0.0013,6.63e-4 V 20.46607 l -0.0013,-6.63e-4 v -1.077276 z" />
      <path
         id="path19412"
         style="fill:#0000d4;fill-opacity:1;stroke-width:0.213354"
         d="m 19.195371,19.488243 v -0.364624 l 0.310358,0.119783 v 0.364443 z m 0.310358,1.577561 V 20.70136 l 0.312172,0.119608 v 0.364444 z m 0.934703,-1.4634 0.310369,0.119608 v 0.364261 l -0.310369,-0.119608 z m 0.310369,0.483867 0.312161,0.119608 v 0.364262 l -0.312161,-0.11942 z m 0,1.457411 0.312161,0.11942 v 0.364262 l -0.312161,-0.119245 z m 0.312161,-0.244837 -0.62253,-0.23903 v 1.09333 l 0.62253,0.238485 v 0.364443 l -2.491924,-0.954848 v -2.916999 l 0.31216,0.119608 v 0.364625 l 0.312173,0.119783 v 0.729068 l -0.312173,-0.119608 v 0.364625 l 0.312173,0.11942 v 0.364625 l 0.310358,0.11942 v 0.364625 l 0.312172,0.11942 v 0.364445 l 0.31037,0.11942 v -0.364443 l -0.31037,-0.11942 v -0.364444 l 0.31037,0.119421 v -0.728888 l -0.622542,-0.23903 V 19.60783 l 0.312172,0.119608 v -0.364443 l 0.31037,0.119783 v 0.728705 l 0.312161,0.119608 v 0.364445 l 0.62253,0.238848 z" />
      <path
         id="path19423"
         style="color:#000000;font-style:normal;font-variant:normal;font-weight:normal;font-stretch:normal;font-size:medium;line-height:normal;font-family:sans-serif;font-variant-ligatures:normal;font-variant-position:normal;font-variant-caps:normal;font-variant-numeric:normal;font-variant-alternates:normal;font-variant-east-asian:normal;font-feature-settings:normal;font-variation-settings:normal;text-indent:0;text-align:start;text-decoration:none;text-decoration-line:none;text-decoration-style:solid;text-decoration-color:#000000;letter-spacing:normal;word-spacing:normal;text-transform:none;writing-mode:lr-tb;direction:ltr;text-orientation:mixed;dominant-baseline:auto;baseline-shift:baseline;text-anchor:start;white-space:normal;shape-padding:0;shape-margin:0;inline-size:0;clip-rule:nonzero;display:inline;overflow:visible;visibility:visible;isolation:auto;mix-blend-mode:normal;color-interpolation:sRGB;color-interpolation-filters:linearRGB;solid-color:#000000;solid-opacity:1;vector-effect:none;fill:#0000d4;fill-opacity:1;fill-rule:nonzero;stroke:none;stroke-width:0.95879;stroke-linecap:butt;stroke-linejoin:round;stroke-miterlimit:4;stroke-dasharray:none;stroke-dashoffset:0;stroke-opacity:1;color-rendering:auto;image-rendering:auto;shape-rendering:auto;text-rendering:auto;enable-background:accumulate;stop-color:#000000"
         d="m 31.332908,25.497205 a 0.47944142,0.47944142 0 0 0 -0.174804,0.02497 l -10.044809,3.468132 a 0.47944142,0.47944142 0 0 0 -0.21475,0.756638 l 2.564574,3.128936 -2.941232,3.674978 a 0.48199846,0.48199846 0 0 0 0.174803,0.736245 l 2.904605,1.349296 v 5.215308 a 0.47944219,0.47944219 0 0 0 0.275941,0.434088 l 10.523007,4.928135 a 0.47944219,0.47944219 0 0 0 0.02577,0.0079 c 0.02553,0.01037 0.05154,0.01825 0.07868,0.02414 a 0.47944219,0.47944219 0 0 0 0.04454,0.0079 c 0.0302,0.0036 0.06057,0.0032 0.09156,8.05e-4 a 0.47944219,0.47944219 0 0 0 0.03874,-0.0029 c 0.02698,-0.0043 0.05356,-0.01351 0.08029,-0.02288 a 0.47944219,0.47944219 0 0 0 0.05074,-0.01789 c 0.0032,-0.0016 0.0072,-0.002 0.01038,-0.0038 l 9.687713,-4.928967 c 0.160718,-0.0817 0.262056,-0.246721 0.2622,-0.427012 v -5.231123 l 2.76643,-1.393414 a 0.47944145,0.47944145 0 0 0 0.162315,-0.721285 L 44.917355,32.90201 47.672131,29.934142 A 0.47944142,0.47944142 0 0 0 47.474876,29.155041 L 37.270669,25.68691 a 0.47944142,0.47944142 0 0 0 -0.129856,-0.02497 0.47944142,0.47944142 0 0 0 -0.389553,0.16731 l -2.454706,2.868398 -2.619097,-3.035708 a 0.47944142,0.47944142 0 0 0 -0.344606,-0.164817 z m -0.167314,1.038817 2.303629,2.669041 -9.227409,3.109374 -2.164615,-2.642405 z m 6.102626,0.162315 9.198272,3.12602 -2.314856,2.494242 -9.028469,-3.111038 z m -2.974106,3.240891 5.627754,1.937792 3.040291,1.047556 -8.362975,3.60381 -9.120031,-3.618378 z m -10.05979,3.51516 9.623203,3.815238 -2.704416,3.81274 -9.492936,-4.40956 z m 19.90524,0.0071 2.446798,3.17097 -8.399603,4.229764 -2.82386,-3.617959 z m -9.05635,4.980575 2.589137,3.319135 a 0.47944145,0.47944145 0 0 0 0.594323,0.134845 l 5.545761,-2.793066 v 4.453675 l -8.729221,4.441993 z m -0.958903,0.117366 v 9.466714 L 24.560205,43.54705 v -4.464912 l 6.552953,3.044031 a 0.48199846,0.48199846 0 0 0 0.594322,-0.159818 z" />
      <path
         style="fill:#000080;stroke-width:0.146173;stroke-linecap:square;stroke-dashoffset:3.11811;paint-order:markers stroke fill"
         d="m 29.303805,45.741218 -4.727335,-2.218775 -4.26e-4,-2.196767 -4.26e-4,-2.196766 0.279674,0.125065 c 0.15382,0.06879 1.626263,0.750769 3.272095,1.515518 1.645832,0.764748 3.048197,1.402812 3.116367,1.417919 0.278527,0.06172 0.394808,-0.06752 1.643808,-1.827038 l 1.223608,-1.723746 v 4.666981 c 0,2.566841 -0.01798,4.664598 -0.03996,4.661684 -0.02197,-0.0029 -2.167255,-1.00375 -4.767288,-2.224075 z"
         id="path19445" />
      <g
         aria-label="Serialized"
         id="g19467"
         style="font-weight:bold;font-size:10px;line-height:1.25;font-family:'Sero Pro';-inkscape-font-specification:'Sero Pro Bold';fill:#ffffff;stroke-width:0.264583"
         transform="matrix(0.80536042,0,0,0.80536042,-140.39523,-47.007175)">
        <path
           d="m 205.422,111.767 0.074,-0.657 c 0.146,0.274 0.272,0.436 0.379,0.485 0.072,0.033 0.128,0.02 0.168,-0.039 0.041,-0.062 0.062,-0.158 0.062,-0.287 0,-0.098 -0.012,-0.186 -0.036,-0.263 -0.024,-0.081 -0.055,-0.151 -0.094,-0.21 -0.037,-0.058 -0.079,-0.115 -0.125,-0.171 -0.047,-0.058 -0.093,-0.124 -0.139,-0.196 -0.046,-0.073 -0.088,-0.154 -0.126,-0.243 -0.037,-0.089 -0.067,-0.201 -0.091,-0.336 -0.023,-0.138 -0.035,-0.292 -0.035,-0.462 0,-0.357 0.047,-0.622 0.141,-0.795 0.095,-0.178 0.22,-0.235 0.375,-0.173 0.151,0.06 0.289,0.214 0.416,0.462 l -0.077,0.708 c -0.121,-0.261 -0.233,-0.413 -0.337,-0.456 -0.061,-0.025 -0.109,-0.009 -0.145,0.05 -0.035,0.055 -0.052,0.142 -0.052,0.261 0,0.104 0.016,0.198 0.048,0.281 0.032,0.084 0.071,0.153 0.119,0.208 0.049,0.053 0.102,0.119 0.158,0.199 0.056,0.08 0.108,0.166 0.157,0.257 0.05,0.089 0.091,0.212 0.123,0.371 0.032,0.158 0.049,0.34 0.049,0.544 0,0.377 -0.052,0.653 -0.154,0.828 -0.101,0.174 -0.234,0.222 -0.401,0.145 -0.167,-0.079 -0.32,-0.249 -0.457,-0.511 z"
           id="path19447" />
        <path
           d="m 207.094,110.579 c -0.053,-0.022 -0.096,0.009 -0.129,0.094 -0.033,0.086 -0.052,0.225 -0.057,0.418 l 0.348,0.153 c 0,-0.397 -0.054,-0.618 -0.162,-0.665 z m 0.464,1.299 -0.646,-0.29 c 0.022,0.387 0.104,0.613 0.248,0.679 0.085,0.039 0.189,0.019 0.313,-0.061 l 0.064,0.616 c -0.131,0.094 -0.272,0.104 -0.425,0.033 -0.169,-0.079 -0.302,-0.259 -0.397,-0.537 -0.094,-0.277 -0.141,-0.639 -0.141,-1.088 0,-0.463 0.048,-0.8 0.145,-1.014 0.098,-0.213 0.226,-0.287 0.383,-0.221 0.144,0.06 0.258,0.222 0.34,0.487 0.083,0.261 0.124,0.616 0.124,1.066 0,0.125 -0.003,0.235 -0.008,0.33 z"
           id="path19449" />
        <path
           d="m 208.477,110.588 v 0.756 c -0.013,-0.01 -0.036,-0.022 -0.069,-0.036 -0.106,-0.045 -0.203,0.014 -0.293,0.178 v 1.773 l -0.344,-0.16 v -2.759 l 0.344,0.145 v 0.419 c 0.071,-0.293 0.17,-0.413 0.297,-0.359 0.026,0.011 0.048,0.025 0.065,0.043 z"
           id="path19451" />
        <path
           d="m 208.974,109.732 c 0.037,0.1 0.055,0.218 0.055,0.354 0,0.136 -0.018,0.241 -0.055,0.314 -0.035,0.07 -0.083,0.092 -0.143,0.067 -0.06,-0.025 -0.108,-0.087 -0.145,-0.186 -0.036,-0.103 -0.054,-0.222 -0.054,-0.357 0,-0.136 0.018,-0.238 0.054,-0.308 0.037,-0.073 0.085,-0.097 0.145,-0.073 0.06,0.024 0.108,0.087 0.143,0.189 z m -0.32,3.779 v -2.799 l 0.353,0.149 v 2.815 z"
           id="path19453" />
        <path
           d="m 209.696,111.77 c -0.089,-0.038 -0.204,-0.013 -0.344,0.074 l -0.067,-0.683 c 0.164,-0.098 0.327,-0.112 0.49,-0.044 0.153,0.064 0.269,0.193 0.349,0.388 0.081,0.196 0.121,0.487 0.121,0.874 v 1.222 c 0,0.353 0.008,0.575 0.023,0.664 l -0.348,-0.162 c -0.015,-0.063 -0.025,-0.169 -0.029,-0.316 -0.091,0.204 -0.2,0.276 -0.326,0.217 -0.1,-0.047 -0.183,-0.164 -0.247,-0.349 -0.062,-0.184 -0.093,-0.416 -0.093,-0.697 0,-0.632 0.166,-0.875 0.5,-0.728 0.057,0.025 0.111,0.056 0.161,0.093 v -0.034 c 0,-0.157 -0.016,-0.275 -0.048,-0.356 -0.03,-0.081 -0.077,-0.135 -0.142,-0.163 z m 0.002,1.654 c 0.057,0.026 0.12,-0.009 0.188,-0.104 v -0.488 c -0.038,-0.035 -0.073,-0.06 -0.107,-0.075 -0.074,-0.033 -0.126,-0.027 -0.158,0.018 -0.03,0.046 -0.045,0.131 -0.045,0.253 0,0.227 0.041,0.359 0.122,0.396 z"
           id="path19455" />
        <path
           d="m 210.513,114.38 v -4.073 l 0.376,0.151 v 4.097 z"
           id="path19457" />
        <path
           d="m 211.554,110.771 c 0.04,0.104 0.06,0.228 0.06,0.37 0,0.142 -0.02,0.25 -0.06,0.326 -0.039,0.072 -0.09,0.095 -0.156,0.068 -0.065,-0.027 -0.117,-0.093 -0.157,-0.197 -0.039,-0.108 -0.059,-0.233 -0.059,-0.374 0,-0.141 0.02,-0.247 0.059,-0.319 0.04,-0.075 0.092,-0.1 0.157,-0.074 0.066,0.026 0.117,0.093 0.156,0.2 z m -0.349,3.932 v -2.917 l 0.385,0.162 v 2.935 z"
           id="path19459" />
        <path
           d="M 211.804,114.983 V 114.4 l 0.593,-1.43 -0.556,-0.24 v -0.676 l 1.05,0.442 v 0.575 l -0.602,1.44 0.607,0.277 v 0.705 z"
           id="path19461" />
        <path
           d="m 213.694,113.416 c -0.065,-0.028 -0.118,0.005 -0.159,0.098 -0.041,0.093 -0.064,0.247 -0.071,0.461 l 0.43,0.19 c 0,-0.442 -0.067,-0.691 -0.2,-0.749 z m 0.574,1.471 -0.799,-0.359 c 0.027,0.431 0.129,0.688 0.307,0.769 0.105,0.048 0.234,0.031 0.388,-0.05 l 0.078,0.689 c -0.162,0.097 -0.337,0.1 -0.525,0.012 -0.21,-0.098 -0.373,-0.305 -0.492,-0.62 -0.116,-0.313 -0.173,-0.718 -0.173,-1.216 0,-0.514 0.059,-0.887 0.178,-1.119 0.122,-0.232 0.28,-0.308 0.474,-0.226 0.178,0.075 0.319,0.261 0.421,0.559 0.102,0.296 0.153,0.694 0.153,1.193 0,0.14 -0.003,0.263 -0.01,0.368 z"
           id="path19463" />
        <path
           d="m 215.382,116.655 c -0.018,-0.062 -0.031,-0.198 -0.038,-0.408 -0.111,0.257 -0.243,0.349 -0.396,0.277 -0.151,-0.07 -0.271,-0.261 -0.36,-0.572 -0.09,-0.314 -0.135,-0.716 -0.135,-1.205 0,-0.521 0.05,-0.906 0.15,-1.157 0.102,-0.254 0.23,-0.349 0.385,-0.284 0.142,0.06 0.26,0.249 0.353,0.569 v -1.628 l 0.437,0.176 v 3.705 c 0,0.384 0.009,0.626 0.027,0.724 z m -0.272,-0.801 c 0.075,0.034 0.152,-0.018 0.231,-0.157 v -1.188 c -0.079,-0.201 -0.154,-0.317 -0.225,-0.348 -0.073,-0.031 -0.131,0.015 -0.174,0.137 -0.042,0.119 -0.064,0.324 -0.064,0.614 0,0.283 0.021,0.502 0.062,0.658 0.042,0.156 0.099,0.251 0.17,0.284 z"
           id="path19465" />
      </g>
      <g
         id="g21011"
         transform="rotate(-6.3053763,18.854563,28.788401)">
        <path
           style="color:#000000;fill:#ffffff;stroke-width:0.264583px;-inkscape-stroke:none"
           d="m 29.614289,35.054924 c 0.176503,0.1976 0.569775,0.32986 0.788619,-0.09935 l 2.496463,-4.8962 c 0.171565,-0.336482 -0.02125,-0.588131 -0.467552,-0.53034 l -6.163224,0.798073 c -0.575499,0.07452 -0.440462,0.489122 -0.313325,0.631455 z"
           id="path23523"
           sodipodi:nodetypes="sssssss" />
        <path
           id="path58172"
           style="fill:#ffffff;fill-opacity:1;stroke-width:0;stroke-linejoin:round;stroke-dashoffset:3.11811"
           d="m 27.946352,30.632213 2.965988,-0.384064 c -0.734821,-3.116587 -2.030298,-4.549865 -4.400002,-5.365997 -1.186673,-0.408693 -2.14244,-0.218812 -2.920174,0.04774 1.92051,0.683744 4.215415,1.156751 4.354188,5.702326 z"
           sodipodi:nodetypes="ccscc" />
        <path
           inkscape:transform-center-y="1.6029926"
           d="m 32.109245,30.161684 -1.77736,0.230148 c -1.06883,-4.533217 -3.65787,-5.500367 -5.992038,-5.364464 1.513674,0.237508 4.096758,1.153872 4.135671,5.604845 l -1.733843,0.224517 1.595721,1.786448 1.595718,1.786448 1.088068,-2.13397 z"
           inkscape:transform-center-x="1.0001303"
           style="opacity:0.998;fill:#ff6600;fill-opacity:1;stroke-width:0;stroke-linejoin:round;stroke-dashoffset:3.11811"
           id="path58174" />
      </g>
      <g
         id="g20416"
         transform="translate(24.176717,-2.4251366e-4)">
        <path
           style="color:#000000;fill:#999999;stroke:none;stroke-width:0.555269;stroke-linejoin:round;-inkscape-stroke:none"
           d="m 18.495172,17.397082 3.611267,1.38426 3.440486,-1.374324 -3.551117,-1.297353 z"
           id="path20410" />
        <path
           id="path20412"
           style="color:#000000;fill:#000080;fill-opacity:1;stroke-width:1.25205;stroke-linejoin:round;-inkscape-stroke:none"
           d="m 21.946717,15.392801 a 0.35373858,0.35373858 0 0 0 -0.08088,0.01875 v 6.63e-4 l -4.450801,1.638239 a 0.3537032,0.3537032 0 0 0 -0.08153,0.04141 0.3537032,0.3537032 0 0 0 -6.62e-4,0 0.35373858,0.35373858 0 0 0 -6.63e-4,6.63e-4 0.3537032,0.3537032 0 0 0 -0.156578,0.290507 v 4.919891 a 0.3537032,0.3537032 0 0 0 0.0097,0.07958 0.35373858,0.35373858 0 0 0 0.0026,0.0071 0.3537032,0.3537032 0 0 0 0.02587,0.07053 0.35373858,0.35373858 0 0 0 0.0033,0.0078 0.3537032,0.3537032 0 0 0 0.111287,0.124876 0.3537032,0.3537032 0 0 0 0.09446,0.04788 l 4.567266,1.750169 a 0.3537032,0.3537032 0 0 0 0.140402,0.02975 0.3537032,0.3537032 0 0 0 0.150109,-0.03429 L 26.61825,22.65294 a 0.3537032,0.3537032 0 0 0 0.188931,-0.142344 0.35373858,0.35373858 0 0 0 0.0013,-0.002 0.3537032,0.3537032 0 0 0 0.04335,-0.09447 0.35373858,0.35373858 0 0 0 6.62e-4,-0.0045 0.3537032,0.3537032 0 0 0 0.01034,-0.04723 0.35373858,0.35373858 0 0 0 6.63e-4,-0.0052 0.3537032,0.3537032 0 0 0 0.002,-0.04206 0.35373858,0.35373858 0 0 0 0,-0.01229 v -4.901127 -0.0045 a 0.35373858,0.35373858 0 0 0 -6.62e-4,-0.0207 0.35373858,0.35373858 0 0 0 0,-6.63e-4 0.3537032,0.3537032 0 0 0 -0.0027,-0.02975 0.35373858,0.35373858 0 0 0 -0.002,-0.01295 0.3537032,0.3537032 0 0 0 -0.01034,-0.04141 0.3537032,0.3537032 0 0 0 -0.0013,-0.0045 0.35373858,0.35373858 0 0 0 -0.0026,-0.0058 0.3537032,0.3537032 0 0 0 -0.01617,-0.04011 0.3537032,0.3537032 0 0 0 -0.0013,-0.0033 0.35373858,0.35373858 0 0 0 -6.63e-4,-0.0013 0.3537032,0.3537032 0 0 0 -0.02716,-0.04465 0.3537032,0.3537032 0 0 0 -0.03365,-0.04076 0.3537032,0.3537032 0 0 0 -0.03623,-0.03299 0.3537032,0.3537032 0 0 0 -0.0033,-0.0026 0.35373858,0.35373858 0 0 0 -0.0026,-0.002 0.3537032,0.3537032 0 0 0 -0.04206,-0.02716 0.3537032,0.3537032 0 0 0 -0.04853,-0.022 l -0.01229,-0.0045 a 0.3537032,0.3537032 0 0 0 -0.0039,-0.0013 l -4.507739,-1.647297 a 0.35373858,0.35373858 0 0 0 -0.163694,-0.01875 z m 0.04141,0.728537 3.535927,1.288203 -3.396171,1.357435 -3.592216,-1.376844 z m -4.105299,1.775403 3.89308,1.4946 v 4.160297 l -3.239595,-1.24162 -0.651544,-0.249748 -0.0013,-0.265275 h -6.62e-4 z m 8.275948,0.02266 v 4.155767 l -0.636017,0.254274 0.0026,6.62e-4 -3.042904,1.215737 v -2.32666 l 0.0013,6.63e-4 V 20.46607 l -0.0013,-6.63e-4 v -1.077276 z" />
        <path
           id="path20414"
           style="fill:#000080;stroke-width:0.213354"
           d="m 19.195371,19.488243 v -0.364624 l 0.310358,0.119783 v 0.364443 z m 0.310358,1.577561 V 20.70136 l 0.312172,0.119608 v 0.364444 z m 0.934703,-1.4634 0.310369,0.119608 v 0.364261 l -0.310369,-0.119608 z m 0.310369,0.483867 0.312161,0.119608 v 0.364262 l -0.312161,-0.11942 z m 0,1.457411 0.312161,0.11942 v 0.364262 l -0.312161,-0.119245 z m 0.312161,-0.244837 -0.62253,-0.23903 v 1.09333 l 0.62253,0.238485 v 0.364443 l -2.491924,-0.954848 v -2.916999 l 0.31216,0.119608 v 0.364625 l 0.312173,0.119783 v 0.729068 l -0.312173,-0.119608 v 0.364625 l 0.312173,0.11942 v 0.364625 l 0.310358,0.11942 v 0.364625 l 0.312172,0.11942 v 0.364445 l 0.31037,0.11942 v -0.364443 l -0.31037,-0.11942 v -0.364444 l 0.31037,0.119421 v -0.728888 l -0.622542,-0.23903 V 19.60783 l 0.312172,0.119608 v -0.364443 l 0.31037,0.119783 v 0.728705 l 0.312161,0.119608 v 0.364445 l 0.62253,0.238848 z" />
      </g>
      <g
         id="g29387"
         transform="rotate(-112.34487,33.332356,24.772841)">
        <path
           style="color:#000000;fill:#ffffff;stroke-width:0.264583px;-inkscape-stroke:none"
           d="m 29.614289,35.054924 c 0.176503,0.1976 0.569775,0.32986 0.788619,-0.09935 l 2.496463,-4.8962 c 0.171565,-0.336482 -0.02125,-0.588131 -0.467552,-0.53034 l -6.163224,0.798073 c -0.575499,0.07452 -0.440462,0.489122 -0.313325,0.631455 z"
           id="path29381"
           sodipodi:nodetypes="sssssss" />
        <path
           id="path29383"
           style="fill:#ffffff;fill-opacity:1;stroke-width:0;stroke-linejoin:round;stroke-dashoffset:3.11811"
           d="m 27.946352,30.632213 2.965988,-0.384064 c -0.734821,-3.116587 -2.030298,-4.549865 -4.400002,-5.365997 -1.186673,-0.408693 -2.14244,-0.218812 -2.920174,0.04774 1.92051,0.683744 4.215415,1.156751 4.354188,5.702326 z"
           sodipodi:nodetypes="ccscc" />
        <path
           inkscape:transform-center-y="1.6029926"
           d="m 32.109245,30.161684 -1.77736,0.230148 c -1.06883,-4.533217 -3.65787,-5.500367 -5.992038,-5.364464 1.513674,0.237508 4.096758,1.153872 4.135671,5.604845 l -1.733843,0.224517 1.595721,1.786448 1.595718,1.786448 1.088068,-2.13397 z"
           inkscape:transform-center-x="1.0001303"
           style="opacity:0.998;fill:#ff6600;fill-opacity:1;stroke-width:0;stroke-linejoin:round;stroke-dashoffset:3.11811"
           id="path29385" />
      </g>
    </g>
  </g>
</svg>
