<?xml version="1.0" encoding="UTF-8" standalone="no"?>
<svg
   width="128"
   height="128"
   viewBox="0 0 33.866663 33.866667"
   version="1.1"
   id="svg8"
   inkscape:version="1.1 (c68e22c387, 2021-05-23)"
   sodipodi:docname="Icon_Non-Serialized_2.svg"
   xmlns:inkscape="http://www.inkscape.org/namespaces/inkscape"
   xmlns:sodipodi="http://sodipodi.sourceforge.net/DTD/sodipodi-0.dtd"
   xmlns="http://www.w3.org/2000/svg"
   xmlns:svg="http://www.w3.org/2000/svg"
   xmlns:rdf="http://www.w3.org/1999/02/22-rdf-syntax-ns#"
   xmlns:cc="http://creativecommons.org/ns#"
   xmlns:dc="http://purl.org/dc/elements/1.1/">
  <defs
     id="defs2">
    <linearGradient
       id="linearGradient2783"
       inkscape:swatch="solid">
      <stop
         id="stop2781"
         offset="0"
         style="stop-color:#000000;stop-opacity:1;" />
    </linearGradient>
  </defs>
  <sodipodi:namedview
     inkscape:window-maximized="1"
     inkscape:window-y="492"
     inkscape:window-x="-11"
     inkscape:window-height="987"
     inkscape:window-width="1920"
     inkscape:guide-bbox="true"
     showguides="true"
     showgrid="false"
     inkscape:document-rotation="0"
     inkscape:current-layer="layer1"
     inkscape:document-units="mm"
     inkscape:cy="47.376153"
     inkscape:cx="206.47517"
     inkscape:zoom="0.7071068"
     inkscape:pageshadow="2"
     inkscape:pageopacity="0.0"
     borderopacity="1.0"
     bordercolor="#666666"
     pagecolor="#ffffff"
     id="base"
     units="px"
     inkscape:pagecheckerboard="false" />
  <metadata
     id="metadata5">
    <rdf:RDF>
      <cc:Work
         rdf:about="">
        <dc:format>image/svg+xml</dc:format>
        <dc:type
           rdf:resource="http://purl.org/dc/dcmitype/StillImage" />
      </cc:Work>
    </rdf:RDF>
  </metadata>
  <g
     transform="translate(-17.1756, -15.3899)"
     id="layer1"
     inkscape:groupmode="layer"
     inkscape:label="Layer 1">
    <g
       id="g1024">
      <g
         id="g8617"
         transform="matrix(1,0,0,1.0030726,-0.11006789,-0.60361215)">
        <g
           id="g84715"
           style="fill:#000080"
           transform="matrix(3.5004476,0,0,3.8528571,-629.38313,2.4362253)">
          <g
             id="g84707"
             style="fill:#000080" />
          <g
             id="g84709"
             style="fill:#000080" />
          <g
             id="g84713"
             style="fill:#000080">
            <path
               id="path84711"
               style="color:#000000;fill:#000080;stroke-linecap:round;-inkscape-stroke:none"
               d="m 190.906,10.1562 c -0.085,0.0342 -0.154,0.172 -0.154,0.3079 -0.001,0.0657 0.015,0.1224 0.044,0.1574 0.029,0.035 0.069,0.0454 0.11,0.0289 l 2.129,-0.85191 c 0.042,-0.01648 0.081,-0.05846 0.11,-0.11662 0.029,-0.05815 0.045,-0.12768 0.045,-0.19313 0,-0.13581 -0.069,-0.21828 -0.155,-0.18426 z m 0,0.2472 2.13,-0.85215 m -2.13,-0.61086 c -0.085,0.03413 -0.154,0.1719 -0.154,0.3078 0,0.13587 0.069,0.21838 0.154,0.18433 l 2.129,-0.85148 c 0.086,-0.03411 0.155,-0.17181 0.155,-0.30765 0,-0.13581 -0.069,-0.2183 -0.155,-0.18429 z m 0,0.24625 2.13,-0.85167 m -2.13,-0.61042 c -0.085,0.03411 -0.154,0.17186 -0.154,0.30775 0,0.13587 0.069,0.2184 0.154,0.18437 l 2.129,-0.85101 c 0.086,-0.03409 0.155,-0.17178 0.155,-0.30762 0,-0.13581 -0.069,-0.21831 -0.155,-0.18432 z m 0,0.24534 2.13,-0.8512" />
          </g>
        </g>
        <g
           id="g8202"
           transform="matrix(1.0065413,0,0,1.0273552,-55.28949,-24.573104)">
          <path
             id="path8196"
             style="color:#000000;fill:#000080;stroke-width:3.77953;stroke-linecap:round;-inkscape-stroke:none"
             d="m 266.55724,92.056617 -56.43029,21.937523 c -0.0163,0.009 -0.0326,0.0181 -0.0488,0.0273 -0.0936,0.0446 -0.18552,0.0928 -0.27539,0.14454 -0.1329,0.0656 -0.262,0.13865 -0.38671,0.21875 -0.0805,0.046 -0.15929,0.0949 -0.23633,0.14648 -0.0761,0.0649 -0.14973,0.13266 -0.22071,0.20313 -0.1148,0.1004 -0.22371,0.20735 -0.32617,0.32031 -0.0662,0.0661 -0.13004,0.13448 -0.1914,0.20508 -0.0522,0.077 -0.10175,0.15583 -0.14844,0.23632 -0.0912,0.13475 -0.17408,0.27499 -0.24805,0.41993 -0.0429,0.0755 -0.0833,0.15233 -0.12109,0.23046 -0.009,0.0156 -0.0184,0.0312 -0.0274,0.0469 -0.0209,0.0724 -0.0398,0.14531 -0.0566,0.21875 -0.0562,0.16159 -0.10187,0.32665 -0.13672,0.49414 -0.0197,0.0737 -0.0373,0.14795 -0.0527,0.22266 -0.008,0.0968 -0.0127,0.19387 -0.0137,0.29101 -0.0147,0.0881 -0.0265,0.17671 -0.0352,0.26563 v 68.77539 c -9e-5,1.61272 0.97796,3.06434 2.47266,3.66992 l 60.77539,24.68555 c 0.0505,0.014 0.10131,0.0271 0.15234,0.0391 0.23318,0.0849 0.47382,0.14766 0.71875,0.1875 0.1089,0.0149 0.21837,0.0254 0.32813,0.0312 0.0966,0.0134 0.19368,0.0231 0.29101,0.0293 0.11763,-0.006 0.23493,-0.0169 0.35157,-0.0332 0.0973,-0.006 0.1944,-0.016 0.29101,-0.0293 0.30613,-0.0468 0.6057,-0.12944 0.89258,-0.2461 0.003,-6.6e-4 0.005,-0.001 0.008,-0.002 l 58.46485,-24.68555 c 1.46689,-0.61815 2.42097,-2.05466 2.42187,-3.64648 v -68.77539 c -0.003,-0.0228 -0.006,-0.0456 -0.01,-0.0684 -7.2e-4,-0.0717 -0.003,-0.14332 -0.008,-0.21485 v -0.002 -0.006 c -0.008,-0.10658 -0.0204,-0.21278 -0.0371,-0.31836 -0.004,-0.0261 -0.009,-0.0521 -0.0137,-0.0781 -0.0152,-0.0885 -0.0335,-0.17643 -0.0547,-0.26367 -0.001,-0.005 -0.003,-0.0104 -0.004,-0.0156 -10e-4,-0.003 -0.003,-0.007 -0.004,-0.01 v -0.006 c -0.009,-0.0307 -0.0178,-0.0613 -0.0273,-0.0918 -0.0189,-0.0696 -0.0398,-0.1386 -0.0625,-0.20703 -0.001,-0.005 -0.003,-0.0104 -0.004,-0.0156 -0.009,-0.0235 -0.018,-0.0469 -0.0273,-0.0703 -0.0207,-0.0591 -0.0429,-0.11772 -0.0664,-0.17578 -0.003,-0.006 -0.007,-0.0117 -0.01,-0.0176 -0.0552,-0.12818 -0.11713,-0.25336 -0.18555,-0.375 -0.0203,-0.0342 -0.0412,-0.068 -0.0625,-0.10156 -0.0736,-0.12275 -0.15379,-0.24141 -0.24024,-0.35547 -0.016,-0.0223 -0.0323,-0.0444 -0.0488,-0.0664 -0.0856,-0.10888 -0.17689,-0.21319 -0.27344,-0.3125 -0.0219,-0.0211 -0.044,-0.0419 -0.0664,-0.0625 -0.10938,-0.10618 -0.22481,-0.20596 -0.3457,-0.29883 -0.0162,-0.0132 -0.0324,-0.0262 -0.0488,-0.0391 -0.11596,-0.0866 -0.23659,-0.16682 -0.36133,-0.24023 -0.0201,-0.0112 -0.0402,-0.0223 -0.0605,-0.0332 -0.13582,-0.0766 -0.27604,-0.14504 -0.41993,-0.20507 -0.0188,-0.008 -0.0377,-0.0157 -0.0566,-0.0234 -0.0188,-0.009 -0.0377,-0.0171 -0.0566,-0.0254 -19.23635,-7.32032 -33.77502,-12.84842 -57.70906,-21.960974 -3.974,-1.513044 -3.97019,-1.514523 -7.94801,0.03187 z m 4.01111,6.937524 49.61523,18.882809 -47.87304,20.21875 -50.02735,-20.33008 z m -55.04688,24.572269 52.86329,21.48047 v 60.2246 l -52.86329,-21.4746 z m 111.32618,0.0879 v 60.17968 l -50.54297,21.34375 v -60.17382 z"
             transform="matrix(0.26458333,0,0,0.26458333,17.1756,15.3899)"
             sodipodi:nodetypes="sccccccccccccccccccccccccccccccccccccccccccccccccccccccccccccssccccccccccccccc" />
          <path
             style="fill:#999999;fill-opacity:1;stroke:none;stroke-width:0.264583px;stroke-linecap:butt;stroke-linejoin:miter;stroke-opacity:1"
             d="m 75.988027,46.54872 13.236405,5.379 12.666408,-5.349547 -13.12737,-4.996075 z"
             id="path8198" />
        </g>
      </g>
      <g
         aria-label="Non-Serial"
         id="text14369"
         style="font-weight:bold;font-size:10px;line-height:1.25;font-family:'Sero Pro';-inkscape-font-specification:'Sero Pro Bold';fill:#ff6600;fill-opacity:1;stroke-width:0.264583"
         transform="matrix(0.546429,0,0,0.546429,17.2454,22.690433)">
        <path
           d="M 5.44062,24.656 V 13.5067 l 0.75093,0.3124 1.11978,6.954 V 14.285 l 0.65869,0.274 V 25.708 L 7.37281,25.4596 6.09933,17.5436 V 24.93 Z"
           id="path16698"
           style="fill:#ff6600;fill-opacity:1" />
        <path
           d="m 10.6442,22.8407 c 0,1.3627 -0.1039,2.3569 -0.3118,2.9827 -0.2078,0.6155 -0.47274,0.8563 -0.79475,0.7224 C 9.21856,26.4131 8.95656,25.9583 8.75164,25.1814 8.54965,24.3955 8.44865,23.3315 8.44865,21.9895 c 0,-1.3627 0.10393,-2.3518 0.31177,-2.9673 0.20785,-0.6258 0.47278,-0.8718 0.79479,-0.7378 0.31909,0.1327 0.57959,0.5921 0.78159,1.3781 0.2049,0.7768 0.3074,1.8363 0.3074,3.1782 z m -0.81674,1.5185 c 0.07318,-0.3516 0.10978,-0.9351 0.10978,-1.7506 0,-0.8155 -0.0366,-1.4243 -0.10978,-1.8264 C 9.7572,20.3711 9.66353,20.1411 9.54643,20.0924 9.42934,20.0437 9.3342,20.1951 9.26101,20.5466 9.19075,20.889 9.15563,21.468 9.15563,22.2835 c 0,0.8155 0.03512,1.4289 0.10538,1.8401 0.07319,0.402 0.16833,0.6274 0.28542,0.6761 0.1171,0.0487 0.21077,-0.0981 0.28103,-0.4405 z"
           id="path16700"
           style="fill:#ff6600;fill-opacity:1" />
        <path
           d="m 11.0438,26.9864 v -7.897 l 0.7069,0.2941 v 0.96 c 0.2166,-0.6738 0.4669,-0.9516 0.7508,-0.8335 0.3952,0.1644 0.5928,0.9795 0.5928,2.4453 v 5.8839 l -0.7069,-0.294 v -5.1097 c 0,-0.5884 -0.0703,-0.9119 -0.2108,-0.9703 -0.1317,-0.0548 -0.2737,0.1184 -0.4259,0.5196 v 5.2956 z"
           id="path16702"
           style="fill:#ff6600;fill-opacity:1" />
        <path
           d="m 13.5158,24.0197 v -1.6568 l 1.3655,0.568 v 1.6568 z"
           id="path16704"
           style="fill:#ff6600;fill-opacity:1" />
        <path
           d="M 15.1272,27.9879 15.294,25.998 c 0.3249,0.7545 0.6059,1.181 0.843,1.2796 0.1581,0.0658 0.281,0.0034 0.3688,-0.1872 0.0907,-0.1997 0.1361,-0.4905 0.1361,-0.8724 0,-0.289 -0.0263,-0.5426 -0.079,-0.7606 -0.0527,-0.2284 -0.1215,-0.4221 -0.2064,-0.5813 -0.0819,-0.158 -0.1741,-0.3098 -0.2766,-0.4557 -0.1024,-0.1561 -0.2049,-0.3329 -0.3073,-0.5304 -0.1025,-0.1974 -0.1961,-0.4222 -0.281,-0.6743 -0.082,-0.2508 -0.1493,-0.573 -0.202,-0.9666 -0.0527,-0.4038 -0.079,-0.8586 -0.079,-1.3644 0,-1.0632 0.1054,-1.8658 0.3161,-2.4078 0.2108,-0.5524 0.4874,-0.7573 0.8298,-0.6148 0.3308,0.1376 0.6337,0.5526 0.9088,1.2451 l -0.1668,2.0983 c -0.2634,-0.7289 -0.5093,-1.1409 -0.7376,-1.2358 -0.1346,-0.056 -0.2415,0.0079 -0.3205,0.1918 -0.0761,0.1748 -0.1142,0.4377 -0.1142,0.7886 0,0.3097 0.0352,0.5824 0.1054,0.818 0.0703,0.2357 0.1581,0.4271 0.2635,0.5741 0.1082,0.138 0.2239,0.3151 0.3468,0.5314 0.1229,0.2163 0.2371,0.4496 0.3425,0.6998 0.1083,0.2412 0.1975,0.588 0.2678,1.0404 0.0702,0.4525 0.1053,0.978 0.1053,1.5767 0,1.1045 -0.1112,1.9356 -0.3336,2.4934 -0.2196,0.559 -0.5123,0.7624 -0.8781,0.6102 -0.3718,-0.1546 -0.7113,-0.59 -1.0186,-1.3062 z"
           id="path16706"
           style="fill:#ff6600;fill-opacity:1" />
        <path
           d="m 18.7712,23.8212 c -0.1112,-0.0462 -0.2019,0.0605 -0.2722,0.3203 -0.0702,0.2598 -0.1112,0.6712 -0.1229,1.234 l 0.7376,0.3068 c 0,-1.1457 -0.1142,-1.7661 -0.3425,-1.8611 z m 0.9747,3.564 -1.361,-0.5661 c 0.0468,1.1136 0.2224,1.7337 0.5268,1.8603 0.1786,0.0743 0.3981,-0.0305 0.6586,-0.3144 l 0.1317,1.7424 c -0.2722,0.3306 -0.5693,0.429 -0.8913,0.2951 -0.36,-0.1497 -0.6424,-0.6078 -0.8473,-1.3743 -0.2019,-0.7652 -0.3029,-1.8033 -0.3029,-3.1143 0,-1.3522 0.1039,-2.3566 0.3117,-3.0134 0.2107,-0.6555 0.4829,-0.9139 0.8166,-0.7751 0.3044,0.1266 0.5429,0.5562 0.7156,1.2886 0.1727,0.7221 0.259,1.7283 0.259,3.0185 0,0.3613 -0.0058,0.6789 -0.0175,0.9527 z"
           id="path16708"
           style="fill:#ff6600;fill-opacity:1" />
        <path
           d="m 21.6336,23.3553 v 2.1366 c -0.0263,-0.0213 -0.0732,-0.046 -0.1405,-0.074 -0.2136,-0.0888 -0.4126,0.1174 -0.597,0.6187 v 5.0474 l -0.7068,-0.2939 v -7.8963 l 0.7068,0.294 V 24.38 c 0.1463,-0.8578 0.3483,-1.2331 0.6058,-1.126 0.0527,0.0219 0.0966,0.0557 0.1317,0.1013 z"
           id="path16710"
           style="fill:#ff6600;fill-opacity:1" />
        <path
           d="m 22.6301,20.7817 c 0.0732,0.2678 0.1098,0.5927 0.1098,0.9746 0,0.3819 -0.0366,0.6815 -0.1098,0.8988 -0.0702,0.2081 -0.1653,0.2873 -0.2853,0.2374 -0.12,-0.05 -0.2166,-0.2088 -0.2898,-0.4767 -0.0731,-0.2781 -0.1097,-0.6082 -0.1097,-0.9901 0,-0.3819 0.0366,-0.6763 0.1097,-0.8833 0.0732,-0.2173 0.1698,-0.3009 0.2898,-0.251 0.12,0.0499 0.2151,0.2133 0.2853,0.4903 z m -0.6409,10.757 v -7.8962 l 0.7068,0.294 v 7.8961 z"
           id="path16712"
           style="fill:#ff6600;fill-opacity:1" />
        <path
           d="m 24.0481,26.2175 c -0.1727,-0.0718 -0.3966,0.0415 -0.6717,0.3399 l -0.1317,-1.8817 c 0.3219,-0.3305 0.6409,-0.4301 0.957,-0.2986 0.2956,0.123 0.5195,0.438 0.6716,0.9451 0.1551,0.5084 0.2327,1.2941 0.2327,2.3572 v 3.3596 c 0,0.9702 0.0146,1.575 0.0439,1.8142 l -0.6673,-0.2775 c -0.0292,-0.167 -0.0482,-0.4536 -0.057,-0.8598 -0.1756,0.6082 -0.3863,0.8612 -0.6322,0.7589 -0.196,-0.0815 -0.357,-0.3652 -0.4828,-0.8511 -0.123,-0.4846 -0.1844,-1.1191 -0.1844,-1.9036 0,-1.765 0.3263,-2.5117 0.9789,-2.2403 0.1112,0.0463 0.2151,0.1101 0.3117,0.1916 v -0.0929 c 0,-0.4335 -0.0307,-0.7559 -0.0922,-0.9673 -0.0585,-0.2101 -0.1507,-0.3413 -0.2765,-0.3937 z m 0.0043,4.5846 c 0.1113,0.0462 0.2327,-0.0787 0.3644,-0.3749 v -1.3469 c -0.0732,-0.0821 -0.1419,-0.1365 -0.2063,-0.1632 -0.1434,-0.0597 -0.2459,-0.0197 -0.3073,0.1199 -0.0585,0.1408 -0.0878,0.3815 -0.0878,0.7221 0,0.6296 0.079,0.9773 0.237,1.043 z"
           id="path16714"
           style="fill:#ff6600;fill-opacity:1" />
        <path
           d="M 25.6152,33.0467 V 21.8996 l 0.7067,0.2941 v 11.147 z"
           id="path16716"
           style="fill:#ff6600;fill-opacity:1" />
      </g>
    </g>
    <g
       id="path1278" />
    <g
       id="path1280" />
    <g
       id="path1282" />
    <g
       id="path1284" />
  </g>
</svg>
