<?xml version="1.0" encoding="UTF-8" standalone="no"?>
<svg
   sodipodi:docname="Icon_Return_2.svg"
   inkscape:version="1.1 (c68e22c387, 2021-05-23)"
   id="svg8"
   version="1.1"
   viewBox="0 0 33.866659 33.866667"
   height="33.866665mm"
   width="33.866661mm"
   xmlns:inkscape="http://www.inkscape.org/namespaces/inkscape"
   xmlns:sodipodi="http://sodipodi.sourceforge.net/DTD/sodipodi-0.dtd"
   xmlns="http://www.w3.org/2000/svg"
   xmlns:svg="http://www.w3.org/2000/svg"
   xmlns:rdf="http://www.w3.org/1999/02/22-rdf-syntax-ns#"
   xmlns:cc="http://creativecommons.org/ns#"
   xmlns:dc="http://purl.org/dc/elements/1.1/">
  <defs
     id="defs2">
    <linearGradient
       id="linearGradient2783"
       inkscape:swatch="solid">
      <stop
         id="stop2781"
         offset="0"
         style="stop-color:#000000;stop-opacity:1;" />
    </linearGradient>
  </defs>
  <sodipodi:namedview
     inkscape:window-maximized="1"
     inkscape:window-y="492"
     inkscape:window-x="-11"
     inkscape:window-height="987"
     inkscape:window-width="1920"
     inkscape:guide-bbox="true"
     showguides="true"
     showgrid="false"
     inkscape:document-rotation="0"
     inkscape:current-layer="layer1"
     inkscape:document-units="mm"
     inkscape:cy="110.77171"
     inkscape:cx="139.85337"
     inkscape:zoom="1.5301741"
     inkscape:pageshadow="2"
     inkscape:pageopacity="0.0"
     borderopacity="1.0"
     bordercolor="#666666"
     pagecolor="#ffffff"
     id="base"
     units="mm"
     inkscape:pagecheckerboard="false"
     width="33.86666mm" />
  <metadata
     id="metadata5">
    <rdf:RDF>
      <cc:Work
         rdf:about="">
        <dc:format>image/svg+xml</dc:format>
        <dc:type
           rdf:resource="http://purl.org/dc/dcmitype/StillImage" />
      </cc:Work>
    </rdf:RDF>
  </metadata>
  <g
     transform="translate(-17.1756,-15.3899)"
     id="layer1"
     inkscape:groupmode="layer"
     inkscape:label="Layer 1">
    <g
       id="g887">
      <rect
         style="fill:none;fill-opacity:1;stroke:none;stroke-width:0.799999;stroke-linecap:round;stroke-linejoin:round;stroke-miterlimit:4;stroke-dasharray:none;stroke-dashoffset:3.11811;stroke-opacity:1;paint-order:markers stroke fill"
         id="rect12506"
         width="33.866665"
         height="33.866665"
         x="17.1756"
         y="15.389898" />
      <g
         id="g33480"
         style="fill:#000080;fill-opacity:1">
        <path
           id="path10946"
           style="fill:#000080;fill-opacity:1;stroke-width:0.451377;stroke-linecap:round;stroke-linejoin:round;stroke-dashoffset:3.11811;paint-order:markers stroke fill"
           d="m 23.081933,28.672485 h 2.311975 V 30.5727 h -2.311975 z" />
        <path
           id="path10948"
           style="fill:#000080;fill-opacity:1;stroke-width:1.70599;stroke-linecap:round;stroke-linejoin:round;stroke-dashoffset:3.11811;paint-order:markers stroke fill"
           d="m 32.193359,50.201172 v 7.183594 h 6.808594 l 1.929688,-0.839844 v -6.34375 z"
           transform="matrix(0.26458333,0,0,0.26458333,17.1756,15.3899)" />
        <path
           id="path10950"
           style="fill:#000080;fill-opacity:1;stroke-width:1.70599;stroke-linecap:round;stroke-linejoin:round;stroke-dashoffset:3.11811;paint-order:markers stroke fill"
           d="m 42.064453,50.201172 v 5.851562 l 8.738281,-3.800781 v -2.050781 z"
           transform="matrix(0.26458333,0,0,0.26458333,17.1756,15.3899)" />
        <g
           id="g10958"
           transform="matrix(0.61825234,0,0,0.61825234,5.8788259,0.44687087)"
           style="fill:#000080;fill-opacity:1">
          <path
             id="path10954"
             style="fill:#000080;fill-opacity:1;stroke-width:0.730085;stroke-linecap:round;stroke-linejoin:round;stroke-dashoffset:3.11811;paint-order:markers stroke fill"
             d="m 27.825382,42.051178 h 3.739532 v 3.073527 h -3.739532 z" />
          <path
             id="path10956"
             style="fill:#000080;fill-opacity:1;stroke-width:0.730085;stroke-linecap:round;stroke-linejoin:round;stroke-dashoffset:3.11811;paint-order:markers stroke fill"
             d="m 32.049492,42.051178 h 3.739532 v 3.073527 h -3.739532 z" />
        </g>
        <g
           id="g10962"
           transform="matrix(0.61825234,0,0,0.61825234,5.8788259,0.44687087)"
           style="fill:#000080;fill-opacity:1">
          <path
             id="path10960"
             style="fill:#000080;fill-opacity:1;stroke-width:0.730085;stroke-linecap:round;stroke-linejoin:round;stroke-dashoffset:3.11811;paint-order:markers stroke fill"
             d="m 27.825382,38.448483 h 3.739532 v 3.073526 h -3.739532 z" />
        </g>
        <path
           id="path1295"
           style="color:#000000;fill:#000080;fill-opacity:1;stroke-width:2.3367;stroke-linecap:round;stroke-linejoin:round;stroke-dashoffset:3.11811;-inkscape-stroke:none;paint-order:markers stroke fill"
           d="m 36.375,-0.00390625 a 2.920877,2.920877 0 0 0 -0.05469,0.0078125 2.920877,2.920877 0 0 0 -0.140624,0.01953125 2.920877,2.920877 0 0 0 -0.308594,0.05273437 2.920877,2.920877 0 0 0 -0.160156,0.05078125 2.920877,2.920877 0 0 0 -0.228516,0.0703125 2.920877,2.920877 0 0 0 -0.04297,0.0214844 2.920877,2.920877 0 0 0 -0.0293,0.009766 L 1.9746094,14.615234 a 2.920877,2.920877 0 0 0 -1.52734378,3.837891 2.920877,2.920877 0 0 0 3.83789058,1.529297 l 2.484375,-1.06836 v 38.175782 a 1.519008,1.519008 0 0 0 1.5195313,1.519531 H 19.695312 V 56.970703 55.570312 28.259766 h 33.734376 v 2.402343 l 3.041015,-2.082031 V 28.259766 H 56.9375 l 2.005859,-1.373047 v -2 A 1.2253137,1.2253137 0 0 0 57.720703,23.664062 H 15.410156 a 1.2253137,1.2253137 0 0 0 -1.228515,1.222657 v 2.146484 a 1.2253137,1.2253137 0 0 0 1.228515,1.226563 h 1.25 V 55.570312 H 9.8085938 V 17.605469 L 36.564453,6.09375 63.316406,17.603516 v 6.289062 l 0.01758,-0.01172 3.021485,-2.068359 v -2.900391 l 2.486328,1.070313 a 2.920877,2.920877 0 0 0 0.142578,0.0293 l 3.923828,-2.685547 a 2.920877,2.920877 0 0 0 -1.757814,-2.71094 L 37.71875,0.22851562 A 2.920877,2.920877 0 0 0 37.67578,0.21484372 2.920877,2.920877 0 0 0 37.64258,0.19726562 2.920877,2.920877 0 0 0 37.472656,0.14648438 2.920877,2.920877 0 0 0 37.244141,0.07421875 2.920877,2.920877 0 0 0 37.029297,0.03710937 2.920877,2.920877 0 0 0 36.789062,0.00195313 2.920877,2.920877 0 0 0 36.603516,0 2.920877,2.920877 0 0 0 36.375,-0.00390625 Z M 53.429688,38.365234 v 12.744141 l 3.041015,-1.322266 v -9.339843 z m 9.886718,6.769532 v 1.673828 L 64.8125,46.158203 63.333984,45.146484 Z"
           transform="matrix(0.26458333,0,0,0.26458333,17.1756,15.3899)" />
      </g>
      <path
         id="path1267"
         style="fill:#0000d4;fill-opacity:1;stroke-width:0.0247801"
         d="m 39.095192,26.905993 c -0.256496,0.105251 -0.582483,0.241253 -1.053166,0.441316 V 28.355 c 0.27713,-0.118676 0.720979,-0.309904 0.820622,-0.3514 0.398891,-0.166114 0.742102,-0.302307 0.762744,-0.302307 0.08516,0 1.526633,0.600049 1.684652,0.701249 0.05188,0.0332 0.05166,0.03389 -10e-4,0.06821 -0.134219,0.08717 -1.451686,0.706671 -3.266984,1.540475 v 0.137459 l -0.120406,-0.08217 c -0.278856,0.12798 -0.536166,0.246793 -0.836642,0.383956 -3.61157,1.648638 -5.079068,2.315814 -5.097363,2.317688 -0.01112,0.0011 -0.332527,-0.133114 -0.714168,-0.298173 -0.793043,-0.342987 -1.162952,-0.515077 -1.235584,-0.575675 -0.04946,-0.04127 -0.04836,-0.04299 0.04031,-0.08992 0.095,-0.05033 3.765833,-1.641593 6.354132,-2.757972 l -0.905371,-0.6196 c -0.479255,0.206653 -0.896842,0.38635 -1.480529,0.638721 -5.207836,2.251718 -5.693202,2.472305 -5.780526,2.631364 -0.07624,0.138881 -0.08736,1.224618 -0.07028,6.695198 l 0.01654,5.425509 0.05891,0.05426 c 0.116174,0.107087 1.301065,0.690623 4.522721,2.227254 4.598707,2.193446 6.534336,3.093273 6.787699,3.155879 0.04142,0.01024 0.153444,-0.02832 0.38654,-0.133326 0.508201,-0.228921 1.48154,-0.726459 5.31182,-2.713011 4.780031,-2.479128 5.464672,-2.843798 5.636349,-3.003953 0.04979,-0.04649 0.07117,-0.09993 0.08682,-0.216005 0.03228,-0.239342 0.05502,-9.469315 0.02585,-10.502719 -0.03017,-1.071808 -0.01638,-1.020435 -0.325562,-1.184424 -0.341976,-0.181383 -1.533419,-0.707039 -4.871021,-2.153357 -0.475454,0.713604 -1.216197,1.469422 -2.273762,2.260844 0.289435,-0.125257 0.621997,-0.270846 0.888835,-0.386023 l 1.725475,-0.745174 0.726054,0.316259 c 1.197784,0.521792 2.344488,1.04347 2.34611,1.067119 0.0011,0.01221 -0.141565,0.08804 -0.316259,0.168465 -0.547293,0.251966 -9.2707,4.034298 -9.305892,4.034896 -0.0184,2.91e-4 -0.515944,-0.207969 -1.105876,-0.463021 -1.374692,-0.594353 -1.991985,-0.879847 -1.992126,-0.921391 -3.3e-5,-0.0085 1.504943,-0.664432 3.487475,-1.528137 0.412707,-0.497172 0.807262,-1.012227 1.138948,-1.524454 -2.708086,1.178432 -5.873796,2.547219 -5.900258,2.547712 -0.01906,3.44e-4 -0.45205,-0.1807 -0.961698,-0.402042 -0.509641,-0.221346 -0.959119,-0.424592 -0.998906,-0.451652 -0.11875,-0.08076 -0.455348,0.08593 3.101103,-1.536341 3.207561,-1.463121 5.099137,-2.314174 5.857524,-2.636531 0.01378,-1.099765 -0.810826,-1.958101 -3.153813,-2.242757 z m 10.872204,5.703011 c 0.0089,0 0.01704,2.320047 0.01704,5.155757 v 5.155757 l -3.631303,1.881539 c -3.220375,1.66824 -5.582417,2.885125 -6.016686,3.10007 -0.132851,0.06575 -0.148512,0.06849 -0.1726,0.03307 -0.01719,-0.02527 -0.0302,-1.285237 -0.03669,-3.575492 h -5.29e-4 c -0.0055,-1.945185 -5.56e-4,-4.429947 0.01034,-5.521627 l 0.01912,-1.984892 4.897376,-2.121834 c 2.693376,-1.16714 4.904605,-2.122351 4.913913,-2.122351 z M 29.32938,32.66068 c 0.02213,-0.0038 0.510364,0.194731 1.084688,0.441317 l 1.043864,0.448551 0.01034,1.758549 c 0.0077,1.284052 0.01871,1.785865 0.04237,1.860352 0.01785,0.05612 0.07274,0.149234 0.121956,0.207222 0.04923,0.05797 0.135226,0.204182 0.190686,0.324528 0.08514,0.184805 0.125789,0.240493 0.26355,0.360185 0.138005,0.119884 0.191423,0.149246 0.344682,0.190169 0.225892,0.06031 0.39367,0.0607 0.676961,0.0021 0.121857,-0.02525 0.231376,-0.04547 0.243913,-0.04547 0.01255,0 0.04888,0.0673 0.08062,0.149862 0.139206,0.361638 0.559418,0.65629 0.93586,0.65629 0.05508,0 0.200088,-0.02088 0.321944,-0.04651 0.121869,-0.02561 0.34124,-0.05319 0.487826,-0.06098 0.284698,-0.01512 0.320103,-0.02471 0.468705,-0.12764 l 0.09612,-0.06615 0.01757,-1.375627 c 0.01817,-1.398101 0.03386,-1.797067 0.07286,-1.851566 0.0164,-0.02302 0.412352,0.139497 1.631425,0.669209 l 1.60972,0.699182 0.01912,3.660759 c 0.01784,3.356553 0.0034,7.329256 -0.02687,7.456909 -0.01466,0.06147 0.21206,0.160457 -1.769401,-0.773597 h -5.29e-4 c -1.576991,-0.743383 -3.458765,-1.636193 -6.049232,-2.869072 l -1.959054,-0.932241 -0.01705,-0.146246 c -0.02203,-0.191339 -0.02205,-10.052635 0,-10.353373 0.01311,-0.17915 0.02596,-0.231522 0.05736,-0.236678 z m 3.2613,1.399915 c 0.01694,0 0.501348,0.20149 1.07642,0.448035 l 1.045931,0.448551 -0.0067,1.53789 -0.0067,1.537891 -0.06666,0.01602 c -0.03668,0.0089 -0.09884,0.01683 -0.138493,0.01809 -0.06654,0.0022 -0.07695,-0.0097 -0.126607,-0.153995 v -5.29e-4 c -0.09564,-0.277241 -0.268654,-0.45051 -0.567924,-0.568958 -0.228822,-0.09056 -0.413782,-0.09714 -0.720886,-0.02481 -0.14305,0.03368 -0.270642,0.0558 -0.283187,0.04909 -0.01256,-0.0067 -0.0311,-0.05104 -0.04134,-0.0987 -0.0099,-0.04764 -0.07291,-0.187155 -0.139526,-0.310059 l -0.120923,-0.223759 0.01395,-1.285192 c 0.0077,-0.707128 0.02272,-1.309388 0.03307,-1.337903 0.0099,-0.0285 0.03264,-0.05168 0.04961,-0.05168 z"
         sodipodi:nodetypes="cccsscccccscssccccccccsssscccsccccccsccsccscssccssccsccccccsccccccccccscscccccccccccccccccsccccccccscccccccs" />
      <path
         inkscape:transform-center-y="0.014272061"
         d="m 37.20993,20.66699 -0.01941,2.581197 c 6.865246,0.01282 12.364675,4.130471 2.67902,10.416968 4.769793,-4.161549 5.029937,-7.64929 -2.659614,-7.721032 v 2.558782 l -2.890711,-2.010978 -2.832086,-1.970189 2.861396,-1.927377 z"
         inkscape:transform-center-x="0.96361688"
         style="opacity:0.998;fill:#ff6600;fill-opacity:1;stroke-width:0;stroke-linejoin:round;stroke-dashoffset:3.11811"
         id="path2106-5"
         sodipodi:nodetypes="ccccccccc" />
    </g>
    <g
       id="path1278" />
    <g
       id="path1280" />
    <g
       id="path1282" />
    <g
       id="path1284" />
    <g
       id="g21316"
       transform="translate(-45.614273,6.3148635)" />
  </g>
</svg>
