<?xml version="1.0" encoding="UTF-8" standalone="no"?>
<svg
   width="128"
   height="128"
   viewBox="0 0 33.866663 33.866667"
   version="1.1"
   id="svg8"
   inkscape:version="1.1 (c68e22c387, 2021-05-23)"
   sodipodi:docname="Icon_Indirect_Request_2.svg"
   xmlns:inkscape="http://www.inkscape.org/namespaces/inkscape"
   xmlns:sodipodi="http://sodipodi.sourceforge.net/DTD/sodipodi-0.dtd"
   xmlns="http://www.w3.org/2000/svg"
   xmlns:svg="http://www.w3.org/2000/svg"
   xmlns:rdf="http://www.w3.org/1999/02/22-rdf-syntax-ns#"
   xmlns:cc="http://creativecommons.org/ns#"
   xmlns:dc="http://purl.org/dc/elements/1.1/">
  <defs
     id="defs2">
    <linearGradient
       id="linearGradient2783"
       inkscape:swatch="solid">
      <stop
         style="stop-color:#000000;stop-opacity:1;"
         offset="0"
         id="stop2781" />
    </linearGradient>
  </defs>
  <sodipodi:namedview
     inkscape:pagecheckerboard="false"
     units="px"
     id="base"
     pagecolor="#ffffff"
     bordercolor="#666666"
     borderopacity="1.0"
     inkscape:pageopacity="0.0"
     inkscape:pageshadow="2"
     inkscape:zoom="1"
     inkscape:cx="-301"
     inkscape:cy="-59.5"
     inkscape:document-units="mm"
     inkscape:current-layer="g3218"
     inkscape:document-rotation="0"
     showgrid="false"
     showguides="true"
     inkscape:guide-bbox="true"
     inkscape:window-width="1920"
     inkscape:window-height="987"
     inkscape:window-x="-11"
     inkscape:window-y="492"
     inkscape:window-maximized="1">
    <sodipodi:guide
       id="guide874"
       orientation="0,128"
       position="0,33.866665" />
    <sodipodi:guide
       id="guide876"
       orientation="128,0"
       position="33.866665,33.866665" />
    <sodipodi:guide
       id="guide878"
       orientation="0,-128"
       position="33.866665,0" />
    <sodipodi:guide
       id="guide880"
       orientation="-128,0"
       position="0,0" />
  </sodipodi:namedview>
  <metadata
     id="metadata5">
    <rdf:RDF>
      <cc:Work
         rdf:about="">
        <dc:format>image/svg+xml</dc:format>
        <dc:type
           rdf:resource="http://purl.org/dc/dcmitype/StillImage" />
      </cc:Work>
    </rdf:RDF>
  </metadata>
  <g
     inkscape:label="Layer 1"
     inkscape:groupmode="layer"
     id="layer1"
     transform="translate(-17.175603,-15.389948)">
    <g
       transform="translate(2.9332106,0.43335093)"
       id="g3218">
      <g
         style="fill:#000080"
         id="g2938" />
      <g
         id="g3059"
         transform="matrix(0.91443933,0,0,0.67290977,-35.344743,14.32626)"
         style="fill:#000080" />
      <g
         id="g3069"
         transform="matrix(0.91443933,0,0,0.67290977,-35.344743,14.227301)"
         style="fill:#000080" />
      <g
         transform="translate(-0.93544334,-0.65481034)"
         id="g3123" />
      <g
         style="fill:#000080"
         transform="matrix(0.91443933,0,0,0.67290977,-35.344743,9.7875561)"
         id="g903" />
      <g
         id="g1170" />
      <g
         id="g1013">
        <rect
           style="fill:none;fill-opacity:1;stroke:none;stroke-width:0.726001;stroke-linecap:round;stroke-linejoin:round;stroke-dashoffset:3.11811;paint-order:markers stroke fill"
           id="rect4506"
           width="33.866665"
           height="33.866665"
           x="14.242392"
           y="14.956597" />
        <g
           id="g1004">
          <g
             id="g997">
            <path
               style="fill:#0000d4;fill-opacity:1;stroke-width:0.0795189"
               d="m 38.48933,39.039091 c -0.18423,-0.141389 -0.33631,-0.281196 -0.33795,-0.310681 -0.003,-0.05326 1.01242,-0.466059 2.29841,-0.934446 0.73351,-0.267162 1.341,-0.313735 1.67456,-0.128382 0.19879,0.110475 0.19879,0.110475 0,0.187503 -1.20392,0.466521 -2.32881,0.940016 -2.72943,1.148876 -0.2701,0.140816 -0.50898,0.264618 -0.53084,0.275115 -0.0219,0.01047 -0.1905,-0.09659 -0.37475,-0.237985 z"
               id="path901" />
            <path
               style="fill:#0000d4;fill-opacity:1;stroke-width:0.0795189"
               d="m 39.49935,41.147703 c -4.8e-4,-0.164007 -0.0221,-0.426276 -0.048,-0.582816 -0.0471,-0.284621 -0.0471,-0.284621 1.2533,-0.926397 2.56443,-1.265613 3.27086,-1.485866 3.91991,-1.222158 0.23307,0.0947 0.23063,0.09667 -0.63615,0.515412 -1.08664,0.524955 -2.8877,1.526252 -3.75541,2.087813 -0.36232,0.234489 -0.67542,0.426343 -0.69579,0.426343 -0.0204,0 -0.0374,-0.13419 -0.0379,-0.298197 z"
               id="path899" />
            <path
               id="path1215"
               style="fill:#0000d4;fill-opacity:1;stroke-width:0.300544"
               d="M 40.388672 90.542969 C 39.52741 90.535351 38.653972 90.554548 37.757812 90.597656 C 33.54466 90.800281 30.376754 91.477133 26.322266 93.042969 C 23.60059 94.09446 23.60172 94.095849 22.568359 93.0625 C 20.863641 91.357721 20.054451 91.253849 12.535156 91.777344 C 6.3159814 92.210323 5.831522 92.286352 4.5371094 93.044922 C 3.0886432 93.893781 2.1754915 95.090913 1.7089844 96.755859 C 1.516493 97.442705 1.7108659 101.7022 2.3320312 110.43164 C 3.1397919 121.78358 3.3020392 123.248 3.890625 124.44531 C 4.6525778 125.9954 6.3211507 127.43017 7.7558594 127.76953 C 9.1298688 128.09454 8.6599566 128.10207 15.603516 127.62305 C 22.54647 127.14408 23.660927 126.81164 24.871094 124.85352 C 25.478388 123.87094 25.478835 123.87029 27.636719 124.02344 C 34.232297 124.49163 75.040992 125.99999 77.580078 125.86914 C 80.872236 125.69947 83.657309 124.96164 86.595703 123.48438 C 89.531867 122.00823 123.80167 101.90438 124.57031 101.20703 C 126.42035 99.528528 126.8858 96.947062 125.74219 94.716797 C 124.4322 92.162139 121.72462 91.634307 117.86523 93.179688 C 113.54901 94.907986 103.73003 100.35037 97.341797 104.55469 C 95.812789 105.56099 93.811596 106.66467 92.894531 107.00781 C 86.011482 109.58309 57.171062 112.16226 56.003906 110.30664 C 55.612423 109.68421 55.953089 108.34911 56.5625 108.11523 C 56.823968 108.0149 63.481453 107.31639 71.357422 106.5625 C 81.236389 105.61688 85.981315 105.04678 86.660156 104.72461 C 89.559432 103.34875 90.779885 99.670093 89.291016 96.791016 C 88.669472 95.589046 86.879681 94.154994 85.777344 93.976562 C 85.236607 93.88901 78.301512 93.698246 70.367188 93.552734 C 55.941071 93.288084 55.942088 93.288232 51.884766 92.21875 C 47.636007 91.09882 44.120807 90.57598 40.388672 90.542969 z M 13.945312 115.5332 C 15.33549 115.51433 16.639934 116.37903 17.207031 117.73633 C 17.809866 119.17909 17.509639 120.32707 16.238281 121.44336 C 14.814495 122.69353 12.931416 122.72931 11.609375 121.53125 C 9.2302002 119.37524 10.364924 115.95155 13.589844 115.55664 C 13.708506 115.54211 13.827501 115.5348 13.945312 115.5332 z "
               transform="matrix(0.26458333,0,0,0.26458333,14.242392,14.956597)" />
          </g>
          <path
             sodipodi:nodetypes="ssscscssssccsssscsccscscsscssssscssssccssccccccccssscssscccsssssccssscccscccssscscssssssssssssscssscscss"
             id="path1267-0"
             d="m 30.85575,38.497748 c -0.46138,-0.240403 -1.34522,-0.762477 -4.82261,-2.848665 -4.33964,-2.603464 -4.96116,-2.986663 -5.11702,-3.15485 -0.0452,-0.04883 -0.0647,-0.104741 -0.0789,-0.226645 -0.0293,-0.251346 -0.0498,-9.944345 -0.0233,-11.029574 0.0274,-1.125563 0.0147,-1.071914 0.2954,-1.244128 0.32472,-0.199221 1.35917,-0.727666 4.7303,-2.416454 3.35306,-1.679735 5.25578,-2.615138 5.33104,-2.620805 0.067,-0.0051 1.37957,0.637891 5.0611,2.479154 4.72803,2.364649 5.16846,2.596594 5.24774,2.763626 0.0692,0.145851 0.0796,1.285683 0.0641,7.030628 l -0.0154,5.697883 -0.0532,0.05673 c -0.10547,0.112449 -1.18119,0.72521 -4.10603,2.338909 -4.17502,2.303452 -5.93231,3.248593 -6.16233,3.31434 -0.0376,0.01076 -0.13922,-0.02989 -0.35084,-0.140156 z m 2.42406,-2.019684 c 1.43178,-0.780713 3.14048,-1.717991 5.49247,-3.012806 l 1.7784,-0.979044 0.0153,-0.153931 c 0.02,-0.200935 0.02,-10.556655 -2e-5,-10.872474 -0.0119,-0.188134 -0.0234,-0.243257 -0.0519,-0.248672 -0.0201,-0.0038 -0.46319,0.204915 -0.9846,0.463871 l -0.94803,0.470829 -0.009,1.846593 c -0.007,1.34845 -0.0173,1.875491 -0.0388,1.953711 -0.0162,0.05892 -0.066,0.156943 -0.11067,0.217839 -0.0447,0.0609 -0.12248,0.214126 -0.17283,0.340507 -0.0773,0.194076 -0.11456,0.252912 -0.23963,0.378603 -0.12529,0.125899 -0.17342,0.15664 -0.31256,0.199616 -0.20508,0.06334 -0.35739,0.06389 -0.61458,0.0023 -0.11063,-0.02652 -0.21046,-0.04822 -0.22184,-0.04822 -0.0114,0 -0.0443,0.07093 -0.0731,0.157625 -0.12638,0.379776 -0.50784,0.689231 -0.8496,0.689231 -0.05,0 -0.18137,-0.02202 -0.292,-0.04893 -0.11064,-0.0269 -0.31004,-0.05562 -0.44312,-0.06379 -0.25847,-0.01588 -0.29076,-0.02606 -0.42567,-0.13415 l -0.0869,-0.06964 -0.0162,-1.444717 c -0.0165,-1.468221 -0.0307,-1.887 -0.0661,-1.944233 -0.0149,-0.02418 -0.37428,0.146272 -1.48104,0.702553 l -1.46131,0.734483 -0.0177,3.844167 c -0.0162,3.524897 -0.003,7.697267 0.0245,7.831324 0.0133,0.06456 -0.1925,0.168631 1.60696,-0.812566 z M 30.7114,33.497028 c 0.005,-2.04274 9.3e-4,-4.65206 -0.009,-5.798491 l -0.0177,-2.084422 -4.44586,-2.228499 c -2.44523,-1.225675 -4.45278,-2.228499 -4.46123,-2.228499 -0.008,0 -0.0154,2.43649 -0.0154,5.414421 v 5.414421 l 3.29671,1.975424 c 2.92368,1.751904 5.06777,3.029878 5.46203,3.255603 0.12061,0.06905 0.1351,0.07229 0.15697,0.0351 0.0156,-0.02654 0.0273,-1.349935 0.0332,-3.755053 z M 35.93995,26.7269 c 0.0868,-0.291432 0.24372,-0.473411 0.51557,-0.597868 0.20774,-0.09511 0.37578,-0.101721 0.65459,-0.02576 0.12987,0.03537 0.24543,0.05856 0.25682,0.05152 0.0114,-0.007 0.0282,-0.05374 0.0375,-0.103796 0.009,-0.05004 0.0663,-0.196599 0.12678,-0.325664 l 0.11002,-0.23466 -0.0129,-1.350171 c -0.007,-0.742594 -0.0207,-1.374669 -0.0301,-1.404611 -0.009,-0.02994 -0.0297,-0.05445 -0.0451,-0.05445 -0.0154,0 -0.45519,0.211831 -0.97728,0.470736 l -0.94927,0.470736 0.006,1.615072 0.006,1.615072 0.0605,0.01682 c 0.0333,0.0093 0.09,0.01791 0.12601,0.01924 0.0605,0.0023 0.0693,-0.0101 0.11454,-0.162232 z m -3.76698,-2.427387 c 1.24804,-0.624159 1.80835,-0.923934 1.80848,-0.967562 5e-5,-0.01531 -4.40558,-2.239231 -7.19229,-3.630598 l -1.56677,-0.782272 -0.65925,0.332196 c -1.08743,0.54796 -2.12838,1.095525 -2.12985,1.120357 -9.2e-4,0.01282 0.12839,0.09242 0.28699,0.17688 0.49687,0.264604 8.4166,4.236766 8.44855,4.237393 0.0167,3.18e-4 0.46856,-0.21855 1.00414,-0.486394 z m 3.83802,-1.919702 c 0.46269,-0.232445 0.87081,-0.445876 0.90693,-0.474293 0.10781,-0.0848 0.41334,0.09028 -2.81545,-1.61335 -3.79697,-2.003424 -5.59784,-2.933808 -5.67873,-2.933808 -0.0729,0 -2.04417,0.990931 -2.0337,1.022337 0.005,0.01478 0.21518,0.135095 0.46722,0.267368 0.72522,0.380599 8.24584,4.152934 8.28091,4.153692 0.0173,3.7e-4 0.41013,-0.189501 0.87282,-0.421946 z m 2.73832,-1.368484 c 0.71998,-0.360192 1.05546,-0.54111 1.1214,-0.604748 0.0449,-0.04335 0.0442,-0.04539 -0.0363,-0.09467 -0.12531,-0.0768 -7.22467,-3.629793 -7.97522,-3.991337 -0.36214,-0.174446 -0.67377,-0.317174 -0.69251,-0.317174 -0.0773,0 -1.38587,0.629866 -1.52933,0.736141 -0.0471,0.03486 -0.047,0.03543 9.3e-4,0.07149 0.143,0.107421 1.7248,0.965049 3.83505,2.079326 3.27883,1.731317 4.61104,2.432009 4.62765,2.433975 0.0101,0.0012 0.30181,-0.139652 0.64829,-0.312991 z"
             style="fill:#ff6600;fill-opacity:1;stroke-width:0.0241959" />
        </g>
      </g>
    </g>
  </g>
</svg>
