<?xml version="1.0" encoding="UTF-8" standalone="no"?>
<svg
   width="128"
   height="128"
   viewBox="0 0 33.866663 33.866667"
   version="1.1"
   id="svg8"
   inkscape:version="1.1 (c68e22c387, 2021-05-23)"
   sodipodi:docname="Icon_Stock_Operation_2.svg"
   xmlns:inkscape="http://www.inkscape.org/namespaces/inkscape"
   xmlns:sodipodi="http://sodipodi.sourceforge.net/DTD/sodipodi-0.dtd"
   xmlns="http://www.w3.org/2000/svg"
   xmlns:svg="http://www.w3.org/2000/svg"
   xmlns:rdf="http://www.w3.org/1999/02/22-rdf-syntax-ns#"
   xmlns:cc="http://creativecommons.org/ns#"
   xmlns:dc="http://purl.org/dc/elements/1.1/">
  <defs
     id="defs2">
    <linearGradient
       id="linearGradient2783"
       inkscape:swatch="solid">
      <stop
         style="stop-color:#000000;stop-opacity:1;"
         offset="0"
         id="stop2781" />
    </linearGradient>
  </defs>
  <sodipodi:namedview
     inkscape:pagecheckerboard="false"
     units="px"
     id="base"
     pagecolor="#ffffff"
     bordercolor="#666666"
     borderopacity="1.0"
     inkscape:pageopacity="0.0"
     inkscape:pageshadow="2"
     inkscape:zoom="0.70710682"
     inkscape:cx="-302.64169"
     inkscape:cy="65.760927"
     inkscape:document-units="mm"
     inkscape:current-layer="layer1"
     inkscape:document-rotation="0"
     showgrid="false"
     showguides="true"
     inkscape:guide-bbox="true"
     inkscape:window-width="1920"
     inkscape:window-height="987"
     inkscape:window-x="-11"
     inkscape:window-y="492"
     inkscape:window-maximized="1">
    <sodipodi:guide
       id="guide874"
       orientation="0,128"
       position="0,33.866665" />
    <sodipodi:guide
       id="guide876"
       orientation="128,0"
       position="33.866665,33.866665" />
    <sodipodi:guide
       id="guide878"
       orientation="0,-128"
       position="33.866665,0" />
    <sodipodi:guide
       id="guide880"
       orientation="-128,0"
       position="0,0" />
  </sodipodi:namedview>
  <metadata
     id="metadata5">
    <rdf:RDF>
      <cc:Work
         rdf:about="">
        <dc:format>image/svg+xml</dc:format>
        <dc:type
           rdf:resource="http://purl.org/dc/dcmitype/StillImage" />
        <dc:title />
      </cc:Work>
    </rdf:RDF>
  </metadata>
  <g
     inkscape:label="Layer 1"
     inkscape:groupmode="layer"
     id="layer1"
     transform="translate(-17.175603,-15.389948)">
    <g
       style="fill:#000080"
       id="g2938"
       transform="translate(2.9332106,0.43335093)" />
    <g
       id="g3059"
       transform="matrix(0.91443933,0,0,0.67290977,-32.411532,14.759611)"
       style="fill:#000080" />
    <g
       id="g3069"
       transform="matrix(0.91443933,0,0,0.67290977,-32.411532,14.660652)"
       style="fill:#000080" />
    <g
       transform="translate(1.9977673,-0.22145941)"
       id="g3123" />
    <g
       style="fill:#000080"
       transform="matrix(0.91443933,0,0,0.67290977,-32.411532,10.220907)"
       id="g903" />
    <g
       id="g1170"
       transform="translate(2.9332106,0.43335093)" />
    <g
       id="g4313">
      <path
         id="path2157"
         style="opacity:0.998;fill:#000080;fill-opacity:1;stroke-width:0.331795"
         d="m 26.959502,38.727541 c -0.127686,0 -0.230477,0.102783 -0.230477,0.230477 v 0.427364 h 0.771529 c 0.09214,0 0.166398,0.07425 0.166398,0.166398 v 0.822172 c 0,0.09214 -0.07425,0.166395 -0.166398,0.166399 h -0.771529 v 0.426847 c 0,0.127694 0.102779,0.230995 0.230477,0.230994 h 19.045865 c 0.127688,0 0.230476,-0.1033 0.230476,-0.230994 V 40.540351 H 45.4638 c -0.09215,0 -0.165884,-0.07425 -0.165884,-0.166399 V 39.55178 c 0,-0.09215 0.07373,-0.166398 0.165884,-0.166398 h 0.772043 v -0.427364 c 0,-0.127694 -0.102788,-0.230477 -0.230476,-0.230477 z m 2.067574,0.657841 h 6.692098 c 0.09214,0 0.166398,0.07425 0.166398,0.166398 v 0.822172 c 0,0.09214 -0.07425,0.166395 -0.166398,0.166399 h -6.692098 c -0.09214,0 -0.165881,-0.07426 -0.165881,-0.166399 V 39.55178 c 0,-0.09215 0.07373,-0.166398 0.165881,-0.166398 z m 8.21862,0 h 6.691579 c 0.09214,0 0.1664,0.07425 0.1664,0.166398 v 0.822172 c 0,0.09215 -0.07425,0.166395 -0.1664,0.166399 h -6.691579 c -0.09214,0 -0.165882,-0.07426 -0.165882,-0.166399 V 39.55178 c 0,-0.09215 0.07373,-0.166398 0.165882,-0.166398 z" />
      <path
         id="path2167"
         style="opacity:0.998;fill:#0000d4;fill-opacity:1;stroke-width:0.331795"
         d="m 29.459091,43.823353 c -1.500531,-2.25e-4 -2.717089,1.216099 -2.717147,2.716631 6e-5,1.500531 1.216617,2.716855 2.717147,2.71663 1.500328,-6.1e-5 2.716571,-1.2163 2.71663,-2.71663 -5.8e-5,-1.500328 -1.216301,-2.71657 -2.71663,-2.716631 z m -0.02015,1.223698 c 0.0067,-4.5e-5 0.01343,-4.5e-5 0.02015,0 0.824499,6.1e-5 1.492874,0.668436 1.492932,1.492933 -5.9e-5,0.824497 -0.668434,1.492871 -1.492932,1.492932 -0.824701,2.25e-4 -1.49339,-0.668231 -1.493449,-1.492932 -1.3e-5,-0.816891 0.656475,-1.48213 1.473295,-1.492933 z" />
      <path
         id="path2163"
         style="opacity:0.998;fill:#0000d4;fill-opacity:1;stroke-width:0.331795"
         d="m 42.919768,43.823353 c -1.500532,-2.25e-4 -2.717088,1.216099 -2.717147,2.716631 5.8e-5,1.500531 1.216615,2.716858 2.717147,2.71663 1.50033,-5.8e-5 2.716572,-1.2163 2.71663,-2.71663 -5.8e-5,-1.500328 -1.216303,-2.71657 -2.71663,-2.716631 z m -0.02015,1.223698 c 0.0067,-4.5e-5 0.01343,-4.5e-5 0.02015,0 0.824497,6.1e-5 1.492874,0.668436 1.492932,1.492933 -5.8e-5,0.8245 -0.668433,1.492871 -1.492932,1.492932 -0.824703,2.28e-4 -1.493391,-0.668229 -1.493449,-1.492932 -1.3e-5,-0.816891 0.656473,-1.48213 1.473295,-1.492933 z" />
      <path
         style="opacity:0.998;fill:#0000d4;fill-opacity:1;stroke-width:0.331795"
         d="m 20.806481,19.429202 c -0.238186,0.01165 -0.458676,0.134083 -0.577914,0.347164 -0.190781,0.340932 -0.04844,0.781251 0.3191,0.986928 l 3.032496,1.696844 V 42.61753 c 0,0.03754 0.0071,0.07361 0.01349,0.109658 0.05319,0.368457 0.365773,0.650676 0.74942,0.650676 h 22.97057 c 0.421183,0 0.760334,-0.339152 0.760334,-0.760334 0,-0.421183 -0.339151,-0.760333 -0.760334,-0.760333 H 25.449032 V 22.325014 c 0,-0.01013 -0.0032,-0.01959 -0.0036,-0.02963 -0.0016,-0.03798 -0.0062,-0.07538 -0.01402,-0.112777 -0.0013,-0.0059 -0.0025,-0.01179 -0.0041,-0.01767 -0.04716,-0.200854 -0.178064,-0.387178 -0.381464,-0.500998 L 21.236387,19.532098 C 21.098558,19.454968 20.9495,19.422205 20.806588,19.429196 Z"
         id="path2171" />
      <path
         style="opacity:0.998;fill:#000080;fill-opacity:1;stroke-width:0.331795"
         d="m 28.336262,34.391588 h 4.494337 c 0.180604,0 0.326,0.106993 0.326,0.239895 v 3.307254 c 0,0.132901 -0.145396,0.239895 -0.326,0.239895 h -4.494337 c -0.180604,0 -0.326,-0.106994 -0.326,-0.239895 v -3.307254 c 0,-0.132902 0.145396,-0.239895 0.326,-0.239895 z"
         id="path2155" />
      <path
         style="opacity:0.998;fill:#000080;fill-opacity:1;stroke-width:0.331795"
         d="m 34.235083,34.391588 h 4.494338 c 0.180605,0 0.326001,0.106993 0.326001,0.239895 v 3.307254 c 0,0.132902 -0.145396,0.239895 -0.326001,0.239895 h -4.494338 c -0.180604,0 -0.326,-0.106993 -0.326,-0.239895 v -3.307254 c 0,-0.132902 0.145396,-0.239895 0.326,-0.239895 z"
         id="path2153" />
      <path
         style="opacity:0.998;fill:#000080;fill-opacity:1;stroke-width:0.331795"
         d="m 40.133912,34.391588 h 4.494336 c 0.180605,0 0.326002,0.106993 0.326002,0.239895 v 3.307254 c 0,0.132902 -0.145397,0.239895 -0.326002,0.239895 h -4.494336 c -0.180605,0 -0.326001,-0.106993 -0.326001,-0.239895 v -3.307254 c 0,-0.132902 0.145396,-0.239895 0.326001,-0.239895 z"
         id="path2151" />
      <path
         style="opacity:0.998;fill:#000080;fill-opacity:1;stroke-width:0.331795"
         d="m 28.336256,29.951842 h 4.494336 c 0.180605,0 0.326001,0.106993 0.326001,0.239895 v 3.307254 c 0,0.132902 -0.145396,0.239895 -0.326001,0.239895 h -4.494336 c -0.180605,0 -0.326002,-0.106993 -0.326002,-0.239895 v -3.307254 c 0,-0.132902 0.145397,-0.239895 0.326002,-0.239895 z"
         id="path2149" />
      <path
         style="opacity:0.998;fill:#000080;fill-opacity:1;stroke-width:0.331795"
         d="m 34.235083,29.951842 h 4.494338 c 0.180605,0 0.326001,0.106993 0.326001,0.239895 v 3.307254 c 0,0.132902 -0.145396,0.239895 -0.326001,0.239895 h -4.494338 c -0.180604,0 -0.326,-0.106993 -0.326,-0.239895 v -3.307254 c 0,-0.132902 0.145396,-0.239895 0.326,-0.239895 z"
         id="path2147" />
      <path
         style="opacity:0.998;fill:#000080;fill-opacity:1;stroke-width:0.331795"
         d="m 40.133912,29.951842 h 4.494336 c 0.180605,0 0.326002,0.106993 0.326002,0.239895 v 3.307254 c 0,0.132902 -0.145397,0.239895 -0.326002,0.239895 h -4.494336 c -0.180605,0 -0.326001,-0.106993 -0.326001,-0.239895 v -3.307254 c 0,-0.132902 0.145396,-0.239895 0.326001,-0.239895 z"
         id="path2145" />
      <path
         style="opacity:0.998;fill:#000080;fill-opacity:1;stroke-width:0.331795"
         d="m 28.336256,25.512097 h 4.494336 c 0.180605,0 0.326001,0.106994 0.326001,0.239895 v 3.307254 c 0,0.132902 -0.145396,0.239895 -0.326001,0.239895 h -4.494336 c -0.180605,0 -0.326002,-0.106993 -0.326002,-0.239895 v -3.307254 c 0,-0.132901 0.145397,-0.239895 0.326002,-0.239895 z"
         id="path2143" />
      <path
         style="opacity:0.998;fill:#000080;fill-opacity:1;stroke-width:0.331795"
         d="m 34.235083,25.512097 h 4.494338 c 0.180605,0 0.326001,0.106994 0.326001,0.239895 v 3.307254 c 0,0.132902 -0.145396,0.239895 -0.326001,0.239895 h -4.494338 c -0.180604,0 -0.326,-0.106993 -0.326,-0.239895 v -3.307254 c 0,-0.132901 0.145396,-0.239895 0.326,-0.239895 z"
         id="path2141" />
      <path
         style="opacity:0.998;fill:#ff6600;fill-opacity:1;stroke-width:0.331795"
         d="m 41.113691,19.495448 v 1.629889 h -7.242945 v 2.206569 h 7.242945 v 1.62989 l 2.972613,-1.366382 2.97261,-1.366792 -2.97261,-1.366792 z"
         id="path2139" />
      <path
         style="opacity:0.998;fill:#ff6600;fill-opacity:1;stroke-width:0.331795"
         d="m 31.851177,20.856295 v -1.629889 h 7.242945 v -2.206569 h -7.242945 v -1.629889 l -2.972613,1.366381 -2.97261,1.366792 2.97261,1.366792 z"
         id="path912" />
      <rect
         style="fill:none;stroke-width:0.726001;stroke-linecap:square;stroke-dashoffset:3.11811;paint-order:markers stroke fill"
         id="rect872"
         width="33.866665"
         height="33.866665"
         x="17.175602"
         y="15.389948" />
    </g>
  </g>
</svg>
