<?xml version="1.0" encoding="UTF-8" standalone="no"?>
<svg width="128" height="128" viewBox="0 0 33.866663 33.866667" version="1.1" id="svg8" inkscape:version="1.1 (c68e22c387, 2021-05-23)" sodipodi:docname="Icon_Stock_Transfer_2.svg" xmlns:inkscape="http://www.inkscape.org/namespaces/inkscape" xmlns:sodipodi="http://sodipodi.sourceforge.net/DTD/sodipodi-0.dtd" xmlns="http://www.w3.org/2000/svg" xmlns:svg="http://www.w3.org/2000/svg" xmlns:rdf="http://www.w3.org/1999/02/22-rdf-syntax-ns#" xmlns:cc="http://creativecommons.org/ns#" xmlns:dc="http://purl.org/dc/elements/1.1/">
   <defs id="defs2">
      <linearGradient id="linearGradient2783" inkscape:swatch="solid">
         <stop style="stop-color:#000000;stop-opacity:1;" offset="0" id="stop2781" />
      </linearGradient>
   </defs>
   <sodipodi:namedview inkscape:pagecheckerboard="false" units="px" id="base" pagecolor="#ffffff" bordercolor="#666666" borderopacity="1.0" inkscape:pageopacity="0.0" inkscape:pageshadow="2" inkscape:zoom="1" inkscape:cx="233" inkscape:cy="186.5" inkscape:document-units="mm" inkscape:current-layer="layer1" inkscape:document-rotation="0" showgrid="false" showguides="false" inkscape:guide-bbox="true" inkscape:window-width="1920" inkscape:window-height="987" inkscape:window-x="-11" inkscape:window-y="492" inkscape:window-maximized="1">
      <sodipodi:guide position="0,33.866665" orientation="0,128" id="guide45582" />
      <sodipodi:guide position="33.866665,33.866665" orientation="128,0" id="guide45584" />
      <sodipodi:guide position="33.866665,0" orientation="0,-128" id="guide45586" />
      <sodipodi:guide position="0,0" orientation="-128,0" id="guide45588" />
      <sodipodi:guide position="-2.0108611e-06,4.6979175" orientation="0,-1" id="guide46668" />
      <sodipodi:guide position="8.6408847e-06,15.282291" orientation="0,-1" id="guide46670" />
      <sodipodi:guide position="8.6408842e-06,25.866666" orientation="0,-1" id="guide47046" />
      <sodipodi:guide position="32.133246,5.1977696" orientation="0,-1" id="guide48152" />
      <sodipodi:guide position="33.866657,2.5180698" orientation="0,-1" id="guide48154" />
      <sodipodi:guide position="34.926144,15.782141" orientation="0,-1" id="guide48156" />
      <sodipodi:guide position="34.926144,26.366517" orientation="0,-1" id="guide48158" />
      <sodipodi:guide position="12.318859,11.55949" orientation="0,-1" id="guide48616" />
      <sodipodi:guide position="16.826285,11.559491" orientation="0,-1" id="guide50461" />
      <sodipodi:guide position="12.774413,11.137304" orientation="0,-1" id="guide50463" />
      <sodipodi:guide position="17.981713,21.010842" orientation="-0.45360169,0.89120453" id="guide56491" />
   </sodipodi:namedview>
   <metadata id="metadata5">
      <rdf:RDF>
         <cc:Work rdf:about="">
            <dc:format>image/svg+xml</dc:format>
            <dc:type rdf:resource="http://purl.org/dc/dcmitype/StillImage" />
         </cc:Work>
      </rdf:RDF>
   </metadata>
   <g inkscape:label="Layer 1" inkscape:groupmode="layer" id="layer1" transform="translate(-17.175603,-15.389948)">
      <g id="g28" fill="#000000" transform="matrix(0.4091643,0,0,0.4091643,27.981194,-3.5551767)" style="font-weight:bold;font-size:12.275px;line-height:1.25;font-family:'Sero Pro';-inkscape-font-specification:'Sero Pro Bold';stroke-width:0.324775" />
      <g id="g46" fill="#000000" transform="matrix(0.4091643,0,0,0.4091643,27.981194,-3.5551767)" style="font-weight:bold;font-size:12.275px;line-height:1.25;font-family:'Sero Pro';-inkscape-font-specification:'Sero Pro Bold';stroke-width:0.324775" />
      <g id="g62" fill="#000000" transform="matrix(0.4091643,0,0,0.4091643,27.981194,-3.5551767)" style="font-weight:bold;font-size:12.275px;line-height:1.25;font-family:'Sero Pro';-inkscape-font-specification:'Sero Pro Bold';stroke-width:0.324775" />
      <g id="g78" fill="#000000" transform="matrix(0.4091643,0,0,0.4091643,27.981194,-3.5551767)" style="font-weight:bold;font-size:12.275px;line-height:1.25;font-family:'Sero Pro';-inkscape-font-specification:'Sero Pro Bold';stroke-width:0.324775" />
      <g id="g96" fill="#000000" transform="matrix(0.4091643,0,0,0.4091643,27.981194,-3.5551767)" style="font-weight:bold;font-size:12.275px;line-height:1.25;font-family:'Sero Pro';-inkscape-font-specification:'Sero Pro Bold';stroke-width:0.324775" />
      <g id="g110" fill="#000000" transform="matrix(0.4091643,0,0,0.4091643,27.981194,-3.5551767)" style="font-weight:bold;font-size:12.275px;line-height:1.25;font-family:'Sero Pro';-inkscape-font-specification:'Sero Pro Bold';stroke-width:0.324775" />
      <g id="g128" fill="#000000" transform="matrix(0.4091643,0,0,0.4091643,27.981194,-3.5551767)" style="font-weight:bold;font-size:12.275px;line-height:1.25;font-family:'Sero Pro';-inkscape-font-specification:'Sero Pro Bold';stroke-width:0.324775" />
      <g id="g146" fill="#000000" transform="matrix(0.4091643,0,0,0.4091643,27.981194,-3.5551767)" style="font-weight:bold;font-size:12.275px;line-height:1.25;font-family:'Sero Pro';-inkscape-font-specification:'Sero Pro Bold';stroke-width:0.324775" />
      <g id="g164" fill="#000000" transform="matrix(0.4091643,0,0,0.4091643,27.981194,-3.5551767)" style="font-weight:bold;font-size:12.275px;line-height:1.25;font-family:'Sero Pro';-inkscape-font-specification:'Sero Pro Bold';stroke-width:0.324775" />
      <g id="g184" fill="#000000" transform="matrix(0.4091643,0,0,0.4091643,27.981194,-3.5551767)" style="font-weight:bold;font-size:12.275px;line-height:1.25;font-family:'Sero Pro';-inkscape-font-specification:'Sero Pro Bold';stroke-width:0.324775" />
      <g id="g200" fill="#000000" transform="matrix(0.4091643,0,0,0.4091643,27.981194,-3.5551767)" style="font-weight:bold;font-size:12.275px;line-height:1.25;font-family:'Sero Pro';-inkscape-font-specification:'Sero Pro Bold';stroke-width:0.324775" />
      <g id="g212" fill="#000000" transform="matrix(0.4091643,0,0,0.4091643,27.981194,-3.5551767)" style="font-weight:bold;font-size:12.275px;line-height:1.25;font-family:'Sero Pro';-inkscape-font-specification:'Sero Pro Bold';stroke-width:0.324775" />
      <g id="g232" fill="#000000" transform="matrix(0.4091643,0,0,0.4091643,27.981194,-3.5551767)" style="font-weight:bold;font-size:12.275px;line-height:1.25;font-family:'Sero Pro';-inkscape-font-specification:'Sero Pro Bold';stroke-width:0.324775" />
      <g id="g59135">
         <g id="g59070">
            <g id="g51534" style="fill:#0000d4;fill-opacity:1" transform="matrix(0.57812507,0,0,0.57812507,21.515114,20.780132)">
               <g id="g51515" transform="matrix(1,0,0,1.0354314,0,-1.745233)" style="fill:#0000d4;fill-opacity:1">
                  <path id="rect46119" style="fill:#0000d4;fill-opacity:1;stroke:none;stroke-width:1.29672;stroke-linecap:round;stroke-linejoin:round;stroke-miterlimit:4;stroke-dasharray:none;stroke-dashoffset:3.11811;stroke-opacity:1;paint-order:markers stroke fill" d="m 4,18 v 10.345703 h 6.349609 V 18 Z m 0,20.476562 v 29.873047 h 6.349609 V 38.476562 Z m 0,40.003907 v 29.873051 h 6.349609 V 78.480469 Z M 4,118.48438 V 128 h 6.349609 v -9.51562 z" transform="matrix(0.26458333,0,0,0.26458333,17.175603,15.389948)" />
                  <path id="rect46242" style="fill:#0000d4;fill-opacity:1;stroke:none;stroke-width:1.29672;stroke-linecap:round;stroke-linejoin:round;stroke-miterlimit:4;stroke-dasharray:none;stroke-dashoffset:3.11811;stroke-opacity:1;paint-order:markers stroke fill" d="M 117.65039,18 V 28.345703 H 124 V 18 Z m 0,20.476562 V 68.349609 H 124 V 38.476562 Z m 0,40.003907 V 108.35352 H 124 V 78.480469 Z m 0,40.003911 V 128 H 124 v -9.51562 z" transform="matrix(0.26458333,0,0,0.26458333,17.175603,15.389948)" />
                  <rect style="fill:#0000d4;fill-opacity:1;stroke:none;stroke-width:0.370099;stroke-linecap:round;stroke-linejoin:round;stroke-miterlimit:4;stroke-dasharray:none;stroke-dashoffset:3.11811;stroke-opacity:1;paint-order:markers stroke fill" id="rect46660" width="1.6799999" height="33.866665" x="-35.65432" y="17.175611" rx="0.42600742" ry="0.44110149" transform="rotate(-90)" />
                  <rect style="fill:#0000d4;fill-opacity:1;stroke:none;stroke-width:0.370099;stroke-linecap:round;stroke-linejoin:round;stroke-miterlimit:4;stroke-dasharray:none;stroke-dashoffset:3.11811;stroke-opacity:1;paint-order:markers stroke fill" id="rect46449" width="1.6799999" height="33.866665" x="-25.069948" y="17.175604" rx="0.42600742" ry="0.44110149" transform="rotate(-90)" />
                  <path id="rect46662" style="fill:#0000d4;fill-opacity:1;stroke-width:0.370099;stroke-linecap:round;stroke-linejoin:round;stroke-dashoffset:3.11811;paint-order:markers stroke fill" d="m 17.175604,45.983685 v -1.169976 c 0,-0.141277 0.113735,-0.255012 0.255012,-0.255012 h 33.356641 c 0.141277,0 0.255012,0.113735 0.255012,0.255012 v 1.169976 c 0,0.141277 -0.113735,0.255012 -0.255012,0.255012 H 17.430616 c -0.141277,0 -0.255012,-0.113735 -0.255012,-0.255012 z" />
                  <g id="g50972" transform="translate(2.8333333e-6,0.0204683)" style="fill:#0000d4;fill-opacity:1">
                     <path id="rect46658" style="fill:#0000d4;fill-opacity:1;stroke:none;stroke-width:0.979054;stroke-linecap:round;stroke-linejoin:round;stroke-miterlimit:4;stroke-dasharray:none;stroke-dashoffset:3.11811;stroke-opacity:1;paint-order:markers stroke fill" d="m 21.969625,37.697113 c -0.141277,0 -0.254765,0.113489 -0.254765,0.254765 v 5.831685 c 0,0.141276 0.113488,0.254764 0.254765,0.254764 h 7.26984 c 0.141277,0 0.254765,-0.113488 0.254765,-0.254764 v -5.831685 c 0,-0.141276 -0.113488,-0.254765 -0.254765,-0.254765 z m 2.956925,0.422197 h 1.35599 v 1.456241 c 0,0.137244 -0.09534,0.247531 -0.213941,0.247531 h -0.928108 c -0.118598,0 -0.213941,-0.110275 -0.213941,-0.247531 z" />
                     <path id="rect46664" style="fill:#0000d4;fill-opacity:1;stroke:none;stroke-width:0.979054;stroke-linecap:round;stroke-linejoin:round;stroke-miterlimit:4;stroke-dasharray:none;stroke-dashoffset:3.11811;stroke-opacity:1;paint-order:markers stroke fill" d="m 30.473756,37.697113 c -0.141277,0 -0.254765,0.113489 -0.254765,0.254765 v 5.831685 c 0,0.141276 0.113488,0.254764 0.254765,0.254764 h 7.26984 c 0.141277,0 0.254765,-0.113488 0.254765,-0.254764 v -5.831685 c 0,-0.141276 -0.113488,-0.254765 -0.254765,-0.254765 z m 2.956925,0.422197 h 1.35599 v 1.456241 c 0,0.137244 -0.09534,0.247531 -0.213941,0.247531 h -0.928108 c -0.118597,0 -0.213941,-0.110275 -0.213941,-0.247531 z" />
                     <path id="rect46666" style="fill:#0000d4;fill-opacity:1;stroke:none;stroke-width:0.979054;stroke-linecap:round;stroke-linejoin:round;stroke-miterlimit:4;stroke-dasharray:none;stroke-dashoffset:3.11811;stroke-opacity:1;paint-order:markers stroke fill" d="m 38.965483,37.697161 c -0.135112,0.0068 -0.242362,0.117903 -0.242362,0.254764 v 5.831168 c 0,0.141277 0.114005,0.255283 0.255281,0.255283 h 7.269841 c 0.141277,0 0.254764,-0.114006 0.254764,-0.255283 v -5.831168 c 0,-0.141276 -0.113487,-0.254764 -0.254764,-0.254764 h -7.269841 c -0.0044,0 -0.0086,-2.2e-4 -0.01292,0 z m 2.969845,0.401526 h 1.355989 v 1.456241 c 0,0.137244 -0.09541,0.247531 -0.21394,0.247531 h -0.928109 c -0.118588,0 -0.21394,-0.110275 -0.21394,-0.247531 z" />
                  </g>
                  <g id="g51060" transform="translate(2.8333333e-6,-10.563901)" style="fill:#0000d4;fill-opacity:1">
                     <path id="path51054" style="fill:#0000d4;fill-opacity:1;stroke:none;stroke-width:0.979054;stroke-linecap:round;stroke-linejoin:round;stroke-miterlimit:4;stroke-dasharray:none;stroke-dashoffset:3.11811;stroke-opacity:1;paint-order:markers stroke fill" d="m 21.969625,37.697113 c -0.141277,0 -0.254765,0.113489 -0.254765,0.254765 v 5.831685 c 0,0.141276 0.113488,0.254764 0.254765,0.254764 h 7.26984 c 0.141277,0 0.254765,-0.113488 0.254765,-0.254764 v -5.831685 c 0,-0.141276 -0.113488,-0.254765 -0.254765,-0.254765 z m 2.956925,0.422197 h 1.35599 v 1.456241 c 0,0.137244 -0.09534,0.247531 -0.213941,0.247531 h -0.928108 c -0.118598,0 -0.213941,-0.110275 -0.213941,-0.247531 z" />
                     <path id="path51056" style="fill:#0000d4;fill-opacity:1;stroke:none;stroke-width:0.979054;stroke-linecap:round;stroke-linejoin:round;stroke-miterlimit:4;stroke-dasharray:none;stroke-dashoffset:3.11811;stroke-opacity:1;paint-order:markers stroke fill" d="m 30.473756,37.697113 c -0.141277,0 -0.254765,0.113489 -0.254765,0.254765 v 5.831685 c 0,0.141276 0.113488,0.254764 0.254765,0.254764 h 7.26984 c 0.141277,0 0.254765,-0.113488 0.254765,-0.254764 v -5.831685 c 0,-0.141276 -0.113488,-0.254765 -0.254765,-0.254765 z m 2.956925,0.422197 h 1.35599 v 1.456241 c 0,0.137244 -0.09534,0.247531 -0.213941,0.247531 h -0.928108 c -0.118597,0 -0.213941,-0.110275 -0.213941,-0.247531 z" />
                     <path id="path51058" style="fill:#0000d4;fill-opacity:1;stroke:none;stroke-width:0.979054;stroke-linecap:round;stroke-linejoin:round;stroke-miterlimit:4;stroke-dasharray:none;stroke-dashoffset:3.11811;stroke-opacity:1;paint-order:markers stroke fill" d="m 38.965483,37.697161 c -0.135112,0.0068 -0.242362,0.117903 -0.242362,0.254764 v 5.831168 c 0,0.141277 0.114005,0.255283 0.255281,0.255283 h 7.269841 c 0.141277,0 0.254764,-0.114006 0.254764,-0.255283 v -5.831168 c 0,-0.141276 -0.113487,-0.254764 -0.254764,-0.254764 h -7.269841 c -0.0044,0 -0.0086,-2.2e-4 -0.01292,0 z m 2.969845,0.401526 h 1.355989 v 1.456241 c 0,0.137244 -0.09541,0.247531 -0.21394,0.247531 h -0.928109 c -0.118588,0 -0.21394,-0.110275 -0.21394,-0.247531 z" />
                  </g>
                  <g id="g51497" transform="translate(4.2523228)" style="fill:#0000d4;fill-opacity:1" />
               </g>
            </g>
         </g>
         <g id="g59052">
            <path id="path52739" style="fill:#000080;fill-opacity:1;stroke:none;stroke-width:0.149163;stroke-linecap:round;stroke-linejoin:round;stroke-miterlimit:4;stroke-dasharray:none;stroke-dashoffset:3.11811;stroke-opacity:1;paint-order:markers stroke fill" d="m 17.627785,16.984176 v 1.210973 h 0.717794 v -1.210973 z m 0,2.396798 v 3.496664 h 0.717794 v -3.496664 z m 0,4.682489 v 3.496664 h 0.717794 v -3.496664 z m 0,4.682489 v 1.113811 h 0.717794 v -1.113811 z" />
            <path id="path52741" style="fill:#000080;fill-opacity:1;stroke:none;stroke-width:0.563766;stroke-linecap:round;stroke-linejoin:round;stroke-miterlimit:4;stroke-dasharray:none;stroke-dashoffset:3.11811;stroke-opacity:1;paint-order:markers stroke fill" d="M 50.267578 6.0253906 L 50.267578 10.601562 L 52.980469 10.601562 L 52.980469 6.0253906 L 50.267578 6.0253906 z M 50.267578 20.9375 L 50.267578 28.300781 L 52.980469 28.300781 L 52.980469 21.511719 C 52.078715 21.275427 51.17359 21.086621 50.267578 20.9375 z M 50.267578 32.78125 L 50.267578 45.998047 L 52.980469 45.998047 L 52.980469 32.78125 L 50.267578 32.78125 z M 50.267578 50.478516 L 50.267578 54.689453 L 52.980469 54.689453 L 52.980469 50.478516 L 50.267578 50.478516 z " transform="matrix(0.26458333,0,0,0.26458333,17.175603,15.389948)" />
            <rect style="fill:#000080;fill-opacity:1;stroke:none;stroke-width:0.160905;stroke-linecap:round;stroke-linejoin:round;stroke-miterlimit:4;stroke-dasharray:none;stroke-dashoffset:3.11811;stroke-opacity:1;paint-order:markers stroke fill" id="rect52743" width="0.74322641" height="14.469814" x="-23.842152" y="17.175606" rx="0.2550118" ry="0.25501186" transform="rotate(-90)" />
            <path id="rect52745" style="fill:#000080;fill-opacity:1;stroke:none;stroke-width:0.608145;stroke-linecap:round;stroke-linejoin:round;stroke-miterlimit:4;stroke-dasharray:none;stroke-dashoffset:3.11811;stroke-opacity:1;paint-order:markers stroke fill" d="M 0.96289062 11.439453 C 0.42893194 11.439453 0 11.868385 0 12.402344 L 0 13.283203 C 0 13.817162 0.42893194 14.248047 0.96289062 14.248047 L 50.076172 14.248047 C 51.297003 14.065603 52.58752 13.957554 53.958984 13.943359 C 54.116877 13.941725 54.2728 13.941853 54.429688 13.941406 C 54.590229 13.769379 54.689453 13.538155 54.689453 13.283203 L 54.689453 12.402344 C 54.689453 11.868385 54.258568 11.439453 53.724609 11.439453 L 0.96289062 11.439453 z " transform="matrix(0.26458333,0,0,0.26458333,17.175603,15.389948)" />
            <path id="path52747" style="fill:#000080;fill-opacity:1;stroke-width:0.160905;stroke-linecap:round;stroke-linejoin:round;stroke-dashoffset:3.11811;paint-order:markers stroke fill" d="m 17.175603,28.411829 v -0.517593 c 0,-0.0625 0.04859,-0.112817 0.108956,-0.112817 h 14.251902 c 0.06036,0 0.108956,0.05032 0.108956,0.112817 v 0.517593 c 0,0.0625 -0.04859,0.112817 -0.108956,0.112817 H 17.284559 c -0.06036,0 -0.108956,-0.05032 -0.108956,-0.112817 z" />
            <g id="g52755" transform="matrix(0.42725832,0,0,0.44239668,9.8371845,8.0778548)" style="fill:#000080;fill-opacity:1">
               <path id="path52749" style="fill:#000080;fill-opacity:1;stroke:none;stroke-width:0.979054;stroke-linecap:round;stroke-linejoin:round;stroke-miterlimit:4;stroke-dasharray:none;stroke-dashoffset:3.11811;stroke-opacity:1;paint-order:markers stroke fill" d="m 21.969625,37.697113 c -0.141277,0 -0.254765,0.113489 -0.254765,0.254765 v 5.831685 c 0,0.141276 0.113488,0.254764 0.254765,0.254764 h 7.26984 c 0.141277,0 0.254765,-0.113488 0.254765,-0.254764 v -5.831685 c 0,-0.141276 -0.113488,-0.254765 -0.254765,-0.254765 z m 2.956925,0.422197 h 1.35599 v 1.456241 c 0,0.137244 -0.09534,0.247531 -0.213941,0.247531 h -0.928108 c -0.118598,0 -0.213941,-0.110275 -0.213941,-0.247531 z" />
               <path id="path52751" style="fill:#000080;fill-opacity:1;stroke:none;stroke-width:0.979054;stroke-linecap:round;stroke-linejoin:round;stroke-miterlimit:4;stroke-dasharray:none;stroke-dashoffset:3.11811;stroke-opacity:1;paint-order:markers stroke fill" d="m 30.473756,37.697113 c -0.141277,0 -0.254765,0.113489 -0.254765,0.254765 v 5.831685 c 0,0.141276 0.113488,0.254764 0.254765,0.254764 h 7.26984 c 0.141277,0 0.254765,-0.113488 0.254765,-0.254764 v -5.831685 c 0,-0.141276 -0.113488,-0.254765 -0.254765,-0.254765 z m 2.956925,0.422197 h 1.35599 v 1.456241 c 0,0.137244 -0.09534,0.247531 -0.213941,0.247531 h -0.928108 c -0.118597,0 -0.213941,-0.110275 -0.213941,-0.247531 z" />
               <path id="path52753" style="fill:#000080;fill-opacity:1;stroke:none;stroke-width:0.979054;stroke-linecap:round;stroke-linejoin:round;stroke-miterlimit:4;stroke-dasharray:none;stroke-dashoffset:3.11811;stroke-opacity:1;paint-order:markers stroke fill" d="m 38.965483,37.697161 c -0.135112,0.0068 -0.242362,0.117903 -0.242362,0.254764 v 5.831168 c 0,0.141277 0.114005,0.255283 0.255281,0.255283 h 7.269841 c 0.141277,0 0.254764,-0.114006 0.254764,-0.255283 v -5.831168 c 0,-0.141276 -0.113487,-0.254764 -0.254764,-0.254764 h -7.269841 c -0.0044,0 -0.0086,-2.2e-4 -0.01292,0 z m 2.969845,0.401526 h 1.355989 v 1.456241 c 0,0.137244 -0.09541,0.247531 -0.21394,0.247531 h -0.928109 c -0.118588,0 -0.21394,-0.110275 -0.21394,-0.247531 z" />
            </g>
            <path id="path52757" style="fill:#000080;fill-opacity:1;stroke:none;stroke-width:0.425655;stroke-linecap:round;stroke-linejoin:round;stroke-miterlimit:4;stroke-dasharray:none;stroke-dashoffset:3.11811;stroke-opacity:1;paint-order:markers stroke fill" d="m 19.22389,20.072443 c -0.06036,0 -0.108851,0.05021 -0.108851,0.112707 v 2.579918 c 0,0.0625 0.04849,0.112707 0.108851,0.112707 h 3.106099 c 0.06036,0 0.108851,-0.05021 0.108851,-0.112707 V 20.18515 c 0,-0.0625 -0.04849,-0.112707 -0.108851,-0.112707 z m 1.26337,0.186778 h 0.579358 v 0.644236 c 0,0.06072 -0.04073,0.109507 -0.09141,0.109507 h -0.396542 c -0.05067,0 -0.09141,-0.04878 -0.09141,-0.109507 z" />
            <path id="path52759" style="fill:#000080;fill-opacity:1;stroke:none;stroke-width:0.425655;stroke-linecap:round;stroke-linejoin:round;stroke-miterlimit:4;stroke-dasharray:none;stroke-dashoffset:3.11811;stroke-opacity:1;paint-order:markers stroke fill" d="m 22.85735,20.072443 c -0.06036,0 -0.10885,0.05021 -0.10885,0.112707 v 2.579918 c 0,0.0625 0.04849,0.112707 0.10885,0.112707 h 3.1061 c 0.06036,0 0.10885,-0.05021 0.10885,-0.112707 V 20.18515 c 0,-0.0625 -0.04849,-0.112707 -0.10885,-0.112707 z m 1.263371,0.186778 h 0.579358 v 0.644236 c 0,0.06072 -0.04073,0.109507 -0.09141,0.109507 h -0.396542 c -0.05067,0 -0.09141,-0.04878 -0.09141,-0.109507 z" />
            <path id="path52761" style="fill:#000080;fill-opacity:1;stroke:none;stroke-width:1.60877;stroke-linecap:round;stroke-linejoin:round;stroke-miterlimit:4;stroke-dasharray:none;stroke-dashoffset:3.11811;stroke-opacity:1;paint-order:markers stroke fill" d="M 35.1875 17.697266 C 34.969308 17.708604 34.794922 17.894208 34.794922 18.123047 L 34.794922 27.873047 C 34.794922 28.109267 34.978895 28.300781 35.207031 28.300781 L 46.947266 28.300781 C 47.175398 28.300781 47.359375 28.109252 47.359375 27.873047 L 47.359375 20.583984 C 45.622562 20.43653 43.890047 20.396725 42.171875 20.392578 L 42.171875 20.804688 C 42.171875 21.03418 42.017567 21.21875 41.826172 21.21875 L 40.328125 21.21875 C 40.136616 21.21875 39.982422 21.034169 39.982422 20.804688 L 39.982422 20.398438 C 38.869891 20.409075 37.752739 20.421875 36.662109 20.421875 C 37.843606 19.481577 39.132002 18.550797 40.554688 17.697266 L 35.207031 17.697266 C 35.19985 17.697266 35.194303 17.696899 35.1875 17.697266 z " transform="matrix(0.26458333,0,0,0.26458333,17.175603,15.389948)" />
            <g id="g52769" transform="matrix(0.42725832,0,0,0.44239668,11.654024,8.0687997)" style="fill:#000080;fill-opacity:1">
               <path id="path52765" style="fill:#000080;fill-opacity:1;stroke:none;stroke-width:0.979054;stroke-linecap:round;stroke-linejoin:round;stroke-miterlimit:4;stroke-dasharray:none;stroke-dashoffset:3.11811;stroke-opacity:1;paint-order:markers stroke fill" d="m 21.969628,16.548832 c -0.141277,0 -0.254765,0.113489 -0.254765,0.254765 v 5.831685 c 0,0.141276 0.113488,0.254764 0.254765,0.254764 h 7.26984 c 0.141277,0 0.254765,-0.113488 0.254765,-0.254764 v -5.831685 c 0,-0.141276 -0.113488,-0.254765 -0.254765,-0.254765 z m 2.956925,0.422197 h 1.35599 v 1.456241 c 0,0.137244 -0.09534,0.247531 -0.213941,0.247531 h -0.928108 c -0.118598,0 -0.213941,-0.110275 -0.213941,-0.247531 z" />
               <path id="path52767" style="fill:#000080;fill-opacity:1;stroke:none;stroke-width:0.979054;stroke-linecap:round;stroke-linejoin:round;stroke-miterlimit:4;stroke-dasharray:none;stroke-dashoffset:3.11811;stroke-opacity:1;paint-order:markers stroke fill" d="m 30.473759,16.548832 c -0.141277,0 -0.254765,0.113489 -0.254765,0.254765 v 5.831685 c 0,0.141276 0.113488,0.254764 0.254765,0.254764 h 7.26984 c 0.141277,0 0.254765,-0.113488 0.254765,-0.254764 v -5.831685 c 0,-0.141276 -0.113488,-0.254765 -0.254765,-0.254765 z m 2.956925,0.422197 h 1.35599 v 1.456241 c 0,0.137244 -0.09534,0.247531 -0.213941,0.247531 h -0.928108 c -0.118597,0 -0.213941,-0.110275 -0.213941,-0.247531 z" />
            </g>
         </g>
         <path inkscape:transform-center-y="1.6029926" d="m 43.228485,24.137741 -2.672601,1.360287 c -4.228997,-6.546149 -8.853049,-6.617707 -12.456275,-5.093493 2.519394,-0.475106 7.105555,-0.480261 9.664872,6.514251 l -2.607163,1.326987 3.518027,1.920541 3.518021,1.920543 0.517564,-3.974558 z" inkscape:transform-center-x="1.0001303" style="opacity:0.998;fill:#ff6600;fill-opacity:1;stroke-width:0;stroke-linejoin:round;stroke-dashoffset:3.11811" id="path2106" />
      </g>
   </g>
</svg>