<?xml version="1.0" encoding="UTF-8" standalone="no"?>
<svg
   width="128"
   height="128"
   viewBox="0 0 33.866663 33.866667"
   version="1.1"
   id="svg8"
   inkscape:version="1.1 (c68e22c387, 2021-05-23)"
   sodipodi:docname="Icon_Return_Internal_2.svg"
   xmlns:inkscape="http://www.inkscape.org/namespaces/inkscape"
   xmlns:sodipodi="http://sodipodi.sourceforge.net/DTD/sodipodi-0.dtd"
   xmlns="http://www.w3.org/2000/svg"
   xmlns:svg="http://www.w3.org/2000/svg"
   xmlns:rdf="http://www.w3.org/1999/02/22-rdf-syntax-ns#"
   xmlns:cc="http://creativecommons.org/ns#"
   xmlns:dc="http://purl.org/dc/elements/1.1/">
  <defs
     id="defs2">
    <linearGradient
       id="linearGradient2783"
       inkscape:swatch="solid">
      <stop
         style="stop-color:#000000;stop-opacity:1;"
         offset="0"
         id="stop2781" />
    </linearGradient>
  </defs>
  <sodipodi:namedview
     inkscape:pagecheckerboard="false"
     units="px"
     id="base"
     pagecolor="#ffffff"
     bordercolor="#666666"
     borderopacity="1.0"
     inkscape:pageopacity="0.0"
     inkscape:pageshadow="2"
     inkscape:zoom="1"
     inkscape:cx="278"
     inkscape:cy="235.5"
     inkscape:document-units="mm"
     inkscape:current-layer="layer1"
     inkscape:document-rotation="0"
     showgrid="false"
     showguides="false"
     inkscape:guide-bbox="true"
     inkscape:window-width="1920"
     inkscape:window-height="987"
     inkscape:window-x="-11"
     inkscape:window-y="492"
     inkscape:window-maximized="1">
    <sodipodi:guide
       position="0,33.866665"
       orientation="0,128"
       id="guide45582" />
    <sodipodi:guide
       position="33.866665,33.866665"
       orientation="128,0"
       id="guide45584" />
    <sodipodi:guide
       position="33.866665,0"
       orientation="0,-128"
       id="guide45586" />
    <sodipodi:guide
       position="0,0"
       orientation="-128,0"
       id="guide45588" />
    <sodipodi:guide
       position="-2.0108611e-06,4.6979175"
       orientation="0,-1"
       id="guide46668" />
    <sodipodi:guide
       position="8.6408847e-06,15.282291"
       orientation="0,-1"
       id="guide46670" />
    <sodipodi:guide
       position="8.6408842e-06,25.866666"
       orientation="0,-1"
       id="guide47046" />
    <sodipodi:guide
       position="32.133246,5.1977696"
       orientation="0,-1"
       id="guide48152" />
    <sodipodi:guide
       position="33.866657,2.5180698"
       orientation="0,-1"
       id="guide48154" />
    <sodipodi:guide
       position="34.926144,15.782141"
       orientation="0,-1"
       id="guide48156" />
    <sodipodi:guide
       position="34.926144,26.366517"
       orientation="0,-1"
       id="guide48158" />
    <sodipodi:guide
       position="12.318859,11.55949"
       orientation="0,-1"
       id="guide48616" />
    <sodipodi:guide
       position="16.826285,11.559491"
       orientation="0,-1"
       id="guide50461" />
    <sodipodi:guide
       position="12.774413,11.137304"
       orientation="0,-1"
       id="guide50463" />
    <sodipodi:guide
       position="17.981713,21.010842"
       orientation="-0.45360169,0.89120453"
       id="guide56491" />
    <sodipodi:guide
       position="21.59558,9.1467281"
       orientation="0,-1"
       id="guide6244" />
    <sodipodi:guide
       position="21.960416,9.4474849"
       orientation="0,-1"
       id="guide6246" />
    <sodipodi:guide
       position="15.792989,24.063674"
       orientation="-0.89120435,0.45360203"
       id="guide6628" />
    <sodipodi:guide
       position="19.901021,32.134841"
       orientation="0.12912818,-0.99162791"
       id="guide6807" />
    <sodipodi:guide
       position="11.951906,31.099722"
       orientation="0.87772566,0.47916351"
       id="guide6838" />
  </sodipodi:namedview>
  <metadata
     id="metadata5">
    <rdf:RDF>
      <cc:Work
         rdf:about="">
        <dc:format>image/svg+xml</dc:format>
        <dc:type
           rdf:resource="http://purl.org/dc/dcmitype/StillImage" />
      </cc:Work>
    </rdf:RDF>
  </metadata>
  <g
     inkscape:label="Layer 1"
     inkscape:groupmode="layer"
     id="layer1"
     transform="translate(-17.175603,-15.389948)">
    <g
       id="g28"
       fill="#000000"
       transform="matrix(0.4091643,0,0,0.4091643,27.981194,-3.5551767)"
       style="font-weight:bold;font-size:12.275px;line-height:1.25;font-family:'Sero Pro';-inkscape-font-specification:'Sero Pro Bold';stroke-width:0.324775" />
    <g
       id="g46"
       fill="#000000"
       transform="matrix(0.4091643,0,0,0.4091643,27.981194,-3.5551767)"
       style="font-weight:bold;font-size:12.275px;line-height:1.25;font-family:'Sero Pro';-inkscape-font-specification:'Sero Pro Bold';stroke-width:0.324775" />
    <g
       id="g62"
       fill="#000000"
       transform="matrix(0.4091643,0,0,0.4091643,27.981194,-3.5551767)"
       style="font-weight:bold;font-size:12.275px;line-height:1.25;font-family:'Sero Pro';-inkscape-font-specification:'Sero Pro Bold';stroke-width:0.324775" />
    <g
       id="g78"
       fill="#000000"
       transform="matrix(0.4091643,0,0,0.4091643,27.981194,-3.5551767)"
       style="font-weight:bold;font-size:12.275px;line-height:1.25;font-family:'Sero Pro';-inkscape-font-specification:'Sero Pro Bold';stroke-width:0.324775" />
    <g
       id="g96"
       fill="#000000"
       transform="matrix(0.4091643,0,0,0.4091643,27.981194,-3.5551767)"
       style="font-weight:bold;font-size:12.275px;line-height:1.25;font-family:'Sero Pro';-inkscape-font-specification:'Sero Pro Bold';stroke-width:0.324775" />
    <g
       id="g110"
       fill="#000000"
       transform="matrix(0.4091643,0,0,0.4091643,27.981194,-3.5551767)"
       style="font-weight:bold;font-size:12.275px;line-height:1.25;font-family:'Sero Pro';-inkscape-font-specification:'Sero Pro Bold';stroke-width:0.324775" />
    <g
       id="g128"
       fill="#000000"
       transform="matrix(0.4091643,0,0,0.4091643,27.981194,-3.5551767)"
       style="font-weight:bold;font-size:12.275px;line-height:1.25;font-family:'Sero Pro';-inkscape-font-specification:'Sero Pro Bold';stroke-width:0.324775" />
    <g
       id="g146"
       fill="#000000"
       transform="matrix(0.4091643,0,0,0.4091643,27.981194,-3.5551767)"
       style="font-weight:bold;font-size:12.275px;line-height:1.25;font-family:'Sero Pro';-inkscape-font-specification:'Sero Pro Bold';stroke-width:0.324775" />
    <g
       id="g164"
       fill="#000000"
       transform="matrix(0.4091643,0,0,0.4091643,27.981194,-3.5551767)"
       style="font-weight:bold;font-size:12.275px;line-height:1.25;font-family:'Sero Pro';-inkscape-font-specification:'Sero Pro Bold';stroke-width:0.324775" />
    <g
       id="g184"
       fill="#000000"
       transform="matrix(0.4091643,0,0,0.4091643,27.981194,-3.5551767)"
       style="font-weight:bold;font-size:12.275px;line-height:1.25;font-family:'Sero Pro';-inkscape-font-specification:'Sero Pro Bold';stroke-width:0.324775" />
    <g
       id="g200"
       fill="#000000"
       transform="matrix(0.4091643,0,0,0.4091643,27.981194,-3.5551767)"
       style="font-weight:bold;font-size:12.275px;line-height:1.25;font-family:'Sero Pro';-inkscape-font-specification:'Sero Pro Bold';stroke-width:0.324775" />
    <g
       id="g212"
       fill="#000000"
       transform="matrix(0.4091643,0,0,0.4091643,27.981194,-3.5551767)"
       style="font-weight:bold;font-size:12.275px;line-height:1.25;font-family:'Sero Pro';-inkscape-font-specification:'Sero Pro Bold';stroke-width:0.324775" />
    <g
       id="g232"
       fill="#000000"
       transform="matrix(0.4091643,0,0,0.4091643,27.981194,-3.5551767)"
       style="font-weight:bold;font-size:12.275px;line-height:1.25;font-family:'Sero Pro';-inkscape-font-specification:'Sero Pro Bold';stroke-width:0.324775" />
    <g
       id="rect6530"
       transform="matrix(1.3961457,0,0,1.3961457,-166.30898,7.4747059)" />
    <g
       id="g51497"
       transform="matrix(0.57812507,0,0,0.59860885,23.973488,19.771169)"
       style="fill:#000080;fill-opacity:1" />
    <g
       id="g8424">
      <g
         id="g8126">
        <g
           id="g7770">
          <path
             id="path52739"
             style="fill:#0000d4;fill-opacity:1;stroke:none;stroke-width:0.149163;stroke-linecap:round;stroke-linejoin:round;stroke-miterlimit:4;stroke-dasharray:none;stroke-dashoffset:3.11811;stroke-opacity:1;paint-order:markers stroke fill"
             d="m 17.627785,16.984176 v 1.210973 h 0.717794 v -1.210973 z m 0,2.396798 v 3.496664 h 0.717794 v -3.496664 z m 0,4.682489 v 3.496664 h 0.717794 v -3.496664 z m 0,4.682489 v 1.113811 h 0.717794 v -1.113811 z" />
          <path
             id="path52741"
             style="fill:#0000d4;fill-opacity:1;stroke:none;stroke-width:0.563766;stroke-linecap:round;stroke-linejoin:round;stroke-miterlimit:4;stroke-dasharray:none;stroke-dashoffset:3.11811;stroke-opacity:1;paint-order:markers stroke fill"
             d="M 50.267578 6.0253906 L 50.267578 7.8203125 L 52.980469 7.2382812 L 52.980469 6.0253906 L 50.267578 6.0253906 z M 50.267578 32.78125 L 50.267578 45.998047 L 52.980469 45.998047 L 52.980469 32.78125 L 50.267578 32.78125 z M 50.267578 50.478516 L 50.267578 54.689453 L 52.980469 54.689453 L 52.980469 50.478516 L 50.267578 50.478516 z "
             transform="matrix(0.26458333,0,0,0.26458333,17.175603,15.389948)" />
          <path
             id="rect52743"
             style="fill:#0000d4;fill-opacity:1;stroke:none;stroke-width:0.608145;stroke-linecap:round;stroke-linejoin:round;stroke-miterlimit:4;stroke-dasharray:none;stroke-dashoffset:3.11811;stroke-opacity:1;paint-order:markers stroke fill"
             d="M 0.96289062 29.136719 C 0.42893194 29.136719 0 29.565651 0 30.099609 L 0 30.982422 C 0 31.51638 0.42893194 31.945312 0.96289062 31.945312 L 52.505859 31.945312 L 50.660156 29.136719 L 0.96289062 29.136719 z "
             transform="matrix(0.26458333,0,0,0.26458333,17.175603,15.389948)" />
          <path
             id="rect52745"
             style="fill:#0000d4;fill-opacity:1;stroke:none;stroke-width:0.608145;stroke-linecap:round;stroke-linejoin:round;stroke-miterlimit:4;stroke-dasharray:none;stroke-dashoffset:3.11811;stroke-opacity:1;paint-order:markers stroke fill"
             d="M 0.96289062 11.439453 C 0.42893194 11.439453 0 11.868385 0 12.402344 L 0 13.283203 C 0 13.817162 0.42893194 14.248047 0.96289062 14.248047 L 40.882812 14.248047 L 39.039062 11.439453 L 0.96289062 11.439453 z "
             transform="matrix(0.26458333,0,0,0.26458333,17.175603,15.389948)" />
          <path
             id="path52747"
             style="fill:#0000d4;fill-opacity:1;stroke-width:0.160905;stroke-linecap:round;stroke-linejoin:round;stroke-dashoffset:3.11811;paint-order:markers stroke fill"
             d="m 17.175603,28.411829 v -0.517593 c 0,-0.0625 0.04859,-0.112817 0.108956,-0.112817 h 14.251902 c 0.06036,0 0.108956,0.05032 0.108956,0.112817 v 0.517593 c 0,0.0625 -0.04859,0.112817 -0.108956,0.112817 H 17.284559 c -0.06036,0 -0.108956,-0.05032 -0.108956,-0.112817 z" />
          <g
             id="g52755"
             transform="matrix(0.42725832,0,0,0.44239668,9.8371845,8.0778548)"
             style="fill:#0000d4;fill-opacity:1">
            <path
               id="path52749"
               style="fill:#0000d4;fill-opacity:1;stroke:none;stroke-width:0.979054;stroke-linecap:round;stroke-linejoin:round;stroke-miterlimit:4;stroke-dasharray:none;stroke-dashoffset:3.11811;stroke-opacity:1;paint-order:markers stroke fill"
               d="m 21.969625,37.697113 c -0.141277,0 -0.254765,0.113489 -0.254765,0.254765 v 5.831685 c 0,0.141276 0.113488,0.254764 0.254765,0.254764 h 7.26984 c 0.141277,0 0.254765,-0.113488 0.254765,-0.254764 v -5.831685 c 0,-0.141276 -0.113488,-0.254765 -0.254765,-0.254765 z m 2.956925,0.422197 h 1.35599 v 1.456241 c 0,0.137244 -0.09534,0.247531 -0.213941,0.247531 h -0.928108 c -0.118598,0 -0.213941,-0.110275 -0.213941,-0.247531 z" />
            <path
               id="path52751"
               style="fill:#0000d4;fill-opacity:1;stroke:none;stroke-width:0.979054;stroke-linecap:round;stroke-linejoin:round;stroke-miterlimit:4;stroke-dasharray:none;stroke-dashoffset:3.11811;stroke-opacity:1;paint-order:markers stroke fill"
               d="m 30.473756,37.697113 c -0.141277,0 -0.254765,0.113489 -0.254765,0.254765 v 5.831685 c 0,0.141276 0.113488,0.254764 0.254765,0.254764 h 7.26984 c 0.141277,0 0.254765,-0.113488 0.254765,-0.254764 v -5.831685 c 0,-0.141276 -0.113488,-0.254765 -0.254765,-0.254765 z m 2.956925,0.422197 h 1.35599 v 1.456241 c 0,0.137244 -0.09534,0.247531 -0.213941,0.247531 h -0.928108 c -0.118597,0 -0.213941,-0.110275 -0.213941,-0.247531 z" />
            <path
               id="path52753"
               style="fill:#0000d4;fill-opacity:1;stroke:none;stroke-width:0.979054;stroke-linecap:round;stroke-linejoin:round;stroke-miterlimit:4;stroke-dasharray:none;stroke-dashoffset:3.11811;stroke-opacity:1;paint-order:markers stroke fill"
               d="m 38.965483,37.697161 c -0.135112,0.0068 -0.242362,0.117903 -0.242362,0.254764 v 5.831168 c 0,0.141277 0.114005,0.255283 0.255281,0.255283 h 7.269841 c 0.141277,0 0.254764,-0.114006 0.254764,-0.255283 v -5.831168 c 0,-0.141276 -0.113487,-0.254764 -0.254764,-0.254764 h -7.269841 c -0.0044,0 -0.0086,-2.2e-4 -0.01292,0 z m 2.969845,0.401526 h 1.355989 v 1.456241 c 0,0.137244 -0.09541,0.247531 -0.21394,0.247531 h -0.928109 c -0.118588,0 -0.21394,-0.110275 -0.21394,-0.247531 z" />
          </g>
          <path
             id="path52757"
             style="fill:#0000d4;fill-opacity:1;stroke:none;stroke-width:0.425655;stroke-linecap:round;stroke-linejoin:round;stroke-miterlimit:4;stroke-dasharray:none;stroke-dashoffset:3.11811;stroke-opacity:1;paint-order:markers stroke fill"
             d="m 19.22389,20.072443 c -0.06036,0 -0.108851,0.05021 -0.108851,0.112707 v 2.579918 c 0,0.0625 0.04849,0.112707 0.108851,0.112707 h 3.106099 c 0.06036,0 0.108851,-0.05021 0.108851,-0.112707 V 20.18515 c 0,-0.0625 -0.04849,-0.112707 -0.108851,-0.112707 z m 1.26337,0.186778 h 0.579358 v 0.644236 c 0,0.06072 -0.04073,0.109507 -0.09141,0.109507 h -0.396542 c -0.05067,0 -0.09141,-0.04878 -0.09141,-0.109507 z" />
          <path
             id="path52759"
             style="fill:#0000d4;fill-opacity:1;stroke:none;stroke-width:0.425655;stroke-linecap:round;stroke-linejoin:round;stroke-miterlimit:4;stroke-dasharray:none;stroke-dashoffset:3.11811;stroke-opacity:1;paint-order:markers stroke fill"
             d="m 22.85735,20.072443 c -0.06036,0 -0.10885,0.05021 -0.10885,0.112707 v 2.579918 c 0,0.0625 0.04849,0.112707 0.10885,0.112707 h 3.1061 c 0.06036,0 0.10885,-0.05021 0.10885,-0.112707 V 20.18515 c 0,-0.0625 -0.04849,-0.112707 -0.10885,-0.112707 z m 1.263371,0.186778 h 0.579358 v 0.644236 c 0,0.06072 -0.04073,0.109507 -0.09141,0.109507 h -0.396542 c -0.05067,0 -0.09141,-0.04878 -0.09141,-0.109507 z" />
          <path
             id="path52761"
             style="fill:#0000d4;fill-opacity:1;stroke:none;stroke-width:1.60877;stroke-linecap:round;stroke-linejoin:round;stroke-miterlimit:4;stroke-dasharray:none;stroke-dashoffset:3.11811;stroke-opacity:1;paint-order:markers stroke fill"
             d="M 35.1875 17.697266 C 34.969308 17.708604 34.794922 17.894208 34.794922 18.123047 L 34.794922 27.873047 C 34.794922 28.109267 34.978895 28.300781 35.207031 28.300781 L 46.947266 28.300781 C 47.175398 28.300781 47.359375 28.109252 47.359375 27.873047 L 47.359375 24.109375 L 43.148438 17.697266 L 35.207031 17.697266 C 35.19985 17.697266 35.194303 17.696899 35.1875 17.697266 z M 39.982422 18.369141 L 42.171875 18.369141 L 42.171875 20.804688 C 42.171875 21.03418 42.017567 21.21875 41.826172 21.21875 L 40.328125 21.21875 C 40.136616 21.21875 39.982422 21.034169 39.982422 20.804688 L 39.982422 18.369141 z "
             transform="matrix(0.26458333,0,0,0.26458333,17.175603,15.389948)" />
        </g>
        <g
           id="g7786">
          <path
             id="rect46119"
             style="fill:#000080;fill-opacity:1;stroke:none;stroke-width:0.201833;stroke-linecap:round;stroke-linejoin:round;stroke-miterlimit:4;stroke-dasharray:none;stroke-dashoffset:3.11811;stroke-opacity:1;paint-order:markers stroke fill"
             d="m 32.05661,31.834603 v 1.638572 h 0.971251 v -1.638572 z m 0,3.243117 v 4.73135 h 0.971251 v -4.73135 z m 0,6.335895 v 4.731352 h 0.971251 v -4.731352 z m 0,6.335897 v 1.507102 h 0.971251 v -1.507102 z" />
          <path
             id="rect46242"
             style="fill:#000080;fill-opacity:1;stroke:none;stroke-width:0.201833;stroke-linecap:round;stroke-linejoin:round;stroke-miterlimit:4;stroke-dasharray:none;stroke-dashoffset:3.11811;stroke-opacity:1;paint-order:markers stroke fill"
             d="m 49.440831,31.834603 v 1.638572 h 0.97125 v -1.638572 z m 0,3.243117 v 4.73135 h 0.97125 v -4.73135 z m 0,6.335895 v 4.731352 h 0.97125 v -4.731352 z m 0,6.335897 v 1.507102 h 0.97125 v -1.507102 z" />
          <rect
             style="fill:#000080;fill-opacity:1;stroke:none;stroke-width:0.217721;stroke-linecap:round;stroke-linejoin:round;stroke-miterlimit:4;stroke-dasharray:none;stroke-dashoffset:3.11811;stroke-opacity:1;paint-order:markers stroke fill"
             id="rect46660"
             width="1.0056628"
             height="19.579168"
             x="-41.114159"
             y="31.444765"
             rx="0.2550118"
             ry="0.25501183"
             transform="rotate(-90)" />
          <rect
             style="fill:#000080;fill-opacity:1;stroke:none;stroke-width:0.217721;stroke-linecap:round;stroke-linejoin:round;stroke-miterlimit:4;stroke-dasharray:none;stroke-dashoffset:3.11811;stroke-opacity:1;paint-order:markers stroke fill"
             id="rect46449"
             width="1.0056628"
             height="19.579168"
             x="-34.778263"
             y="31.444761"
             rx="0.2550118"
             ry="0.25501183"
             transform="rotate(-90)" />
          <path
             id="rect46662"
             style="fill:#000080;fill-opacity:1;stroke-width:0.217721;stroke-linecap:round;stroke-linejoin:round;stroke-dashoffset:3.11811;paint-order:markers stroke fill"
             d="m 31.444761,47.29741 v -0.700358 c 0,-0.08457 0.06575,-0.152653 0.147429,-0.152653 h 19.284311 c 0.08168,0 0.147428,0.06808 0.147428,0.152653 v 0.700358 c 0,0.08457 -0.06575,0.152652 -0.147428,0.152652 H 31.59219 c -0.08168,0 -0.147429,-0.06808 -0.147429,-0.152652 z" />
          <g
             id="g50972"
             transform="matrix(0.57812507,0,0,0.59860885,21.515116,19.783422)"
             style="fill:#000080;fill-opacity:1">
            <path
               id="rect46658"
               style="fill:#000080;fill-opacity:1;stroke:none;stroke-width:0.979054;stroke-linecap:round;stroke-linejoin:round;stroke-miterlimit:4;stroke-dasharray:none;stroke-dashoffset:3.11811;stroke-opacity:1;paint-order:markers stroke fill"
               d="m 21.969625,37.697113 c -0.141277,0 -0.254765,0.113489 -0.254765,0.254765 v 5.831685 c 0,0.141276 0.113488,0.254764 0.254765,0.254764 h 7.26984 c 0.141277,0 0.254765,-0.113488 0.254765,-0.254764 v -5.831685 c 0,-0.141276 -0.113488,-0.254765 -0.254765,-0.254765 z m 2.956925,0.422197 h 1.35599 v 1.456241 c 0,0.137244 -0.09534,0.247531 -0.213941,0.247531 h -0.928108 c -0.118598,0 -0.213941,-0.110275 -0.213941,-0.247531 z" />
            <path
               id="rect46664"
               style="fill:#000080;fill-opacity:1;stroke:none;stroke-width:0.979054;stroke-linecap:round;stroke-linejoin:round;stroke-miterlimit:4;stroke-dasharray:none;stroke-dashoffset:3.11811;stroke-opacity:1;paint-order:markers stroke fill"
               d="m 30.473756,37.697113 c -0.141277,0 -0.254765,0.113489 -0.254765,0.254765 v 5.831685 c 0,0.141276 0.113488,0.254764 0.254765,0.254764 h 7.26984 c 0.141277,0 0.254765,-0.113488 0.254765,-0.254764 v -5.831685 c 0,-0.141276 -0.113488,-0.254765 -0.254765,-0.254765 z m 2.956925,0.422197 h 1.35599 v 1.456241 c 0,0.137244 -0.09534,0.247531 -0.213941,0.247531 h -0.928108 c -0.118597,0 -0.213941,-0.110275 -0.213941,-0.247531 z" />
            <path
               id="rect46666"
               style="fill:#000080;fill-opacity:1;stroke:none;stroke-width:0.979054;stroke-linecap:round;stroke-linejoin:round;stroke-miterlimit:4;stroke-dasharray:none;stroke-dashoffset:3.11811;stroke-opacity:1;paint-order:markers stroke fill"
               d="m 38.965483,37.697161 c -0.135112,0.0068 -0.242362,0.117903 -0.242362,0.254764 v 5.831168 c 0,0.141277 0.114005,0.255283 0.255281,0.255283 h 7.269841 c 0.141277,0 0.254764,-0.114006 0.254764,-0.255283 v -5.831168 c 0,-0.141276 -0.113487,-0.254764 -0.254764,-0.254764 h -7.269841 c -0.0044,0 -0.0086,-2.2e-4 -0.01292,0 z m 2.969845,0.401526 h 1.355989 v 1.456241 c 0,0.137244 -0.09541,0.247531 -0.21394,0.247531 h -0.928109 c -0.118588,0 -0.21394,-0.110275 -0.21394,-0.247531 z" />
          </g>
          <path
             id="path51054"
             style="fill:#000080;fill-opacity:1;stroke:none;stroke-width:0.575956;stroke-linecap:round;stroke-linejoin:round;stroke-miterlimit:4;stroke-dasharray:none;stroke-dashoffset:3.11811;stroke-opacity:1;paint-order:markers stroke fill"
             d="m 34.216307,36.013349 c -0.08168,0 -0.147286,0.06794 -0.147286,0.152505 v 3.490898 c 0,0.08457 0.06561,0.152504 0.147286,0.152504 h 4.202877 c 0.08168,0 0.147286,-0.06793 0.147286,-0.152504 v -3.490898 c 0,-0.08457 -0.06561,-0.152505 -0.147286,-0.152505 z m 1.709472,0.252731 h 0.783932 v 0.871719 c 0,0.08216 -0.05512,0.148174 -0.123684,0.148174 h -0.536563 c -0.06856,0 -0.123685,-0.06601 -0.123685,-0.148174 z" />
          <path
             id="path51056"
             style="fill:#000080;fill-opacity:1;stroke:none;stroke-width:0.575956;stroke-linecap:round;stroke-linejoin:round;stroke-miterlimit:4;stroke-dasharray:none;stroke-dashoffset:3.11811;stroke-opacity:1;paint-order:markers stroke fill"
             d="m 39.132758,36.013349 c -0.08168,0 -0.147286,0.06794 -0.147286,0.152505 v 3.490898 c 0,0.08457 0.06561,0.152504 0.147286,0.152504 h 4.202877 c 0.08168,0 0.147286,-0.06793 0.147286,-0.152504 v -3.490898 c 0,-0.08457 -0.06561,-0.152505 -0.147286,-0.152505 z m 1.709473,0.252731 h 0.783932 v 0.871719 c 0,0.08216 -0.05512,0.148174 -0.123685,0.148174 h -0.536563 c -0.06856,0 -0.123684,-0.06601 -0.123684,-0.148174 z" />
          <path
             id="path51058"
             style="fill:#000080;fill-opacity:1;stroke:none;stroke-width:0.575956;stroke-linecap:round;stroke-linejoin:round;stroke-miterlimit:4;stroke-dasharray:none;stroke-dashoffset:3.11811;stroke-opacity:1;paint-order:markers stroke fill"
             d="m 44.042039,36.013378 c -0.07811,0.0041 -0.140116,0.07058 -0.140116,0.152504 v 3.490589 c 0,0.08457 0.06591,0.152815 0.147584,0.152815 h 4.202878 c 0.08168,0 0.147285,-0.06824 0.147285,-0.152815 v -3.490589 c 0,-0.08457 -0.06561,-0.152504 -0.147285,-0.152504 h -4.202878 c -0.0025,0 -0.005,-1.31e-4 -0.0075,0 z m 1.716941,0.240357 h 0.783932 v 0.871719 c 0,0.08216 -0.05516,0.148174 -0.123684,0.148174 h -0.536563 c -0.06856,0 -0.123685,-0.06601 -0.123685,-0.148174 z" />
          <path
             id="path6396"
             style="fill:#000080;fill-opacity:1;stroke:none;stroke-width:2.17684;stroke-linecap:round;stroke-linejoin:round;stroke-miterlimit:4;stroke-dasharray:none;stroke-dashoffset:3.11811;stroke-opacity:1;paint-order:markers stroke fill"
             d="M 73.697266 54.003906 C 73.388554 54.003906 73.140625 54.260462 73.140625 54.580078 L 73.140625 67.775391 C 73.140625 68.095025 73.388569 68.351562 73.697266 68.351562 L 89.582031 68.351562 C 89.890743 68.351562 90.138672 68.09504 90.138672 67.775391 L 90.138672 62.402344 C 89.929935 59.621625 89.662321 56.797318 89.048828 54.003906 L 73.697266 54.003906 z M 80.158203 54.958984 L 83.121094 54.958984 L 83.121094 58.253906 C 83.121094 58.564432 82.911487 58.814453 82.652344 58.814453 L 80.625 58.814453 C 80.365876 58.814453 80.158203 58.564447 80.158203 58.253906 L 80.158203 54.958984 z "
             transform="matrix(0.26458333,0,0,0.26458333,17.175603,15.389948)" />
          <path
             id="path6398"
             style="fill:#000080;fill-opacity:1;stroke:none;stroke-width:2.17684;stroke-linecap:round;stroke-linejoin:round;stroke-miterlimit:4;stroke-dasharray:none;stroke-dashoffset:3.11811;stroke-opacity:1;paint-order:markers stroke fill"
             d="M 95.392578 54.003906 C 94.896489 58.232855 93.43205 61.658473 91.722656 64.558594 L 91.722656 67.773438 C 91.722656 68.093072 91.970608 68.351562 92.279297 68.351562 L 108.16406 68.351562 C 108.47277 68.351562 108.7207 68.093091 108.7207 67.773438 L 108.7207 54.580078 C 108.7207 54.260443 108.47276 54.003906 108.16406 54.003906 L 95.392578 54.003906 z M 98.740234 54.912109 L 101.70312 54.912109 L 101.70312 58.207031 C 101.70312 58.517557 101.49532 58.767578 101.23633 58.767578 L 99.208984 58.767578 C 98.94986 58.767578 98.740234 58.517572 98.740234 58.207031 L 98.740234 54.912109 z "
             transform="matrix(0.26458333,0,0,0.26458333,17.175603,15.389948)" />
        </g>
        <path
           id="path56469"
           style="fill:#ffffff;fill-opacity:1;stroke-width:0;stroke-linejoin:round;stroke-dashoffset:3.11811"
           d="m 33.765228,23.507469 1.899893,-4.629716 c 4.721953,2.531924 6.48062,5.244453 6.778292,9.427643 0.14906,2.094811 -0.57006,3.55819 -1.33637,4.700671 -0.277324,-3.399859 -0.0525,-7.31416 -7.341815,-9.498598 z"
           sodipodi:nodetypes="ccscc" />
        <path
           inkscape:transform-center-y="1.6029926"
           d="m 36.444144,16.979407 -1.138503,2.774345 c 6.868294,3.682799 7.315548,8.285726 6.08932,12.000942 0.268708,-2.54968 -0.09901,-7.121078 -7.278436,-9.103273 l -1.110633,2.706416 -2.200197,-3.350242 -2.200199,-3.350237 3.919324,-0.83898 z"
           inkscape:transform-center-x="1.0001303"
           style="opacity:0.998;fill:#ff6600;fill-opacity:1;stroke-width:0;stroke-linejoin:round;stroke-dashoffset:3.11811"
           id="path2106" />
      </g>
      <rect
         style="fill:none;fill-opacity:1;stroke:none;stroke-width:0.478999;stroke-linecap:round;stroke-linejoin:round;stroke-dashoffset:3.11811;paint-order:markers stroke fill"
         id="rect8196"
         width="33.866665"
         height="33.866665"
         x="17.175604"
         y="15.389948" />
    </g>
  </g>
</svg>
