<?xml version="1.0" encoding="UTF-8" standalone="no"?>
<svg
   width="128"
   height="128"
   viewBox="0 0 33.866663 33.866667"
   version="1.1"
   id="svg8"
   inkscape:version="1.1 (c68e22c387, 2021-05-23)"
   sodipodi:docname="Icon_Disposal_2.svg"
   xmlns:inkscape="http://www.inkscape.org/namespaces/inkscape"
   xmlns:sodipodi="http://sodipodi.sourceforge.net/DTD/sodipodi-0.dtd"
   xmlns="http://www.w3.org/2000/svg"
   xmlns:svg="http://www.w3.org/2000/svg"
   xmlns:rdf="http://www.w3.org/1999/02/22-rdf-syntax-ns#"
   xmlns:cc="http://creativecommons.org/ns#"
   xmlns:dc="http://purl.org/dc/elements/1.1/">
  <defs
     id="defs2">
    <linearGradient
       id="linearGradient2783"
       inkscape:swatch="solid">
      <stop
         style="stop-color:#000000;stop-opacity:1;"
         offset="0"
         id="stop2781" />
    </linearGradient>
  </defs>
  <sodipodi:namedview
     inkscape:pagecheckerboard="false"
     units="px"
     id="base"
     pagecolor="#ffffff"
     bordercolor="#666666"
     borderopacity="1.0"
     inkscape:pageopacity="0.0"
     inkscape:pageshadow="2"
     inkscape:zoom="1.4142136"
     inkscape:cx="72.124892"
     inkscape:cy="112.07643"
     inkscape:document-units="mm"
     inkscape:current-layer="g2730"
     inkscape:document-rotation="0"
     showgrid="false"
     showguides="false"
     inkscape:guide-bbox="true"
     inkscape:window-width="1920"
     inkscape:window-height="987"
     inkscape:window-x="-11"
     inkscape:window-y="492"
     inkscape:window-maximized="1">
    <sodipodi:guide
       id="guide874"
       orientation="0,128"
       position="-51.19687,35.924641" />
    <sodipodi:guide
       id="guide876"
       orientation="128,0"
       position="33.93281,2.7781257" />
    <sodipodi:guide
       id="guide878"
       orientation="0,-128"
       position="33.866665,0" />
    <sodipodi:guide
       id="guide880"
       orientation="-128,0"
       position="0,18.857128" />
    <sodipodi:guide
       id="guide2234"
       orientation="1,0"
       position="16.444387,23.515528" />
    <sodipodi:guide
       id="guide2275"
       orientation="0,-1"
       position="7.0158235,35.924641" />
    <sodipodi:guide
       id="guide2282"
       orientation="1,0"
       position="7.0158232,35.924641" />
    <sodipodi:guide
       id="guide2304"
       orientation="1,0"
       position="27.221605,35.924423" />
    <sodipodi:guide
       id="guide2318"
       orientation="1,0"
       position="23.855905,35.924643" />
    <sodipodi:guide
       id="guide2339"
       orientation="1,0"
       position="22.941745,31.621603" />
    <sodipodi:guide
       id="guide2341"
       orientation="1,0"
       position="5.6126593,31.621603" />
    <sodipodi:guide
       id="guide2684"
       orientation="1,0"
       position="1.7831888,3.4033693" />
    <sodipodi:guide
       id="guide2686"
       orientation="1,0"
       position="32.084862,3.3744709" />
    <sodipodi:guide
       id="guide3020"
       orientation="0,-1"
       position="50.18653,-111.12705" />
    <sodipodi:guide
       id="guide3022"
       orientation="1,0"
       position="-97.654582,-110.31331" />
    <sodipodi:guide
       id="guide3024"
       orientation="0,-1"
       position="-84.744201,-110.45485" />
    <sodipodi:guide
       id="guide3026"
       orientation="1,0"
       position="-108.82041,-110.32256" />
    <sodipodi:guide
       id="guide3028"
       orientation="1,0"
       position="-102.60251,-139.8447" />
    <sodipodi:guide
       id="guide3030"
       orientation="1,0"
       position="38.631073,-111.10172" />
    <sodipodi:guide
       id="guide3032"
       orientation="1,0"
       position="25.976706,-111.24076" />
    <sodipodi:guide
       id="guide3034"
       orientation="1,0"
       position="27.512282,-111.1524" />
    <sodipodi:guide
       id="guide3036"
       orientation="1,0"
       position="14.541084,-111.15298" />
    <sodipodi:guide
       position="-60.822686,38.611807"
       orientation="1,0"
       id="guide18736" />
    <sodipodi:guide
       position="-51.19687,40.646615"
       orientation="1,0"
       id="guide18738" />
    <sodipodi:guide
       position="-56.00968,47.046204"
       orientation="1,0"
       id="guide18866" />
    <sodipodi:guide
       position="-56.009495,44.087749"
       orientation="0,-1"
       id="guide19992" />
    <sodipodi:guide
       position="0,33.866665"
       orientation="0,128"
       id="guide23990" />
    <sodipodi:guide
       position="33.866665,33.866665"
       orientation="128,0"
       id="guide23992" />
    <sodipodi:guide
       position="33.866665,0"
       orientation="0,-128"
       id="guide23994" />
    <sodipodi:guide
       position="0,0"
       orientation="-128,0"
       id="guide23996" />
  </sodipodi:namedview>
  <metadata
     id="metadata5">
    <rdf:RDF>
      <cc:Work
         rdf:about="">
        <dc:format>image/svg+xml</dc:format>
        <dc:type
           rdf:resource="http://purl.org/dc/dcmitype/StillImage" />
      </cc:Work>
    </rdf:RDF>
  </metadata>
  <g
     inkscape:label="Layer 1"
     inkscape:groupmode="layer"
     id="layer1"
     transform="translate(-17.175603,-15.389948)">
    <g
       id="g28"
       fill="#000000"
       transform="matrix(0.4091643,0,0,0.4091643,27.981194,-3.5551767)"
       style="font-weight:bold;font-size:12.275px;line-height:1.25;font-family:'Sero Pro';-inkscape-font-specification:'Sero Pro Bold';stroke-width:0.324775" />
    <g
       id="g46"
       fill="#000000"
       transform="matrix(0.4091643,0,0,0.4091643,27.981194,-3.5551767)"
       style="font-weight:bold;font-size:12.275px;line-height:1.25;font-family:'Sero Pro';-inkscape-font-specification:'Sero Pro Bold';stroke-width:0.324775" />
    <g
       id="g62"
       fill="#000000"
       transform="matrix(0.4091643,0,0,0.4091643,27.981194,-3.5551767)"
       style="font-weight:bold;font-size:12.275px;line-height:1.25;font-family:'Sero Pro';-inkscape-font-specification:'Sero Pro Bold';stroke-width:0.324775" />
    <g
       id="g78"
       fill="#000000"
       transform="matrix(0.4091643,0,0,0.4091643,27.981194,-3.5551767)"
       style="font-weight:bold;font-size:12.275px;line-height:1.25;font-family:'Sero Pro';-inkscape-font-specification:'Sero Pro Bold';stroke-width:0.324775" />
    <g
       id="g96"
       fill="#000000"
       transform="matrix(0.4091643,0,0,0.4091643,27.981194,-3.5551767)"
       style="font-weight:bold;font-size:12.275px;line-height:1.25;font-family:'Sero Pro';-inkscape-font-specification:'Sero Pro Bold';stroke-width:0.324775" />
    <g
       id="g110"
       fill="#000000"
       transform="matrix(0.4091643,0,0,0.4091643,27.981194,-3.5551767)"
       style="font-weight:bold;font-size:12.275px;line-height:1.25;font-family:'Sero Pro';-inkscape-font-specification:'Sero Pro Bold';stroke-width:0.324775" />
    <g
       id="g128"
       fill="#000000"
       transform="matrix(0.4091643,0,0,0.4091643,27.981194,-3.5551767)"
       style="font-weight:bold;font-size:12.275px;line-height:1.25;font-family:'Sero Pro';-inkscape-font-specification:'Sero Pro Bold';stroke-width:0.324775" />
    <g
       id="g146"
       fill="#000000"
       transform="matrix(0.4091643,0,0,0.4091643,27.981194,-3.5551767)"
       style="font-weight:bold;font-size:12.275px;line-height:1.25;font-family:'Sero Pro';-inkscape-font-specification:'Sero Pro Bold';stroke-width:0.324775" />
    <g
       id="g164"
       fill="#000000"
       transform="matrix(0.4091643,0,0,0.4091643,27.981194,-3.5551767)"
       style="font-weight:bold;font-size:12.275px;line-height:1.25;font-family:'Sero Pro';-inkscape-font-specification:'Sero Pro Bold';stroke-width:0.324775" />
    <g
       id="g184"
       fill="#000000"
       transform="matrix(0.4091643,0,0,0.4091643,27.981194,-3.5551767)"
       style="font-weight:bold;font-size:12.275px;line-height:1.25;font-family:'Sero Pro';-inkscape-font-specification:'Sero Pro Bold';stroke-width:0.324775" />
    <g
       id="g200"
       fill="#000000"
       transform="matrix(0.4091643,0,0,0.4091643,27.981194,-3.5551767)"
       style="font-weight:bold;font-size:12.275px;line-height:1.25;font-family:'Sero Pro';-inkscape-font-specification:'Sero Pro Bold';stroke-width:0.324775" />
    <g
       id="g212"
       fill="#000000"
       transform="matrix(0.4091643,0,0,0.4091643,27.981194,-3.5551767)"
       style="font-weight:bold;font-size:12.275px;line-height:1.25;font-family:'Sero Pro';-inkscape-font-specification:'Sero Pro Bold';stroke-width:0.324775" />
    <g
       id="g232"
       fill="#000000"
       transform="matrix(0.4091643,0,0,0.4091643,27.981194,-3.5551767)"
       style="font-weight:bold;font-size:12.275px;line-height:1.25;font-family:'Sero Pro';-inkscape-font-specification:'Sero Pro Bold';stroke-width:0.324775" />
    <g
       id="g2730"
       transform="matrix(1.3961457,0,0,1.3961457,-102.14752,7.4747059)">
      <g
         id="g25239">
        <g
           id="g25059">
          <g
             id="g24975">
            <rect
               style="fill:none;fill-opacity:1;stroke:none;stroke-width:0.0601656;stroke-linecap:round;stroke-linejoin:round;stroke-miterlimit:4;stroke-dasharray:none;stroke-dashoffset:3.11811;stroke-opacity:1;paint-order:markers stroke fill"
               id="rect24892"
               width="24.304636"
               height="24.257257"
               x="85.466095"
               y="5.6693525" />
          </g>
        </g>
        <rect
           style="fill:none;fill-opacity:1;stroke:none;stroke-width:0.0601656;stroke-linecap:round;stroke-linejoin:round;stroke-miterlimit:4;stroke-dasharray:none;stroke-dashoffset:3.11811;stroke-opacity:1;paint-order:markers stroke fill"
           id="rect23998"
           width="24.257257"
           height="24.257257"
           x="85.466095"
           y="5.6693525" />
        <g
           id="g23942"
           transform="matrix(1.0570739,0,0,1.0570739,49.709447,7.3674387)">
          <path
             id="path17740"
             style="fill:#0000d4;fill-opacity:1;stroke:none;stroke-width:0.31748;stroke-linejoin:round;stroke-miterlimit:4;stroke-dasharray:none;stroke-opacity:1"
             d="m -234.60938,-34.232422 c -1.65575,0.04081 -9.31089,2.169119 -13.0664,3.720703 -5.09009,2.102959 -9.84112,5.736282 -11.82227,9.041016 -1.50655,2.513043 -2,4.852408 -2,9.486328 0,5.9031218 0.91575,8.734943 3.85157,11.91992188 L -256.43555,1.25 l 3.34961,32.714844 c 1.84243,17.993927 3.48101,33.171937 3.64063,33.728515 2.10714,7.347187 12.51803,12.997153 27.03125,14.667969 1.66025,0.191178 3.51918,0.403846 4.13086,0.47461 2.54996,0.294955 15.25911,-0.118421 18.42968,-0.59961 13.66859,-2.074515 22.21787,-6.628914 25.11524,-13.380859 0.56742,-1.322301 1.18469,-6.588804 4.03906,-34.44336 l 3.36914,-32.880859 1.42578,-1.75195312 c 2.84993,-3.49894038 3.37225,-5.14276978 3.49414,-11.03320288 0.17311,-8.366615 -1.49662,-11.851873 -7.69531,-16.064453 -4.04995,-2.752316 -15.25363,-6.888251 -18.70703,-6.90625 -0.67287,-0.0035 -0.66822,-0.08376 -0.0566,1.625 0.2737,0.764718 0.59532,2.520948 0.71484,3.902343 l 0.2168,2.511719 2.79297,0.740235 c 5.84229,1.549144 11.01128,4.171173 13.37109,6.783203 8.85868,9.8055015 -18.27756,19.63327195 -48.25781,17.4765621 -29.43582,-2.1175466 -42.98156,-13.0960991 -26.37305,-21.3730471 2.05803,-1.025635 6.74694,-2.693122 9.37305,-3.333984 1.1014,-0.268787 1.1141,-0.29108 1.32227,-2.376953 0.17813,-1.784789 0.82968,-4.476242 1.41406,-5.845703 0.0372,-0.08718 -0.0779,-0.123017 -0.31446,-0.117188 z m 52.35743,43.2382814 c 1.52643,0.00947 2.73437,0.9950826 2.73437,3.0214846 0,2.536007 -5.03937,50.320767 -5.43554,51.541015 -0.46142,1.42113 -1.78942,2.929036 -3.03907,3.451172 -2.16518,0.904666 -4.32598,0.206235 -4.80664,-1.554687 -0.40299,-1.476325 4.73581,-51.517389 5.42578,-52.835938 1.25208,-2.392705 3.39114,-3.633782 5.1211,-3.6230466 z m -58.79688,0.035156 c 1.70139,0.123778 3.70843,1.3434326 4.875,3.5722656 0.45064,0.860979 5.41341,46.771319 5.53516,51.205078 0.049,1.78347 -0.41818,2.782442 -1.54297,3.294922 -2.31286,1.053808 -5.51433,-0.684473 -6.39453,-3.472656 -0.35527,-1.125361 -5.44318,-48.727656 -5.51563,-51.603516 -0.0541,-2.1479013 1.34158,-3.1198716 3.04297,-2.9960936 z m 29.15625,4.5507816 c 1.64773,0.01017 3.27981,0.502661 3.76758,1.414062 0.21688,0.405271 0.32813,9.548286 0.32812,27.123047 v 26.509766 l -0.68945,0.875 c -0.37887,0.481653 -1.15961,1.073463 -1.73633,1.314453 -1.40594,0.587431 -2.45745,0.799699 -3.61718,-0.144531 -2.66057,-2.166157 -2.23413,0.350942 -2.14258,-29.041016 l 0.082,-26.287109 0.15234,-0.285157 c 0.5442,-1.01656 2.20774,-1.488683 3.85547,-1.478515 z"
             transform="matrix(0.18950983,0,0,0.18950983,85.466096,5.6693525)" />
          <path
             id="path19790"
             style="fill:#ff6600;fill-opacity:1;stroke-width:0.317752"
             d="m -211.68945,-38.630859 c -0.42058,0.0063 -0.84946,0.01378 -1.29688,0.02344 -8.18978,0.176831 -9.89073,0.615419 -12.75586,3.003906 -3.37726,2.815439 -4.12542,5.515986 -4.13281,12.439454 -0.006,5.965847 0.53544,6.794921 4.44336,6.794921 3.91516,0 4.44726,-0.822901 4.44726,-6.857421 10e-6,-4.414663 -0.26085,-5.810755 1.53321,-6.394532 l 7.38867,-0.0957 c 0.13255,-0.0017 0.24398,-0.0022 0.37305,-0.0039 0.12909,0.0017 0.24053,0.0022 0.37304,0.0039 l 7.38868,0.0957 c 1.79406,0.583777 1.5332,1.979869 1.5332,6.394532 0,6.034521 0.5321,6.857421 4.44726,6.857421 3.90792,0 4.4497,-0.829073 4.44336,-6.794921 -0.008,-6.923468 -0.75554,-9.624015 -4.13281,-12.439454 -2.86512,-2.388487 -4.56608,-2.827076 -12.75586,-3.003906 -0.44742,-0.0097 -0.87629,-0.0171 -1.29687,-0.02344 z"
             transform="matrix(0.18950983,0,0,0.18950983,85.466096,5.6693525)" />
        </g>
        <rect
           style="fill:none;fill-opacity:1;stroke:none;stroke-width:0.0601656;stroke-linecap:round;stroke-linejoin:round;stroke-miterlimit:4;stroke-dasharray:none;stroke-dashoffset:3.11811;stroke-opacity:1;paint-order:markers stroke fill"
           id="rect23988"
           width="8.6700745"
           height="3.3637996"
           x="85.466095"
           y="5.8588624" />
      </g>
    </g>
  </g>
</svg>
