<?xml version="1.0" encoding="UTF-8" standalone="no"?>
<svg
   sodipodi:docname="Icon_Aggregation_Operation_2.svg"
   inkscape:version="1.1 (c68e22c387, 2021-05-23)"
   id="svg8"
   version="1.1"
   viewBox="0 0 33.866663 33.866667"
   height="128"
   width="128"
   xmlns:inkscape="http://www.inkscape.org/namespaces/inkscape"
   xmlns:sodipodi="http://sodipodi.sourceforge.net/DTD/sodipodi-0.dtd"
   xmlns="http://www.w3.org/2000/svg"
   xmlns:svg="http://www.w3.org/2000/svg"
   xmlns:rdf="http://www.w3.org/1999/02/22-rdf-syntax-ns#"
   xmlns:cc="http://creativecommons.org/ns#"
   xmlns:dc="http://purl.org/dc/elements/1.1/">
  <defs
     id="defs2">
    <linearGradient
       id="linearGradient2783"
       inkscape:swatch="solid">
      <stop
         id="stop2781"
         offset="0"
         style="stop-color:#000000;stop-opacity:1;" />
    </linearGradient>
  </defs>
  <sodipodi:namedview
     inkscape:window-maximized="1"
     inkscape:window-y="492"
     inkscape:window-x="-11"
     inkscape:window-height="987"
     inkscape:window-width="1920"
     inkscape:guide-bbox="true"
     showguides="false"
     showgrid="false"
     inkscape:document-rotation="0"
     inkscape:current-layer="layer1"
     inkscape:document-units="mm"
     inkscape:cy="318.00648"
     inkscape:cx="-387.81278"
     inkscape:zoom="0.70910505"
     inkscape:pageshadow="2"
     inkscape:pageopacity="0.0"
     borderopacity="1.0"
     bordercolor="#666666"
     pagecolor="#ffffff"
     id="base"
     units="px"
     inkscape:pagecheckerboard="false">
    <sodipodi:guide
       position="0,33.866665"
       orientation="0,128"
       id="guide874" />
    <sodipodi:guide
       position="33.866665,33.866665"
       orientation="128,0"
       id="guide876" />
    <sodipodi:guide
       position="33.866665,0"
       orientation="0,-128"
       id="guide878" />
    <sodipodi:guide
       position="0,0"
       orientation="-128,0"
       id="guide880" />
    <sodipodi:guide
       position="5.6490314,28.223142"
       orientation="0,-1"
       id="guide1105" />
    <sodipodi:guide
       position="5.6490314,28.223142"
       orientation="1,0"
       id="guide1107" />
    <sodipodi:guide
       position="5.6490314,5.6490317"
       orientation="0,-1"
       id="guide1109" />
    <sodipodi:guide
       position="28.223139,5.6490317"
       orientation="1,0"
       id="guide1111" />
    <sodipodi:guide
       id="guide1180"
       orientation="1,0"
       position="-17.025067,-9.4443592" />
    <sodipodi:guide
       id="guide1182"
       orientation="1,0"
       position="-25.256967,-9.9120809" />
    <sodipodi:guide
       id="guide1184"
       orientation="1,0"
       position="-9.4479765,-9.8185365" />
    <sodipodi:guide
       id="guide1186"
       orientation="1,0"
       position="-17.26406,0.95911541" />
    <sodipodi:guide
       id="guide1188"
       orientation="1,0"
       position="-17.26406,0.95911541" />
    <sodipodi:guide
       id="guide1190"
       orientation="1,0"
       position="-15.060636,3.0905814" />
    <sodipodi:guide
       id="guide1192"
       orientation="1,0"
       position="-7.0776036,-3.4395822" />
    <sodipodi:guide
       id="guide1194"
       orientation="1,0"
       position="-27.455259,0.93906176" />
    <sodipodi:guide
       id="guide1196"
       orientation="1,0"
       position="-19.597535,3.4647588" />
    <sodipodi:guide
       id="guide1198"
       orientation="1,0"
       position="-27.674077,-4.5836726" />
    <sodipodi:guide
       id="guide1200"
       orientation="0,-1"
       position="-7.2029128,-0.72760324" />
    <sodipodi:guide
       id="guide1202"
       orientation="0.42119241,0.90697131"
       position="-21.702284,-7.4799278" />
    <sodipodi:guide
       id="guide1204"
       orientation="-0.42407931,-0.90562505"
       position="-17.025067,-14.004645" />
    <sodipodi:guide
       id="guide1206"
       orientation="0.45343501,-0.89128934"
       position="-9.4479765,-10.149873" />
    <sodipodi:guide
       id="guide1208"
       orientation="0,-1"
       position="-25.256966,-10.149873" />
    <sodipodi:guide
       id="guide1225"
       orientation="-0.32574536,-0.94545754"
       position="-9.4479765,-1.5632491" />
    <sodipodi:guide
       id="guide1227"
       orientation="0,-1"
       position="-9.4479759,-1.5632492" />
    <sodipodi:guide
       id="guide1229"
       orientation="-0.31928116,0.94766003"
       position="-25.256966,-1.5632493" />
    <sodipodi:guide
       id="guide1231"
       orientation="-0.39576893,0.91835012"
       position="-17.025066,-4.8286449" />
    <sodipodi:guide
       id="guide1233"
       orientation="-0.36872538,-0.92953838"
       position="-17.025066,-4.8286456" />
    <sodipodi:guide
       id="guide1237"
       orientation="-0.44976342,0.89314773"
       position="-14.32884,-8.2847642" />
    <sodipodi:guide
       id="guide1239"
       orientation="1,0"
       position="-14.32884,-8.2847642" />
    <sodipodi:guide
       id="guide1241"
       orientation="-0.78077165,0.62481647"
       position="-27.674075,-4.5836728" />
    <sodipodi:guide
       id="guide1245"
       orientation="-0.788452,-0.61509629"
       position="-14.328839,-8.2847647" />
    <sodipodi:guide
       id="guide1247"
       orientation="-0.79152204,-0.61114062"
       position="-7.0776032,-4.6332511" />
    <sodipodi:guide
       id="guide1249"
       orientation="-0.32166327,-0.94685413"
       position="-7.0776032,0.99218834" />
    <sodipodi:guide
       id="guide1253"
       orientation="0.75973408,-0.6502339"
       position="-15.060635,3.7041675" />
    <sodipodi:guide
       id="guide1255"
       orientation="0.75700098,0.65341373"
       position="-19.597535,3.8330893" />
    <sodipodi:guide
       id="guide1257"
       orientation="0.32633743,-0.94525334"
       position="-19.597534,3.8330895" />
    <sodipodi:guide
       id="guide1259"
       orientation="0.77358215,0.63369603"
       position="-27.455257,1.1203038" />
    <sodipodi:guide
       id="guide2180"
       orientation="0,-1"
       position="16.089623,24.699322" />
    <sodipodi:guide
       position="47.601832,3.4440607"
       orientation="1,0"
       id="guide343" />
    <sodipodi:guide
       position="51.883487,2.3073967"
       orientation="1,0"
       id="guide1623" />
    <sodipodi:guide
       position="58.429017,5.6447277"
       orientation="1,0"
       id="guide1625" />
    <sodipodi:guide
       position="58.402899,8.9550088"
       orientation="0,-1"
       id="guide1627" />
    <sodipodi:guide
       position="51.883487,2.3073967"
       orientation="0,-1"
       id="guide1629" />
    <sodipodi:guide
       position="51.875987,5.9258267"
       orientation="0,-1"
       id="guide1631" />
    <sodipodi:guide
       position="46.683984,-26.413942"
       orientation="1,0"
       id="guide10916" />
    <sodipodi:guide
       position="55.59557,-34.75968"
       orientation="1,0"
       id="guide10918" />
    <sodipodi:guide
       position="46.683981,-26.413944"
       orientation="0.39841443,0.91720551"
       id="guide10920" />
    <sodipodi:guide
       position="55.59557,-34.75968"
       orientation="-0.4257001,-0.90486431"
       id="guide11098" />
    <sodipodi:guide
       position="111.47225,80.086062"
       orientation="-0.45422964,0.89088464"
       id="guide13908" />
    <sodipodi:guide
       position="101.21965,79.821483"
       orientation="1,0"
       id="guide14783" />
    <sodipodi:guide
       position="101.21965,74.858635"
       orientation="-0.42248703,-0.90636897"
       id="guide14785" />
    <sodipodi:guide
       position="130.74432,113.74158"
       orientation="0,-1"
       id="guide18377" />
    <sodipodi:guide
       position="133.84637,115.08258"
       orientation="0,-1"
       id="guide18379" />
    <sodipodi:guide
       position="133.84637,112.24947"
       orientation="0,-1"
       id="guide18381" />
    <sodipodi:guide
       position="130.32381,112.1328"
       orientation="1,0"
       id="guide18383" />
    <sodipodi:guide
       position="133.84637,115.08258"
       orientation="1,0"
       id="guide18385" />
    <sodipodi:guide
       position="137.35802,113.58789"
       orientation="1,0"
       id="guide18387" />
    <sodipodi:guide
       position="137.35802,109.95328"
       orientation="-0.42498981,0.90519813"
       id="guide18389" />
    <sodipodi:guide
       position="133.84637,108.30456"
       orientation="0.45842486,0.88873317"
       id="guide18770" />
    <sodipodi:guide
       position="133.84637,112.24947"
       orientation="-0.39106488,0.92036311"
       id="guide18888" />
    <sodipodi:guide
       position="133.84636,112.24948"
       orientation="-0.39003691,-0.92079922"
       id="guide19035" />
    <sodipodi:guide
       position="133.84737,115.40391"
       orientation="0,-1"
       id="guide19066" />
    <sodipodi:guide
       position="133.84636,115.24671"
       orientation="0.39291905,-0.91957306"
       id="guide19068" />
    <sodipodi:guide
       position="133.84636,115.24672"
       orientation="0.39395088,0.91913149"
       id="guide19215" />
    <sodipodi:guide
       position="133.11021,110.2651"
       orientation="1,0"
       id="guide19744" />
    <sodipodi:guide
       position="131.90918,110.95905"
       orientation="1,0"
       id="guide19746" />
    <sodipodi:guide
       position="132.672,111.45986"
       orientation="-0.39003456,-0.92080022"
       id="guide19748" />
    <sodipodi:guide
       position="132.74021,111.24695"
       orientation="0.42148389,0.90683589"
       id="guide20847" />
    <sodipodi:guide
       position="132.16349,111.37098"
       orientation="1,0"
       id="guide21110" />
    <sodipodi:guide
       position="8.6651032,26.326042"
       orientation="0,-1"
       id="guide23595" />
    <sodipodi:guide
       position="-19.597534,101.8734"
       orientation="0,-1"
       id="guide47249" />
    <sodipodi:guide
       position="-23.938808,91.524831"
       orientation="0,-1"
       id="guide47251" />
  </sodipodi:namedview>
  <metadata
     id="metadata5">
    <rdf:RDF>
      <cc:Work
         rdf:about="">
        <dc:format>image/svg+xml</dc:format>
        <dc:type
           rdf:resource="http://purl.org/dc/dcmitype/StillImage" />
        <dc:title />
      </cc:Work>
    </rdf:RDF>
  </metadata>
  <g
     transform="translate(-17.1756, -15.3899)"
     id="layer1"
     inkscape:groupmode="layer"
     inkscape:label="Layer 1">
    <g
       id="path1278" />
    <g
       id="path1280" />
    <g
       id="path1282" />
    <g
       id="path1284" />
    <g
       id="g84797"
       transform="translate(-143.40315,12.031021)">
      <g
         id="g84629"
         transform="matrix(0.80535451,0,0,0.80535451,66.283747,-40.511242)">
        <path
           id="path84581"
           style="color:#000000;font-style:normal;font-variant:normal;font-weight:normal;font-stretch:normal;font-size:medium;line-height:normal;font-family:sans-serif;font-variant-ligatures:normal;font-variant-position:normal;font-variant-caps:normal;font-variant-numeric:normal;font-variant-alternates:normal;font-variant-east-asian:normal;font-feature-settings:normal;font-variation-settings:normal;text-indent:0;text-align:start;text-decoration:none;text-decoration-line:none;text-decoration-style:solid;text-decoration-color:#000000;letter-spacing:normal;word-spacing:normal;text-transform:none;writing-mode:lr-tb;direction:ltr;text-orientation:mixed;dominant-baseline:auto;baseline-shift:baseline;text-anchor:start;white-space:normal;shape-padding:0;shape-margin:0;inline-size:0;clip-rule:nonzero;display:inline;overflow:visible;visibility:visible;isolation:auto;mix-blend-mode:normal;color-interpolation:sRGB;color-interpolation-filters:linearRGB;solid-color:#000000;solid-opacity:1;vector-effect:none;fill:#0000d4;fill-opacity:1;fill-rule:nonzero;stroke:none;stroke-width:1.19051;stroke-linecap:butt;stroke-linejoin:round;stroke-miterlimit:4;stroke-dasharray:none;stroke-dashoffset:0;stroke-opacity:1;color-rendering:auto;image-rendering:auto;shape-rendering:auto;text-rendering:auto;enable-background:accumulate;stop-color:#000000"
           d="m 134.66397,67.023427 a 0.59531286,0.59531286 0 0 0 -0.21705,0.03101 l -12.47244,4.30631 a 0.59531286,0.59531286 0 0 0 -0.26665,0.939502 l 3.18438,3.885138 -3.65207,4.563148 a 0.59848789,0.59848789 0 0 0 0.21705,0.91418 l 3.60659,1.675394 v 6.475744 a 0.59531381,0.59531381 0 0 0 0.34263,0.538999 l 13.06621,6.119166 a 0.59531381,0.59531381 0 0 0 0.032,0.0098 c 0.0317,0.01288 0.064,0.02267 0.0977,0.02997 a 0.59531381,0.59531381 0 0 0 0.0553,0.0098 c 0.0375,0.0045 0.0752,0.004 0.11369,0.001 a 0.59531381,0.59531381 0 0 0 0.0481,-0.0036 c 0.0335,-0.0054 0.0665,-0.01678 0.0997,-0.02842 a 0.59531381,0.59531381 0 0 0 0.063,-0.02222 c 0.004,-0.002 0.009,-0.0025 0.0129,-0.0047 l 12.02904,-6.120201 c 0.19956,-0.101446 0.32539,-0.306348 0.32557,-0.530212 v -6.495382 l 3.43502,-1.730174 a 0.59531289,0.59531289 0 0 0 0.20155,-0.895575 l -3.45466,-4.474264 3.42055,-3.685142 a 0.59531286,0.59531286 0 0 0 -0.24495,-0.967408 l -12.67036,-4.30631 a 0.59531286,0.59531286 0 0 0 -0.16124,-0.03101 0.59531286,0.59531286 0 0 0 -0.4837,0.207745 l -3.04796,3.561632 -3.25208,-3.769377 a 0.59531286,0.59531286 0 0 0 -0.42789,-0.204645 z m -0.20775,1.289878 2.86037,3.314096 -11.45749,3.860848 -2.68776,-3.281022 z m 7.57751,0.201543 11.42131,3.881518 -2.87431,3.097051 -11.21047,-3.862915 z m -3.69289,4.024151 6.98787,2.406118 3.77507,1.300728 -10.38414,4.47478 -11.32416,-4.492867 z m -12.49104,4.364705 11.94894,4.737304 -3.35802,4.734203 -11.78719,-5.475262 z m 24.71594,0.0088 3.03814,3.93733 -10.42962,5.252014 -3.50633,-4.492348 z m -11.24509,6.184281 3.21488,4.121304 a 0.59531289,0.59531289 0 0 0 0.73796,0.167435 l 6.88606,-3.468096 v 5.53004 l -10.8389,5.515572 z M 138.13,83.242516 v 11.75463 l -11.87556,-5.561563 v -5.543992 l 8.13667,3.779712 a 0.59848789,0.59848789 0 0 0 0.73796,-0.198443 z" />
        <path
           style="fill:#000080;stroke-width:0.1815;stroke-linecap:square;stroke-dashoffset:3.11811;paint-order:markers stroke fill"
           d="m 132.14447,92.160016 -5.86983,-2.755009 -5.3e-4,-2.727682 -5.3e-4,-2.727682 0.34726,0.155292 c 0.191,0.08541 2.0193,0.932214 4.0629,1.881788 2.04359,0.949574 3.78488,1.741845 3.86953,1.760604 0.34584,0.07664 0.49022,-0.08384 2.04108,-2.268599 l 1.51933,-2.140341 v 5.794899 c 0,3.187194 -0.0223,5.791938 -0.0496,5.788318 -0.0273,-0.0036 -2.69104,-1.246335 -5.91944,-2.761588 z"
           id="path84583" />
        <g
           aria-label="Serialized"
           id="g84605"
           style="font-weight:bold;font-size:10px;line-height:1.25;font-family:'Sero Pro';-inkscape-font-specification:'Sero Pro Bold';fill:#ffffff;stroke-width:0.264583"
           transform="translate(-78.567451,-23.003817)">
          <path
             d="m 205.422,111.767 0.074,-0.657 c 0.146,0.274 0.272,0.436 0.379,0.485 0.072,0.033 0.128,0.02 0.168,-0.039 0.041,-0.062 0.062,-0.158 0.062,-0.287 0,-0.098 -0.012,-0.186 -0.036,-0.263 -0.024,-0.081 -0.055,-0.151 -0.094,-0.21 -0.037,-0.058 -0.079,-0.115 -0.125,-0.171 -0.047,-0.058 -0.093,-0.124 -0.139,-0.196 -0.046,-0.073 -0.088,-0.154 -0.126,-0.243 -0.037,-0.089 -0.067,-0.201 -0.091,-0.336 -0.023,-0.138 -0.035,-0.292 -0.035,-0.462 0,-0.357 0.047,-0.622 0.141,-0.795 0.095,-0.178 0.22,-0.235 0.375,-0.173 0.151,0.06 0.289,0.214 0.416,0.462 l -0.077,0.708 c -0.121,-0.261 -0.233,-0.413 -0.337,-0.456 -0.061,-0.025 -0.109,-0.009 -0.145,0.05 -0.035,0.055 -0.052,0.142 -0.052,0.261 0,0.104 0.016,0.198 0.048,0.281 0.032,0.084 0.071,0.153 0.119,0.208 0.049,0.053 0.102,0.119 0.158,0.199 0.056,0.08 0.108,0.166 0.157,0.257 0.05,0.089 0.091,0.212 0.123,0.371 0.032,0.158 0.049,0.34 0.049,0.544 0,0.377 -0.052,0.653 -0.154,0.828 -0.101,0.174 -0.234,0.222 -0.401,0.145 -0.167,-0.079 -0.32,-0.249 -0.457,-0.511 z"
             id="path84585" />
          <path
             d="m 207.094,110.579 c -0.053,-0.022 -0.096,0.009 -0.129,0.094 -0.033,0.086 -0.052,0.225 -0.057,0.418 l 0.348,0.153 c 0,-0.397 -0.054,-0.618 -0.162,-0.665 z m 0.464,1.299 -0.646,-0.29 c 0.022,0.387 0.104,0.613 0.248,0.679 0.085,0.039 0.189,0.019 0.313,-0.061 l 0.064,0.616 c -0.131,0.094 -0.272,0.104 -0.425,0.033 -0.169,-0.079 -0.302,-0.259 -0.397,-0.537 -0.094,-0.277 -0.141,-0.639 -0.141,-1.088 0,-0.463 0.048,-0.8 0.145,-1.014 0.098,-0.213 0.226,-0.287 0.383,-0.221 0.144,0.06 0.258,0.222 0.34,0.487 0.083,0.261 0.124,0.616 0.124,1.066 0,0.125 -0.003,0.235 -0.008,0.33 z"
             id="path84587" />
          <path
             d="m 208.477,110.588 v 0.756 c -0.013,-0.01 -0.036,-0.022 -0.069,-0.036 -0.106,-0.045 -0.203,0.014 -0.293,0.178 v 1.773 l -0.344,-0.16 v -2.759 l 0.344,0.145 v 0.419 c 0.071,-0.293 0.17,-0.413 0.297,-0.359 0.026,0.011 0.048,0.025 0.065,0.043 z"
             id="path84589" />
          <path
             d="m 208.974,109.732 c 0.037,0.1 0.055,0.218 0.055,0.354 0,0.136 -0.018,0.241 -0.055,0.314 -0.035,0.07 -0.083,0.092 -0.143,0.067 -0.06,-0.025 -0.108,-0.087 -0.145,-0.186 -0.036,-0.103 -0.054,-0.222 -0.054,-0.357 0,-0.136 0.018,-0.238 0.054,-0.308 0.037,-0.073 0.085,-0.097 0.145,-0.073 0.06,0.024 0.108,0.087 0.143,0.189 z m -0.32,3.779 v -2.799 l 0.353,0.149 v 2.815 z"
             id="path84591" />
          <path
             d="m 209.696,111.77 c -0.089,-0.038 -0.204,-0.013 -0.344,0.074 l -0.067,-0.683 c 0.164,-0.098 0.327,-0.112 0.49,-0.044 0.153,0.064 0.269,0.193 0.349,0.388 0.081,0.196 0.121,0.487 0.121,0.874 v 1.222 c 0,0.353 0.008,0.575 0.023,0.664 l -0.348,-0.162 c -0.015,-0.063 -0.025,-0.169 -0.029,-0.316 -0.091,0.204 -0.2,0.276 -0.326,0.217 -0.1,-0.047 -0.183,-0.164 -0.247,-0.349 -0.062,-0.184 -0.093,-0.416 -0.093,-0.697 0,-0.632 0.166,-0.875 0.5,-0.728 0.057,0.025 0.111,0.056 0.161,0.093 v -0.034 c 0,-0.157 -0.016,-0.275 -0.048,-0.356 -0.03,-0.081 -0.077,-0.135 -0.142,-0.163 z m 0.002,1.654 c 0.057,0.026 0.12,-0.009 0.188,-0.104 v -0.488 c -0.038,-0.035 -0.073,-0.06 -0.107,-0.075 -0.074,-0.033 -0.126,-0.027 -0.158,0.018 -0.03,0.046 -0.045,0.131 -0.045,0.253 0,0.227 0.041,0.359 0.122,0.396 z"
             id="path84593" />
          <path
             d="m 210.513,114.38 v -4.073 l 0.376,0.151 v 4.097 z"
             id="path84595" />
          <path
             d="m 211.554,110.771 c 0.04,0.104 0.06,0.228 0.06,0.37 0,0.142 -0.02,0.25 -0.06,0.326 -0.039,0.072 -0.09,0.095 -0.156,0.068 -0.065,-0.027 -0.117,-0.093 -0.157,-0.197 -0.039,-0.108 -0.059,-0.233 -0.059,-0.374 0,-0.141 0.02,-0.247 0.059,-0.319 0.04,-0.075 0.092,-0.1 0.157,-0.074 0.066,0.026 0.117,0.093 0.156,0.2 z m -0.349,3.932 v -2.917 l 0.385,0.162 v 2.935 z"
             id="path84597" />
          <path
             d="M 211.804,114.983 V 114.4 l 0.593,-1.43 -0.556,-0.24 v -0.676 l 1.05,0.442 v 0.575 l -0.602,1.44 0.607,0.277 v 0.705 z"
             id="path84599" />
          <path
             d="m 213.694,113.416 c -0.065,-0.028 -0.118,0.005 -0.159,0.098 -0.041,0.093 -0.064,0.247 -0.071,0.461 l 0.43,0.19 c 0,-0.442 -0.067,-0.691 -0.2,-0.749 z m 0.574,1.471 -0.799,-0.359 c 0.027,0.431 0.129,0.688 0.307,0.769 0.105,0.048 0.234,0.031 0.388,-0.05 l 0.078,0.689 c -0.162,0.097 -0.337,0.1 -0.525,0.012 -0.21,-0.098 -0.373,-0.305 -0.492,-0.62 -0.116,-0.313 -0.173,-0.718 -0.173,-1.216 0,-0.514 0.059,-0.887 0.178,-1.119 0.122,-0.232 0.28,-0.308 0.474,-0.226 0.178,0.075 0.319,0.261 0.421,0.559 0.102,0.296 0.153,0.694 0.153,1.193 0,0.14 -0.003,0.263 -0.01,0.368 z"
             id="path84601" />
          <path
             d="m 215.382,116.655 c -0.018,-0.062 -0.031,-0.198 -0.038,-0.408 -0.111,0.257 -0.243,0.349 -0.396,0.277 -0.151,-0.07 -0.271,-0.261 -0.36,-0.572 -0.09,-0.314 -0.135,-0.716 -0.135,-1.205 0,-0.521 0.05,-0.906 0.15,-1.157 0.102,-0.254 0.23,-0.349 0.385,-0.284 0.142,0.06 0.26,0.249 0.353,0.569 v -1.628 l 0.437,0.176 v 3.705 c 0,0.384 0.009,0.626 0.027,0.724 z m -0.272,-0.801 c 0.075,0.034 0.152,-0.018 0.231,-0.157 v -1.188 c -0.079,-0.201 -0.154,-0.317 -0.225,-0.348 -0.073,-0.031 -0.131,0.015 -0.174,0.137 -0.042,0.119 -0.064,0.324 -0.064,0.614 0,0.283 0.021,0.502 0.062,0.658 0.042,0.156 0.099,0.251 0.17,0.284 z"
             id="path84603" />
        </g>
        <g
           aria-label="Non-Serial"
           id="g84627"
           style="font-weight:bold;font-size:10px;line-height:1.25;font-family:'Sero Pro';-inkscape-font-specification:'Sero Pro Bold';fill:#ff6600;stroke-width:0.264583"
           transform="translate(-58.350351,-0.20051667)">
          <path
             d="m 198.589,93.9991 v -4.4155 l 0.4,-0.1728 0.587,2.2726 v -2.5258 l 0.34,-0.1465 v 4.3144 l -0.308,0.1563 -0.668,-2.5687 v 2.9076 z"
             id="path84607" />
          <path
             d="m 201.254,91.1424 c 0,0.5149 -0.05,0.9322 -0.152,1.2527 -0.103,0.3178 -0.234,0.5176 -0.394,0.5991 -0.159,0.0811 -0.291,0.0155 -0.394,-0.1979 -0.102,-0.2189 -0.154,-0.5872 -0.154,-1.1043 0,-0.5251 0.053,-0.9473 0.158,-1.2659 0.105,-0.3214 0.238,-0.5182 0.399,-0.591 0.159,-0.0717 0.287,0.0033 0.387,0.224 0.1,0.2154 0.15,0.5763 0.15,1.0833 z m -0.402,0.9004 c 0.037,-0.1632 0.055,-0.3997 0.055,-0.7098 0,-0.31 -0.018,-0.5272 -0.055,-0.6515 -0.034,-0.1292 -0.081,-0.1803 -0.139,-0.1532 -0.059,0.0272 -0.106,0.1223 -0.143,0.2855 -0.035,0.1587 -0.053,0.3943 -0.053,0.7065 0,0.3123 0.018,0.5329 0.053,0.6617 0.037,0.124 0.084,0.1714 0.143,0.1424 0.058,-0.029 0.105,-0.1229 0.139,-0.2816 z"
             id="path84609" />
          <path
             d="M 201.449,92.5473 V 89.574 l 0.341,-0.1547 v 0.3592 c 0.104,-0.333 0.223,-0.5296 0.358,-0.5905 0.186,-0.0843 0.279,0.1449 0.279,0.687 v 2.1761 l -0.333,0.1691 v -1.9014 c 0,-0.219 -0.034,-0.3129 -0.101,-0.2818 -0.062,0.0293 -0.13,0.1477 -0.203,0.3557 v 1.9815 z"
             id="path84611" />
          <path
             d="m 202.623,90.4792 v -0.6105 l 0.628,-0.2943 v 0.6035 z"
             id="path84613" />
          <path
             d="m 203.362,91.323 0.075,-0.7853 c 0.146,0.1528 0.272,0.2026 0.378,0.1503 0.07,-0.0347 0.124,-0.1025 0.163,-0.2033 0.04,-0.1049 0.06,-0.2259 0.06,-0.3629 0,-0.1037 -0.011,-0.1852 -0.035,-0.2444 -0.023,-0.0629 -0.053,-0.1077 -0.091,-0.1343 -0.036,-0.0272 -0.077,-0.0486 -0.123,-0.0641 -0.045,-0.0192 -0.091,-0.046 -0.137,-0.0803 -0.046,-0.0343 -0.088,-0.0817 -0.126,-0.1423 -0.037,-0.0614 -0.067,-0.1539 -0.091,-0.2777 -0.023,-0.1277 -0.035,-0.2834 -0.035,-0.4671 0,-0.3862 0.047,-0.7146 0.142,-0.9845 0.095,-0.2727 0.218,-0.4415 0.37,-0.5069 0.146,-0.0629 0.279,-0.0167 0.4,0.1376 l -0.073,0.8067 c -0.116,-0.1698 -0.224,-0.2326 -0.325,-0.1878 -0.06,0.0266 -0.107,0.0867 -0.142,0.1806 -0.034,0.0896 -0.051,0.1979 -0.051,0.3246 0,0.1118 0.016,0.1978 0.047,0.2579 0.031,0.0601 0.07,0.098 0.117,0.1136 0.048,0.0113 0.099,0.0341 0.153,0.0683 0.054,0.0341 0.105,0.0773 0.151,0.1296 0.047,0.048 0.086,0.1403 0.117,0.2769 0.031,0.1365 0.046,0.3115 0.046,0.5251 0,0.3939 -0.049,0.731 -0.146,1.012 -0.096,0.2815 -0.225,0.4636 -0.387,0.5461 -0.166,0.0844 -0.318,0.0552 -0.457,-0.0884 z"
             id="path84615" />
          <path
             d="m 204.96,88.516 c -0.047,0.022 -0.086,0.091 -0.116,0.207 -0.03,0.1162 -0.047,0.276 -0.052,0.4791 l 0.314,-0.1493 c 0,-0.4028 -0.049,-0.5818 -0.146,-0.5368 z m 0.412,0.9138 -0.576,0.2798 c 0.02,0.3771 0.095,0.5332 0.224,0.4689 0.076,-0.0376 0.169,-0.1525 0.278,-0.3442 l 0.055,0.5632 c -0.114,0.2133 -0.239,0.3549 -0.376,0.4244 -0.153,0.0781 -0.274,0.019 -0.363,-0.1781 -0.087,-0.1984 -0.13,-0.5311 -0.13,-0.9975 0,-0.4811 0.045,-0.8748 0.134,-1.1803 0.091,-0.305 0.208,-0.4895 0.35,-0.5538 0.129,-0.0585 0.23,0.0119 0.303,0.2103 0.072,0.1943 0.108,0.5168 0.108,0.968 0,0.1263 -0.002,0.2394 -0.007,0.3393 z"
             id="path84617" />
          <path
             d="m 206.15,87.3933 v 0.7359 c -0.01,0.0015 -0.029,0.0086 -0.057,0.0214 -0.087,0.0407 -0.168,0.1787 -0.244,0.4145 v 1.7488 l -0.292,0.1483 v -2.7517 l 0.292,-0.1325 v 0.413 c 0.06,-0.3456 0.143,-0.542 0.248,-0.5895 0.021,-0.0097 0.039,-0.0124 0.053,-0.0082 z"
             id="path84619" />
          <path
             d="m 206.552,86.1906 c 0.029,0.0684 0.044,0.1678 0.044,0.2981 0,0.1304 -0.015,0.2444 -0.044,0.342 -0.028,0.0936 -0.066,0.1513 -0.115,0.1728 -0.048,0.0216 -0.087,-0.0017 -0.116,-0.0701 -0.03,-0.0719 -0.044,-0.1735 -0.044,-0.3047 0,-0.1312 0.014,-0.244 0.044,-0.3383 0.029,-0.0978 0.068,-0.157 0.116,-0.1777 0.049,-0.0207 0.087,0.0053 0.115,0.0779 z m -0.258,3.8973 V 87.376 l 0.284,-0.1288 v 2.6966 z"
             id="path84621" />
          <path
             d="m 207.112,87.5856 c -0.067,0.0314 -0.155,0.1423 -0.264,0.3332 l -0.052,-0.5968 c 0.127,-0.2156 0.253,-0.351 0.376,-0.4069 0.115,-0.052 0.202,-0.0167 0.261,0.1056 0.059,0.1215 0.089,0.3603 0.089,0.7165 v 1.1257 c 0,0.3251 0.006,0.5228 0.017,0.5932 l -0.258,0.1307 c -0.011,-0.0464 -0.018,-0.1365 -0.022,-0.2704 -0.068,0.2641 -0.15,0.4208 -0.247,0.4698 -0.077,0.0392 -0.14,-0.0021 -0.19,-0.1242 -0.048,-0.1229 -0.073,-0.318 -0.073,-0.5849 0,-0.6007 0.129,-0.9622 0.385,-1.0836 0.044,-0.0205 0.084,-0.0328 0.122,-0.0366 v -0.0313 c 0,-0.1461 -0.012,-0.2448 -0.036,-0.2962 -0.023,-0.052 -0.059,-0.0667 -0.108,-0.0438 z m 0.002,1.5475 c 0.043,-0.0216 0.091,-0.1043 0.142,-0.2479 v -0.4537 c -0.029,-0.0036 -0.055,6e-4 -0.08,0.0127 -0.056,0.0271 -0.096,0.0743 -0.121,0.1418 -0.022,0.067 -0.034,0.1582 -0.034,0.2735 0,0.2131 0.031,0.3043 0.093,0.2736 z"
             id="path84623" />
          <path
             d="m 207.717,89.3657 v -3.7202 l 0.268,-0.1156 v 3.6997 z"
             id="path84625" />
        </g>
      </g>
      <g
         id="g84679"
         transform="matrix(0.80535451,0,0,0.80535451,66.283747,-40.511242)">
        <path
           id="path84631"
           style="color:#000000;font-style:normal;font-variant:normal;font-weight:normal;font-stretch:normal;font-size:medium;line-height:normal;font-family:sans-serif;font-variant-ligatures:normal;font-variant-position:normal;font-variant-caps:normal;font-variant-numeric:normal;font-variant-alternates:normal;font-variant-east-asian:normal;font-feature-settings:normal;font-variation-settings:normal;text-indent:0;text-align:start;text-decoration:none;text-decoration-line:none;text-decoration-style:solid;text-decoration-color:#000000;letter-spacing:normal;word-spacing:normal;text-transform:none;writing-mode:lr-tb;direction:ltr;text-orientation:mixed;dominant-baseline:auto;baseline-shift:baseline;text-anchor:start;white-space:normal;shape-padding:0;shape-margin:0;inline-size:0;clip-rule:nonzero;display:inline;overflow:visible;visibility:visible;isolation:auto;mix-blend-mode:normal;color-interpolation:sRGB;color-interpolation-filters:linearRGB;solid-color:#000000;solid-opacity:1;vector-effect:none;fill:#0000d4;fill-opacity:1;fill-rule:nonzero;stroke:none;stroke-width:1.19051;stroke-linecap:butt;stroke-linejoin:round;stroke-miterlimit:4;stroke-dasharray:none;stroke-dashoffset:0;stroke-opacity:1;color-rendering:auto;image-rendering:auto;shape-rendering:auto;text-rendering:auto;enable-background:accumulate;stop-color:#000000"
           d="m 134.66397,67.023427 a 0.59531286,0.59531286 0 0 0 -0.21705,0.03101 l -12.47244,4.30631 a 0.59531286,0.59531286 0 0 0 -0.26665,0.939502 l 3.18438,3.885138 -3.65207,4.563148 a 0.59848789,0.59848789 0 0 0 0.21705,0.91418 l 3.60659,1.675394 v 6.475744 a 0.59531381,0.59531381 0 0 0 0.34263,0.538999 l 13.06621,6.119166 a 0.59531381,0.59531381 0 0 0 0.032,0.0098 c 0.0317,0.01288 0.064,0.02267 0.0977,0.02997 a 0.59531381,0.59531381 0 0 0 0.0553,0.0098 c 0.0375,0.0045 0.0752,0.004 0.11369,0.001 a 0.59531381,0.59531381 0 0 0 0.0481,-0.0036 c 0.0335,-0.0054 0.0665,-0.01678 0.0997,-0.02842 a 0.59531381,0.59531381 0 0 0 0.063,-0.02222 c 0.004,-0.002 0.009,-0.0025 0.0129,-0.0047 l 12.02904,-6.120201 c 0.19956,-0.101446 0.32539,-0.306348 0.32557,-0.530212 v -6.495382 l 3.43502,-1.730174 a 0.59531289,0.59531289 0 0 0 0.20155,-0.895575 l -3.45466,-4.474264 3.42055,-3.685142 a 0.59531286,0.59531286 0 0 0 -0.24495,-0.967408 l -12.67036,-4.30631 a 0.59531286,0.59531286 0 0 0 -0.16124,-0.03101 0.59531286,0.59531286 0 0 0 -0.4837,0.207745 l -3.04796,3.561632 -3.25208,-3.769377 a 0.59531286,0.59531286 0 0 0 -0.42789,-0.204645 z m -0.20775,1.289878 2.86037,3.314096 -11.45749,3.860848 -2.68776,-3.281022 z m 7.57751,0.201543 11.42131,3.881518 -2.87431,3.097051 -11.21047,-3.862915 z m -3.69289,4.024151 6.98787,2.406118 3.77507,1.300728 -10.38414,4.47478 -11.32416,-4.492867 z m -12.49104,4.364705 11.94894,4.737304 -3.35802,4.734203 -11.78719,-5.475262 z m 24.71594,0.0088 3.03814,3.93733 -10.42962,5.252014 -3.50633,-4.492348 z m -11.24509,6.184281 3.21488,4.121304 a 0.59531289,0.59531289 0 0 0 0.73796,0.167435 l 6.88606,-3.468096 v 5.53004 l -10.8389,5.515572 z M 138.13,83.242516 v 11.75463 l -11.87556,-5.561563 v -5.543992 l 8.13667,3.779712 a 0.59848789,0.59848789 0 0 0 0.73796,-0.198443 z" />
        <path
           style="fill:#000080;stroke-width:0.1815;stroke-linecap:square;stroke-dashoffset:3.11811;paint-order:markers stroke fill"
           d="m 132.14447,92.160016 -5.86983,-2.755009 -5.3e-4,-2.727682 -5.3e-4,-2.727682 0.34726,0.155292 c 0.191,0.08541 2.0193,0.932214 4.0629,1.881788 2.04359,0.949574 3.78488,1.741845 3.86953,1.760604 0.34584,0.07664 0.49022,-0.08384 2.04108,-2.268599 l 1.51933,-2.140341 v 5.794899 c 0,3.187194 -0.0223,5.791938 -0.0496,5.788318 -0.0273,-0.0036 -2.69104,-1.246335 -5.91944,-2.761588 z"
           id="path84633" />
        <g
           aria-label="Serialized"
           id="g84655"
           style="font-weight:bold;font-size:10px;line-height:1.25;font-family:'Sero Pro';-inkscape-font-specification:'Sero Pro Bold';fill:#ffffff;stroke-width:0.264583"
           transform="translate(-78.567451,-23.003817)">
          <path
             d="m 205.422,111.767 0.074,-0.657 c 0.146,0.274 0.272,0.436 0.379,0.485 0.072,0.033 0.128,0.02 0.168,-0.039 0.041,-0.062 0.062,-0.158 0.062,-0.287 0,-0.098 -0.012,-0.186 -0.036,-0.263 -0.024,-0.081 -0.055,-0.151 -0.094,-0.21 -0.037,-0.058 -0.079,-0.115 -0.125,-0.171 -0.047,-0.058 -0.093,-0.124 -0.139,-0.196 -0.046,-0.073 -0.088,-0.154 -0.126,-0.243 -0.037,-0.089 -0.067,-0.201 -0.091,-0.336 -0.023,-0.138 -0.035,-0.292 -0.035,-0.462 0,-0.357 0.047,-0.622 0.141,-0.795 0.095,-0.178 0.22,-0.235 0.375,-0.173 0.151,0.06 0.289,0.214 0.416,0.462 l -0.077,0.708 c -0.121,-0.261 -0.233,-0.413 -0.337,-0.456 -0.061,-0.025 -0.109,-0.009 -0.145,0.05 -0.035,0.055 -0.052,0.142 -0.052,0.261 0,0.104 0.016,0.198 0.048,0.281 0.032,0.084 0.071,0.153 0.119,0.208 0.049,0.053 0.102,0.119 0.158,0.199 0.056,0.08 0.108,0.166 0.157,0.257 0.05,0.089 0.091,0.212 0.123,0.371 0.032,0.158 0.049,0.34 0.049,0.544 0,0.377 -0.052,0.653 -0.154,0.828 -0.101,0.174 -0.234,0.222 -0.401,0.145 -0.167,-0.079 -0.32,-0.249 -0.457,-0.511 z"
             id="path84635" />
          <path
             d="m 207.094,110.579 c -0.053,-0.022 -0.096,0.009 -0.129,0.094 -0.033,0.086 -0.052,0.225 -0.057,0.418 l 0.348,0.153 c 0,-0.397 -0.054,-0.618 -0.162,-0.665 z m 0.464,1.299 -0.646,-0.29 c 0.022,0.387 0.104,0.613 0.248,0.679 0.085,0.039 0.189,0.019 0.313,-0.061 l 0.064,0.616 c -0.131,0.094 -0.272,0.104 -0.425,0.033 -0.169,-0.079 -0.302,-0.259 -0.397,-0.537 -0.094,-0.277 -0.141,-0.639 -0.141,-1.088 0,-0.463 0.048,-0.8 0.145,-1.014 0.098,-0.213 0.226,-0.287 0.383,-0.221 0.144,0.06 0.258,0.222 0.34,0.487 0.083,0.261 0.124,0.616 0.124,1.066 0,0.125 -0.003,0.235 -0.008,0.33 z"
             id="path84637" />
          <path
             d="m 208.477,110.588 v 0.756 c -0.013,-0.01 -0.036,-0.022 -0.069,-0.036 -0.106,-0.045 -0.203,0.014 -0.293,0.178 v 1.773 l -0.344,-0.16 v -2.759 l 0.344,0.145 v 0.419 c 0.071,-0.293 0.17,-0.413 0.297,-0.359 0.026,0.011 0.048,0.025 0.065,0.043 z"
             id="path84639" />
          <path
             d="m 208.974,109.732 c 0.037,0.1 0.055,0.218 0.055,0.354 0,0.136 -0.018,0.241 -0.055,0.314 -0.035,0.07 -0.083,0.092 -0.143,0.067 -0.06,-0.025 -0.108,-0.087 -0.145,-0.186 -0.036,-0.103 -0.054,-0.222 -0.054,-0.357 0,-0.136 0.018,-0.238 0.054,-0.308 0.037,-0.073 0.085,-0.097 0.145,-0.073 0.06,0.024 0.108,0.087 0.143,0.189 z m -0.32,3.779 v -2.799 l 0.353,0.149 v 2.815 z"
             id="path84641" />
          <path
             d="m 209.696,111.77 c -0.089,-0.038 -0.204,-0.013 -0.344,0.074 l -0.067,-0.683 c 0.164,-0.098 0.327,-0.112 0.49,-0.044 0.153,0.064 0.269,0.193 0.349,0.388 0.081,0.196 0.121,0.487 0.121,0.874 v 1.222 c 0,0.353 0.008,0.575 0.023,0.664 l -0.348,-0.162 c -0.015,-0.063 -0.025,-0.169 -0.029,-0.316 -0.091,0.204 -0.2,0.276 -0.326,0.217 -0.1,-0.047 -0.183,-0.164 -0.247,-0.349 -0.062,-0.184 -0.093,-0.416 -0.093,-0.697 0,-0.632 0.166,-0.875 0.5,-0.728 0.057,0.025 0.111,0.056 0.161,0.093 v -0.034 c 0,-0.157 -0.016,-0.275 -0.048,-0.356 -0.03,-0.081 -0.077,-0.135 -0.142,-0.163 z m 0.002,1.654 c 0.057,0.026 0.12,-0.009 0.188,-0.104 v -0.488 c -0.038,-0.035 -0.073,-0.06 -0.107,-0.075 -0.074,-0.033 -0.126,-0.027 -0.158,0.018 -0.03,0.046 -0.045,0.131 -0.045,0.253 0,0.227 0.041,0.359 0.122,0.396 z"
             id="path84643" />
          <path
             d="m 210.513,114.38 v -4.073 l 0.376,0.151 v 4.097 z"
             id="path84645" />
          <path
             d="m 211.554,110.771 c 0.04,0.104 0.06,0.228 0.06,0.37 0,0.142 -0.02,0.25 -0.06,0.326 -0.039,0.072 -0.09,0.095 -0.156,0.068 -0.065,-0.027 -0.117,-0.093 -0.157,-0.197 -0.039,-0.108 -0.059,-0.233 -0.059,-0.374 0,-0.141 0.02,-0.247 0.059,-0.319 0.04,-0.075 0.092,-0.1 0.157,-0.074 0.066,0.026 0.117,0.093 0.156,0.2 z m -0.349,3.932 v -2.917 l 0.385,0.162 v 2.935 z"
             id="path84647" />
          <path
             d="M 211.804,114.983 V 114.4 l 0.593,-1.43 -0.556,-0.24 v -0.676 l 1.05,0.442 v 0.575 l -0.602,1.44 0.607,0.277 v 0.705 z"
             id="path84649" />
          <path
             d="m 213.694,113.416 c -0.065,-0.028 -0.118,0.005 -0.159,0.098 -0.041,0.093 -0.064,0.247 -0.071,0.461 l 0.43,0.19 c 0,-0.442 -0.067,-0.691 -0.2,-0.749 z m 0.574,1.471 -0.799,-0.359 c 0.027,0.431 0.129,0.688 0.307,0.769 0.105,0.048 0.234,0.031 0.388,-0.05 l 0.078,0.689 c -0.162,0.097 -0.337,0.1 -0.525,0.012 -0.21,-0.098 -0.373,-0.305 -0.492,-0.62 -0.116,-0.313 -0.173,-0.718 -0.173,-1.216 0,-0.514 0.059,-0.887 0.178,-1.119 0.122,-0.232 0.28,-0.308 0.474,-0.226 0.178,0.075 0.319,0.261 0.421,0.559 0.102,0.296 0.153,0.694 0.153,1.193 0,0.14 -0.003,0.263 -0.01,0.368 z"
             id="path84651" />
          <path
             d="m 215.382,116.655 c -0.018,-0.062 -0.031,-0.198 -0.038,-0.408 -0.111,0.257 -0.243,0.349 -0.396,0.277 -0.151,-0.07 -0.271,-0.261 -0.36,-0.572 -0.09,-0.314 -0.135,-0.716 -0.135,-1.205 0,-0.521 0.05,-0.906 0.15,-1.157 0.102,-0.254 0.23,-0.349 0.385,-0.284 0.142,0.06 0.26,0.249 0.353,0.569 v -1.628 l 0.437,0.176 v 3.705 c 0,0.384 0.009,0.626 0.027,0.724 z m -0.272,-0.801 c 0.075,0.034 0.152,-0.018 0.231,-0.157 v -1.188 c -0.079,-0.201 -0.154,-0.317 -0.225,-0.348 -0.073,-0.031 -0.131,0.015 -0.174,0.137 -0.042,0.119 -0.064,0.324 -0.064,0.614 0,0.283 0.021,0.502 0.062,0.658 0.042,0.156 0.099,0.251 0.17,0.284 z"
             id="path84653" />
        </g>
        <g
           aria-label="Non-Serial"
           id="g84677"
           style="font-weight:bold;font-size:10px;line-height:1.25;font-family:'Sero Pro';-inkscape-font-specification:'Sero Pro Bold';fill:#ff6600;stroke-width:0.264583"
           transform="translate(-58.350351,-0.20051667)">
          <path
             d="m 198.589,93.9991 v -4.4155 l 0.4,-0.1728 0.587,2.2726 v -2.5258 l 0.34,-0.1465 v 4.3144 l -0.308,0.1563 -0.668,-2.5687 v 2.9076 z"
             id="path84657" />
          <path
             d="m 201.254,91.1424 c 0,0.5149 -0.05,0.9322 -0.152,1.2527 -0.103,0.3178 -0.234,0.5176 -0.394,0.5991 -0.159,0.0811 -0.291,0.0155 -0.394,-0.1979 -0.102,-0.2189 -0.154,-0.5872 -0.154,-1.1043 0,-0.5251 0.053,-0.9473 0.158,-1.2659 0.105,-0.3214 0.238,-0.5182 0.399,-0.591 0.159,-0.0717 0.287,0.0033 0.387,0.224 0.1,0.2154 0.15,0.5763 0.15,1.0833 z m -0.402,0.9004 c 0.037,-0.1632 0.055,-0.3997 0.055,-0.7098 0,-0.31 -0.018,-0.5272 -0.055,-0.6515 -0.034,-0.1292 -0.081,-0.1803 -0.139,-0.1532 -0.059,0.0272 -0.106,0.1223 -0.143,0.2855 -0.035,0.1587 -0.053,0.3943 -0.053,0.7065 0,0.3123 0.018,0.5329 0.053,0.6617 0.037,0.124 0.084,0.1714 0.143,0.1424 0.058,-0.029 0.105,-0.1229 0.139,-0.2816 z"
             id="path84659" />
          <path
             d="M 201.449,92.5473 V 89.574 l 0.341,-0.1547 v 0.3592 c 0.104,-0.333 0.223,-0.5296 0.358,-0.5905 0.186,-0.0843 0.279,0.1449 0.279,0.687 v 2.1761 l -0.333,0.1691 v -1.9014 c 0,-0.219 -0.034,-0.3129 -0.101,-0.2818 -0.062,0.0293 -0.13,0.1477 -0.203,0.3557 v 1.9815 z"
             id="path84661" />
          <path
             d="m 202.623,90.4792 v -0.6105 l 0.628,-0.2943 v 0.6035 z"
             id="path84663" />
          <path
             d="m 203.362,91.323 0.075,-0.7853 c 0.146,0.1528 0.272,0.2026 0.378,0.1503 0.07,-0.0347 0.124,-0.1025 0.163,-0.2033 0.04,-0.1049 0.06,-0.2259 0.06,-0.3629 0,-0.1037 -0.011,-0.1852 -0.035,-0.2444 -0.023,-0.0629 -0.053,-0.1077 -0.091,-0.1343 -0.036,-0.0272 -0.077,-0.0486 -0.123,-0.0641 -0.045,-0.0192 -0.091,-0.046 -0.137,-0.0803 -0.046,-0.0343 -0.088,-0.0817 -0.126,-0.1423 -0.037,-0.0614 -0.067,-0.1539 -0.091,-0.2777 -0.023,-0.1277 -0.035,-0.2834 -0.035,-0.4671 0,-0.3862 0.047,-0.7146 0.142,-0.9845 0.095,-0.2727 0.218,-0.4415 0.37,-0.5069 0.146,-0.0629 0.279,-0.0167 0.4,0.1376 l -0.073,0.8067 c -0.116,-0.1698 -0.224,-0.2326 -0.325,-0.1878 -0.06,0.0266 -0.107,0.0867 -0.142,0.1806 -0.034,0.0896 -0.051,0.1979 -0.051,0.3246 0,0.1118 0.016,0.1978 0.047,0.2579 0.031,0.0601 0.07,0.098 0.117,0.1136 0.048,0.0113 0.099,0.0341 0.153,0.0683 0.054,0.0341 0.105,0.0773 0.151,0.1296 0.047,0.048 0.086,0.1403 0.117,0.2769 0.031,0.1365 0.046,0.3115 0.046,0.5251 0,0.3939 -0.049,0.731 -0.146,1.012 -0.096,0.2815 -0.225,0.4636 -0.387,0.5461 -0.166,0.0844 -0.318,0.0552 -0.457,-0.0884 z"
             id="path84665" />
          <path
             d="m 204.96,88.516 c -0.047,0.022 -0.086,0.091 -0.116,0.207 -0.03,0.1162 -0.047,0.276 -0.052,0.4791 l 0.314,-0.1493 c 0,-0.4028 -0.049,-0.5818 -0.146,-0.5368 z m 0.412,0.9138 -0.576,0.2798 c 0.02,0.3771 0.095,0.5332 0.224,0.4689 0.076,-0.0376 0.169,-0.1525 0.278,-0.3442 l 0.055,0.5632 c -0.114,0.2133 -0.239,0.3549 -0.376,0.4244 -0.153,0.0781 -0.274,0.019 -0.363,-0.1781 -0.087,-0.1984 -0.13,-0.5311 -0.13,-0.9975 0,-0.4811 0.045,-0.8748 0.134,-1.1803 0.091,-0.305 0.208,-0.4895 0.35,-0.5538 0.129,-0.0585 0.23,0.0119 0.303,0.2103 0.072,0.1943 0.108,0.5168 0.108,0.968 0,0.1263 -0.002,0.2394 -0.007,0.3393 z"
             id="path84667" />
          <path
             d="m 206.15,87.3933 v 0.7359 c -0.01,0.0015 -0.029,0.0086 -0.057,0.0214 -0.087,0.0407 -0.168,0.1787 -0.244,0.4145 v 1.7488 l -0.292,0.1483 v -2.7517 l 0.292,-0.1325 v 0.413 c 0.06,-0.3456 0.143,-0.542 0.248,-0.5895 0.021,-0.0097 0.039,-0.0124 0.053,-0.0082 z"
             id="path84669" />
          <path
             d="m 206.552,86.1906 c 0.029,0.0684 0.044,0.1678 0.044,0.2981 0,0.1304 -0.015,0.2444 -0.044,0.342 -0.028,0.0936 -0.066,0.1513 -0.115,0.1728 -0.048,0.0216 -0.087,-0.0017 -0.116,-0.0701 -0.03,-0.0719 -0.044,-0.1735 -0.044,-0.3047 0,-0.1312 0.014,-0.244 0.044,-0.3383 0.029,-0.0978 0.068,-0.157 0.116,-0.1777 0.049,-0.0207 0.087,0.0053 0.115,0.0779 z m -0.258,3.8973 V 87.376 l 0.284,-0.1288 v 2.6966 z"
             id="path84671" />
          <path
             d="m 207.112,87.5856 c -0.067,0.0314 -0.155,0.1423 -0.264,0.3332 l -0.052,-0.5968 c 0.127,-0.2156 0.253,-0.351 0.376,-0.4069 0.115,-0.052 0.202,-0.0167 0.261,0.1056 0.059,0.1215 0.089,0.3603 0.089,0.7165 v 1.1257 c 0,0.3251 0.006,0.5228 0.017,0.5932 l -0.258,0.1307 c -0.011,-0.0464 -0.018,-0.1365 -0.022,-0.2704 -0.068,0.2641 -0.15,0.4208 -0.247,0.4698 -0.077,0.0392 -0.14,-0.0021 -0.19,-0.1242 -0.048,-0.1229 -0.073,-0.318 -0.073,-0.5849 0,-0.6007 0.129,-0.9622 0.385,-1.0836 0.044,-0.0205 0.084,-0.0328 0.122,-0.0366 v -0.0313 c 0,-0.1461 -0.012,-0.2448 -0.036,-0.2962 -0.023,-0.052 -0.059,-0.0667 -0.108,-0.0438 z m 0.002,1.5475 c 0.043,-0.0216 0.091,-0.1043 0.142,-0.2479 v -0.4537 c -0.029,-0.0036 -0.055,6e-4 -0.08,0.0127 -0.056,0.0271 -0.096,0.0743 -0.121,0.1418 -0.022,0.067 -0.034,0.1582 -0.034,0.2735 0,0.2131 0.031,0.3043 0.093,0.2736 z"
             id="path84673" />
          <path
             d="m 207.717,89.3657 v -3.7202 l 0.268,-0.1156 v 3.6997 z"
             id="path84675" />
        </g>
      </g>
      <path
         style="color:#000000;fill:#999999;stroke:none;stroke-width:0.555269;stroke-linejoin:round;-inkscape-stroke:none"
         d="m 161.89821,5.366082 3.61127,1.38426 3.44049,-1.374324 -3.55112,-1.297353 z"
         id="path84681" />
      <path
         id="path84683"
         style="fill:#0000d4;fill-opacity:1;stroke-width:0.213354"
         d="M 162.59841,7.457243 V 7.092619 l 0.31036,0.119783 v 0.364443 z m 0.31036,1.577561 V 8.67036 l 0.31217,0.119608 v 0.364444 z m 0.9347,-1.4634 0.31037,0.119608 v 0.364261 l -0.31037,-0.119608 z m 0.31037,0.483867 0.31216,0.119608 v 0.364262 l -0.31216,-0.11942 z m 0,1.457411 0.31216,0.11942 v 0.364262 l -0.31216,-0.119245 z m 0.31216,-0.244837 -0.62253,-0.23903 v 1.09333 l 0.62253,0.238485 v 0.364443 L 161.97408,9.770225 V 6.853226 l 0.31216,0.119608 v 0.364625 l 0.31217,0.119783 V 8.18631 l -0.31217,-0.119608 v 0.364625 l 0.31217,0.11942 v 0.364625 l 0.31036,0.11942 v 0.364625 l 0.31217,0.11942 v 0.364445 l 0.31037,0.11942 V 9.638259 l -0.31037,-0.11942 V 9.154395 l 0.31037,0.119421 V 8.544928 l -0.62254,-0.23903 V 7.57683 l 0.31217,0.119608 V 7.331995 l 0.31037,0.119783 v 0.728705 l 0.31216,0.119608 v 0.364445 l 0.62253,0.238848 z" />
      <path
         id="path84685"
         style="color:#000000;fill:#0000d4;fill-opacity:1;stroke-width:1.25205;stroke-linejoin:round;-inkscape-stroke:none"
         d="m 165.34976,3.361801 a 0.35373858,0.35373858 0 0 0 -0.0809,0.01875 v 6.63e-4 l -4.4508,1.638239 a 0.3537032,0.3537032 0 0 0 -0.0815,0.04141 0.3537032,0.3537032 0 0 0 -6.6e-4,0 0.35373858,0.35373858 0 0 0 -6.7e-4,6.63e-4 0.3537032,0.3537032 0 0 0 -0.15657,0.290507 v 4.919891 a 0.3537032,0.3537032 0 0 0 0.01,0.07958 0.35373858,0.35373858 0 0 0 0.003,0.0071 0.3537032,0.3537032 0 0 0 0.0259,0.07053 0.35373858,0.35373858 0 0 0 0.003,0.0078 0.3537032,0.3537032 0 0 0 0.11128,0.124876 0.3537032,0.3537032 0 0 0 0.0945,0.04788 l 4.56727,1.750169 a 0.3537032,0.3537032 0 0 0 0.1404,0.02975 0.3537032,0.3537032 0 0 0 0.15011,-0.03429 l 4.33765,-1.733379 a 0.3537032,0.3537032 0 0 0 0.18893,-0.142344 0.35373858,0.35373858 0 0 0 0.001,-0.002 0.3537032,0.3537032 0 0 0 0.0434,-0.09447 0.35373858,0.35373858 0 0 0 6.6e-4,-0.0045 0.3537032,0.3537032 0 0 0 0.0103,-0.04723 0.35373858,0.35373858 0 0 0 6.7e-4,-0.0052 0.3537032,0.3537032 0 0 0 0.002,-0.04206 0.35373858,0.35373858 0 0 0 0,-0.01229 v -4.901127 -0.0045 a 0.35373858,0.35373858 0 0 0 -6.6e-4,-0.0207 0.35373858,0.35373858 0 0 0 0,-6.63e-4 0.3537032,0.3537032 0 0 0 -0.003,-0.02975 0.35373858,0.35373858 0 0 0 -0.002,-0.01295 0.3537032,0.3537032 0 0 0 -0.0103,-0.04141 0.3537032,0.3537032 0 0 0 -0.001,-0.0045 0.35373858,0.35373858 0 0 0 -0.003,-0.0058 0.3537032,0.3537032 0 0 0 -0.0162,-0.04011 0.3537032,0.3537032 0 0 0 -0.001,-0.0033 0.35373858,0.35373858 0 0 0 -6.7e-4,-0.0013 0.3537032,0.3537032 0 0 0 -0.0272,-0.04465 0.3537032,0.3537032 0 0 0 -0.0336,-0.04076 0.3537032,0.3537032 0 0 0 -0.0362,-0.03299 0.3537032,0.3537032 0 0 0 -0.003,-0.0026 0.35373858,0.35373858 0 0 0 -0.003,-0.002 0.3537032,0.3537032 0 0 0 -0.0421,-0.02716 0.3537032,0.3537032 0 0 0 -0.0485,-0.022 l -0.0123,-0.0045 a 0.3537032,0.3537032 0 0 0 -0.004,-0.0013 l -4.50766,-1.647297 a 0.35373858,0.35373858 0 0 0 -0.16369,-0.01875 z m 0.0414,0.728537 3.53593,1.288203 -3.39618,1.357435 -3.59221,-1.376844 z m -4.1053,1.775403 3.89308,1.4946 v 4.160297 l -3.2396,-1.24162 -0.65154,-0.249748 -0.001,-0.265275 h -6.6e-4 z m 8.27595,0.02266 v 4.155767 l -0.63602,0.254274 0.003,6.62e-4 -3.0429,1.215737 v -2.32666 l 0.001,6.63e-4 V 8.43507 l -0.001,-6.63e-4 V 7.357131 Z" />
      <g
         id="g84693"
         transform="rotate(-6.3053763,-18.657017,-1278.9884)">
        <path
           style="color:#000000;fill:#ffffff;stroke-width:0.264583px;-inkscape-stroke:none"
           d="m 29.614289,35.054924 c 0.176503,0.1976 0.569775,0.32986 0.788619,-0.09935 l 2.496463,-4.8962 c 0.171565,-0.336482 -0.02125,-0.588131 -0.467552,-0.53034 l -6.163224,0.798073 c -0.575499,0.07452 -0.440462,0.489122 -0.313325,0.631455 z"
           id="path84687"
           sodipodi:nodetypes="sssssss" />
        <path
           id="path84689"
           style="fill:#ffffff;fill-opacity:1;stroke-width:0;stroke-linejoin:round;stroke-dashoffset:3.11811"
           d="m 27.946352,30.632213 2.965988,-0.384064 c -0.734821,-3.116587 -2.030298,-4.549865 -4.400002,-5.365997 -1.186673,-0.408693 -2.14244,-0.218812 -2.920174,0.04774 1.92051,0.683744 4.215415,1.156751 4.354188,5.702326 z"
           sodipodi:nodetypes="ccscc" />
        <path
           inkscape:transform-center-y="1.6029926"
           d="m 32.109245,30.161684 -1.77736,0.230148 c -1.06883,-4.533217 -3.65787,-5.500367 -5.992038,-5.364464 1.513674,0.237508 4.096758,1.153872 4.135671,5.604845 l -1.733843,0.224517 1.595721,1.786448 1.595718,1.786448 1.088068,-2.13397 z"
           inkscape:transform-center-x="1.0001303"
           style="opacity:0.998;fill:#ff6600;fill-opacity:1;stroke-width:0;stroke-linejoin:round;stroke-dashoffset:3.11811"
           id="path84691" />
      </g>
      <path
         style="color:#000000;fill:#999999;stroke:none;stroke-width:0.555269;stroke-linejoin:round;-inkscape-stroke:none"
         d="m 186.07493,5.365839 3.61127,1.38426 3.44048,-1.374324 -3.55111,-1.297353 z"
         id="path84695" />
      <path
         id="path84697"
         style="color:#000000;fill:#000080;fill-opacity:1;stroke-width:1.25205;stroke-linejoin:round;-inkscape-stroke:none"
         d="m 189.52648,3.361558 a 0.35373858,0.35373858 0 0 0 -0.0809,0.01875 v 6.63e-4 l -4.4508,1.638239 a 0.3537032,0.3537032 0 0 0 -0.0815,0.04141 0.3537032,0.3537032 0 0 0 -6.7e-4,0 0.35373858,0.35373858 0 0 0 -6.6e-4,6.63e-4 0.3537032,0.3537032 0 0 0 -0.15658,0.290507 v 4.919891 a 0.3537032,0.3537032 0 0 0 0.01,0.07958 0.35373858,0.35373858 0 0 0 0.003,0.0071 0.3537032,0.3537032 0 0 0 0.0259,0.07053 0.35373858,0.35373858 0 0 0 0.003,0.0078 0.3537032,0.3537032 0 0 0 0.11129,0.124876 0.3537032,0.3537032 0 0 0 0.0945,0.04788 l 4.56727,1.750169 a 0.3537032,0.3537032 0 0 0 0.1404,0.02975 0.3537032,0.3537032 0 0 0 0.15011,-0.03429 l 4.33765,-1.733379 a 0.3537032,0.3537032 0 0 0 0.18893,-0.142344 0.35373858,0.35373858 0 0 0 0.001,-0.002 0.3537032,0.3537032 0 0 0 0.0434,-0.09447 0.35373858,0.35373858 0 0 0 6.6e-4,-0.0045 0.3537032,0.3537032 0 0 0 0.0103,-0.04723 0.35373858,0.35373858 0 0 0 6.7e-4,-0.0052 0.3537032,0.3537032 0 0 0 0.002,-0.04206 0.35373858,0.35373858 0 0 0 0,-0.01229 v -4.901127 -0.0045 a 0.35373858,0.35373858 0 0 0 -6.7e-4,-0.0207 0.35373858,0.35373858 0 0 0 0,-6.63e-4 0.3537032,0.3537032 0 0 0 -0.003,-0.02975 0.35373858,0.35373858 0 0 0 -0.002,-0.01295 0.3537032,0.3537032 0 0 0 -0.0103,-0.04141 0.3537032,0.3537032 0 0 0 -0.001,-0.0045 0.35373858,0.35373858 0 0 0 -0.003,-0.0058 0.3537032,0.3537032 0 0 0 -0.0162,-0.04011 0.3537032,0.3537032 0 0 0 -0.001,-0.0033 0.35373858,0.35373858 0 0 0 -6.6e-4,-0.0013 0.3537032,0.3537032 0 0 0 -0.0272,-0.04465 0.3537032,0.3537032 0 0 0 -0.0336,-0.04076 0.3537032,0.3537032 0 0 0 -0.0362,-0.03299 0.3537032,0.3537032 0 0 0 -0.003,-0.0026 0.35373858,0.35373858 0 0 0 -0.003,-0.002 0.3537032,0.3537032 0 0 0 -0.0421,-0.02716 0.3537032,0.3537032 0 0 0 -0.0485,-0.022 l -0.0123,-0.0045 a 0.3537032,0.3537032 0 0 0 -0.004,-0.0013 l -4.50774,-1.647297 a 0.35373858,0.35373858 0 0 0 -0.16369,-0.01875 z m 0.0414,0.728537 3.53592,1.288203 -3.39617,1.357435 -3.59221,-1.376844 z m -4.1053,1.775403 3.89308,1.4946 v 4.160297 l -3.2396,-1.24162 -0.65154,-0.249748 -0.001,-0.265275 h -6.6e-4 z m 8.27595,0.02266 v 4.155767 l -0.63602,0.254274 0.003,6.62e-4 -3.04291,1.215737 v -2.32666 l 0.001,6.63e-4 V 8.434827 l -0.001,-6.63e-4 V 7.356888 Z" />
      <g
         id="g84705"
         transform="rotate(-112.34487,101.00266,-29.292613)">
        <path
           style="color:#000000;fill:#ffffff;stroke-width:0.264583px;-inkscape-stroke:none"
           d="m 29.614289,35.054924 c 0.176503,0.1976 0.569775,0.32986 0.788619,-0.09935 l 2.496463,-4.8962 c 0.171565,-0.336482 -0.02125,-0.588131 -0.467552,-0.53034 l -6.163224,0.798073 c -0.575499,0.07452 -0.440462,0.489122 -0.313325,0.631455 z"
           id="path84699"
           sodipodi:nodetypes="sssssss" />
        <path
           id="path84701"
           style="fill:#ffffff;fill-opacity:1;stroke-width:0;stroke-linejoin:round;stroke-dashoffset:3.11811"
           d="m 27.946352,30.632213 2.965988,-0.384064 c -0.734821,-3.116587 -2.030298,-4.549865 -4.400002,-5.365997 -1.186673,-0.408693 -2.14244,-0.218812 -2.920174,0.04774 1.92051,0.683744 4.215415,1.156751 4.354188,5.702326 z"
           sodipodi:nodetypes="ccscc" />
        <path
           inkscape:transform-center-y="1.6029926"
           d="m 32.109245,30.161684 -1.77736,0.230148 c -1.06883,-4.533217 -3.65787,-5.500367 -5.992038,-5.364464 1.513674,0.237508 4.096758,1.153872 4.135671,5.604845 l -1.733843,0.224517 1.595721,1.786448 1.595718,1.786448 1.088068,-2.13397 z"
           inkscape:transform-center-x="1.0001303"
           style="opacity:0.998;fill:#ff6600;fill-opacity:1;stroke-width:0;stroke-linejoin:round;stroke-dashoffset:3.11811"
           id="path84703" />
      </g>
      <g
         id="g84715"
         style="fill:#000080">
        <g
           id="g84707"
           style="fill:#000080" />
        <g
           id="g84709"
           style="fill:#000080" />
        <g
           id="g84713"
           style="fill:#000080">
          <path
             id="path84711"
             style="color:#000000;fill:#000080;stroke-linecap:round;-inkscape-stroke:none"
             d="m 190.906,10.1562 c -0.085,0.0342 -0.154,0.172 -0.154,0.3079 -0.001,0.0657 0.015,0.1224 0.044,0.1574 0.029,0.035 0.069,0.0454 0.11,0.0289 l 2.129,-0.85191 c 0.042,-0.01648 0.081,-0.05846 0.11,-0.11662 0.029,-0.05815 0.045,-0.12768 0.045,-0.19313 0,-0.13581 -0.069,-0.21828 -0.155,-0.18426 z m 0,0.2472 2.13,-0.85215 m -2.13,-0.61086 c -0.085,0.03413 -0.154,0.1719 -0.154,0.3078 0,0.13587 0.069,0.21838 0.154,0.18433 l 2.129,-0.85148 c 0.086,-0.03411 0.155,-0.17181 0.155,-0.30765 0,-0.13581 -0.069,-0.2183 -0.155,-0.18429 z m 0,0.24625 2.13,-0.85167 m -2.13,-0.61042 c -0.085,0.03411 -0.154,0.17186 -0.154,0.30775 0,0.13587 0.069,0.2184 0.154,0.18437 l 2.129,-0.85101 c 0.086,-0.03409 0.155,-0.17178 0.155,-0.30762 0,-0.13581 -0.069,-0.21831 -0.155,-0.18432 z m 0,0.24534 2.13,-0.8512" />
        </g>
      </g>
      <g
         id="g84723"
         transform="matrix(0.61257832,0,0,0.61257832,111.11342,-4.7200308)"
         style="fill:#0000d4">
        <path
           style="fill:#0000d4;fill-opacity:1;stroke-width:0.196025"
           d="m 63.40625,-211.26172 v 2.54883 2.54687 h 1.275391 1.273437 v -2.54687 -2.54883 h -1.273437 z"
           transform="matrix(0.43191756,0,0,0.43191756,80.880355,135.77854)"
           id="path84717" />
        <path
           style="fill:#0000d4;fill-opacity:1;stroke-width:0.196025"
           d="m 63.40625,-219.10352 v 2.54883 2.54883 h 1.275391 1.273437 v -2.54883 -2.54883 h -1.273437 z"
           transform="matrix(0.43191756,0,0,0.43191756,80.880355,135.77854)"
           id="path84719" />
        <path
           style="fill:#0000d4;fill-opacity:1;stroke-width:0.196025"
           d="m 63.40625,-227.14062 v 2.64648 2.64648 h 1.275391 1.273437 v -2.64648 -2.64648 h -1.273437 z"
           transform="matrix(0.43191756,0,0,0.43191756,80.880355,135.77854)"
           id="path84721" />
      </g>
    </g>
  </g>
</svg>
