<?xml version="1.0" encoding="UTF-8" standalone="no"?>
<svg width="128" height="128" viewBox="0 0 33.866663 33.866667" version="1.1" id="svg8" inkscape:version="1.1 (c68e22c387, 2021-05-23)" sodipodi:docname="Icon_Serial Operation_2.svg" xmlns:inkscape="http://www.inkscape.org/namespaces/inkscape" xmlns:sodipodi="http://sodipodi.sourceforge.net/DTD/sodipodi-0.dtd" xmlns="http://www.w3.org/2000/svg" xmlns:svg="http://www.w3.org/2000/svg" xmlns:rdf="http://www.w3.org/1999/02/22-rdf-syntax-ns#" xmlns:cc="http://creativecommons.org/ns#" xmlns:dc="http://purl.org/dc/elements/1.1/">
   <defs id="defs2">
      <linearGradient id="linearGradient2783" inkscape:swatch="solid">
         <stop style="stop-color:#000000;stop-opacity:1;" offset="0" id="stop2781" />
      </linearGradient>
   </defs>
   <sodipodi:namedview inkscape:pagecheckerboard="false" units="px" id="base" pagecolor="#ffffff" bordercolor="#666666" borderopacity="1.0" inkscape:pageopacity="0.0" inkscape:pageshadow="2" inkscape:zoom="2.0000001" inkscape:cx="-94.249997" inkscape:cy="125.75" inkscape:document-units="mm" inkscape:current-layer="g262" inkscape:document-rotation="0" showgrid="false" showguides="true" inkscape:guide-bbox="true" inkscape:window-width="1920" inkscape:window-height="1001" inkscape:window-x="-9" inkscape:window-y="494" inkscape:window-maximized="1">
      <sodipodi:guide id="guide874" orientation="0,128" position="0,33.866665" />
      <sodipodi:guide id="guide876" orientation="128,0" position="33.866665,33.866665" />
      <sodipodi:guide id="guide878" orientation="0,-128" position="33.866665,0" />
      <sodipodi:guide id="guide880" orientation="-128,0" position="0,0" />
      <sodipodi:guide id="guide1105" orientation="0,-1" position="5.6490314,28.223142" />
      <sodipodi:guide id="guide1107" orientation="1,0" position="5.6490314,28.223142" />
      <sodipodi:guide id="guide1109" orientation="0,-1" position="5.6490314,5.6490317" />
      <sodipodi:guide id="guide1111" orientation="1,0" position="28.223139,5.6490317" />
   </sodipodi:namedview>
   <metadata id="metadata5">
      <rdf:RDF>
         <cc:Work rdf:about="">
            <dc:format>image/svg+xml</dc:format>
            <dc:type rdf:resource="http://purl.org/dc/dcmitype/StillImage" />
         </cc:Work>
      </rdf:RDF>
   </metadata>
   <g inkscape:label="Layer 1" inkscape:groupmode="layer" id="layer1" transform="translate(-17.175603,-15.389948)">
      <g style="font-weight:bold;font-size:12.275px;line-height:1.25;font-family:'Sero Pro';-inkscape-font-specification:'Sero Pro Bold';fill:#000080;stroke-width:0.324775" transform="matrix(0.48754067,0,0,0.48754067,22.824635,21.033474)" fill="#000000" id="g262">
         <g id="g3777">
            <path style="fill:#ff6600;fill-opacity:1" d="M 52.089747,52.089745 H 40.514251 v 5.787753 h 11.575496 c 3.183264,0 5.787753,-2.604489 5.787753,-5.787753 V 40.514249 h -5.787753 v 11.575496" id="path399" />
            <path style="fill:#ff6600;fill-opacity:1" d="m -5.7877428,40.514249 h -5.7877532 v 11.575496 c 0,3.183264 2.6044865,5.787753 5.7877532,5.787753 H 5.7877531 V 52.089745 H -5.7877428 V 40.514249" id="path397" />
            <path style="fill:#ff6600;fill-opacity:1" d="M 52.089747,-11.575498 H 40.514251 v 5.7877532 H 52.089747 V 5.787751 H 57.8775 V -5.7877448 c 0,-3.1832668 -2.604489,-5.7877532 -5.787753,-5.7877532" id="path395" />
            <path style="fill:#ff6600;fill-opacity:1" d="M -5.7877428,-5.7877448 H 5.7877531 V -11.575498 H -5.7877428 c -3.1832667,0 -5.7877532,2.6044864 -5.7877532,5.7877532 V 5.787751 h 5.7877532 V -5.7877448" id="path393" />
            <path id="path391" style="fill:#0000d4;stroke-width:0.598454;fill-opacity:1" d="M 21.351562 21.330078 L 21.351562 27.423828 L 21.351562 33.517578 L 21.351562 39.613281 L 21.351562 45.707031 L 21.351562 51.800781 L 21.351562 57.894531 L 21.351562 63.990234 L 21.351562 70.083984 L 21.351562 76.177734 L 21.351562 82.271484 L 21.351562 88.367188 L 21.351562 94.460938 L 21.351562 100.55469 L 21.351562 106.64844 L 27.445312 106.64844 L 33.539062 106.64844 L 39.632812 106.64844 L 45.728516 106.64844 L 51.822266 106.64844 L 57.916016 106.64844 L 64.009766 106.64844 L 70.105469 106.64844 L 76.199219 106.64844 L 82.292969 106.64844 L 88.386719 106.64844 L 94.482422 106.64844 L 100.57617 106.64844 L 106.66992 106.64844 L 106.66992 100.55469 L 100.57617 100.55469 L 94.482422 100.55469 L 94.482422 94.460938 L 88.386719 94.460938 L 82.292969 94.460938 L 82.292969 100.55469 L 76.199219 100.55469 L 76.199219 94.460938 L 76.199219 88.367188 L 82.292969 88.367188 L 82.292969 82.271484 L 76.199219 82.271484 L 76.199219 76.177734 L 82.292969 76.177734 L 82.292969 82.271484 L 88.386719 82.271484 L 94.482422 82.271484 L 94.482422 88.367188 L 100.57617 88.367188 L 100.57617 82.271484 L 106.66992 82.271484 L 106.66992 76.177734 L 100.57617 76.177734 L 94.482422 76.177734 L 94.482422 70.083984 L 100.57617 70.083984 L 106.66992 70.083984 L 106.66992 63.990234 L 100.57617 63.990234 L 94.482422 63.990234 L 88.386719 63.990234 L 88.386719 70.083984 L 82.292969 70.083984 L 82.292969 63.990234 L 76.199219 63.990234 L 76.199219 57.894531 L 76.199219 51.800781 L 82.292969 51.800781 L 82.292969 45.707031 L 76.199219 45.707031 L 70.105469 45.707031 L 64.009766 45.707031 L 57.916016 45.707031 L 51.822266 45.707031 L 51.822266 39.613281 L 45.728516 39.613281 L 39.632812 39.613281 L 39.632812 45.707031 L 39.632812 51.800781 L 45.728516 51.800781 L 51.822266 51.800781 L 51.822266 57.894531 L 57.916016 57.894531 L 57.916016 51.800781 L 64.009766 51.800781 L 70.105469 51.800781 L 70.105469 57.894531 L 64.009766 57.894531 L 64.009766 63.990234 L 64.009766 70.083984 L 70.105469 70.083984 L 70.105469 76.177734 L 70.105469 82.271484 L 64.009766 82.271484 L 64.009766 88.367188 L 70.105469 88.367188 L 70.105469 94.460938 L 64.009766 94.460938 L 64.009766 100.55469 L 57.916016 100.55469 L 51.822266 100.55469 L 51.822266 94.460938 L 45.728516 94.460938 L 45.728516 88.367188 L 39.632812 88.367188 L 39.632812 94.460938 L 33.539062 94.460938 L 27.445312 94.460938 L 27.445312 88.367188 L 33.539062 88.367188 L 33.539062 82.271484 L 33.539062 76.177734 L 27.445312 76.177734 L 27.445312 70.083984 L 27.445312 63.990234 L 33.539062 63.990234 L 39.632812 63.990234 L 39.632812 70.083984 L 45.728516 70.083984 L 45.728516 63.990234 L 51.822266 63.990234 L 51.822266 57.894531 L 45.728516 57.894531 L 39.632812 57.894531 L 39.632812 51.800781 L 33.539062 51.800781 L 33.539062 57.894531 L 27.445312 57.894531 L 27.445312 51.800781 L 27.445312 45.707031 L 33.539062 45.707031 L 33.539062 39.613281 L 33.539062 33.517578 L 33.539062 27.423828 L 27.445312 27.423828 L 27.445312 21.330078 L 21.351562 21.330078 z M 33.539062 27.423828 L 39.632812 27.423828 L 39.632812 21.330078 L 33.539062 21.330078 L 33.539062 27.423828 z M 39.632812 70.083984 L 33.539062 70.083984 L 33.539062 76.177734 L 39.632812 76.177734 L 39.632812 70.083984 z M 45.728516 88.367188 L 51.822266 88.367188 L 51.822266 82.271484 L 57.916016 82.271484 L 57.916016 76.177734 L 64.009766 76.177734 L 64.009766 70.083984 L 57.916016 70.083984 L 51.822266 70.083984 L 51.822266 76.177734 L 45.728516 76.177734 L 45.728516 82.271484 L 45.728516 88.367188 z M 64.009766 94.460938 L 64.009766 88.367188 L 57.916016 88.367188 L 57.916016 94.460938 L 64.009766 94.460938 z M 82.292969 45.707031 L 88.386719 45.707031 L 88.386719 39.613281 L 94.482422 39.613281 L 94.482422 45.707031 L 100.57617 45.707031 L 106.66992 45.707031 L 106.66992 39.613281 L 100.57617 39.613281 L 100.57617 33.517578 L 106.66992 33.517578 L 106.66992 27.423828 L 100.57617 27.423828 L 100.57617 21.330078 L 94.482422 21.330078 L 94.482422 27.423828 L 88.386719 27.423828 L 88.386719 21.330078 L 82.292969 21.330078 L 82.292969 27.423828 L 76.199219 27.423828 L 76.199219 33.517578 L 82.292969 33.517578 L 82.292969 39.613281 L 82.292969 45.707031 z M 76.199219 33.517578 L 70.105469 33.517578 L 70.105469 27.423828 L 64.009766 27.423828 L 64.009766 33.517578 L 64.009766 39.613281 L 70.105469 39.613281 L 76.199219 39.613281 L 76.199219 33.517578 z M 64.009766 27.423828 L 64.009766 21.330078 L 57.916016 21.330078 L 57.916016 27.423828 L 64.009766 27.423828 z M 70.105469 27.423828 L 76.199219 27.423828 L 76.199219 21.330078 L 70.105469 21.330078 L 70.105469 27.423828 z M 82.292969 63.990234 L 88.386719 63.990234 L 88.386719 57.894531 L 82.292969 57.894531 L 82.292969 63.990234 z M 100.57617 88.367188 L 100.57617 94.460938 L 106.66992 94.460938 L 106.66992 88.367188 L 100.57617 88.367188 z M 45.728516 21.330078 L 45.728516 27.423828 L 51.822266 27.423828 L 51.822266 21.330078 L 45.728516 21.330078 z M 94.482422 51.800781 L 94.482422 57.894531 L 100.57617 57.894531 L 106.66992 57.894531 L 106.66992 51.800781 L 100.57617 51.800781 L 94.482422 51.800781 z " transform="matrix(0.54268977,0,0,0.54268977,-11.586791,-11.575498)" />
         </g>
      </g>
   </g>
</svg>