<?xml version="1.0" encoding="UTF-8" standalone="no"?>
<svg
   width="128"
   height="128"
   viewBox="0 0 33.866663 33.866667"
   version="1.1"
   id="svg8"
   inkscape:version="1.1 (c68e22c387, 2021-05-23)"
   sodipodi:docname="Icon_Serialized_2.svg"
   xmlns:inkscape="http://www.inkscape.org/namespaces/inkscape"
   xmlns:sodipodi="http://sodipodi.sourceforge.net/DTD/sodipodi-0.dtd"
   xmlns="http://www.w3.org/2000/svg"
   xmlns:svg="http://www.w3.org/2000/svg"
   xmlns:rdf="http://www.w3.org/1999/02/22-rdf-syntax-ns#"
   xmlns:cc="http://creativecommons.org/ns#"
   xmlns:dc="http://purl.org/dc/elements/1.1/">
  <defs
     id="defs2">
    <linearGradient
       id="linearGradient2783"
       inkscape:swatch="solid">
      <stop
         id="stop2781"
         offset="0"
         style="stop-color:#000000;stop-opacity:1;" />
    </linearGradient>
  </defs>
  <sodipodi:namedview
     inkscape:window-maximized="1"
     inkscape:window-y="-11"
     inkscape:window-x="-11"
     inkscape:window-height="987"
     inkscape:window-width="1920"
     inkscape:guide-bbox="true"
     showguides="true"
     showgrid="false"
     inkscape:document-rotation="0"
     inkscape:current-layer="layer1"
     inkscape:document-units="mm"
     inkscape:cy="-182.43355"
     inkscape:cx="-230.51681"
     inkscape:zoom="0.35355339"
     inkscape:pageshadow="2"
     inkscape:pageopacity="0.0"
     borderopacity="1.0"
     bordercolor="#666666"
     pagecolor="#ffffff"
     id="base"
     units="px"
     inkscape:pagecheckerboard="false" />
  <metadata
     id="metadata5">
    <rdf:RDF>
      <cc:Work
         rdf:about="">
        <dc:format>image/svg+xml</dc:format>
        <dc:type
           rdf:resource="http://purl.org/dc/dcmitype/StillImage" />
      </cc:Work>
    </rdf:RDF>
  </metadata>
  <g
     transform="translate(-17.1756, -15.3899)"
     id="layer1"
     inkscape:groupmode="layer"
     inkscape:label="Layer 1">
    <g
       id="path1278" />
    <g
       id="path1280" />
    <g
       id="path1282" />
    <g
       id="path1284" />
    <g
       id="g27188">
      <path
         id="path2089"
         style="fill:#000080;stroke-width:0.772403"
         d="m 23.893816,30.758802 v -1.367401 l 1.084672,0.449206 v 1.366721 z m 1.084672,5.9161 v -1.366721 l 1.091023,0.44855 v 1.366721 z m 3.266718,-5.487981 1.084712,0.448549 v 1.366039 L 28.245206,32.55296 Z m 1.084712,1.814578 1.090973,0.44855 v 1.366039 l -1.090973,-0.447844 z m 0,5.465524 1.090973,0.447845 v 1.366039 l -1.090973,-0.447188 z m 1.090973,-0.918181 -2.175685,-0.896399 v 4.100161 l 2.175685,0.894356 v 1.366721 l -8.70907,-3.580834 V 28.493641 l 1.090982,0.448549 v 1.367401 l 1.091013,0.449206 v 2.734121 l -1.091013,-0.44855 v 1.367401 l 1.091013,0.447845 v 1.367401 l 1.084672,0.447845 v 1.3674 l 1.091023,0.447846 v 1.366724 l 1.084712,0.447845 V 38.937954 L 26.069511,38.49011 v -1.36672 l 1.084712,0.447844 V 34.83779 l -2.175735,-0.896399 v -2.73412 l 1.091023,0.448549 V 30.2891 l 1.084712,0.449207 v 2.732759 l 1.090983,0.448548 v 1.366725 l 2.175685,0.895718 z" />
      <path
         id="path8196"
         style="color:#000000;fill:#0000d4;stroke-width:1.01846;stroke-linecap:round;-inkscape-stroke:none;fill-opacity:1"
         d="m 32.876331,15.70707 -15.028179,5.981403 c -0.0043,0.0025 -0.0087,0.0049 -0.013,0.0074 -0.02493,0.01216 -0.04941,0.0253 -0.07334,0.03941 -0.03539,0.01789 -0.06977,0.0378 -0.102987,0.05964 -0.02144,0.01254 -0.04242,0.02587 -0.06294,0.03994 -0.02027,0.01769 -0.03988,0.03617 -0.05878,0.05538 -0.03057,0.02737 -0.05958,0.05654 -0.08686,0.08733 -0.01763,0.01802 -0.03463,0.03667 -0.05097,0.05592 -0.0139,0.02099 -0.0271,0.04249 -0.03953,0.06443 -0.02429,0.03674 -0.04636,0.07498 -0.06606,0.114497 -0.01143,0.02058 -0.02218,0.04153 -0.03225,0.06284 -0.0024,0.0043 -0.0049,0.0085 -0.0073,0.01279 -0.0056,0.01974 -0.0106,0.03962 -0.01507,0.05964 -0.01497,0.04406 -0.02713,0.08906 -0.03641,0.134731 -0.0052,0.02009 -0.0099,0.04034 -0.01403,0.06071 -0.0021,0.02639 -0.0034,0.05286 -0.0036,0.07935 -0.0039,0.02402 -0.0071,0.04818 -0.0094,0.07243 v 18.752041 c -2.4e-5,0.439718 0.260444,0.835512 0.658504,1.000627 l 16.18534,6.73067 c 0.01345,0.0038 0.02698,0.0074 0.04057,0.01066 0.0621,0.02315 0.126184,0.04026 0.191413,0.05112 0.029,0.0041 0.05816,0.0069 0.08739,0.0085 0.02573,0.0037 0.05158,0.0063 0.0775,0.008 0.03133,-0.0016 0.06257,-0.0046 0.09363,-0.0091 0.02591,-0.0016 0.05177,-0.0044 0.0775,-0.008 0.08153,-0.01276 0.161306,-0.03529 0.237706,-0.0671 7.99e-4,-1.8e-4 0.0013,-2.73e-4 0.0021,-5.46e-4 l 15.570011,-6.73067 c 0.390653,-0.168542 0.644738,-0.560216 0.644978,-0.994235 V 22.694937 c -7.99e-4,-0.0062 -0.0016,-0.01243 -0.0027,-0.01865 -1.91e-4,-0.01955 -7.98e-4,-0.03908 -0.0021,-0.05858 v -5.45e-4 -0.0016 c -0.0021,-0.02906 -0.0054,-0.05802 -0.0099,-0.0868 -0.0011,-0.0071 -0.0024,-0.01421 -0.0036,-0.02129 -0.004,-0.02413 -0.0089,-0.0481 -0.01457,-0.07189 -2.66e-4,-0.0014 -7.99e-4,-0.0028 -0.0011,-0.0043 -2.67e-4,-8.18e-4 -7.99e-4,-0.0019 -0.0011,-0.0027 v -0.0016 c -0.0024,-0.0084 -0.0047,-0.01671 -0.0073,-0.02503 -0.005,-0.01898 -0.0106,-0.03779 -0.01665,-0.05645 -2.66e-4,-0.0014 -7.99e-4,-0.0028 -0.0011,-0.0043 -0.0024,-0.0064 -0.0048,-0.01279 -0.0073,-0.01917 -0.0055,-0.01611 -0.01143,-0.0321 -0.01768,-0.04793 -7.98e-4,-0.0016 -0.0019,-0.0032 -0.0027,-0.0048 -0.0147,-0.03495 -0.03119,-0.06908 -0.04941,-0.102246 -0.0054,-0.0093 -0.01097,-0.01854 -0.01665,-0.02769 -0.0196,-0.03347 -0.04096,-0.06582 -0.06398,-0.09692 -0.0043,-0.0061 -0.0086,-0.01211 -0.013,-0.0181 -0.0228,-0.02969 -0.04711,-0.05813 -0.07282,-0.0852 -0.0058,-0.0058 -0.01172,-0.01143 -0.01768,-0.01704 -0.02913,-0.02895 -0.05987,-0.05616 -0.09206,-0.08148 -0.0043,-0.0036 -0.0086,-0.0071 -0.013,-0.01066 -0.03088,-0.02361 -0.06301,-0.04548 -0.09623,-0.0655 -0.0054,-0.0031 -0.01071,-0.0061 -0.01611,-0.0091 -0.03617,-0.02089 -0.07351,-0.03955 -0.111833,-0.05591 -0.005,-0.0022 -0.01004,-0.0043 -0.01507,-0.0064 -0.005,-0.0025 -0.01004,-0.0047 -0.01507,-0.0069 -5.12291,-1.995931 -8.994762,-3.503202 -15.368733,-5.987797 -1.058332,-0.412541 -1.057318,-0.412944 -2.116667,0.0087 z m 1.068215,1.891559 13.213233,5.148517 -12.749263,5.512769 -13.322986,-5.543124 z m -14.659757,6.699784 14.078236,5.856784 V 46.575812 L 19.284789,40.720628 Z m 29.647725,0.02397 V 40.730746 L 35.472211,46.550253 V 30.143484 Z"
         sodipodi:nodetypes="sccccccccccccccccccccccccccccccccccccccccccccccccccccccccccccssccccccccccccccc" />
      <path
         style="fill:#999999;fill-opacity:1;stroke:none;stroke-width:0.269466px;stroke-linecap:butt;stroke-linejoin:miter;stroke-opacity:1"
         d="M 21.085529,22.716791 34.408518,28.259914 47.157781,22.747143 33.94454,17.598628 Z"
         id="path8198" />
      <path
         style="fill:#000080;fill-opacity:1;stroke:none;stroke-width:2.79947;stroke-linecap:square;stroke-miterlimit:4;stroke-dasharray:none;stroke-dashoffset:3.11811;stroke-opacity:1;paint-order:markers stroke fill"
         d="m 69.306599,86.679295 0.01013,-30.817859 24.969127,-10.783379 c 13.733024,-5.930858 25.104924,-10.836703 25.270884,-10.901879 0.16597,-0.06518 0.2611,13.756225 0.21142,30.714221 l -0.0903,30.832721 -12.9047,5.57244 c -7.097586,3.06484 -18.433391,7.964 -25.19068,10.88702 l -12.285981,5.31457 z"
         id="path25540"
         transform="matrix(0.26458333,0,0,0.26458333,17.1756,15.3899)" />
      <g
         aria-label="Serialized"
         id="text24376"
         style="font-weight:bold;font-size:10px;line-height:1.25;font-family:'Sero Pro';-inkscape-font-specification:'Sero Pro Bold';fill:#ffffff;stroke-width:0.264583"
         transform="matrix(0.560384 0 0 0.560384 17.6695 21.7387)">
        <path
           d="M 34.8641 33.2752 L 35.027 31.2718 C 35.3442 31.7153 35.6186 31.8867 35.8502 31.7862 C 36.0045 31.7192 36.1246 31.5605 36.2103 31.3101 C 36.2989 31.0488 36.3432 30.7389 36.3432 30.3805 C 36.3432 30.1092 36.3175 29.8927 36.266 29.731 C 36.2146 29.5596 36.1474 29.4338 36.0645 29.3535 C 35.9845 29.272 35.8945 29.2046 35.7944 29.1512 C 35.6944 29.088 35.5943 29.0055 35.4943 28.9037 C 35.3943 28.8018 35.3028 28.6672 35.2199 28.4997 C 35.1399 28.331 35.0741 28.0835 35.0227 27.7571 C 34.9712 27.421 34.9455 27.0156 34.9455 26.5409 C 34.9455 25.5431 35.0484 24.7041 35.2542 24.0237 C 35.46 23.3337 35.7301 22.9161 36.0645 22.7708 C 36.3875 22.6305 36.6834 22.7732 36.9521 23.199 L 36.7891 25.3042 C 36.5319 24.8347 36.2918 24.6484 36.0688 24.7452 C 35.9373 24.8023 35.833 24.9494 35.7558 25.1863 C 35.6815 25.4123 35.6444 25.69 35.6444 26.0194 C 35.6444 26.3101 35.6787 26.5373 35.7473 26.7013 C 35.8159 26.8653 35.9016 26.9733 36.0045 27.0255 C 36.1103 27.0668 36.2232 27.1388 36.3432 27.2417 C 36.4633 27.3445 36.5747 27.4705 36.6777 27.6196 C 36.7834 27.7577 36.8706 28.0105 36.9392 28.3779 C 37.0078 28.7453 37.0421 29.2099 37.0421 29.7718 C 37.0421 30.8084 36.9335 31.679 36.7162 32.3837 C 36.5019 33.0871 36.216 33.5164 35.8587 33.6715 C 35.4957 33.8292 35.1642 33.6971 34.8641 33.2752 Z"
           id="path25284"
           style="fill:#ffffff" />
        <path
           d="M 38.4227 26.3966 C 38.3141 26.4438 38.2255 26.6179 38.1569 26.919 C 38.0883 27.22 38.0483 27.6395 38.0368 28.1773 L 38.7572 27.8644 C 38.7572 26.7891 38.6457 26.2998 38.4227 26.3966 Z M 39.3746 28.9477 L 38.0454 29.525 C 38.0911 30.532 38.2626 30.971 38.5599 30.8419 C 38.7343 30.7662 38.9487 30.489 39.2031 30.0104 L 39.3317 31.5385 C 39.0659 32.0705 38.7757 32.4048 38.4613 32.5414 C 38.1097 32.694 37.8339 32.4941 37.6338 31.9416 C 37.4366 31.3879 37.3379 30.4958 37.3379 29.2655 C 37.3379 27.9964 37.4394 26.969 37.6424 26.1834 C 37.8482 25.3965 38.114 24.9322 38.4399 24.7907 C 38.7371 24.6616 38.9701 24.8704 39.1388 25.4172 C 39.3074 25.9543 39.3917 26.8283 39.3917 28.0393 C 39.3917 28.3784 39.386 28.6812 39.3746 28.9477 Z"
           id="path25286"
           style="fill:#ffffff" />
        <path
           d="M 41.2184 23.6275 L 41.2184 25.6329 C 41.1927 25.6344 41.1469 25.6494 41.0812 25.678 C 40.8725 25.7686 40.6781 26.1243 40.498 26.7451 L 40.498 31.4825 L 39.8077 31.7823 L 39.8077 24.371 L 40.498 24.0711 L 40.498 25.1901 C 40.6409 24.2658 40.8382 23.749 41.0897 23.6397 C 41.1412 23.6174 41.1841 23.6133 41.2184 23.6275 Z"
           id="path25288"
           style="fill:#ffffff" />
        <path
           d="M 42.1918 20.3999 C 42.2632 20.5917 42.299 20.8668 42.299 21.2253 C 42.299 21.5838 42.2632 21.8948 42.1918 22.1584 C 42.1231 22.411 42.0302 22.5628 41.913 22.6137 C 41.7958 22.6646 41.7015 22.5941 41.63 22.4023 C 41.5586 22.2009 41.5228 21.9209 41.5228 21.5624 C 41.5228 21.204 41.5586 20.8978 41.63 20.6439 C 41.7015 20.3804 41.7958 20.2231 41.913 20.1722 C 42.0302 20.1213 42.1231 20.1972 42.1918 20.3999 Z M 41.5657 31.0189 L 41.5657 23.6074 L 42.2561 23.3075 L 42.2561 30.7191 Z"
           id="path25290"
           style="fill:#ffffff" />
        <path
           d="M 43.5768 24.347 C 43.4081 24.4203 43.1894 24.709 42.9207 25.2133 L 42.7921 23.5543 C 43.1065 22.9817 43.4181 22.6284 43.7269 22.4943 C 44.0156 22.3689 44.2343 22.4822 44.383 22.8343 C 44.5345 23.185 44.6103 23.8594 44.6103 24.8573 L 44.6103 28.0109 C 44.6103 28.9217 44.6246 29.4774 44.6532 29.6781 L 44.0013 29.9612 C 43.9728 29.8283 43.9542 29.5747 43.9456 29.2006 C 43.7741 29.9145 43.5682 30.3236 43.3281 30.4279 C 43.1366 30.5111 42.9793 30.3759 42.8564 30.0224 C 42.7363 29.6676 42.6763 29.1221 42.6763 28.3858 C 42.6763 26.7291 42.9951 25.7623 43.6326 25.4854 C 43.7412 25.4382 43.8427 25.4135 43.937 25.4113 L 43.937 25.3241 C 43.937 24.9172 43.907 24.6396 43.847 24.4913 C 43.7898 24.3417 43.6997 24.2936 43.5768 24.347 Z M 43.5811 28.6468 C 43.6897 28.5996 43.8084 28.3834 43.937 27.9981 L 43.937 26.7338 C 43.8656 26.7164 43.7984 26.7213 43.7355 26.7487 C 43.5954 26.8095 43.4953 26.9305 43.4353 27.1115 C 43.3781 27.2914 43.3495 27.5412 43.3495 27.8609 C 43.3495 28.4519 43.4267 28.7138 43.5811 28.6468 Z"
           id="path25292"
           style="fill:#ffffff" />
        <path
           d="M 45.1077 29.4807 L 45.1077 19.0171 L 45.7981 18.7172 L 45.7981 29.1809 Z"
           id="path25294"
           style="fill:#ffffff" />
        <path
           d="M 46.9989 18.3119 C 47.0704 18.5036 47.1061 18.7788 47.1061 19.1373 C 47.1061 19.4958 47.0704 19.8068 46.9989 20.0704 C 46.9303 20.323 46.8374 20.4748 46.7201 20.5257 C 46.6029 20.5766 46.5086 20.5062 46.4371 20.3144 C 46.3656 20.1129 46.3299 19.8329 46.3299 19.4744 C 46.3299 19.1159 46.3656 18.8098 46.4371 18.5559 C 46.5086 18.2923 46.6029 18.1351 46.7201 18.0841 C 46.8374 18.0332 46.9303 18.1091 46.9989 18.3119 Z M 46.3728 28.9314 L 46.3728 21.5195 L 47.0632 21.2196 L 47.0632 28.6315 Z"
           id="path25296"
           style="fill:#ffffff" />
        <path
           d="M 47.4449 28.4658 L 47.4449 26.9979 L 48.487 22.3016 L 47.5092 22.7263 L 47.5092 21.0259 L 49.3405 20.2305 L 49.3405 21.6548 L 48.2983 26.3512 L 49.3491 25.8949 L 49.3491 27.6389 Z"
           id="path25298"
           style="fill:#ffffff" />
        <path
           d="M 50.7 21.0643 C 50.5914 21.1115 50.5027 21.2856 50.4341 21.5867 C 50.3655 21.8878 50.3255 22.3073 50.314 22.8452 L 51.0346 22.5323 C 51.0346 21.4568 50.923 20.9674 50.7 21.0643 Z M 51.6522 23.6157 L 50.3226 24.1931 C 50.3684 25.2003 50.5399 25.6393 50.8373 25.5102 C 51.0117 25.4344 51.2261 25.1572 51.4806 24.6785 L 51.6093 26.2068 C 51.3434 26.7389 51.0531 27.0733 50.7386 27.2099 C 50.3869 27.3626 50.111 27.1627 49.9109 26.6101 C 49.7136 26.0563 49.615 25.1641 49.615 23.9336 C 49.615 22.6644 49.7165 21.6368 49.9195 20.8511 C 50.1253 20.064 50.3912 19.5997 50.7172 19.4581 C 51.0145 19.329 51.2476 19.5378 51.4163 20.0847 C 51.585 20.6218 51.6693 21.496 51.6693 22.7071 C 51.6693 23.0463 51.6636 23.3491 51.6522 23.6157 Z"
           id="path25300"
           style="fill:#ffffff" />
        <path
           d="M 53.4535 25.8565 C 53.425 25.7429 53.4049 25.4416 53.3935 24.9524 C 53.2162 25.7657 53.0046 26.2258 52.7587 26.3326 C 52.5157 26.4382 52.3212 26.198 52.1754 25.6121 C 52.0296 25.0166 51.9567 24.1278 51.9567 22.9457 C 51.9567 21.6861 52.0382 20.6672 52.2011 19.8891 C 52.367 19.1001 52.5743 18.6515 52.8231 18.5435 C 53.0518 18.4441 53.2405 18.6964 53.3892 19.3004 L 53.3892 15.4198 L 54.0798 15.1199 L 54.0798 23.8986 C 54.0798 24.8094 54.0941 25.3652 54.1227 25.5659 Z M 53.0203 24.4313 C 53.1404 24.3791 53.2634 24.1174 53.3892 23.6461 L 53.3892 20.812 C 53.2634 20.4694 53.1433 20.3229 53.0289 20.3726 C 52.9117 20.4235 52.8188 20.6334 52.7501 21.0023 C 52.6815 21.3616 52.6472 21.89 52.6472 22.5877 C 52.6472 23.2659 52.6801 23.7555 52.7459 24.0564 C 52.8145 24.356 52.906 24.481 53.0203 24.4313 Z"
           id="path25302"
           style="fill:#ffffff" />
      </g>
    </g>
  </g>
</svg>
