<?xml version="1.0" encoding="UTF-8" standalone="no"?>
<svg
   sodipodi:docname="Icon_Show_Status_2.svg"
   inkscape:version="1.1 (c68e22c387, 2021-05-23)"
   id="svg8"
   version="1.1"
   viewBox="0 0 33.866663 33.866667"
   height="128"
   width="128"
   xmlns:inkscape="http://www.inkscape.org/namespaces/inkscape"
   xmlns:sodipodi="http://sodipodi.sourceforge.net/DTD/sodipodi-0.dtd"
   xmlns="http://www.w3.org/2000/svg"
   xmlns:svg="http://www.w3.org/2000/svg"
   xmlns:rdf="http://www.w3.org/1999/02/22-rdf-syntax-ns#"
   xmlns:cc="http://creativecommons.org/ns#"
   xmlns:dc="http://purl.org/dc/elements/1.1/">
  <defs
     id="defs2">
    <linearGradient
       id="linearGradient2783"
       inkscape:swatch="solid">
      <stop
         id="stop2781"
         offset="0"
         style="stop-color:#000000;stop-opacity:1;" />
    </linearGradient>
  </defs>
  <sodipodi:namedview
     inkscape:window-maximized="1"
     inkscape:window-y="492"
     inkscape:window-x="-11"
     inkscape:window-height="987"
     inkscape:window-width="1920"
     inkscape:guide-bbox="true"
     showguides="true"
     showgrid="false"
     inkscape:document-rotation="0"
     inkscape:current-layer="layer1"
     inkscape:document-units="mm"
     inkscape:cy="18.031222"
     inkscape:cx="-152.73506"
     inkscape:zoom="1.4142136"
     inkscape:pageshadow="2"
     inkscape:pageopacity="0.0"
     borderopacity="1.0"
     bordercolor="#666666"
     pagecolor="#ffffff"
     id="base"
     units="px"
     inkscape:pagecheckerboard="false">
    <sodipodi:guide
       position="0,33.866665"
       orientation="0,128"
       id="guide874" />
    <sodipodi:guide
       position="33.866665,33.866665"
       orientation="128,0"
       id="guide876" />
    <sodipodi:guide
       position="33.866665,0"
       orientation="0,-128"
       id="guide878" />
    <sodipodi:guide
       position="0,0"
       orientation="-128,0"
       id="guide880" />
    <sodipodi:guide
       position="5.6490314,28.223142"
       orientation="0,-1"
       id="guide1105" />
    <sodipodi:guide
       position="5.6490314,28.223142"
       orientation="1,0"
       id="guide1107" />
    <sodipodi:guide
       position="5.6490314,5.6490317"
       orientation="0,-1"
       id="guide1109" />
    <sodipodi:guide
       position="28.223139,5.6490317"
       orientation="1,0"
       id="guide1111" />
  </sodipodi:namedview>
  <metadata
     id="metadata5">
    <rdf:RDF>
      <cc:Work
         rdf:about="">
        <dc:format>image/svg+xml</dc:format>
        <dc:type
           rdf:resource="http://purl.org/dc/dcmitype/StillImage" />
        <dc:title />
      </cc:Work>
    </rdf:RDF>
  </metadata>
  <g
     transform="translate(-17.175603,-15.389948)"
     id="layer1"
     inkscape:groupmode="layer"
     inkscape:label="Layer 1">
    <g
       id="g896">
      <path
         d="m 31.971161,15.323374 c -0.09598,-0.007 -1.975463,0.913606 -7.247123,3.550153 -6.77016,3.38599 -7.400785,3.717714 -7.514301,3.956891 -0.09909,0.208847 -0.114027,1.841014 -0.09186,10.067321 l 0.02229,8.159175 0.0763,0.08145 c 0.151033,0.161019 1.691428,1.038164 5.879565,3.348856 5.978303,3.298361 8.494387,4.651841 8.82376,4.745987 0.05381,0.01541 0.199182,-0.04289 0.502201,-0.200776 0.413141,-0.215266 1.458544,-0.828254 3.105026,-1.808019 a 9.8305143,9.8305143 0 0 1 -1.217107,-0.859653 c -0.508023,0.301161 -1.252786,0.744538 -1.408548,0.833711 -0.172708,0.09887 -0.193328,0.103584 -0.224641,0.05033 -0.01466,-0.02494 -0.0257,-1.11446 -0.03474,-2.653664 a 9.8305143,9.8305143 0 0 1 -1.347839,-2.563392 c -0.004,2.856357 -0.01877,5.156113 -0.04257,5.272048 -0.01908,0.09243 0.275531,0.241417 -2.300359,-1.163149 h -5.32e-4 C 26.90056,45.022752 24.453888,43.680272 21.086191,41.826296 l -2.546273,-1.4018 -0.02179,-0.220489 c -0.02861,-0.287723 -0.02871,-15.116454 0,-15.568683 0.01707,-0.269392 0.03333,-0.348143 0.07419,-0.355897 0.02881,-0.0054 0.662971,0.29326 1.409582,0.664065 l 1.357698,0.67444 0.01295,2.643807 c 0.01004,1.930875 0.0247,2.685887 0.05552,2.797891 0.02319,0.08437 0.09427,0.224601 0.158231,0.311799 0.06405,0.0872 0.175368,0.306706 0.247471,0.487672 0.110684,0.277902 0.164355,0.362167 0.343448,0.542147 0.179404,0.180278 0.248485,0.22432 0.447717,0.285859 0.293663,0.0907 0.511618,0.09139 0.879893,0.0031 0.158412,-0.03798 0.301202,-0.069 0.317506,-0.069 0.01637,0 0.06355,0.101538 0.104792,0.225678 0.18097,0.543809 0.727214,0.986758 1.216584,0.986758 0.07158,0 0.25974,-0.03149 0.418161,-0.07004 0.158422,-0.03852 0.443923,-0.0796 0.634491,-0.09131 0.370102,-0.02274 0.416414,-0.03718 0.609592,-0.191956 l 0.123987,-0.09961 0.02339,-2.068977 c 0.02359,-2.102375 0.04427,-2.701929 0.09497,-2.783883 0.02138,-0.03462 0.535542,0.209404 2.120332,1.005954 l 2.092843,1.051608 0.02279,4.988266 a 9.8305143,9.8305143 0 0 1 1.362889,-2.598151 l 0.01968,-2.391671 6.366195,-3.190622 c 3.501382,-1.755071 6.376415,-3.191141 6.388512,-3.191141 0.01004,0 0.01717,2.705998 0.01968,6.045581 a 9.8305143,9.8305143 0 0 1 1.374303,0.945773 c 0.004,-3.174256 0.002,-6.20692 -0.01456,-6.875662 -0.03925,-1.611717 -0.02088,-1.534964 -0.422829,-1.781561 -0.464965,-0.285268 -1.946259,-1.041669 -6.773454,-3.459885 -4.801313,-2.405239 -7.525856,-3.744887 -7.633629,-3.752999 z m 0.006,1.498812 c 0.110675,0 1.984428,0.902031 2.189855,1.054208 0.06746,0.0499 0.06756,0.0506 -10e-4,0.102201 -0.204804,0.153824 -2.469823,1.381843 -5.491533,2.977395 -4.695026,2.479112 -6.602863,3.482489 -6.626647,3.485303 -0.01446,0.0017 -0.431995,-0.200036 -0.928132,-0.448243 -1.030956,-0.515767 -1.511261,-0.774755 -1.605682,-0.865879 -0.06425,-0.06207 -0.06345,-0.06484 0.0519,-0.135406 0.179434,-0.109976 10.34511,-5.197403 11.419838,-5.715105 0.518556,-0.24979 0.964596,-0.454474 0.991431,-0.454474 z m 3.927836,1.940316 c 0.104389,0 2.927017,1.419089 2.912028,1.464055 -0.007,0.02118 -0.30835,0.19347 -0.669256,0.382873 -1.038456,0.544989 -11.806968,5.946447 -11.857186,5.947531 -0.0248,5.31e-4 -0.587254,-0.271041 -1.249784,-0.603884 -0.662541,-0.332842 -1.247356,-0.638938 -1.299079,-0.679628 -0.154376,-0.121426 -0.591772,0.129763 4.031593,-2.309699 5.436968,-2.868749 8.015849,-4.201248 8.131684,-4.201248 z m 4.584121,2.234991 0.943693,0.475743 c 1.557121,0.784636 3.047922,1.568572 3.05003,1.604131 10e-4,0.01836 -0.183791,0.132235 -0.410892,0.253174 -0.711472,0.378892 -12.05215,6.066473 -12.0979,6.067371 -0.02389,4.51e-4 -0.670692,-0.312698 -1.437602,-0.69623 -1.787094,-0.893745 -2.589664,-1.323244 -2.589854,-1.385716 -7.1e-5,-0.02193 6.308368,-3.206052 10.298708,-5.19838 z m -17.656857,5.387226 c 0.02209,0 0.652129,0.303191 1.399723,0.673922 l 1.359255,0.674441 -0.009,2.312293 -0.009,2.312813 -0.08664,0.02386 c -0.04769,0.01332 -0.128454,0.02559 -0.180017,0.0275 -0.08664,0.0032 -0.09969,-0.01405 -0.164465,-0.231903 -0.124288,-0.417308 -0.34898,-0.677807 -0.738247,-0.856021 -0.297468,-0.136189 -0.538243,-0.145606 -0.93748,-0.03683 -0.18596,0.05065 -0.351519,0.08375 -0.367823,0.07367 -0.01637,-0.0099 -0.04016,-0.07722 -0.05341,-0.148896 -0.01285,-0.07165 -0.09497,-0.28159 -0.181583,-0.466402 l -0.157708,-0.335663 0.01867,-1.93357 c 0.01004,-1.063336 0.02962,-1.968514 0.04307,-2.011389 0.01285,-0.04288 0.04227,-0.07783 0.06435,-0.07783 z"
         style="fill:#0000d4;fill-opacity:1;stroke-width:0.0346467"
         id="path1267-9-3" />
      <path
         d="m 40.495054,30.355099 a 8.4336192,8.4336192 0 0 0 -5.884234,2.470009 8.4336192,8.4336192 0 0 0 0,11.926701 8.4336192,8.4336192 0 0 0 10.858496,0.90427 l 3.345741,3.345226 c 0.429234,0.429226 1.120427,0.429229 1.549662,0 l 0.422297,-0.422304 c 0.429235,-0.429229 0.429225,-1.120428 0,-1.549657 L 47.441787,43.683601 A 8.4336192,8.4336192 0 0 0 46.537518,32.825108 8.4336192,8.4336192 0 0 0 40.495054,30.355099 Z m 0.09598,1.460942 a 6.9726772,6.9726772 0 0 1 4.913564,2.041998 6.9726772,6.9726772 0 0 1 0,9.860839 6.9726772,6.9726772 0 0 1 -9.86084,0 6.9726772,6.9726772 0 0 1 0,-9.860839 6.9726772,6.9726772 0 0 1 4.947276,-2.041998 z"
         style="opacity:0.998;fill:#ff6600;fill-opacity:1;stroke-width:0.301182"
         id="path858" />
      <path
         d="m 44.110704,42.324991 h 0.589413 v 0.589413 h -0.589413 z m -0.589413,0 h 0.589413 v 0.589413 h -0.589413 z m -0.589414,0 h 0.589414 v 0.589413 h -0.589414 z m -0.589393,0 h 0.589414 v 0.589413 h -0.589414 z m -0.589413,0 h 0.589413 v 0.589413 h -0.589413 z m -0.589413,0 h 0.589413 v 0.589413 h -0.589413 z m -0.589413,0 h 0.589413 v 0.589413 h -0.589413 z m -0.589414,0 h 0.589414 v 0.589413 h -0.589414 z m -0.589413,0 h 0.589413 v 0.589413 h -0.589413 z m -0.589413,0 h 0.589413 v 0.589413 h -0.589413 z m -0.589393,0 h 0.589413 v 0.589413 h -0.589413 z m -0.589413,0 h 0.589413 v 0.589413 h -0.589413 z m -0.589414,0 h 0.589414 v 0.589413 h -0.589414 z m -0.589413,0 h 0.589413 v 0.589413 h -0.589413 z m 6.483505,-0.589413 h 0.589414 v 0.589413 h -0.589414 z m -0.589393,0 h 0.589414 v 0.589413 h -0.589414 z m -1.178826,0 h 0.589413 v 0.589413 h -0.589413 z m -0.589413,0 h 0.589413 v 0.589413 h -0.589413 z m -1.76824,0 h 0.589413 v 0.589413 h -0.589413 z m -0.589393,0 h 0.589413 v 0.589413 h -0.589413 z m -0.589413,0 h 0.589413 v 0.589413 h -0.589413 z m -0.589414,0 h 0.589414 v 0.589413 h -0.589414 z m -0.589413,0 h 0.589413 v 0.589413 h -0.589413 z m 7.662332,-0.589413 h 0.589413 v 0.589413 h -0.589413 z m -2.947046,0 h 0.589413 v 0.589413 h -0.589413 z m -1.178827,0 h 0.589414 v 0.589413 h -0.589414 z m -1.768219,0 h 0.589413 v 0.589413 h -0.589413 z m -1.76824,0 h 0.589413 v 0.589413 h -0.589413 z m 7.072919,-0.589396 h 0.589413 v 0.589412 h -0.589413 z m -1.76822,0 h 0.589413 v 0.589412 h -0.589413 z m -0.589413,0 h 0.589413 v 0.589412 h -0.589413 z m -0.589413,0 h 0.589413 v 0.589412 h -0.589413 z m -1.76824,0 h 0.589413 v 0.589412 h -0.589413 z m -1.76822,0 h 0.589414 v 0.589412 h -0.589414 z m -0.589413,0 h 0.589413 v 0.589412 h -0.589413 z m 7.662332,-0.589412 h 0.589413 v 0.589413 h -0.589413 z m -0.589413,0 h 0.589413 v 0.589413 h -0.589413 z m -0.589414,0 h 0.589414 v 0.589413 h -0.589414 z m -0.589393,0 h 0.589414 v 0.589413 h -0.589414 z m -1.178826,0 h 0.589413 v 0.589413 h -0.589413 z m -1.76824,0 h 0.589413 v 0.589413 h -0.589413 z m -0.589413,0 h 0.589413 v 0.589413 h -0.589413 z m -1.76822,0 h 0.589414 v 0.589413 h -0.589414 z m -0.589413,0 h 0.589413 v 0.589413 h -0.589413 z m 6.483505,-0.589411 h 0.589414 v 0.589411 h -0.589414 z m -0.589393,0 h 0.589414 v 0.589411 h -0.589414 z m -0.589413,0 h 0.589413 v 0.589411 h -0.589413 z m -0.589413,0 h 0.589413 v 0.589411 h -0.589413 z m -1.178827,0 h 0.589414 v 0.589411 h -0.589414 z m -0.589413,0 h 0.589413 v 0.589411 h -0.589413 z m -1.768219,0 h 0.589413 v 0.589411 h -0.589413 z m -1.178827,0 h 0.589413 v 0.589411 h -0.589413 z m 7.662332,-0.589414 h 0.589413 v 0.589414 h -0.589413 z m -0.589413,0 h 0.589413 v 0.589414 h -0.589413 z m -0.589414,0 h 0.589414 v 0.589414 h -0.589414 z m -1.178806,0 h 0.589413 v 0.589414 h -0.589413 z m -0.589413,0 h 0.589413 v 0.589414 h -0.589413 z m -0.589413,0 h 0.589413 v 0.589414 h -0.589413 z m -2.357633,0 h 0.589413 v 0.589414 h -0.589413 z m -1.76824,0 h 0.589413 v 0.589414 h -0.589413 z m 5.894112,-0.589413 h 0.589414 v 0.589414 h -0.589414 z m -1.178826,0 h 0.589413 v 0.589414 h -0.589413 z m -0.589413,0 h 0.589413 v 0.589414 h -0.589413 z m -1.76824,0 h 0.589413 v 0.589414 h -0.589413 z m -0.589393,0 h 0.589413 v 0.589414 h -0.589413 z m -0.589413,0 h 0.589413 v 0.589414 h -0.589413 z m -0.589414,0 h 0.589414 v 0.589414 h -0.589414 z m -0.589413,0 h 0.589413 v 0.589414 h -0.589413 z m 7.662332,-0.589412 h 0.589413 v 0.589412 h -0.589413 z m -0.589413,0 h 0.589413 v 0.589412 h -0.589413 z m -2.357633,0 h 0.589413 v 0.589412 h -0.589413 z m -1.76824,0 h 0.589413 v 0.589412 h -0.589413 z m -1.768219,0 h 0.589413 v 0.589412 h -0.589413 z m -1.178827,0 h 0.589413 v 0.589412 h -0.589413 z m 5.304699,-0.589412 h 0.589413 v 0.589412 h -0.589413 z m -0.589413,0 h 0.589413 v 0.589412 h -0.589413 z m -0.589413,0 h 0.589413 v 0.589412 h -0.589413 z m -0.589414,0 h 0.589414 v 0.589412 h -0.589414 z m -0.589413,0 h 0.589413 v 0.589412 h -0.589413 z m -0.589413,0 h 0.589413 v 0.589412 h -0.589413 z m -0.589393,0 h 0.589413 v 0.589412 h -0.589413 z m -1.76824,0 h 0.589413 v 0.589412 h -0.589413 z m 7.662332,-0.589394 h 0.589413 v 0.589412 h -0.589413 z m -0.589413,0 h 0.589413 v 0.589412 h -0.589413 z m -1.178807,0 h 0.589414 v 0.589412 h -0.589414 z m -3.536479,0 h 0.589413 v 0.589412 h -0.589413 z m -0.589393,0 h 0.589413 v 0.589412 h -0.589413 z m -1.178827,0 h 0.589414 v 0.589412 h -0.589414 z m -0.589413,0 h 0.589413 v 0.589412 h -0.589413 z m 7.072919,-0.589413 h 0.589413 v 0.589413 h -0.589413 z m -0.589414,0 h 0.589414 v 0.589413 h -0.589414 z m -0.589393,0 h 0.589414 v 0.589413 h -0.589414 z m -1.178826,0 h 0.589413 v 0.589413 h -0.589413 z m -0.589413,0 h 0.589413 v 0.589413 h -0.589413 z m -3.53646,0 h 0.589414 v 0.589413 h -0.589414 z m -0.589413,0 h 0.589413 v 0.589413 h -0.589413 z m 7.662332,-0.589414 h 0.589413 v 0.589414 h -0.589413 z m -0.589413,0 h 0.589413 v 0.589414 h -0.589413 z m -0.589414,0 h 0.589414 v 0.589414 h -0.589414 z m -0.589393,0 h 0.589414 v 0.589414 h -0.589414 z m -5.304699,0 h 0.589414 v 0.589414 h -0.589414 z m -0.589413,0 h 0.589413 v 0.589414 h -0.589413 z m 7.072919,-0.589412 h 0.589413 v 0.589412 h -0.589413 z m -1.178807,0 h 0.589414 v 0.589412 h -0.589414 z m -1.178826,0 h 0.589413 v 0.589412 h -0.589413 z m -1.178827,0 h 0.589414 v 0.589412 h -0.589414 z m -1.178826,0 h 0.589413 v 0.589412 h -0.589413 z m -1.178806,0 h 0.589413 v 0.589412 h -0.589413 z m -1.178827,0 h 0.589413 v 0.589412 h -0.589413 z m 5.304699,0.589412 h 0.589413 v 0.589414 h -0.589413 z m -1.178826,0 h 0.589413 v 0.589414 h -0.589413 z"
         style="font-weight:bold;font-size:12.275px;line-height:1.25;font-family:'Sero Pro';-inkscape-font-specification:'Sero Pro Bold';fill:#000080;fill-opacity:1;stroke-width:0.0578802"
         id="rect260-8" />
    </g>
  </g>
</svg>
